%TF.GenerationSoftware,KiCad,Pcbnew,8.0.5*%
%TF.CreationDate,2024-09-12T21:57:33+02:00*%
%TF.ProjectId,Ruler_IPRL_KiCad,52756c65-725f-4495-9052-4c5f4b694361,rev?*%
%TF.SameCoordinates,Original*%
%TF.FileFunction,Drillmap*%
%TF.FilePolarity,Positive*%
%FSLAX45Y45*%
G04 Gerber Fmt 4.5, Leading zero omitted, Abs format (unit mm)*
G04 Created by KiCad (PCBNEW 8.0.5) date 2024-09-12 21:57:33*
%MOMM*%
%LPD*%
G01*
G04 APERTURE LIST*
%ADD10C,0.100000*%
%ADD11C,0.200000*%
G04 APERTURE END LIST*
D10*
X7500000Y-8500000D02*
X23000000Y-8500000D01*
X23000000Y-11500000D01*
X7500000Y-11500000D01*
X7500000Y-8500000D01*
D11*
X7755777Y-11816484D02*
X7755777Y-11616484D01*
X7755777Y-11616484D02*
X7803396Y-11616484D01*
X7803396Y-11616484D02*
X7831967Y-11626008D01*
X7831967Y-11626008D02*
X7851015Y-11645055D01*
X7851015Y-11645055D02*
X7860539Y-11664103D01*
X7860539Y-11664103D02*
X7870062Y-11702198D01*
X7870062Y-11702198D02*
X7870062Y-11730769D01*
X7870062Y-11730769D02*
X7860539Y-11768865D01*
X7860539Y-11768865D02*
X7851015Y-11787912D01*
X7851015Y-11787912D02*
X7831967Y-11806960D01*
X7831967Y-11806960D02*
X7803396Y-11816484D01*
X7803396Y-11816484D02*
X7755777Y-11816484D01*
X7955777Y-11816484D02*
X7955777Y-11683150D01*
X7955777Y-11721246D02*
X7965301Y-11702198D01*
X7965301Y-11702198D02*
X7974824Y-11692674D01*
X7974824Y-11692674D02*
X7993872Y-11683150D01*
X7993872Y-11683150D02*
X8012920Y-11683150D01*
X8079586Y-11816484D02*
X8079586Y-11683150D01*
X8079586Y-11616484D02*
X8070062Y-11626008D01*
X8070062Y-11626008D02*
X8079586Y-11635531D01*
X8079586Y-11635531D02*
X8089110Y-11626008D01*
X8089110Y-11626008D02*
X8079586Y-11616484D01*
X8079586Y-11616484D02*
X8079586Y-11635531D01*
X8203396Y-11816484D02*
X8184348Y-11806960D01*
X8184348Y-11806960D02*
X8174824Y-11787912D01*
X8174824Y-11787912D02*
X8174824Y-11616484D01*
X8308158Y-11816484D02*
X8289110Y-11806960D01*
X8289110Y-11806960D02*
X8279586Y-11787912D01*
X8279586Y-11787912D02*
X8279586Y-11616484D01*
X8536729Y-11816484D02*
X8536729Y-11616484D01*
X8536729Y-11616484D02*
X8603396Y-11759341D01*
X8603396Y-11759341D02*
X8670063Y-11616484D01*
X8670063Y-11616484D02*
X8670063Y-11816484D01*
X8851015Y-11816484D02*
X8851015Y-11711722D01*
X8851015Y-11711722D02*
X8841491Y-11692674D01*
X8841491Y-11692674D02*
X8822444Y-11683150D01*
X8822444Y-11683150D02*
X8784348Y-11683150D01*
X8784348Y-11683150D02*
X8765301Y-11692674D01*
X8851015Y-11806960D02*
X8831967Y-11816484D01*
X8831967Y-11816484D02*
X8784348Y-11816484D01*
X8784348Y-11816484D02*
X8765301Y-11806960D01*
X8765301Y-11806960D02*
X8755777Y-11787912D01*
X8755777Y-11787912D02*
X8755777Y-11768865D01*
X8755777Y-11768865D02*
X8765301Y-11749817D01*
X8765301Y-11749817D02*
X8784348Y-11740293D01*
X8784348Y-11740293D02*
X8831967Y-11740293D01*
X8831967Y-11740293D02*
X8851015Y-11730769D01*
X8946253Y-11683150D02*
X8946253Y-11883150D01*
X8946253Y-11692674D02*
X8965301Y-11683150D01*
X8965301Y-11683150D02*
X9003396Y-11683150D01*
X9003396Y-11683150D02*
X9022444Y-11692674D01*
X9022444Y-11692674D02*
X9031967Y-11702198D01*
X9031967Y-11702198D02*
X9041491Y-11721246D01*
X9041491Y-11721246D02*
X9041491Y-11778388D01*
X9041491Y-11778388D02*
X9031967Y-11797436D01*
X9031967Y-11797436D02*
X9022444Y-11806960D01*
X9022444Y-11806960D02*
X9003396Y-11816484D01*
X9003396Y-11816484D02*
X8965301Y-11816484D01*
X8965301Y-11816484D02*
X8946253Y-11806960D01*
X9127205Y-11797436D02*
X9136729Y-11806960D01*
X9136729Y-11806960D02*
X9127205Y-11816484D01*
X9127205Y-11816484D02*
X9117682Y-11806960D01*
X9117682Y-11806960D02*
X9127205Y-11797436D01*
X9127205Y-11797436D02*
X9127205Y-11816484D01*
X9127205Y-11692674D02*
X9136729Y-11702198D01*
X9136729Y-11702198D02*
X9127205Y-11711722D01*
X9127205Y-11711722D02*
X9117682Y-11702198D01*
X9117682Y-11702198D02*
X9127205Y-11692674D01*
X9127205Y-11692674D02*
X9127205Y-11711722D01*
M02*
