G04 #@! TF.GenerationSoftware,KiCad,Pcbnew,8.0.5*
G04 #@! TF.CreationDate,2024-09-12T21:57:31+02:00*
G04 #@! TF.ProjectId,Ruler_IPRL_KiCad,52756c65-725f-4495-9052-4c5f4b694361,rev?*
G04 #@! TF.SameCoordinates,Original*
G04 #@! TF.FileFunction,Copper,L1,Top*
G04 #@! TF.FilePolarity,Positive*
%FSLAX46Y46*%
G04 Gerber Fmt 4.6, Leading zero omitted, Abs format (unit mm)*
G04 Created by KiCad (PCBNEW 8.0.5) date 2024-09-12 21:57:31*
%MOMM*%
%LPD*%
G01*
G04 APERTURE LIST*
G04 Aperture macros list*
%AMRoundRect*
0 Rectangle with rounded corners*
0 $1 Rounding radius*
0 $2 $3 $4 $5 $6 $7 $8 $9 X,Y pos of 4 corners*
0 Add a 4 corners polygon primitive as box body*
4,1,4,$2,$3,$4,$5,$6,$7,$8,$9,$2,$3,0*
0 Add four circle primitives for the rounded corners*
1,1,$1+$1,$2,$3*
1,1,$1+$1,$4,$5*
1,1,$1+$1,$6,$7*
1,1,$1+$1,$8,$9*
0 Add four rect primitives between the rounded corners*
20,1,$1+$1,$2,$3,$4,$5,0*
20,1,$1+$1,$4,$5,$6,$7,0*
20,1,$1+$1,$6,$7,$8,$9,0*
20,1,$1+$1,$8,$9,$2,$3,0*%
G04 Aperture macros list end*
G04 #@! TA.AperFunction,Conductor*
%ADD10C,0.100000*%
G04 #@! TD*
G04 #@! TA.AperFunction,EtchedComponent*
%ADD11C,0.381000*%
G04 #@! TD*
G04 #@! TA.AperFunction,ComponentPad*
%ADD12R,0.850000X0.850000*%
G04 #@! TD*
G04 #@! TA.AperFunction,ComponentPad*
%ADD13O,0.850000X0.850000*%
G04 #@! TD*
G04 #@! TA.AperFunction,SMDPad,CuDef*
%ADD14RoundRect,0.135000X0.135000X0.185000X-0.135000X0.185000X-0.135000X-0.185000X0.135000X-0.185000X0*%
G04 #@! TD*
G04 #@! TA.AperFunction,SMDPad,CuDef*
%ADD15RoundRect,0.147500X0.147500X0.172500X-0.147500X0.172500X-0.147500X-0.172500X0.147500X-0.172500X0*%
G04 #@! TD*
G04 #@! TA.AperFunction,ComponentPad*
%ADD16R,1.000000X1.000000*%
G04 #@! TD*
G04 #@! TA.AperFunction,ComponentPad*
%ADD17O,1.000000X1.000000*%
G04 #@! TD*
G04 #@! TA.AperFunction,ComponentPad*
%ADD18C,7.500000*%
G04 #@! TD*
G04 #@! TA.AperFunction,ComponentPad*
%ADD19C,11.000000*%
G04 #@! TD*
G04 #@! TA.AperFunction,ComponentPad*
%ADD20C,4.700000*%
G04 #@! TD*
G04 #@! TA.AperFunction,SMDPad,CuDef*
%ADD21RoundRect,0.140000X-0.170000X0.140000X-0.170000X-0.140000X0.170000X-0.140000X0.170000X0.140000X0*%
G04 #@! TD*
G04 #@! TA.AperFunction,SMDPad,CuDef*
%ADD22RoundRect,0.135000X0.185000X-0.135000X0.185000X0.135000X-0.185000X0.135000X-0.185000X-0.135000X0*%
G04 #@! TD*
G04 #@! TA.AperFunction,ComponentPad*
%ADD23C,3.800000*%
G04 #@! TD*
G04 #@! TA.AperFunction,SMDPad,CuDef*
%ADD24RoundRect,0.175000X-0.425000X0.175000X-0.425000X-0.175000X0.425000X-0.175000X0.425000X0.175000X0*%
G04 #@! TD*
G04 #@! TA.AperFunction,SMDPad,CuDef*
%ADD25RoundRect,0.190000X0.410000X-0.190000X0.410000X0.190000X-0.410000X0.190000X-0.410000X-0.190000X0*%
G04 #@! TD*
G04 #@! TA.AperFunction,SMDPad,CuDef*
%ADD26RoundRect,0.200000X0.400000X-0.200000X0.400000X0.200000X-0.400000X0.200000X-0.400000X-0.200000X0*%
G04 #@! TD*
G04 #@! TA.AperFunction,SMDPad,CuDef*
%ADD27RoundRect,0.175000X0.425000X-0.175000X0.425000X0.175000X-0.425000X0.175000X-0.425000X-0.175000X0*%
G04 #@! TD*
G04 #@! TA.AperFunction,SMDPad,CuDef*
%ADD28RoundRect,0.190000X-0.410000X0.190000X-0.410000X-0.190000X0.410000X-0.190000X0.410000X0.190000X0*%
G04 #@! TD*
G04 #@! TA.AperFunction,SMDPad,CuDef*
%ADD29RoundRect,0.200000X-0.400000X0.200000X-0.400000X-0.200000X0.400000X-0.200000X0.400000X0.200000X0*%
G04 #@! TD*
G04 #@! TA.AperFunction,SMDPad,CuDef*
%ADD30RoundRect,0.250000X-0.425000X0.650000X-0.425000X-0.650000X0.425000X-0.650000X0.425000X0.650000X0*%
G04 #@! TD*
G04 #@! TA.AperFunction,SMDPad,CuDef*
%ADD31RoundRect,0.250000X-0.500000X0.650000X-0.500000X-0.650000X0.500000X-0.650000X0.500000X0.650000X0*%
G04 #@! TD*
G04 #@! TA.AperFunction,SMDPad,CuDef*
%ADD32RoundRect,0.147500X-0.172500X0.147500X-0.172500X-0.147500X0.172500X-0.147500X0.172500X0.147500X0*%
G04 #@! TD*
G04 #@! TA.AperFunction,ComponentPad*
%ADD33R,1.350000X1.350000*%
G04 #@! TD*
G04 #@! TA.AperFunction,ComponentPad*
%ADD34O,1.350000X1.350000*%
G04 #@! TD*
G04 #@! TA.AperFunction,ComponentPad*
%ADD35C,5.600000*%
G04 #@! TD*
G04 #@! TA.AperFunction,ComponentPad*
%ADD36R,1.700000X1.700000*%
G04 #@! TD*
G04 #@! TA.AperFunction,ComponentPad*
%ADD37O,1.700000X1.700000*%
G04 #@! TD*
G04 #@! TA.AperFunction,ComponentPad*
%ADD38C,9.200000*%
G04 #@! TD*
G04 #@! TA.AperFunction,SMDPad,CuDef*
%ADD39RoundRect,0.150000X0.850000X0.150000X-0.850000X0.150000X-0.850000X-0.150000X0.850000X-0.150000X0*%
G04 #@! TD*
G04 #@! TA.AperFunction,SMDPad,CuDef*
%ADD40RoundRect,0.150000X0.150000X-0.825000X0.150000X0.825000X-0.150000X0.825000X-0.150000X-0.825000X0*%
G04 #@! TD*
G04 #@! TA.AperFunction,Conductor*
%ADD41C,0.250000*%
G04 #@! TD*
G04 #@! TA.AperFunction,Conductor*
%ADD42C,0.200000*%
G04 #@! TD*
G04 APERTURE END LIST*
D10*
X75000000Y-85000000D02*
X230000000Y-85000000D01*
X230000000Y-115000000D01*
X75000000Y-115000000D01*
X75000000Y-85000000D01*
G04 #@! TA.AperFunction,Conductor*
G36*
X128995000Y-85000000D02*
G01*
X230000000Y-85000000D01*
X230000000Y-115000000D01*
X128995000Y-115000000D01*
X128995000Y-85000000D01*
G37*
G04 #@! TD.AperFunction*
D11*
X75000000Y-85000000D02*
X75000000Y-89000000D01*
X76000760Y-85000000D02*
X76000000Y-87000000D01*
X76998980Y-85000000D02*
X77000000Y-87000000D01*
X77999740Y-85000000D02*
X77999740Y-87000000D01*
X79000500Y-85000000D02*
X79000000Y-87000000D01*
X80001260Y-85000000D02*
X80001260Y-88000000D01*
X80999480Y-85000000D02*
X80999480Y-87000000D01*
X82000240Y-85000000D02*
X82000240Y-87000000D01*
X83001000Y-85000000D02*
X83000000Y-87000000D01*
X83999220Y-85000000D02*
X83999220Y-87000000D01*
X84999980Y-85000000D02*
X85000000Y-89000000D01*
X86000760Y-85000000D02*
X86000000Y-87000000D01*
X86998980Y-85000000D02*
X87000000Y-87000000D01*
X87999740Y-85000000D02*
X87999740Y-87000000D01*
X89000500Y-85000000D02*
X89000000Y-87000000D01*
X90001260Y-85000000D02*
X90001260Y-88000000D01*
X90999480Y-85000000D02*
X90999480Y-87000000D01*
X92000240Y-85000000D02*
X92000240Y-87000000D01*
X93001000Y-85000000D02*
X93000000Y-87000000D01*
X93999220Y-85000000D02*
X93999220Y-87000000D01*
X94999980Y-85000000D02*
X95000000Y-89000000D01*
X96000760Y-85000000D02*
X96000000Y-87000000D01*
X96998980Y-85000000D02*
X97000000Y-87000000D01*
X97999740Y-85000000D02*
X97999740Y-87000000D01*
X99000500Y-85000000D02*
X99000000Y-87000000D01*
X100001260Y-85000000D02*
X100001260Y-88000000D01*
X100999480Y-85000000D02*
X100999480Y-87000000D01*
X102000240Y-85000000D02*
X102000240Y-87000000D01*
X103001000Y-85000000D02*
X103000000Y-87000000D01*
X103999220Y-85000000D02*
X103999220Y-87000000D01*
X104999980Y-85000000D02*
X105000000Y-89000000D01*
X106000760Y-85000000D02*
X106000000Y-87000000D01*
X106998980Y-85000000D02*
X107000000Y-87000000D01*
X107999740Y-85000000D02*
X107999740Y-87000000D01*
X109000500Y-85000000D02*
X109000000Y-87000000D01*
X110001260Y-85000000D02*
X110001260Y-88000000D01*
X110999480Y-85000000D02*
X110999480Y-87000000D01*
X112000240Y-85000000D02*
X112000240Y-87000000D01*
X113001000Y-85000000D02*
X113000000Y-87000000D01*
X113999220Y-85000000D02*
X113999220Y-87000000D01*
X114999980Y-85000000D02*
X115000000Y-89000000D01*
X116000760Y-85000000D02*
X116000000Y-87000000D01*
X116998980Y-85000000D02*
X117000000Y-87000000D01*
X117999740Y-85000000D02*
X117999740Y-87000000D01*
X119000500Y-85000000D02*
X119000000Y-87000000D01*
X120001260Y-85000000D02*
X120001260Y-88000000D01*
X120999480Y-85000000D02*
X120999480Y-87000000D01*
X122000240Y-85000000D02*
X122000240Y-87000000D01*
X123001000Y-85000000D02*
X123000000Y-87000000D01*
X123999220Y-85000000D02*
X123999220Y-87000000D01*
X124999980Y-85000000D02*
X125000000Y-89000000D01*
X126000760Y-85000000D02*
X126000000Y-87000000D01*
X126998980Y-85000000D02*
X127000000Y-87000000D01*
X127999740Y-85000000D02*
X127999740Y-87000000D01*
X129000500Y-85000000D02*
X129000000Y-87000000D01*
X130001260Y-85000000D02*
X130001260Y-88000000D01*
X130999480Y-85000000D02*
X130999480Y-87000000D01*
X132000240Y-85000000D02*
X132000240Y-87000000D01*
X133001000Y-85000000D02*
X133000000Y-87000000D01*
X133999220Y-85000000D02*
X133999220Y-87000000D01*
X134999980Y-85000000D02*
X135000000Y-89000000D01*
X136000760Y-85000000D02*
X136000000Y-87000000D01*
X136998980Y-85000000D02*
X137000000Y-87000000D01*
X137999740Y-85000000D02*
X137999740Y-87000000D01*
X139000500Y-85000000D02*
X139000000Y-87000000D01*
X140001260Y-85000000D02*
X140001260Y-88000000D01*
X140999480Y-85000000D02*
X140999480Y-87000000D01*
X142000240Y-85000000D02*
X142000240Y-87000000D01*
X143001000Y-85000000D02*
X143000000Y-87000000D01*
X143999220Y-85000000D02*
X143999220Y-87000000D01*
X144999980Y-85000000D02*
X145000000Y-89000000D01*
X146000760Y-85000000D02*
X146000000Y-87000000D01*
X146998980Y-85000000D02*
X147000000Y-87000000D01*
X147999740Y-85000000D02*
X147999740Y-87000000D01*
X149000500Y-85000000D02*
X149000000Y-87000000D01*
X150001260Y-85000000D02*
X150001260Y-88000000D01*
X150999480Y-85000000D02*
X150999480Y-87000000D01*
X152000240Y-85000000D02*
X152000240Y-87000000D01*
X153001000Y-85000000D02*
X153000000Y-87000000D01*
X153999220Y-85000000D02*
X153999220Y-87000000D01*
X154999980Y-85000000D02*
X155000000Y-89000000D01*
X156000760Y-85000000D02*
X156000000Y-87000000D01*
X156998980Y-85000000D02*
X157000000Y-87000000D01*
X157999740Y-85000000D02*
X157999740Y-87000000D01*
X159000500Y-85000000D02*
X159000000Y-87000000D01*
X160001260Y-85000000D02*
X160001260Y-88000000D01*
X160999480Y-85000000D02*
X160999480Y-87000000D01*
X162000240Y-85000000D02*
X162000240Y-87000000D01*
X163001000Y-85000000D02*
X163000000Y-87000000D01*
X163999220Y-85000000D02*
X163999220Y-87000000D01*
X164999980Y-85000000D02*
X165000000Y-89000000D01*
X166000760Y-85000000D02*
X166000000Y-87000000D01*
X166998980Y-85000000D02*
X167000000Y-87000000D01*
X167999740Y-85000000D02*
X167999740Y-87000000D01*
X169000500Y-85000000D02*
X169000000Y-87000000D01*
X170001260Y-85000000D02*
X170001260Y-88000000D01*
X170999480Y-85000000D02*
X170999480Y-87000000D01*
X172000240Y-85000000D02*
X172000240Y-87000000D01*
X173001000Y-85000000D02*
X173000000Y-87000000D01*
X173999220Y-85000000D02*
X173999220Y-87000000D01*
X174999980Y-85000000D02*
X175000000Y-89000000D01*
X176000760Y-85000000D02*
X176000000Y-87000000D01*
X176998980Y-85000000D02*
X177000000Y-87000000D01*
X177999740Y-85000000D02*
X177999740Y-87000000D01*
X179000500Y-85000000D02*
X179000000Y-87000000D01*
X180001260Y-85000000D02*
X180001260Y-88000000D01*
X180999480Y-85000000D02*
X180999480Y-87000000D01*
X182000240Y-85000000D02*
X182000240Y-87000000D01*
X183001000Y-85000000D02*
X183000000Y-87000000D01*
X183999220Y-85000000D02*
X183999220Y-87000000D01*
X184999980Y-85000000D02*
X185000000Y-89000000D01*
X186000760Y-85000000D02*
X186000000Y-87000000D01*
X186998980Y-85000000D02*
X187000000Y-87000000D01*
X187999740Y-85000000D02*
X187999740Y-87000000D01*
X189000500Y-85000000D02*
X189000000Y-87000000D01*
X190001260Y-85000000D02*
X190001260Y-88000000D01*
X190999480Y-85000000D02*
X190999480Y-87000000D01*
X192000240Y-85000000D02*
X192000240Y-87000000D01*
X193001000Y-85000000D02*
X193000000Y-87000000D01*
X193999220Y-85000000D02*
X193999220Y-87000000D01*
X194999980Y-85000000D02*
X195000000Y-89000000D01*
X196000760Y-85000000D02*
X196000000Y-87000000D01*
X196998980Y-85000000D02*
X197000000Y-87000000D01*
X197999740Y-85000000D02*
X197999740Y-87000000D01*
X199000500Y-85000000D02*
X199000000Y-87000000D01*
X200001260Y-85000000D02*
X200001260Y-88000000D01*
X200999480Y-85000000D02*
X200999480Y-87000000D01*
X202000240Y-85000000D02*
X202000240Y-87000000D01*
X203001000Y-85000000D02*
X203000000Y-87000000D01*
X203999220Y-85000000D02*
X203999220Y-87000000D01*
X204999980Y-85000000D02*
X205000000Y-89000000D01*
X206000760Y-85000000D02*
X206000000Y-87000000D01*
X206998980Y-85000000D02*
X207000000Y-87000000D01*
X207999740Y-85000000D02*
X207999740Y-87000000D01*
X209000500Y-85000000D02*
X209000000Y-87000000D01*
X210001260Y-85000000D02*
X210001260Y-88000000D01*
X210999480Y-85000000D02*
X210999480Y-87000000D01*
X212000240Y-85000000D02*
X212000240Y-87000000D01*
X213001000Y-85000000D02*
X213000000Y-87000000D01*
X213999220Y-85000000D02*
X213999220Y-87000000D01*
X214999980Y-85000000D02*
X215000000Y-89000000D01*
X216000760Y-85000000D02*
X216000000Y-87000000D01*
X216998980Y-85000000D02*
X217000000Y-87000000D01*
X217999740Y-85000000D02*
X217999740Y-87000000D01*
X219000500Y-85000000D02*
X219000000Y-87000000D01*
X220001260Y-85000000D02*
X220001260Y-88000000D01*
X220999480Y-85000000D02*
X220999480Y-87000000D01*
X222000240Y-85000000D02*
X222000240Y-87000000D01*
X223001000Y-85000000D02*
X223000000Y-87000000D01*
X223999220Y-85000000D02*
X223999220Y-87000000D01*
X224999980Y-85000000D02*
X225000000Y-89000000D01*
X226000360Y-85000000D02*
X225999600Y-87000000D01*
X226998580Y-85000000D02*
X226999600Y-87000000D01*
X227999340Y-85000000D02*
X227999340Y-87000000D01*
X229000100Y-85000000D02*
X228999600Y-87000000D01*
X230000000Y-85000000D02*
X230000000Y-88000000D01*
X77600000Y-115000000D02*
X77600000Y-111190000D01*
X78870000Y-113095000D02*
X78870000Y-115000000D01*
X80140000Y-113095000D02*
X80140000Y-115000000D01*
X81410000Y-113095000D02*
X81410000Y-115000000D01*
X82680000Y-115000000D02*
X82680000Y-113095000D01*
X83950000Y-115000000D02*
X83950000Y-112460000D01*
X85220000Y-113095000D02*
X85220000Y-115000000D01*
X86490000Y-113095000D02*
X86490000Y-115000000D01*
X87760000Y-113095000D02*
X87760000Y-115000000D01*
X89030000Y-115000000D02*
X89030000Y-113095000D01*
X90300000Y-115000000D02*
X90300000Y-112460000D01*
X91570000Y-113095000D02*
X91570000Y-115000000D01*
X92840000Y-113095000D02*
X92840000Y-115000000D01*
X94110000Y-113095000D02*
X94110000Y-115000000D01*
X95380000Y-115000000D02*
X95380000Y-113095000D01*
X96650000Y-115000000D02*
X96650000Y-112460000D01*
X97920000Y-113095000D02*
X97920000Y-115000000D01*
X99190000Y-113095000D02*
X99190000Y-115000000D01*
X100460000Y-113095000D02*
X100460000Y-115000000D01*
X101730000Y-115000000D02*
X101730000Y-113095000D01*
X103000000Y-115000000D02*
X103000000Y-111190000D01*
X104270000Y-113095000D02*
X104270000Y-115000000D01*
X105540000Y-113095000D02*
X105540000Y-115000000D01*
X106810000Y-113095000D02*
X106810000Y-115000000D01*
X108080000Y-115000000D02*
X108080000Y-113095000D01*
X109350000Y-115000000D02*
X109350000Y-112460000D01*
X110620000Y-113095000D02*
X110620000Y-115000000D01*
X111890000Y-113095000D02*
X111890000Y-115000000D01*
X113160000Y-113095000D02*
X113160000Y-115000000D01*
X114430000Y-115000000D02*
X114430000Y-113095000D01*
X115700000Y-115000000D02*
X115700000Y-112460000D01*
X116970000Y-113095000D02*
X116970000Y-115000000D01*
X118240000Y-113095000D02*
X118240000Y-115000000D01*
X119510000Y-113095000D02*
X119510000Y-115000000D01*
X120780000Y-115000000D02*
X120780000Y-113095000D01*
X122050000Y-115000000D02*
X122050000Y-112460000D01*
X123320000Y-113095000D02*
X123320000Y-115000000D01*
X124590000Y-113095000D02*
X124590000Y-115000000D01*
X125860000Y-113095000D02*
X125860000Y-115000000D01*
X127130000Y-115000000D02*
X127130000Y-113095000D01*
X128400000Y-115000000D02*
X128400000Y-111190000D01*
X129670000Y-113095000D02*
X129670000Y-115000000D01*
X130940000Y-113095000D02*
X130940000Y-115000000D01*
X132210000Y-113095000D02*
X132210000Y-115000000D01*
X133480000Y-115000000D02*
X133480000Y-113095000D01*
X134750000Y-115000000D02*
X134750000Y-112460000D01*
X136020000Y-113095000D02*
X136020000Y-115000000D01*
X137290000Y-113095000D02*
X137290000Y-115000000D01*
X138560000Y-113095000D02*
X138560000Y-115000000D01*
X139830000Y-115000000D02*
X139830000Y-113095000D01*
X141100000Y-115000000D02*
X141100000Y-112460000D01*
X142370000Y-113095000D02*
X142370000Y-115000000D01*
X143640000Y-113095000D02*
X143640000Y-115000000D01*
X144910000Y-113095000D02*
X144910000Y-115000000D01*
X146180000Y-115000000D02*
X146180000Y-113095000D01*
X147450000Y-115000000D02*
X147450000Y-112460000D01*
X148720000Y-113095000D02*
X148720000Y-115000000D01*
X149990000Y-113095000D02*
X149990000Y-115000000D01*
X151260000Y-113095000D02*
X151260000Y-115000000D01*
X152530000Y-115000000D02*
X152530000Y-113095000D01*
X153800000Y-115000000D02*
X153800000Y-111190000D01*
X155070000Y-113095000D02*
X155070000Y-115000000D01*
X156340000Y-113095000D02*
X156340000Y-115000000D01*
X157610000Y-113095000D02*
X157610000Y-115000000D01*
X158880000Y-115000000D02*
X158880000Y-113095000D01*
X160150000Y-115000000D02*
X160150000Y-112460000D01*
X161420000Y-113095000D02*
X161420000Y-115000000D01*
X162690000Y-113095000D02*
X162690000Y-115000000D01*
X163960000Y-113095000D02*
X163960000Y-115000000D01*
X165230000Y-115000000D02*
X165230000Y-113095000D01*
X166500000Y-115000000D02*
X166500000Y-112460000D01*
X167770000Y-113095000D02*
X167770000Y-115000000D01*
X169040000Y-113095000D02*
X169040000Y-115000000D01*
X170310000Y-113095000D02*
X170310000Y-115000000D01*
X171580000Y-115000000D02*
X171580000Y-113095000D01*
X172850000Y-115000000D02*
X172850000Y-112460000D01*
X174120000Y-113095000D02*
X174120000Y-115000000D01*
X175390000Y-113095000D02*
X175390000Y-115000000D01*
X176660000Y-113095000D02*
X176660000Y-115000000D01*
X177930000Y-115000000D02*
X177930000Y-113095000D01*
X179200000Y-115000000D02*
X179200000Y-111190000D01*
X180470000Y-113095000D02*
X180470000Y-115000000D01*
X181740000Y-113095000D02*
X181740000Y-115000000D01*
X183010000Y-113095000D02*
X183010000Y-115000000D01*
X184280000Y-115000000D02*
X184280000Y-113095000D01*
X185550000Y-115000000D02*
X185550000Y-112460000D01*
X186820000Y-113095000D02*
X186820000Y-115000000D01*
X188090000Y-113095000D02*
X188090000Y-115000000D01*
X189360000Y-113095000D02*
X189360000Y-115000000D01*
X190630000Y-115000000D02*
X190630000Y-113095000D01*
X191900000Y-115000000D02*
X191900000Y-112460000D01*
X193170000Y-113095000D02*
X193170000Y-115000000D01*
X194440000Y-113095000D02*
X194440000Y-115000000D01*
X195710000Y-113095000D02*
X195710000Y-115000000D01*
X196980000Y-115000000D02*
X196980000Y-113095000D01*
X198250000Y-115000000D02*
X198250000Y-112460000D01*
X199520000Y-113095000D02*
X199520000Y-115000000D01*
X200790000Y-113095000D02*
X200790000Y-115000000D01*
X202060000Y-113095000D02*
X202060000Y-115000000D01*
X203330000Y-115000000D02*
X203330000Y-113095000D01*
X204600000Y-115000000D02*
X204600000Y-111190000D01*
X205870000Y-113095000D02*
X205870000Y-115000000D01*
X207140000Y-113095000D02*
X207140000Y-115000000D01*
X208410000Y-113095000D02*
X208410000Y-115000000D01*
X209680000Y-115000000D02*
X209680000Y-113095000D01*
X210950000Y-115000000D02*
X210950000Y-112460000D01*
X212220000Y-113095000D02*
X212220000Y-115000000D01*
X213490000Y-113095000D02*
X213490000Y-115000000D01*
X214760000Y-113095000D02*
X214760000Y-115000000D01*
X216030000Y-115000000D02*
X216030000Y-113095000D01*
X217300000Y-115000000D02*
X217300000Y-112460000D01*
X218570000Y-113095000D02*
X218570000Y-115000000D01*
X219840000Y-113095000D02*
X219840000Y-115000000D01*
X221110000Y-113095000D02*
X221110000Y-115000000D01*
X222380000Y-115000000D02*
X222380000Y-113095000D01*
X223650000Y-115000000D02*
X223650000Y-112460000D01*
X224920000Y-113095000D02*
X224920000Y-115000000D01*
X226190000Y-113095000D02*
X226190000Y-115000000D01*
X227460000Y-113095000D02*
X227460000Y-115000000D01*
X228730000Y-115000000D02*
X228730000Y-113095000D01*
X230000000Y-115000000D02*
X230000000Y-111190000D01*
D12*
X136000000Y-93010000D03*
D13*
X137000000Y-93010000D03*
X138000000Y-93010000D03*
X139000000Y-93010000D03*
D14*
X118622000Y-89027000D03*
X117602000Y-89027000D03*
D15*
X96266000Y-95250000D03*
X95296000Y-95250000D03*
X109047000Y-89662000D03*
X108077000Y-89662000D03*
D16*
X135020000Y-95740000D03*
D17*
X136290000Y-95740000D03*
X137560000Y-95740000D03*
X138830000Y-95740000D03*
D18*
X183050000Y-95650000D03*
D19*
X207675000Y-95625000D03*
D20*
X192730000Y-107542500D03*
D21*
X83947000Y-95123000D03*
X83947000Y-96083000D03*
D15*
X109728000Y-94361000D03*
X108758000Y-94361000D03*
D22*
X83947000Y-93857000D03*
X83947000Y-92837000D03*
D15*
X98552000Y-91948000D03*
X97582000Y-91948000D03*
X119634000Y-101092000D03*
X118664000Y-101092000D03*
D23*
X202660000Y-107500000D03*
D19*
X224300000Y-95625000D03*
D15*
X115316000Y-100330000D03*
X114346000Y-100330000D03*
X92029000Y-96266000D03*
X91059000Y-96266000D03*
D24*
X81532500Y-99404000D03*
D25*
X81532500Y-101424000D03*
D26*
X81532500Y-102654000D03*
D27*
X81532500Y-100404000D03*
D28*
X81532500Y-98384000D03*
D29*
X81532500Y-97154000D03*
D30*
X81477500Y-94779000D03*
D31*
X77897500Y-94779000D03*
D30*
X81477500Y-105029000D03*
D31*
X77897500Y-105029000D03*
D15*
X117221000Y-107315000D03*
X116251000Y-107315000D03*
D32*
X101473000Y-89027000D03*
X101473000Y-89997000D03*
D33*
X132600000Y-98870000D03*
D34*
X134600000Y-98870000D03*
X136600000Y-98870000D03*
X138600000Y-98870000D03*
D35*
X182470000Y-107500000D03*
D36*
X130900000Y-102220000D03*
D37*
X133440000Y-102220000D03*
X135980000Y-102220000D03*
X138520000Y-102220000D03*
D15*
X105918000Y-91186000D03*
X104948000Y-91186000D03*
D38*
X194000000Y-95525000D03*
D39*
X89709000Y-107442000D03*
X89709000Y-106172000D03*
X89709000Y-104902000D03*
X89709000Y-103632000D03*
X89709000Y-102362000D03*
X89709000Y-101092000D03*
X89709000Y-99822000D03*
X89709000Y-98552000D03*
X84709000Y-98552000D03*
X84709000Y-99822000D03*
X84709000Y-101092000D03*
X84709000Y-102362000D03*
X84709000Y-103632000D03*
X84709000Y-104902000D03*
X84709000Y-106172000D03*
X84709000Y-107442000D03*
D22*
X83947000Y-91567000D03*
X83947000Y-90547000D03*
D40*
X85471000Y-95885000D03*
X86741000Y-95885000D03*
X88011000Y-95885000D03*
X89281000Y-95885000D03*
X89281000Y-90935000D03*
X88011000Y-90935000D03*
X86741000Y-90935000D03*
X85471000Y-90935000D03*
D41*
X85956029Y-88773000D02*
X84777029Y-89952000D01*
X81477500Y-91784459D02*
X81477500Y-94779000D01*
D42*
X86081314Y-110650000D02*
X114842948Y-110650000D01*
X85471000Y-95885000D02*
X84145000Y-95885000D01*
D41*
X90932000Y-95123000D02*
X90932000Y-89568959D01*
D42*
X83009000Y-97021000D02*
X83947000Y-96083000D01*
D41*
X90136041Y-88773000D02*
X85956029Y-88773000D01*
D42*
X84016314Y-108585000D02*
X81477500Y-106046186D01*
X114842948Y-110650000D02*
X121275000Y-104217948D01*
X84709000Y-106172000D02*
X84338448Y-106172000D01*
D41*
X118622000Y-89027000D02*
X120146000Y-90551000D01*
X89709000Y-98552000D02*
X90009000Y-98252000D01*
D42*
X120950000Y-91225000D02*
X120820000Y-91225000D01*
X86009000Y-105871999D02*
X86009000Y-103789000D01*
X85708999Y-106172000D02*
X86009000Y-105871999D01*
D41*
X83309959Y-89952000D02*
X81477500Y-91784459D01*
X118630476Y-89035476D02*
X118638952Y-89027000D01*
D42*
X81477500Y-106046186D02*
X81477500Y-105029000D01*
D41*
X90932000Y-89568959D02*
X90136041Y-88773000D01*
D42*
X86106000Y-106569001D02*
X86106000Y-108585000D01*
X84709000Y-106172000D02*
X85708999Y-106172000D01*
D41*
X90009000Y-98252000D02*
X90009000Y-96046000D01*
D42*
X86106000Y-108585000D02*
X84016314Y-108585000D01*
D41*
X90009000Y-96046000D02*
X90932000Y-95123000D01*
D42*
X84145000Y-95885000D02*
X83947000Y-96083000D01*
X85708999Y-106172000D02*
X86106000Y-106569001D01*
X120820000Y-91225000D02*
X118622000Y-89027000D01*
X84338448Y-106172000D02*
X83009000Y-104842552D01*
X83009000Y-104842552D02*
X83009000Y-97021000D01*
X81477500Y-106046186D02*
X86081314Y-110650000D01*
X85852000Y-103632000D02*
X84709000Y-103632000D01*
X86009000Y-103789000D02*
X85852000Y-103632000D01*
D41*
X84777029Y-89952000D02*
X83309959Y-89952000D01*
D42*
X121275000Y-104217948D02*
X121275000Y-91550000D01*
X121275000Y-91550000D02*
X120950000Y-91225000D01*
X83947000Y-90547000D02*
X85083000Y-90547000D01*
X90297000Y-89535000D02*
X85896001Y-89535000D01*
X81275898Y-101424000D02*
X80632500Y-100780602D01*
X80932500Y-98384000D02*
X81532500Y-98384000D01*
X82550000Y-102358852D02*
X82550000Y-106553000D01*
X80632500Y-100780602D02*
X80632500Y-98684000D01*
X83439000Y-107442000D02*
X84709000Y-107442000D01*
X82132500Y-98384000D02*
X82550000Y-97966500D01*
X85896001Y-89535000D02*
X85471000Y-89960001D01*
X82550000Y-97966500D02*
X82550000Y-91313000D01*
X80632500Y-98684000D02*
X80932500Y-98384000D01*
X81615148Y-101424000D02*
X82550000Y-102358852D01*
X81532500Y-101424000D02*
X81275898Y-101424000D01*
X82550000Y-106553000D02*
X83439000Y-107442000D01*
X81532500Y-101424000D02*
X81615148Y-101424000D01*
X85471000Y-89960001D02*
X85471000Y-90935000D01*
X82550000Y-91313000D02*
X83316000Y-90547000D01*
X89281000Y-95885000D02*
X90297000Y-94869000D01*
X90297000Y-94869000D02*
X90297000Y-89535000D01*
X85083000Y-90547000D02*
X85471000Y-90935000D01*
X81532500Y-98384000D02*
X82132500Y-98384000D01*
X83316000Y-90547000D02*
X83947000Y-90547000D01*
X83947000Y-95123000D02*
X84460000Y-94610000D01*
X88011000Y-90935000D02*
X88011000Y-91909999D01*
X83947000Y-93857000D02*
X83947000Y-95123000D01*
X84460000Y-94610000D02*
X86482000Y-94610000D01*
X86741000Y-93179999D02*
X86741000Y-95885000D01*
X86482000Y-94610000D02*
X86741000Y-94869000D01*
X88011000Y-91909999D02*
X86741000Y-93179999D01*
X86741000Y-94869000D02*
X86741000Y-95885000D01*
D41*
X96139000Y-104902000D02*
X108077000Y-92964000D01*
X89709000Y-104902000D02*
X96139000Y-104902000D01*
X108077000Y-92964000D02*
X108077000Y-89662000D01*
X89709000Y-106172000D02*
X96947000Y-106172000D01*
X96947000Y-106172000D02*
X108758000Y-94361000D01*
X104948000Y-94188000D02*
X104948000Y-91186000D01*
X89709000Y-103632000D02*
X95504000Y-103632000D01*
X95504000Y-103632000D02*
X104948000Y-94188000D01*
X89709000Y-99822000D02*
X94234000Y-99822000D01*
X95296000Y-98760000D02*
X95296000Y-95250000D01*
X94234000Y-99822000D02*
X95296000Y-98760000D01*
X118664000Y-103205000D02*
X112649000Y-109220000D01*
X85725000Y-99822000D02*
X84709000Y-99822000D01*
X87757000Y-109220000D02*
X86981000Y-108444000D01*
X112649000Y-109220000D02*
X87757000Y-109220000D01*
X86981000Y-108444000D02*
X86981000Y-101078000D01*
X86981000Y-101078000D02*
X85725000Y-99822000D01*
X118664000Y-101092000D02*
X118664000Y-103205000D01*
X114346000Y-106253000D02*
X114346000Y-100330000D01*
X89709000Y-107442000D02*
X113157000Y-107442000D01*
X113157000Y-107442000D02*
X114346000Y-106253000D01*
X95123000Y-102362000D02*
X101473000Y-96012000D01*
X101473000Y-96012000D02*
X101473000Y-89997000D01*
X89709000Y-102362000D02*
X95123000Y-102362000D01*
X94996000Y-101092000D02*
X97582000Y-98506000D01*
X89709000Y-101092000D02*
X94996000Y-101092000D01*
X97582000Y-98506000D02*
X97582000Y-91948000D01*
X91185304Y-98751604D02*
X91185304Y-96392304D01*
X88138000Y-99187000D02*
X90749908Y-99187000D01*
X87503000Y-98552000D02*
X88138000Y-99187000D01*
X91185304Y-96392304D02*
X91059000Y-96266000D01*
X84709000Y-98552000D02*
X87503000Y-98552000D01*
X90749908Y-99187000D02*
X91185304Y-98751604D01*
X86531000Y-101914001D02*
X86531000Y-109010000D01*
X113584000Y-109982000D02*
X116251000Y-107315000D01*
X87503000Y-109982000D02*
X113584000Y-109982000D01*
X86531000Y-109010000D02*
X87503000Y-109982000D01*
X84709000Y-101092000D02*
X85708999Y-101092000D01*
X85708999Y-101092000D02*
X86531000Y-101914001D01*
D42*
X83947000Y-91567000D02*
X83947000Y-92837000D01*
X86741000Y-90935000D02*
X86741000Y-91909999D01*
X86741000Y-91909999D02*
X85813999Y-92837000D01*
X85813999Y-92837000D02*
X83947000Y-92837000D01*
X87503000Y-97536000D02*
X88011000Y-97028000D01*
X84709000Y-104902000D02*
X83709001Y-104902000D01*
X83709001Y-104902000D02*
X83409000Y-104601999D01*
X84074000Y-97536000D02*
X87503000Y-97536000D01*
X88011000Y-97028000D02*
X88011000Y-95885000D01*
X83409000Y-98201000D02*
X84074000Y-97536000D01*
X83409000Y-104601999D02*
X83409000Y-98201000D01*
G04 #@! TA.AperFunction,Conductor*
G36*
X94452032Y-87522685D02*
G01*
X94497787Y-87575489D01*
X94508993Y-87626999D01*
X94508999Y-89064641D01*
X94533216Y-89155017D01*
X94542462Y-89189521D01*
X94607104Y-89301483D01*
X94698521Y-89392900D01*
X94810483Y-89457540D01*
X94810485Y-89457540D01*
X94810486Y-89457541D01*
X94810485Y-89457541D01*
X94872922Y-89474270D01*
X94935361Y-89491000D01*
X94935364Y-89491000D01*
X95064641Y-89491000D01*
X95064643Y-89491000D01*
X95189521Y-89457538D01*
X95301483Y-89392896D01*
X95392900Y-89301479D01*
X95457540Y-89189517D01*
X95491000Y-89064639D01*
X95490999Y-88776998D01*
X100656005Y-88776998D01*
X100656007Y-88777000D01*
X101223000Y-88777000D01*
X101723000Y-88777000D01*
X102289993Y-88777000D01*
X102289994Y-88776998D01*
X102244471Y-88620307D01*
X102244469Y-88620304D01*
X102161193Y-88479491D01*
X102161187Y-88479483D01*
X102045516Y-88363812D01*
X102045508Y-88363806D01*
X101904697Y-88280531D01*
X101904692Y-88280529D01*
X101747603Y-88234890D01*
X101747591Y-88234888D01*
X101723000Y-88232952D01*
X101723000Y-88777000D01*
X101223000Y-88777000D01*
X101223000Y-88232954D01*
X101198402Y-88234889D01*
X101041307Y-88280529D01*
X101041302Y-88280531D01*
X100900491Y-88363806D01*
X100900483Y-88363812D01*
X100784812Y-88479483D01*
X100784806Y-88479491D01*
X100701530Y-88620304D01*
X100701528Y-88620307D01*
X100656005Y-88776998D01*
X95490999Y-88776998D01*
X95490993Y-87627000D01*
X95510677Y-87559961D01*
X95563481Y-87514206D01*
X95614993Y-87503000D01*
X99386260Y-87503000D01*
X99453299Y-87522685D01*
X99499054Y-87575489D01*
X99510260Y-87626999D01*
X99510260Y-88064641D01*
X99543721Y-88189519D01*
X99543722Y-88189520D01*
X99543722Y-88189521D01*
X99608359Y-88301477D01*
X99608361Y-88301480D01*
X99608362Y-88301481D01*
X99699779Y-88392898D01*
X99699780Y-88392899D01*
X99699782Y-88392900D01*
X99728112Y-88409256D01*
X99811741Y-88457539D01*
X99936619Y-88491000D01*
X99936621Y-88491000D01*
X100065898Y-88491000D01*
X100065901Y-88491000D01*
X100190779Y-88457539D01*
X100302741Y-88392898D01*
X100394158Y-88301481D01*
X100458799Y-88189519D01*
X100492260Y-88064641D01*
X100492260Y-87626999D01*
X100511945Y-87559961D01*
X100564749Y-87514206D01*
X100616260Y-87503000D01*
X104384993Y-87503000D01*
X104452032Y-87522685D01*
X104497787Y-87575489D01*
X104508993Y-87626999D01*
X104508999Y-89064641D01*
X104533216Y-89155017D01*
X104542462Y-89189521D01*
X104607104Y-89301483D01*
X104698521Y-89392900D01*
X104810483Y-89457540D01*
X104810485Y-89457540D01*
X104810486Y-89457541D01*
X104810485Y-89457541D01*
X104872922Y-89474270D01*
X104935361Y-89491000D01*
X104935364Y-89491000D01*
X105064641Y-89491000D01*
X105064643Y-89491000D01*
X105189521Y-89457538D01*
X105301483Y-89392896D01*
X105392900Y-89301479D01*
X105457540Y-89189517D01*
X105491000Y-89064639D01*
X105490993Y-87627000D01*
X105510677Y-87559961D01*
X105563481Y-87514206D01*
X105614993Y-87503000D01*
X109386260Y-87503000D01*
X109453299Y-87522685D01*
X109499054Y-87575489D01*
X109510260Y-87626999D01*
X109510260Y-88064641D01*
X109543721Y-88189519D01*
X109543722Y-88189520D01*
X109543722Y-88189521D01*
X109608359Y-88301477D01*
X109608361Y-88301480D01*
X109608362Y-88301481D01*
X109699779Y-88392898D01*
X109699780Y-88392899D01*
X109699782Y-88392900D01*
X109728112Y-88409256D01*
X109811741Y-88457539D01*
X109936619Y-88491000D01*
X109936621Y-88491000D01*
X110065898Y-88491000D01*
X110065901Y-88491000D01*
X110190779Y-88457539D01*
X110302741Y-88392898D01*
X110394158Y-88301481D01*
X110458799Y-88189519D01*
X110492260Y-88064641D01*
X110492260Y-87626999D01*
X110511945Y-87559961D01*
X110564749Y-87514206D01*
X110616260Y-87503000D01*
X114384993Y-87503000D01*
X114452032Y-87522685D01*
X114497787Y-87575489D01*
X114508993Y-87626999D01*
X114508999Y-89064641D01*
X114533216Y-89155017D01*
X114542462Y-89189521D01*
X114607104Y-89301483D01*
X114698521Y-89392900D01*
X114810483Y-89457540D01*
X114810485Y-89457540D01*
X114810486Y-89457541D01*
X114810485Y-89457541D01*
X114872922Y-89474270D01*
X114935361Y-89491000D01*
X114935364Y-89491000D01*
X115064641Y-89491000D01*
X115064643Y-89491000D01*
X115189521Y-89457538D01*
X115301483Y-89392896D01*
X115392900Y-89301479D01*
X115407033Y-89277000D01*
X116832069Y-89277000D01*
X116834832Y-89312122D01*
X116834833Y-89312128D01*
X116879592Y-89466188D01*
X116879593Y-89466191D01*
X116961261Y-89604285D01*
X116961268Y-89604294D01*
X117074705Y-89717731D01*
X117074714Y-89717738D01*
X117212805Y-89799404D01*
X117352000Y-89839844D01*
X117352000Y-89277000D01*
X116832069Y-89277000D01*
X115407033Y-89277000D01*
X115457540Y-89189517D01*
X115491000Y-89064639D01*
X115490999Y-88777000D01*
X116832069Y-88777000D01*
X117352000Y-88777000D01*
X117352000Y-88214154D01*
X117351998Y-88214153D01*
X117212811Y-88254591D01*
X117212808Y-88254593D01*
X117074714Y-88336261D01*
X117074705Y-88336268D01*
X116961268Y-88449705D01*
X116961261Y-88449714D01*
X116879593Y-88587808D01*
X116879592Y-88587811D01*
X116834833Y-88741871D01*
X116834832Y-88741877D01*
X116832069Y-88777000D01*
X115490999Y-88777000D01*
X115490993Y-87627000D01*
X115510677Y-87559961D01*
X115563481Y-87514206D01*
X115614993Y-87503000D01*
X117933891Y-87503000D01*
X118000930Y-87522685D01*
X118036619Y-87557552D01*
X118483281Y-88218253D01*
X118504519Y-88284816D01*
X118486400Y-88352295D01*
X118434675Y-88399266D01*
X118407020Y-88408843D01*
X118405129Y-88409256D01*
X118328403Y-88436103D01*
X118258624Y-88439664D01*
X118199768Y-88406742D01*
X118129294Y-88336268D01*
X118129285Y-88336261D01*
X117991191Y-88254593D01*
X117991188Y-88254591D01*
X117852001Y-88214153D01*
X117852000Y-88214154D01*
X117852000Y-89839843D01*
X117991194Y-89799404D01*
X118129285Y-89717738D01*
X118129294Y-89717731D01*
X118199767Y-89647257D01*
X118261089Y-89613771D01*
X118328402Y-89617895D01*
X118405121Y-89644741D01*
X118405120Y-89644741D01*
X118409534Y-89645154D01*
X118434543Y-89647500D01*
X118589388Y-89647499D01*
X118656428Y-89667183D01*
X118677070Y-89683818D01*
X119884736Y-90891484D01*
X119954251Y-90931618D01*
X119979930Y-90951323D01*
X120499519Y-91470912D01*
X120499520Y-91470913D01*
X120574087Y-91545480D01*
X120665413Y-91598207D01*
X120746315Y-91619884D01*
X120805974Y-91656247D01*
X120816946Y-91670206D01*
X120853227Y-91723874D01*
X120874466Y-91790435D01*
X120874500Y-91793321D01*
X120874500Y-104000692D01*
X120854815Y-104067731D01*
X120838181Y-104088373D01*
X118108669Y-106817884D01*
X118047346Y-106851369D01*
X117977654Y-106846385D01*
X117921721Y-106804513D01*
X117914256Y-106793324D01*
X117884194Y-106742492D01*
X117884187Y-106742483D01*
X117768516Y-106626812D01*
X117768508Y-106626806D01*
X117627695Y-106543530D01*
X117627692Y-106543528D01*
X117471001Y-106498005D01*
X117471000Y-106498006D01*
X117471000Y-107404193D01*
X117451315Y-107471232D01*
X117434681Y-107491874D01*
X117397874Y-107528681D01*
X117336551Y-107562166D01*
X117310193Y-107565000D01*
X117095000Y-107565000D01*
X117027961Y-107545315D01*
X116982206Y-107492511D01*
X116971000Y-107441000D01*
X116971000Y-106498006D01*
X116970998Y-106498005D01*
X116814307Y-106543528D01*
X116814304Y-106543530D01*
X116673494Y-106626804D01*
X116673488Y-106626808D01*
X116626886Y-106673410D01*
X116565562Y-106706894D01*
X116498254Y-106702769D01*
X116482738Y-106697340D01*
X116482724Y-106697337D01*
X116452467Y-106694500D01*
X116075609Y-106694500D01*
X116008570Y-106674815D01*
X115962815Y-106622011D01*
X115952871Y-106552853D01*
X115981896Y-106489297D01*
X115987914Y-106482833D01*
X119004485Y-103466263D01*
X119060503Y-103369237D01*
X119089500Y-103261018D01*
X119089500Y-103148981D01*
X119089500Y-101988585D01*
X119109185Y-101921546D01*
X119161989Y-101875791D01*
X119231147Y-101865847D01*
X119248095Y-101869509D01*
X119384000Y-101908992D01*
X119384000Y-101908991D01*
X119884000Y-101908991D01*
X120040697Y-101863468D01*
X120181508Y-101780193D01*
X120181516Y-101780187D01*
X120297187Y-101664516D01*
X120297193Y-101664508D01*
X120380468Y-101523697D01*
X120380470Y-101523692D01*
X120426109Y-101366603D01*
X120426111Y-101366591D01*
X120428047Y-101342000D01*
X119884000Y-101342000D01*
X119884000Y-101908991D01*
X119384000Y-101908991D01*
X119384000Y-100275006D01*
X119884000Y-100275006D01*
X119884000Y-100842000D01*
X120428046Y-100842000D01*
X120426110Y-100817402D01*
X120380470Y-100660307D01*
X120380468Y-100660302D01*
X120297193Y-100519491D01*
X120297187Y-100519483D01*
X120181516Y-100403812D01*
X120181508Y-100403806D01*
X120040695Y-100320530D01*
X120040692Y-100320528D01*
X119884001Y-100275005D01*
X119884000Y-100275006D01*
X119384000Y-100275006D01*
X119383998Y-100275005D01*
X119227307Y-100320528D01*
X119227304Y-100320530D01*
X119086494Y-100403804D01*
X119086488Y-100403808D01*
X119039886Y-100450410D01*
X118978562Y-100483894D01*
X118911254Y-100479769D01*
X118895738Y-100474340D01*
X118895724Y-100474337D01*
X118865467Y-100471500D01*
X118462539Y-100471500D01*
X118432275Y-100474337D01*
X118432266Y-100474339D01*
X118304800Y-100518942D01*
X118196138Y-100599138D01*
X118115943Y-100707799D01*
X118071339Y-100835266D01*
X118071337Y-100835275D01*
X118068500Y-100865532D01*
X118068500Y-101318460D01*
X118071337Y-101348724D01*
X118071337Y-101348728D01*
X118071338Y-101348729D01*
X118115943Y-101476201D01*
X118177351Y-101559406D01*
X118196139Y-101584863D01*
X118202181Y-101590905D01*
X118235666Y-101652228D01*
X118238500Y-101678586D01*
X118238500Y-102977390D01*
X118218815Y-103044429D01*
X118202181Y-103065071D01*
X114983181Y-106284071D01*
X114921858Y-106317556D01*
X114852166Y-106312572D01*
X114796233Y-106270700D01*
X114771816Y-106205236D01*
X114771500Y-106196390D01*
X114771500Y-101226585D01*
X114791185Y-101159546D01*
X114843989Y-101113791D01*
X114913147Y-101103847D01*
X114930095Y-101107509D01*
X115066000Y-101146992D01*
X115066000Y-101146991D01*
X115566000Y-101146991D01*
X115722697Y-101101468D01*
X115863508Y-101018193D01*
X115863516Y-101018187D01*
X115979187Y-100902516D01*
X115979193Y-100902508D01*
X116062468Y-100761697D01*
X116062470Y-100761692D01*
X116108109Y-100604603D01*
X116108111Y-100604591D01*
X116110047Y-100580000D01*
X115566000Y-100580000D01*
X115566000Y-101146991D01*
X115066000Y-101146991D01*
X115066000Y-99513006D01*
X115566000Y-99513006D01*
X115566000Y-100080000D01*
X116110046Y-100080000D01*
X116108110Y-100055402D01*
X116062470Y-99898307D01*
X116062468Y-99898302D01*
X115979193Y-99757491D01*
X115979187Y-99757483D01*
X115863516Y-99641812D01*
X115863508Y-99641806D01*
X115722695Y-99558530D01*
X115722692Y-99558528D01*
X115566001Y-99513005D01*
X115566000Y-99513006D01*
X115066000Y-99513006D01*
X115065998Y-99513005D01*
X114909307Y-99558528D01*
X114909304Y-99558530D01*
X114768494Y-99641804D01*
X114768488Y-99641808D01*
X114721886Y-99688410D01*
X114660562Y-99721894D01*
X114593254Y-99717769D01*
X114577738Y-99712340D01*
X114577724Y-99712337D01*
X114547467Y-99709500D01*
X114144539Y-99709500D01*
X114114275Y-99712337D01*
X114114266Y-99712339D01*
X113986800Y-99756942D01*
X113878138Y-99837138D01*
X113797943Y-99945799D01*
X113753339Y-100073266D01*
X113753337Y-100073275D01*
X113750500Y-100103532D01*
X113750500Y-100556460D01*
X113753337Y-100586724D01*
X113753339Y-100586733D01*
X113781251Y-100666500D01*
X113797943Y-100714201D01*
X113878138Y-100822862D01*
X113878139Y-100822863D01*
X113884181Y-100828905D01*
X113917666Y-100890228D01*
X113920500Y-100916586D01*
X113920500Y-106025390D01*
X113900815Y-106092429D01*
X113884181Y-106113071D01*
X113017071Y-106980181D01*
X112955748Y-107013666D01*
X112929390Y-107016500D01*
X90978177Y-107016500D01*
X90911138Y-106996815D01*
X90888524Y-106975617D01*
X90887721Y-106976421D01*
X90881152Y-106969852D01*
X90881150Y-106969851D01*
X90881150Y-106969850D01*
X90795677Y-106906768D01*
X90753428Y-106851123D01*
X90747969Y-106781467D01*
X90781036Y-106719917D01*
X90795670Y-106707236D01*
X90881150Y-106644150D01*
X90881152Y-106644146D01*
X90887721Y-106637579D01*
X90889548Y-106639406D01*
X90934054Y-106605616D01*
X90978177Y-106597500D01*
X97003016Y-106597500D01*
X97003018Y-106597500D01*
X97111237Y-106568503D01*
X97208263Y-106512485D01*
X108702929Y-95017817D01*
X108764252Y-94984333D01*
X108790610Y-94981499D01*
X108959460Y-94981499D01*
X108959462Y-94981499D01*
X108989729Y-94978662D01*
X109005247Y-94973231D01*
X109075023Y-94969666D01*
X109133888Y-95002591D01*
X109180483Y-95049187D01*
X109180491Y-95049193D01*
X109321302Y-95132468D01*
X109478000Y-95177992D01*
X109478000Y-95177991D01*
X109978000Y-95177991D01*
X110134697Y-95132468D01*
X110275508Y-95049193D01*
X110275516Y-95049187D01*
X110391187Y-94933516D01*
X110391193Y-94933508D01*
X110474468Y-94792697D01*
X110474470Y-94792692D01*
X110520109Y-94635603D01*
X110520111Y-94635591D01*
X110522047Y-94611000D01*
X109978000Y-94611000D01*
X109978000Y-95177991D01*
X109478000Y-95177991D01*
X109478000Y-93544006D01*
X109978000Y-93544006D01*
X109978000Y-94111000D01*
X110522046Y-94111000D01*
X110520110Y-94086402D01*
X110474470Y-93929307D01*
X110474468Y-93929302D01*
X110391193Y-93788491D01*
X110391187Y-93788483D01*
X110275516Y-93672812D01*
X110275508Y-93672806D01*
X110134695Y-93589530D01*
X110134692Y-93589528D01*
X109978001Y-93544005D01*
X109978000Y-93544006D01*
X109478000Y-93544006D01*
X109477998Y-93544005D01*
X109321307Y-93589528D01*
X109321304Y-93589530D01*
X109180494Y-93672804D01*
X109180488Y-93672808D01*
X109133886Y-93719410D01*
X109072562Y-93752894D01*
X109005254Y-93748769D01*
X108989738Y-93743340D01*
X108989724Y-93743337D01*
X108959467Y-93740500D01*
X108556539Y-93740500D01*
X108526275Y-93743337D01*
X108526266Y-93743339D01*
X108398800Y-93787942D01*
X108290138Y-93868138D01*
X108209943Y-93976799D01*
X108165339Y-94104266D01*
X108165337Y-94104275D01*
X108162500Y-94134532D01*
X108162500Y-94303389D01*
X108142815Y-94370428D01*
X108126181Y-94391070D01*
X96807071Y-105710181D01*
X96745748Y-105743666D01*
X96719390Y-105746500D01*
X90978177Y-105746500D01*
X90911138Y-105726815D01*
X90888524Y-105705617D01*
X90887721Y-105706421D01*
X90881152Y-105699852D01*
X90881150Y-105699851D01*
X90881150Y-105699850D01*
X90795677Y-105636768D01*
X90753428Y-105581123D01*
X90747969Y-105511467D01*
X90781036Y-105449917D01*
X90795670Y-105437236D01*
X90881150Y-105374150D01*
X90881152Y-105374146D01*
X90887721Y-105367579D01*
X90889548Y-105369406D01*
X90934054Y-105335616D01*
X90978177Y-105327500D01*
X96195016Y-105327500D01*
X96195018Y-105327500D01*
X96303237Y-105298503D01*
X96400263Y-105242485D01*
X108417485Y-93225263D01*
X108473503Y-93128237D01*
X108502500Y-93020018D01*
X108502500Y-92907981D01*
X108502500Y-90558585D01*
X108522185Y-90491546D01*
X108574989Y-90445791D01*
X108644147Y-90435847D01*
X108661095Y-90439509D01*
X108797000Y-90478992D01*
X108797000Y-90478991D01*
X109297000Y-90478991D01*
X109453697Y-90433468D01*
X109594508Y-90350193D01*
X109594516Y-90350187D01*
X109710187Y-90234516D01*
X109710193Y-90234508D01*
X109793468Y-90093697D01*
X109793470Y-90093692D01*
X109839109Y-89936603D01*
X109839111Y-89936591D01*
X109841047Y-89912000D01*
X109297000Y-89912000D01*
X109297000Y-90478991D01*
X108797000Y-90478991D01*
X108797000Y-88845006D01*
X109297000Y-88845006D01*
X109297000Y-89412000D01*
X109841046Y-89412000D01*
X109839110Y-89387402D01*
X109793470Y-89230307D01*
X109793468Y-89230302D01*
X109710193Y-89089491D01*
X109710187Y-89089483D01*
X109594516Y-88973812D01*
X109594508Y-88973806D01*
X109453695Y-88890530D01*
X109453692Y-88890528D01*
X109297001Y-88845005D01*
X109297000Y-88845006D01*
X108797000Y-88845006D01*
X108796998Y-88845005D01*
X108640307Y-88890528D01*
X108640304Y-88890530D01*
X108499494Y-88973804D01*
X108499488Y-88973808D01*
X108452886Y-89020410D01*
X108391562Y-89053894D01*
X108324254Y-89049769D01*
X108308738Y-89044340D01*
X108308724Y-89044337D01*
X108278467Y-89041500D01*
X107875539Y-89041500D01*
X107845275Y-89044337D01*
X107845266Y-89044339D01*
X107717800Y-89088942D01*
X107609138Y-89169138D01*
X107528943Y-89277799D01*
X107484339Y-89405266D01*
X107484337Y-89405275D01*
X107481500Y-89435532D01*
X107481500Y-89888460D01*
X107484337Y-89918724D01*
X107484339Y-89918733D01*
X107528942Y-90046199D01*
X107528943Y-90046201D01*
X107609138Y-90154862D01*
X107609139Y-90154863D01*
X107615181Y-90160905D01*
X107648666Y-90222228D01*
X107651500Y-90248586D01*
X107651500Y-92736390D01*
X107631815Y-92803429D01*
X107615181Y-92824071D01*
X95999071Y-104440181D01*
X95937748Y-104473666D01*
X95911390Y-104476500D01*
X90978177Y-104476500D01*
X90911138Y-104456815D01*
X90888524Y-104435617D01*
X90887721Y-104436421D01*
X90881152Y-104429852D01*
X90881150Y-104429851D01*
X90881150Y-104429850D01*
X90795677Y-104366768D01*
X90753428Y-104311123D01*
X90747969Y-104241467D01*
X90781036Y-104179917D01*
X90795670Y-104167236D01*
X90881150Y-104104150D01*
X90881152Y-104104146D01*
X90887721Y-104097579D01*
X90889548Y-104099406D01*
X90934054Y-104065616D01*
X90978177Y-104057500D01*
X95560016Y-104057500D01*
X95560018Y-104057500D01*
X95668237Y-104028503D01*
X95765263Y-103972485D01*
X105288485Y-94449263D01*
X105344503Y-94352237D01*
X105373500Y-94244018D01*
X105373500Y-94131982D01*
X105373500Y-92082585D01*
X105393185Y-92015546D01*
X105445989Y-91969791D01*
X105515147Y-91959847D01*
X105532095Y-91963509D01*
X105668000Y-92002992D01*
X105668000Y-92002991D01*
X106168000Y-92002991D01*
X106324697Y-91957468D01*
X106465508Y-91874193D01*
X106465516Y-91874187D01*
X106581187Y-91758516D01*
X106581193Y-91758508D01*
X106664468Y-91617697D01*
X106664470Y-91617692D01*
X106710109Y-91460603D01*
X106710111Y-91460591D01*
X106712047Y-91436000D01*
X106168000Y-91436000D01*
X106168000Y-92002991D01*
X105668000Y-92002991D01*
X105668000Y-90369006D01*
X106168000Y-90369006D01*
X106168000Y-90936000D01*
X106712046Y-90936000D01*
X106710110Y-90911402D01*
X106664470Y-90754307D01*
X106664468Y-90754302D01*
X106581193Y-90613491D01*
X106581187Y-90613483D01*
X106465516Y-90497812D01*
X106465508Y-90497806D01*
X106324695Y-90414530D01*
X106324692Y-90414528D01*
X106168001Y-90369005D01*
X106168000Y-90369006D01*
X105668000Y-90369006D01*
X105667998Y-90369005D01*
X105511307Y-90414528D01*
X105511304Y-90414530D01*
X105370494Y-90497804D01*
X105370488Y-90497808D01*
X105323886Y-90544410D01*
X105262562Y-90577894D01*
X105195254Y-90573769D01*
X105179738Y-90568340D01*
X105179724Y-90568337D01*
X105149467Y-90565500D01*
X104746539Y-90565500D01*
X104716275Y-90568337D01*
X104716266Y-90568339D01*
X104588800Y-90612942D01*
X104480138Y-90693138D01*
X104399943Y-90801799D01*
X104355339Y-90929266D01*
X104355337Y-90929275D01*
X104352500Y-90959532D01*
X104352500Y-91412460D01*
X104355337Y-91442724D01*
X104355339Y-91442733D01*
X104397703Y-91563799D01*
X104399943Y-91570201D01*
X104480138Y-91678862D01*
X104480139Y-91678863D01*
X104486181Y-91684905D01*
X104519666Y-91746228D01*
X104522500Y-91772586D01*
X104522500Y-93960390D01*
X104502815Y-94027429D01*
X104486181Y-94048071D01*
X95364071Y-103170181D01*
X95302748Y-103203666D01*
X95276390Y-103206500D01*
X90978177Y-103206500D01*
X90911138Y-103186815D01*
X90888524Y-103165617D01*
X90887721Y-103166421D01*
X90881152Y-103159852D01*
X90881150Y-103159851D01*
X90881150Y-103159850D01*
X90795677Y-103096768D01*
X90753428Y-103041123D01*
X90747969Y-102971467D01*
X90781036Y-102909917D01*
X90795670Y-102897236D01*
X90881150Y-102834150D01*
X90881152Y-102834146D01*
X90887721Y-102827579D01*
X90889548Y-102829406D01*
X90934054Y-102795616D01*
X90978177Y-102787500D01*
X95179016Y-102787500D01*
X95179018Y-102787500D01*
X95287237Y-102758503D01*
X95384263Y-102702485D01*
X101813485Y-96273263D01*
X101869503Y-96176237D01*
X101898500Y-96068018D01*
X101898500Y-95955982D01*
X101898500Y-90577174D01*
X101918185Y-90510135D01*
X101948865Y-90477406D01*
X101965862Y-90464862D01*
X102046057Y-90356201D01*
X102090662Y-90228729D01*
X102093500Y-90198463D01*
X102093499Y-89795538D01*
X102090662Y-89765271D01*
X102085230Y-89749750D01*
X102081667Y-89679973D01*
X102114591Y-89621111D01*
X102161189Y-89574513D01*
X102161195Y-89574505D01*
X102244469Y-89433695D01*
X102244471Y-89433692D01*
X102289994Y-89277001D01*
X102289993Y-89277000D01*
X100656007Y-89277000D01*
X100656005Y-89277001D01*
X100701528Y-89433692D01*
X100701530Y-89433695D01*
X100784806Y-89574508D01*
X100784812Y-89574516D01*
X100831408Y-89621112D01*
X100864893Y-89682435D01*
X100860770Y-89749742D01*
X100855338Y-89765265D01*
X100855337Y-89765272D01*
X100852500Y-89795532D01*
X100852500Y-90198460D01*
X100855337Y-90228724D01*
X100855339Y-90228733D01*
X100899942Y-90356199D01*
X100899943Y-90356201D01*
X100980138Y-90464862D01*
X100997133Y-90477404D01*
X101039383Y-90533048D01*
X101047500Y-90577174D01*
X101047500Y-95784390D01*
X101027815Y-95851429D01*
X101011181Y-95872071D01*
X98218234Y-98665017D01*
X98156911Y-98698502D01*
X98087219Y-98693518D01*
X98031286Y-98651646D01*
X98006869Y-98586182D01*
X98007500Y-98565003D01*
X98007500Y-92844585D01*
X98027185Y-92777546D01*
X98079989Y-92731791D01*
X98149147Y-92721847D01*
X98166095Y-92725509D01*
X98302000Y-92764992D01*
X98302000Y-92764991D01*
X98802000Y-92764991D01*
X98958697Y-92719468D01*
X99099508Y-92636193D01*
X99099516Y-92636187D01*
X99215187Y-92520516D01*
X99215193Y-92520508D01*
X99298468Y-92379697D01*
X99298470Y-92379692D01*
X99344109Y-92222603D01*
X99344111Y-92222591D01*
X99346047Y-92198000D01*
X98802000Y-92198000D01*
X98802000Y-92764991D01*
X98302000Y-92764991D01*
X98302000Y-91131006D01*
X98802000Y-91131006D01*
X98802000Y-91698000D01*
X99346046Y-91698000D01*
X99344110Y-91673402D01*
X99298470Y-91516307D01*
X99298468Y-91516302D01*
X99215193Y-91375491D01*
X99215187Y-91375483D01*
X99099516Y-91259812D01*
X99099508Y-91259806D01*
X98958695Y-91176530D01*
X98958692Y-91176528D01*
X98802001Y-91131005D01*
X98802000Y-91131006D01*
X98302000Y-91131006D01*
X98301998Y-91131005D01*
X98145307Y-91176528D01*
X98145304Y-91176530D01*
X98004494Y-91259804D01*
X98004488Y-91259808D01*
X97957886Y-91306410D01*
X97896562Y-91339894D01*
X97829254Y-91335769D01*
X97813738Y-91330340D01*
X97813724Y-91330337D01*
X97783467Y-91327500D01*
X97380539Y-91327500D01*
X97350275Y-91330337D01*
X97350266Y-91330339D01*
X97222800Y-91374942D01*
X97114138Y-91455138D01*
X97033943Y-91563799D01*
X96989339Y-91691266D01*
X96989337Y-91691275D01*
X96986500Y-91721532D01*
X96986500Y-92174460D01*
X96989337Y-92204724D01*
X96989339Y-92204733D01*
X96991357Y-92210500D01*
X97033943Y-92332201D01*
X97114138Y-92440862D01*
X97114139Y-92440863D01*
X97120181Y-92446905D01*
X97153666Y-92508228D01*
X97156500Y-92534586D01*
X97156500Y-94608577D01*
X97136815Y-94675616D01*
X97084011Y-94721371D01*
X97014853Y-94731315D01*
X96951297Y-94702290D01*
X96935043Y-94682821D01*
X96933972Y-94683652D01*
X96929187Y-94677483D01*
X96813516Y-94561812D01*
X96813508Y-94561806D01*
X96672695Y-94478530D01*
X96672692Y-94478528D01*
X96516001Y-94433005D01*
X96516000Y-94433006D01*
X96516000Y-96066991D01*
X96672697Y-96021468D01*
X96813508Y-95938193D01*
X96813516Y-95938187D01*
X96929187Y-95822516D01*
X96933972Y-95816348D01*
X96936484Y-95818296D01*
X96976833Y-95780619D01*
X97045575Y-95768113D01*
X97110165Y-95794757D01*
X97150097Y-95852091D01*
X97156500Y-95891422D01*
X97156500Y-98278390D01*
X97136815Y-98345429D01*
X97120181Y-98366071D01*
X94856071Y-100630181D01*
X94794748Y-100663666D01*
X94768390Y-100666500D01*
X90978177Y-100666500D01*
X90911138Y-100646815D01*
X90888524Y-100625617D01*
X90887721Y-100626421D01*
X90881152Y-100619852D01*
X90881150Y-100619851D01*
X90881150Y-100619850D01*
X90795677Y-100556768D01*
X90753428Y-100501123D01*
X90747969Y-100431467D01*
X90781036Y-100369917D01*
X90795670Y-100357236D01*
X90881150Y-100294150D01*
X90881152Y-100294146D01*
X90887721Y-100287579D01*
X90889548Y-100289406D01*
X90934054Y-100255616D01*
X90978177Y-100247500D01*
X94290016Y-100247500D01*
X94290018Y-100247500D01*
X94398237Y-100218503D01*
X94495263Y-100162485D01*
X95636485Y-99021263D01*
X95692503Y-98924237D01*
X95721500Y-98816018D01*
X95721500Y-98703981D01*
X95721500Y-96146585D01*
X95741185Y-96079546D01*
X95793989Y-96033791D01*
X95863147Y-96023847D01*
X95880095Y-96027509D01*
X96016000Y-96066992D01*
X96016000Y-94433006D01*
X96015998Y-94433005D01*
X95859307Y-94478528D01*
X95859304Y-94478530D01*
X95718494Y-94561804D01*
X95718488Y-94561808D01*
X95671886Y-94608410D01*
X95610562Y-94641894D01*
X95543254Y-94637769D01*
X95527738Y-94632340D01*
X95527724Y-94632337D01*
X95497467Y-94629500D01*
X95094539Y-94629500D01*
X95064275Y-94632337D01*
X95064266Y-94632339D01*
X94936800Y-94676942D01*
X94828138Y-94757138D01*
X94747943Y-94865799D01*
X94703339Y-94993266D01*
X94703337Y-94993275D01*
X94700500Y-95023532D01*
X94700500Y-95476460D01*
X94703337Y-95506724D01*
X94703339Y-95506733D01*
X94744517Y-95624410D01*
X94747943Y-95634201D01*
X94791695Y-95693483D01*
X94828139Y-95742863D01*
X94834181Y-95748905D01*
X94867666Y-95810228D01*
X94870500Y-95836586D01*
X94870500Y-98532390D01*
X94850815Y-98599429D01*
X94834181Y-98620071D01*
X94094071Y-99360181D01*
X94032748Y-99393666D01*
X94006390Y-99396500D01*
X91441518Y-99396500D01*
X91374479Y-99376815D01*
X91328724Y-99324011D01*
X91318780Y-99254853D01*
X91347805Y-99191297D01*
X91353837Y-99184819D01*
X91407674Y-99130982D01*
X91525789Y-99012867D01*
X91581807Y-98915841D01*
X91610804Y-98807622D01*
X91610804Y-98695586D01*
X91610804Y-97199279D01*
X91630489Y-97132240D01*
X91683293Y-97086485D01*
X91752451Y-97076541D01*
X91769399Y-97080203D01*
X91779000Y-97082992D01*
X91779000Y-97082991D01*
X92279000Y-97082991D01*
X92435697Y-97037468D01*
X92576508Y-96954193D01*
X92576516Y-96954187D01*
X92692187Y-96838516D01*
X92692193Y-96838508D01*
X92775468Y-96697697D01*
X92775470Y-96697692D01*
X92821109Y-96540603D01*
X92821111Y-96540591D01*
X92823047Y-96516000D01*
X92279000Y-96516000D01*
X92279000Y-97082991D01*
X91779000Y-97082991D01*
X91779000Y-95449006D01*
X92279000Y-95449006D01*
X92279000Y-96016000D01*
X92823046Y-96016000D01*
X92821110Y-95991402D01*
X92775470Y-95834307D01*
X92775468Y-95834302D01*
X92692193Y-95693491D01*
X92692187Y-95693483D01*
X92576516Y-95577812D01*
X92576508Y-95577806D01*
X92435695Y-95494530D01*
X92435692Y-95494528D01*
X92279001Y-95449005D01*
X92279000Y-95449006D01*
X91779000Y-95449006D01*
X91778998Y-95449005D01*
X91622307Y-95494528D01*
X91622304Y-95494530D01*
X91481494Y-95577804D01*
X91481488Y-95577808D01*
X91434886Y-95624410D01*
X91373562Y-95657894D01*
X91306254Y-95653769D01*
X91290738Y-95648340D01*
X91283361Y-95646729D01*
X91283901Y-95644252D01*
X91230298Y-95622883D01*
X91189687Y-95566028D01*
X91186261Y-95496242D01*
X91219126Y-95437620D01*
X91272485Y-95384263D01*
X91328503Y-95287237D01*
X91357500Y-95179018D01*
X91357500Y-95066982D01*
X91357500Y-89512941D01*
X91328503Y-89404722D01*
X91272485Y-89307696D01*
X91193263Y-89228474D01*
X90479356Y-88514567D01*
X90445871Y-88453244D01*
X90450855Y-88383552D01*
X90454828Y-88374115D01*
X90772956Y-87698092D01*
X90819311Y-87645817D01*
X90880195Y-87626992D01*
X93977525Y-87503099D01*
X93982481Y-87503000D01*
X94384993Y-87503000D01*
X94452032Y-87522685D01*
G37*
G04 #@! TD.AperFunction*
G04 #@! TA.AperFunction,Conductor*
G36*
X82493039Y-89681685D02*
G01*
X82538794Y-89734489D01*
X82550000Y-89786000D01*
X82550000Y-90695245D01*
X82530315Y-90762284D01*
X82513681Y-90782926D01*
X82229522Y-91067084D01*
X82229518Y-91067090D01*
X82176792Y-91158412D01*
X82176793Y-91158413D01*
X82149500Y-91260273D01*
X82149500Y-93261814D01*
X82129815Y-93328853D01*
X82077011Y-93374608D01*
X82012898Y-93385172D01*
X81952488Y-93379000D01*
X81727500Y-93379000D01*
X81727500Y-96178999D01*
X81746181Y-96197680D01*
X81779666Y-96259003D01*
X81782500Y-96285361D01*
X81782500Y-97280000D01*
X81762815Y-97347039D01*
X81710011Y-97392794D01*
X81658500Y-97404000D01*
X80432501Y-97404000D01*
X80432501Y-97410582D01*
X80438908Y-97481102D01*
X80438909Y-97481107D01*
X80489481Y-97643396D01*
X80577427Y-97788877D01*
X80646839Y-97858289D01*
X80680324Y-97919612D01*
X80675340Y-97989302D01*
X80635571Y-98095931D01*
X80633419Y-98095128D01*
X80606217Y-98143889D01*
X80312019Y-98438088D01*
X80259291Y-98529413D01*
X80234777Y-98620909D01*
X80234776Y-98620915D01*
X80232000Y-98631273D01*
X80232000Y-100833328D01*
X80259293Y-100935191D01*
X80285656Y-100980852D01*
X80312020Y-101026515D01*
X80312022Y-101026517D01*
X80595681Y-101310176D01*
X80629166Y-101371499D01*
X80632000Y-101397857D01*
X80632000Y-101660911D01*
X80632001Y-101660918D01*
X80638280Y-101719335D01*
X80675340Y-101818696D01*
X80680324Y-101888388D01*
X80646840Y-101949710D01*
X80577426Y-102019124D01*
X80489480Y-102164604D01*
X80438909Y-102326893D01*
X80432500Y-102397427D01*
X80432500Y-102404000D01*
X81658500Y-102404000D01*
X81725539Y-102423685D01*
X81771294Y-102476489D01*
X81782500Y-102528000D01*
X81782500Y-103522638D01*
X81762815Y-103589677D01*
X81746181Y-103610319D01*
X81727500Y-103629000D01*
X81727500Y-106428999D01*
X81952472Y-106428999D01*
X81952483Y-106428998D01*
X82012897Y-106422826D01*
X82081590Y-106435595D01*
X82132475Y-106483475D01*
X82149500Y-106546184D01*
X82149500Y-106605726D01*
X82176793Y-106707589D01*
X82203156Y-106753250D01*
X82229520Y-106798913D01*
X82229522Y-106798915D01*
X82513681Y-107083074D01*
X82547166Y-107144397D01*
X82550000Y-107170755D01*
X82550000Y-107699000D01*
X82530315Y-107766039D01*
X82477511Y-107811794D01*
X82426000Y-107823000D01*
X76451000Y-107823000D01*
X76383961Y-107803315D01*
X76338206Y-107750511D01*
X76327000Y-107699000D01*
X76327000Y-105728986D01*
X76647501Y-105728986D01*
X76657994Y-105831697D01*
X76713141Y-105998119D01*
X76713143Y-105998124D01*
X76805184Y-106147345D01*
X76929154Y-106271315D01*
X77078375Y-106363356D01*
X77078380Y-106363358D01*
X77244802Y-106418505D01*
X77244809Y-106418506D01*
X77347519Y-106428999D01*
X77647499Y-106428999D01*
X78147500Y-106428999D01*
X78447472Y-106428999D01*
X78447486Y-106428998D01*
X78550197Y-106418505D01*
X78716619Y-106363358D01*
X78716624Y-106363356D01*
X78865845Y-106271315D01*
X78989815Y-106147345D01*
X79081856Y-105998124D01*
X79081858Y-105998119D01*
X79137005Y-105831697D01*
X79137006Y-105831690D01*
X79147499Y-105728986D01*
X80302501Y-105728986D01*
X80312994Y-105831697D01*
X80368141Y-105998119D01*
X80368143Y-105998124D01*
X80460184Y-106147345D01*
X80584154Y-106271315D01*
X80733375Y-106363356D01*
X80733380Y-106363358D01*
X80899802Y-106418505D01*
X80899809Y-106418506D01*
X81002519Y-106428999D01*
X81227499Y-106428999D01*
X81227500Y-106428998D01*
X81227500Y-105279000D01*
X80302501Y-105279000D01*
X80302501Y-105728986D01*
X79147499Y-105728986D01*
X79147500Y-105728973D01*
X79147500Y-105279000D01*
X78147500Y-105279000D01*
X78147500Y-106428999D01*
X77647499Y-106428999D01*
X77647500Y-106428998D01*
X77647500Y-105279000D01*
X76647501Y-105279000D01*
X76647501Y-105728986D01*
X76327000Y-105728986D01*
X76327000Y-104329013D01*
X76647500Y-104329013D01*
X76647500Y-104779000D01*
X77647500Y-104779000D01*
X78147500Y-104779000D01*
X79147499Y-104779000D01*
X79147499Y-104329028D01*
X79147498Y-104329013D01*
X80302500Y-104329013D01*
X80302500Y-104779000D01*
X81227500Y-104779000D01*
X81227500Y-103660361D01*
X81247185Y-103593322D01*
X81263819Y-103572680D01*
X81282500Y-103553999D01*
X81282500Y-102904000D01*
X80432501Y-102904000D01*
X80432501Y-102910582D01*
X80438908Y-102981102D01*
X80438909Y-102981107D01*
X80489481Y-103143396D01*
X80577427Y-103288877D01*
X80697622Y-103409072D01*
X80785162Y-103461992D01*
X80832350Y-103513520D01*
X80844188Y-103582379D01*
X80816919Y-103646708D01*
X80760018Y-103685814D01*
X80733383Y-103694640D01*
X80733375Y-103694643D01*
X80584154Y-103786684D01*
X80460184Y-103910654D01*
X80368143Y-104059875D01*
X80368141Y-104059880D01*
X80312994Y-104226302D01*
X80312993Y-104226309D01*
X80302500Y-104329013D01*
X79147498Y-104329013D01*
X79137005Y-104226302D01*
X79081858Y-104059880D01*
X79081856Y-104059875D01*
X78989815Y-103910654D01*
X78865845Y-103786684D01*
X78716624Y-103694643D01*
X78716619Y-103694641D01*
X78550197Y-103639494D01*
X78550190Y-103639493D01*
X78447486Y-103629000D01*
X78147500Y-103629000D01*
X78147500Y-104779000D01*
X77647500Y-104779000D01*
X77647500Y-103629000D01*
X77347528Y-103629000D01*
X77347512Y-103629001D01*
X77244802Y-103639494D01*
X77078380Y-103694641D01*
X77078375Y-103694643D01*
X76929154Y-103786684D01*
X76805184Y-103910654D01*
X76713143Y-104059875D01*
X76713141Y-104059880D01*
X76657994Y-104226302D01*
X76657993Y-104226309D01*
X76647500Y-104329013D01*
X76327000Y-104329013D01*
X76327000Y-95478986D01*
X76647501Y-95478986D01*
X76657994Y-95581697D01*
X76713141Y-95748119D01*
X76713143Y-95748124D01*
X76805184Y-95897345D01*
X76929154Y-96021315D01*
X77078375Y-96113356D01*
X77078380Y-96113358D01*
X77244802Y-96168505D01*
X77244809Y-96168506D01*
X77347519Y-96178999D01*
X77647499Y-96178999D01*
X78147500Y-96178999D01*
X78447472Y-96178999D01*
X78447486Y-96178998D01*
X78550197Y-96168505D01*
X78716619Y-96113358D01*
X78716624Y-96113356D01*
X78865845Y-96021315D01*
X78989815Y-95897345D01*
X79081856Y-95748124D01*
X79081858Y-95748119D01*
X79137005Y-95581697D01*
X79137006Y-95581690D01*
X79147499Y-95478986D01*
X80302501Y-95478986D01*
X80312994Y-95581697D01*
X80368141Y-95748119D01*
X80368143Y-95748124D01*
X80460184Y-95897345D01*
X80584154Y-96021315D01*
X80733375Y-96113356D01*
X80733384Y-96113360D01*
X80760014Y-96122184D01*
X80817460Y-96161955D01*
X80844284Y-96226471D01*
X80831970Y-96295247D01*
X80785163Y-96346006D01*
X80697625Y-96398925D01*
X80697621Y-96398928D01*
X80577427Y-96519122D01*
X80489480Y-96664604D01*
X80438909Y-96826893D01*
X80432500Y-96897427D01*
X80432500Y-96904000D01*
X81282500Y-96904000D01*
X81282500Y-96253999D01*
X81263819Y-96235318D01*
X81230334Y-96173995D01*
X81227500Y-96147637D01*
X81227500Y-95029000D01*
X80302501Y-95029000D01*
X80302501Y-95478986D01*
X79147499Y-95478986D01*
X79147500Y-95478973D01*
X79147500Y-95029000D01*
X78147500Y-95029000D01*
X78147500Y-96178999D01*
X77647499Y-96178999D01*
X77647500Y-96178998D01*
X77647500Y-95029000D01*
X76647501Y-95029000D01*
X76647501Y-95478986D01*
X76327000Y-95478986D01*
X76327000Y-94079013D01*
X76647500Y-94079013D01*
X76647500Y-94529000D01*
X77647500Y-94529000D01*
X78147500Y-94529000D01*
X79147499Y-94529000D01*
X79147499Y-94079028D01*
X79147498Y-94079013D01*
X80302500Y-94079013D01*
X80302500Y-94529000D01*
X81227500Y-94529000D01*
X81227500Y-93379000D01*
X81002529Y-93379000D01*
X81002512Y-93379001D01*
X80899802Y-93389494D01*
X80733380Y-93444641D01*
X80733375Y-93444643D01*
X80584154Y-93536684D01*
X80460184Y-93660654D01*
X80368143Y-93809875D01*
X80368141Y-93809880D01*
X80312994Y-93976302D01*
X80312993Y-93976309D01*
X80302500Y-94079013D01*
X79147498Y-94079013D01*
X79137005Y-93976302D01*
X79081858Y-93809880D01*
X79081856Y-93809875D01*
X78989815Y-93660654D01*
X78865845Y-93536684D01*
X78716624Y-93444643D01*
X78716619Y-93444641D01*
X78550197Y-93389494D01*
X78550190Y-93389493D01*
X78447486Y-93379000D01*
X78147500Y-93379000D01*
X78147500Y-94529000D01*
X77647500Y-94529000D01*
X77647500Y-93379000D01*
X77347528Y-93379000D01*
X77347512Y-93379001D01*
X77244802Y-93389494D01*
X77078380Y-93444641D01*
X77078375Y-93444643D01*
X76929154Y-93536684D01*
X76805184Y-93660654D01*
X76713143Y-93809875D01*
X76713141Y-93809880D01*
X76657994Y-93976302D01*
X76657993Y-93976309D01*
X76647500Y-94079013D01*
X76327000Y-94079013D01*
X76327000Y-89840362D01*
X76346685Y-89773323D01*
X76363319Y-89752681D01*
X76417681Y-89698319D01*
X76479004Y-89664834D01*
X76505362Y-89662000D01*
X82426000Y-89662000D01*
X82493039Y-89681685D01*
G37*
G04 #@! TD.AperFunction*
M02*
