%TF.GenerationSoftware,KiCad,Pcbnew,8.0.5*%
%TF.CreationDate,2024-09-12T21:57:33+02:00*%
%TF.ProjectId,Ruler_IPRL_KiCad,52756c65-725f-4495-9052-4c5f4b694361,rev?*%
%TF.SameCoordinates,Original*%
%TF.FileFunction,Drillmap*%
%TF.FilePolarity,Positive*%
%FSLAX45Y45*%
G04 Gerber Fmt 4.5, Leading zero omitted, Abs format (unit mm)*
G04 Created by KiCad (PCBNEW 8.0.5) date 2024-09-12 21:57:33*
%MOMM*%
%LPD*%
G01*
G04 APERTURE LIST*
%ADD10C,0.100000*%
%ADD11C,0.200000*%
%ADD12C,0.220000*%
%ADD13C,0.270000*%
%ADD14C,0.320000*%
%ADD15C,0.430000*%
%ADD16C,0.530000*%
%ADD17C,0.640000*%
G04 APERTURE END LIST*
D10*
X7500000Y-8500000D02*
X23000000Y-8500000D01*
X23000000Y-11500000D01*
X7500000Y-11500000D01*
X7500000Y-8500000D01*
D11*
D10*
X13575000Y-9276000D02*
X13625000Y-9326000D01*
X13625000Y-9276000D02*
X13575000Y-9326000D01*
X13675000Y-9276000D02*
X13725000Y-9326000D01*
X13725000Y-9276000D02*
X13675000Y-9326000D01*
X13775000Y-9276000D02*
X13825000Y-9326000D01*
X13825000Y-9276000D02*
X13775000Y-9326000D01*
X13875000Y-9276000D02*
X13925000Y-9326000D01*
X13925000Y-9276000D02*
X13875000Y-9326000D01*
X13534500Y-9574000D02*
G75*
G02*
X13469500Y-9574000I-32500J0D01*
G01*
X13469500Y-9574000D02*
G75*
G02*
X13534500Y-9574000I32500J0D01*
G01*
X13661500Y-9574000D02*
G75*
G02*
X13596500Y-9574000I-32500J0D01*
G01*
X13596500Y-9574000D02*
G75*
G02*
X13661500Y-9574000I32500J0D01*
G01*
X13788500Y-9574000D02*
G75*
G02*
X13723500Y-9574000I-32500J0D01*
G01*
X13723500Y-9574000D02*
G75*
G02*
X13788500Y-9574000I32500J0D01*
G01*
X13915500Y-9574000D02*
G75*
G02*
X13850500Y-9574000I-32500J0D01*
G01*
X13850500Y-9574000D02*
G75*
G02*
X13915500Y-9574000I32500J0D01*
G01*
X13260000Y-9847000D02*
X13260000Y-9927000D01*
X13220000Y-9887000D02*
X13300000Y-9887000D01*
X13460000Y-9847000D02*
X13460000Y-9927000D01*
X13420000Y-9887000D02*
X13500000Y-9887000D01*
X13660000Y-9847000D02*
X13660000Y-9927000D01*
X13620000Y-9887000D02*
X13700000Y-9887000D01*
X13860000Y-9847000D02*
X13860000Y-9927000D01*
X13820000Y-9887000D02*
X13900000Y-9887000D01*
X13125356Y-10257356D02*
X13125356Y-10186644D01*
X13054644Y-10186644D01*
X13054644Y-10257356D01*
X13125356Y-10257356D01*
X13379356Y-10257356D02*
X13379356Y-10186644D01*
X13308644Y-10186644D01*
X13308644Y-10257356D01*
X13379356Y-10257356D01*
X13633356Y-10257356D02*
X13633356Y-10186644D01*
X13562644Y-10186644D01*
X13562644Y-10257356D01*
X13633356Y-10257356D01*
X13887356Y-10257356D02*
X13887356Y-10186644D01*
X13816644Y-10186644D01*
X13816644Y-10257356D01*
X13887356Y-10257356D01*
D12*
X20266000Y-10860000D02*
X20376000Y-10750000D01*
X20266000Y-10640000D01*
X20156000Y-10750000D01*
X20266000Y-10860000D01*
D13*
X19138000Y-10619250D02*
X19408000Y-10889250D01*
X19408000Y-10619250D02*
X19138000Y-10889250D01*
X19408000Y-10754250D02*
G75*
G02*
X19138000Y-10754250I-135000J0D01*
G01*
X19138000Y-10754250D02*
G75*
G02*
X19408000Y-10754250I135000J0D01*
G01*
D14*
X18087000Y-10590000D02*
X18407000Y-10910000D01*
X18407000Y-10590000D02*
X18087000Y-10910000D01*
X18247000Y-10590000D02*
X18247000Y-10910000D01*
X18087000Y-10750000D02*
X18407000Y-10750000D01*
D15*
X18090000Y-9350000D02*
X18520000Y-9780000D01*
X18520000Y-9350000D02*
X18090000Y-9780000D01*
X18457029Y-9717029D02*
X18457029Y-9412971D01*
X18152971Y-9412971D01*
X18152971Y-9717029D01*
X18457029Y-9717029D01*
D16*
X19135000Y-9287500D02*
X19665000Y-9817500D01*
X19665000Y-9287500D02*
X19135000Y-9817500D01*
X19400000Y-9817500D02*
X19665000Y-9552500D01*
X19400000Y-9287500D01*
X19135000Y-9552500D01*
X19400000Y-9817500D01*
D17*
X20767500Y-9242500D02*
X20767500Y-9882500D01*
X20447500Y-9562500D02*
X21087500Y-9562500D01*
X21087500Y-9562500D02*
G75*
G02*
X20447500Y-9562500I-320000J0D01*
G01*
X20447500Y-9562500D02*
G75*
G02*
X21087500Y-9562500I320000J0D01*
G01*
X22430000Y-9242500D02*
X22430000Y-9882500D01*
X22110000Y-9562500D02*
X22750000Y-9562500D01*
X22750000Y-9562500D02*
G75*
G02*
X22110000Y-9562500I-320000J0D01*
G01*
X22110000Y-9562500D02*
G75*
G02*
X22750000Y-9562500I320000J0D01*
G01*
D11*
X7755777Y-11816484D02*
X7755777Y-11616484D01*
X7755777Y-11616484D02*
X7803396Y-11616484D01*
X7803396Y-11616484D02*
X7831967Y-11626008D01*
X7831967Y-11626008D02*
X7851015Y-11645055D01*
X7851015Y-11645055D02*
X7860539Y-11664103D01*
X7860539Y-11664103D02*
X7870062Y-11702198D01*
X7870062Y-11702198D02*
X7870062Y-11730769D01*
X7870062Y-11730769D02*
X7860539Y-11768865D01*
X7860539Y-11768865D02*
X7851015Y-11787912D01*
X7851015Y-11787912D02*
X7831967Y-11806960D01*
X7831967Y-11806960D02*
X7803396Y-11816484D01*
X7803396Y-11816484D02*
X7755777Y-11816484D01*
X7955777Y-11816484D02*
X7955777Y-11683150D01*
X7955777Y-11721246D02*
X7965301Y-11702198D01*
X7965301Y-11702198D02*
X7974824Y-11692674D01*
X7974824Y-11692674D02*
X7993872Y-11683150D01*
X7993872Y-11683150D02*
X8012920Y-11683150D01*
X8079586Y-11816484D02*
X8079586Y-11683150D01*
X8079586Y-11616484D02*
X8070062Y-11626008D01*
X8070062Y-11626008D02*
X8079586Y-11635531D01*
X8079586Y-11635531D02*
X8089110Y-11626008D01*
X8089110Y-11626008D02*
X8079586Y-11616484D01*
X8079586Y-11616484D02*
X8079586Y-11635531D01*
X8203396Y-11816484D02*
X8184348Y-11806960D01*
X8184348Y-11806960D02*
X8174824Y-11787912D01*
X8174824Y-11787912D02*
X8174824Y-11616484D01*
X8308158Y-11816484D02*
X8289110Y-11806960D01*
X8289110Y-11806960D02*
X8279586Y-11787912D01*
X8279586Y-11787912D02*
X8279586Y-11616484D01*
X8536729Y-11816484D02*
X8536729Y-11616484D01*
X8536729Y-11616484D02*
X8603396Y-11759341D01*
X8603396Y-11759341D02*
X8670063Y-11616484D01*
X8670063Y-11616484D02*
X8670063Y-11816484D01*
X8851015Y-11816484D02*
X8851015Y-11711722D01*
X8851015Y-11711722D02*
X8841491Y-11692674D01*
X8841491Y-11692674D02*
X8822444Y-11683150D01*
X8822444Y-11683150D02*
X8784348Y-11683150D01*
X8784348Y-11683150D02*
X8765301Y-11692674D01*
X8851015Y-11806960D02*
X8831967Y-11816484D01*
X8831967Y-11816484D02*
X8784348Y-11816484D01*
X8784348Y-11816484D02*
X8765301Y-11806960D01*
X8765301Y-11806960D02*
X8755777Y-11787912D01*
X8755777Y-11787912D02*
X8755777Y-11768865D01*
X8755777Y-11768865D02*
X8765301Y-11749817D01*
X8765301Y-11749817D02*
X8784348Y-11740293D01*
X8784348Y-11740293D02*
X8831967Y-11740293D01*
X8831967Y-11740293D02*
X8851015Y-11730769D01*
X8946253Y-11683150D02*
X8946253Y-11883150D01*
X8946253Y-11692674D02*
X8965301Y-11683150D01*
X8965301Y-11683150D02*
X9003396Y-11683150D01*
X9003396Y-11683150D02*
X9022444Y-11692674D01*
X9022444Y-11692674D02*
X9031967Y-11702198D01*
X9031967Y-11702198D02*
X9041491Y-11721246D01*
X9041491Y-11721246D02*
X9041491Y-11778388D01*
X9041491Y-11778388D02*
X9031967Y-11797436D01*
X9031967Y-11797436D02*
X9022444Y-11806960D01*
X9022444Y-11806960D02*
X9003396Y-11816484D01*
X9003396Y-11816484D02*
X8965301Y-11816484D01*
X8965301Y-11816484D02*
X8946253Y-11806960D01*
X9127205Y-11797436D02*
X9136729Y-11806960D01*
X9136729Y-11806960D02*
X9127205Y-11816484D01*
X9127205Y-11816484D02*
X9117682Y-11806960D01*
X9117682Y-11806960D02*
X9127205Y-11797436D01*
X9127205Y-11797436D02*
X9127205Y-11816484D01*
X9127205Y-11692674D02*
X9136729Y-11702198D01*
X9136729Y-11702198D02*
X9127205Y-11711722D01*
X9127205Y-11711722D02*
X9117682Y-11702198D01*
X9117682Y-11702198D02*
X9127205Y-11692674D01*
X9127205Y-11692674D02*
X9127205Y-11711722D01*
D10*
X7445000Y-12120000D02*
X7495000Y-12170000D01*
X7495000Y-12120000D02*
X7445000Y-12170000D01*
D11*
X7793872Y-12036484D02*
X7812920Y-12036484D01*
X7812920Y-12036484D02*
X7831967Y-12046008D01*
X7831967Y-12046008D02*
X7841491Y-12055531D01*
X7841491Y-12055531D02*
X7851015Y-12074579D01*
X7851015Y-12074579D02*
X7860539Y-12112674D01*
X7860539Y-12112674D02*
X7860539Y-12160293D01*
X7860539Y-12160293D02*
X7851015Y-12198388D01*
X7851015Y-12198388D02*
X7841491Y-12217436D01*
X7841491Y-12217436D02*
X7831967Y-12226960D01*
X7831967Y-12226960D02*
X7812920Y-12236484D01*
X7812920Y-12236484D02*
X7793872Y-12236484D01*
X7793872Y-12236484D02*
X7774824Y-12226960D01*
X7774824Y-12226960D02*
X7765301Y-12217436D01*
X7765301Y-12217436D02*
X7755777Y-12198388D01*
X7755777Y-12198388D02*
X7746253Y-12160293D01*
X7746253Y-12160293D02*
X7746253Y-12112674D01*
X7746253Y-12112674D02*
X7755777Y-12074579D01*
X7755777Y-12074579D02*
X7765301Y-12055531D01*
X7765301Y-12055531D02*
X7774824Y-12046008D01*
X7774824Y-12046008D02*
X7793872Y-12036484D01*
X7946253Y-12217436D02*
X7955777Y-12226960D01*
X7955777Y-12226960D02*
X7946253Y-12236484D01*
X7946253Y-12236484D02*
X7936729Y-12226960D01*
X7936729Y-12226960D02*
X7946253Y-12217436D01*
X7946253Y-12217436D02*
X7946253Y-12236484D01*
X8136729Y-12036484D02*
X8041491Y-12036484D01*
X8041491Y-12036484D02*
X8031967Y-12131722D01*
X8031967Y-12131722D02*
X8041491Y-12122198D01*
X8041491Y-12122198D02*
X8060539Y-12112674D01*
X8060539Y-12112674D02*
X8108158Y-12112674D01*
X8108158Y-12112674D02*
X8127205Y-12122198D01*
X8127205Y-12122198D02*
X8136729Y-12131722D01*
X8136729Y-12131722D02*
X8146253Y-12150769D01*
X8146253Y-12150769D02*
X8146253Y-12198388D01*
X8146253Y-12198388D02*
X8136729Y-12217436D01*
X8136729Y-12217436D02*
X8127205Y-12226960D01*
X8127205Y-12226960D02*
X8108158Y-12236484D01*
X8108158Y-12236484D02*
X8060539Y-12236484D01*
X8060539Y-12236484D02*
X8041491Y-12226960D01*
X8041491Y-12226960D02*
X8031967Y-12217436D01*
X8270062Y-12036484D02*
X8289110Y-12036484D01*
X8289110Y-12036484D02*
X8308158Y-12046008D01*
X8308158Y-12046008D02*
X8317682Y-12055531D01*
X8317682Y-12055531D02*
X8327205Y-12074579D01*
X8327205Y-12074579D02*
X8336729Y-12112674D01*
X8336729Y-12112674D02*
X8336729Y-12160293D01*
X8336729Y-12160293D02*
X8327205Y-12198388D01*
X8327205Y-12198388D02*
X8317682Y-12217436D01*
X8317682Y-12217436D02*
X8308158Y-12226960D01*
X8308158Y-12226960D02*
X8289110Y-12236484D01*
X8289110Y-12236484D02*
X8270062Y-12236484D01*
X8270062Y-12236484D02*
X8251015Y-12226960D01*
X8251015Y-12226960D02*
X8241491Y-12217436D01*
X8241491Y-12217436D02*
X8231967Y-12198388D01*
X8231967Y-12198388D02*
X8222443Y-12160293D01*
X8222443Y-12160293D02*
X8222443Y-12112674D01*
X8222443Y-12112674D02*
X8231967Y-12074579D01*
X8231967Y-12074579D02*
X8241491Y-12055531D01*
X8241491Y-12055531D02*
X8251015Y-12046008D01*
X8251015Y-12046008D02*
X8270062Y-12036484D01*
X8460539Y-12036484D02*
X8479586Y-12036484D01*
X8479586Y-12036484D02*
X8498634Y-12046008D01*
X8498634Y-12046008D02*
X8508158Y-12055531D01*
X8508158Y-12055531D02*
X8517682Y-12074579D01*
X8517682Y-12074579D02*
X8527205Y-12112674D01*
X8527205Y-12112674D02*
X8527205Y-12160293D01*
X8527205Y-12160293D02*
X8517682Y-12198388D01*
X8517682Y-12198388D02*
X8508158Y-12217436D01*
X8508158Y-12217436D02*
X8498634Y-12226960D01*
X8498634Y-12226960D02*
X8479586Y-12236484D01*
X8479586Y-12236484D02*
X8460539Y-12236484D01*
X8460539Y-12236484D02*
X8441491Y-12226960D01*
X8441491Y-12226960D02*
X8431967Y-12217436D01*
X8431967Y-12217436D02*
X8422444Y-12198388D01*
X8422444Y-12198388D02*
X8412920Y-12160293D01*
X8412920Y-12160293D02*
X8412920Y-12112674D01*
X8412920Y-12112674D02*
X8422444Y-12074579D01*
X8422444Y-12074579D02*
X8431967Y-12055531D01*
X8431967Y-12055531D02*
X8441491Y-12046008D01*
X8441491Y-12046008D02*
X8460539Y-12036484D01*
X8612920Y-12236484D02*
X8612920Y-12103150D01*
X8612920Y-12122198D02*
X8622444Y-12112674D01*
X8622444Y-12112674D02*
X8641491Y-12103150D01*
X8641491Y-12103150D02*
X8670063Y-12103150D01*
X8670063Y-12103150D02*
X8689110Y-12112674D01*
X8689110Y-12112674D02*
X8698634Y-12131722D01*
X8698634Y-12131722D02*
X8698634Y-12236484D01*
X8698634Y-12131722D02*
X8708158Y-12112674D01*
X8708158Y-12112674D02*
X8727205Y-12103150D01*
X8727205Y-12103150D02*
X8755777Y-12103150D01*
X8755777Y-12103150D02*
X8774825Y-12112674D01*
X8774825Y-12112674D02*
X8784348Y-12131722D01*
X8784348Y-12131722D02*
X8784348Y-12236484D01*
X8879586Y-12236484D02*
X8879586Y-12103150D01*
X8879586Y-12122198D02*
X8889110Y-12112674D01*
X8889110Y-12112674D02*
X8908158Y-12103150D01*
X8908158Y-12103150D02*
X8936729Y-12103150D01*
X8936729Y-12103150D02*
X8955777Y-12112674D01*
X8955777Y-12112674D02*
X8965301Y-12131722D01*
X8965301Y-12131722D02*
X8965301Y-12236484D01*
X8965301Y-12131722D02*
X8974825Y-12112674D01*
X8974825Y-12112674D02*
X8993872Y-12103150D01*
X8993872Y-12103150D02*
X9022444Y-12103150D01*
X9022444Y-12103150D02*
X9041491Y-12112674D01*
X9041491Y-12112674D02*
X9051015Y-12131722D01*
X9051015Y-12131722D02*
X9051015Y-12236484D01*
X9441491Y-12026960D02*
X9270063Y-12284103D01*
X9698634Y-12036484D02*
X9717682Y-12036484D01*
X9717682Y-12036484D02*
X9736729Y-12046008D01*
X9736729Y-12046008D02*
X9746253Y-12055531D01*
X9746253Y-12055531D02*
X9755777Y-12074579D01*
X9755777Y-12074579D02*
X9765301Y-12112674D01*
X9765301Y-12112674D02*
X9765301Y-12160293D01*
X9765301Y-12160293D02*
X9755777Y-12198388D01*
X9755777Y-12198388D02*
X9746253Y-12217436D01*
X9746253Y-12217436D02*
X9736729Y-12226960D01*
X9736729Y-12226960D02*
X9717682Y-12236484D01*
X9717682Y-12236484D02*
X9698634Y-12236484D01*
X9698634Y-12236484D02*
X9679587Y-12226960D01*
X9679587Y-12226960D02*
X9670063Y-12217436D01*
X9670063Y-12217436D02*
X9660539Y-12198388D01*
X9660539Y-12198388D02*
X9651015Y-12160293D01*
X9651015Y-12160293D02*
X9651015Y-12112674D01*
X9651015Y-12112674D02*
X9660539Y-12074579D01*
X9660539Y-12074579D02*
X9670063Y-12055531D01*
X9670063Y-12055531D02*
X9679587Y-12046008D01*
X9679587Y-12046008D02*
X9698634Y-12036484D01*
X9851015Y-12217436D02*
X9860539Y-12226960D01*
X9860539Y-12226960D02*
X9851015Y-12236484D01*
X9851015Y-12236484D02*
X9841491Y-12226960D01*
X9841491Y-12226960D02*
X9851015Y-12217436D01*
X9851015Y-12217436D02*
X9851015Y-12236484D01*
X9984348Y-12036484D02*
X10003396Y-12036484D01*
X10003396Y-12036484D02*
X10022444Y-12046008D01*
X10022444Y-12046008D02*
X10031968Y-12055531D01*
X10031968Y-12055531D02*
X10041491Y-12074579D01*
X10041491Y-12074579D02*
X10051015Y-12112674D01*
X10051015Y-12112674D02*
X10051015Y-12160293D01*
X10051015Y-12160293D02*
X10041491Y-12198388D01*
X10041491Y-12198388D02*
X10031968Y-12217436D01*
X10031968Y-12217436D02*
X10022444Y-12226960D01*
X10022444Y-12226960D02*
X10003396Y-12236484D01*
X10003396Y-12236484D02*
X9984348Y-12236484D01*
X9984348Y-12236484D02*
X9965301Y-12226960D01*
X9965301Y-12226960D02*
X9955777Y-12217436D01*
X9955777Y-12217436D02*
X9946253Y-12198388D01*
X9946253Y-12198388D02*
X9936729Y-12160293D01*
X9936729Y-12160293D02*
X9936729Y-12112674D01*
X9936729Y-12112674D02*
X9946253Y-12074579D01*
X9946253Y-12074579D02*
X9955777Y-12055531D01*
X9955777Y-12055531D02*
X9965301Y-12046008D01*
X9965301Y-12046008D02*
X9984348Y-12036484D01*
X10241491Y-12236484D02*
X10127206Y-12236484D01*
X10184348Y-12236484D02*
X10184348Y-12036484D01*
X10184348Y-12036484D02*
X10165301Y-12065055D01*
X10165301Y-12065055D02*
X10146253Y-12084103D01*
X10146253Y-12084103D02*
X10127206Y-12093627D01*
X10336729Y-12236484D02*
X10374825Y-12236484D01*
X10374825Y-12236484D02*
X10393872Y-12226960D01*
X10393872Y-12226960D02*
X10403396Y-12217436D01*
X10403396Y-12217436D02*
X10422444Y-12188865D01*
X10422444Y-12188865D02*
X10431968Y-12150769D01*
X10431968Y-12150769D02*
X10431968Y-12074579D01*
X10431968Y-12074579D02*
X10422444Y-12055531D01*
X10422444Y-12055531D02*
X10412920Y-12046008D01*
X10412920Y-12046008D02*
X10393872Y-12036484D01*
X10393872Y-12036484D02*
X10355777Y-12036484D01*
X10355777Y-12036484D02*
X10336729Y-12046008D01*
X10336729Y-12046008D02*
X10327206Y-12055531D01*
X10327206Y-12055531D02*
X10317682Y-12074579D01*
X10317682Y-12074579D02*
X10317682Y-12122198D01*
X10317682Y-12122198D02*
X10327206Y-12141246D01*
X10327206Y-12141246D02*
X10336729Y-12150769D01*
X10336729Y-12150769D02*
X10355777Y-12160293D01*
X10355777Y-12160293D02*
X10393872Y-12160293D01*
X10393872Y-12160293D02*
X10412920Y-12150769D01*
X10412920Y-12150769D02*
X10422444Y-12141246D01*
X10422444Y-12141246D02*
X10431968Y-12122198D01*
X10498634Y-12036484D02*
X10631968Y-12036484D01*
X10631968Y-12036484D02*
X10546253Y-12236484D01*
X10698634Y-12036484D02*
X10698634Y-12074579D01*
X10774825Y-12036484D02*
X10774825Y-12074579D01*
X11070063Y-12312674D02*
X11060539Y-12303150D01*
X11060539Y-12303150D02*
X11041491Y-12274579D01*
X11041491Y-12274579D02*
X11031968Y-12255531D01*
X11031968Y-12255531D02*
X11022444Y-12226960D01*
X11022444Y-12226960D02*
X11012920Y-12179341D01*
X11012920Y-12179341D02*
X11012920Y-12141246D01*
X11012920Y-12141246D02*
X11022444Y-12093627D01*
X11022444Y-12093627D02*
X11031968Y-12065055D01*
X11031968Y-12065055D02*
X11041491Y-12046008D01*
X11041491Y-12046008D02*
X11060539Y-12017436D01*
X11060539Y-12017436D02*
X11070063Y-12007912D01*
X11231968Y-12103150D02*
X11231968Y-12236484D01*
X11184349Y-12026960D02*
X11136730Y-12169817D01*
X11136730Y-12169817D02*
X11260539Y-12169817D01*
X11489110Y-12236484D02*
X11489110Y-12036484D01*
X11574825Y-12236484D02*
X11574825Y-12131722D01*
X11574825Y-12131722D02*
X11565301Y-12112674D01*
X11565301Y-12112674D02*
X11546253Y-12103150D01*
X11546253Y-12103150D02*
X11517682Y-12103150D01*
X11517682Y-12103150D02*
X11498634Y-12112674D01*
X11498634Y-12112674D02*
X11489110Y-12122198D01*
X11698634Y-12236484D02*
X11679587Y-12226960D01*
X11679587Y-12226960D02*
X11670063Y-12217436D01*
X11670063Y-12217436D02*
X11660539Y-12198388D01*
X11660539Y-12198388D02*
X11660539Y-12141246D01*
X11660539Y-12141246D02*
X11670063Y-12122198D01*
X11670063Y-12122198D02*
X11679587Y-12112674D01*
X11679587Y-12112674D02*
X11698634Y-12103150D01*
X11698634Y-12103150D02*
X11727206Y-12103150D01*
X11727206Y-12103150D02*
X11746253Y-12112674D01*
X11746253Y-12112674D02*
X11755777Y-12122198D01*
X11755777Y-12122198D02*
X11765301Y-12141246D01*
X11765301Y-12141246D02*
X11765301Y-12198388D01*
X11765301Y-12198388D02*
X11755777Y-12217436D01*
X11755777Y-12217436D02*
X11746253Y-12226960D01*
X11746253Y-12226960D02*
X11727206Y-12236484D01*
X11727206Y-12236484D02*
X11698634Y-12236484D01*
X11879587Y-12236484D02*
X11860539Y-12226960D01*
X11860539Y-12226960D02*
X11851015Y-12207912D01*
X11851015Y-12207912D02*
X11851015Y-12036484D01*
X12031968Y-12226960D02*
X12012920Y-12236484D01*
X12012920Y-12236484D02*
X11974825Y-12236484D01*
X11974825Y-12236484D02*
X11955777Y-12226960D01*
X11955777Y-12226960D02*
X11946253Y-12207912D01*
X11946253Y-12207912D02*
X11946253Y-12131722D01*
X11946253Y-12131722D02*
X11955777Y-12112674D01*
X11955777Y-12112674D02*
X11974825Y-12103150D01*
X11974825Y-12103150D02*
X12012920Y-12103150D01*
X12012920Y-12103150D02*
X12031968Y-12112674D01*
X12031968Y-12112674D02*
X12041491Y-12131722D01*
X12041491Y-12131722D02*
X12041491Y-12150769D01*
X12041491Y-12150769D02*
X11946253Y-12169817D01*
X12117682Y-12226960D02*
X12136730Y-12236484D01*
X12136730Y-12236484D02*
X12174825Y-12236484D01*
X12174825Y-12236484D02*
X12193872Y-12226960D01*
X12193872Y-12226960D02*
X12203396Y-12207912D01*
X12203396Y-12207912D02*
X12203396Y-12198388D01*
X12203396Y-12198388D02*
X12193872Y-12179341D01*
X12193872Y-12179341D02*
X12174825Y-12169817D01*
X12174825Y-12169817D02*
X12146253Y-12169817D01*
X12146253Y-12169817D02*
X12127206Y-12160293D01*
X12127206Y-12160293D02*
X12117682Y-12141246D01*
X12117682Y-12141246D02*
X12117682Y-12131722D01*
X12117682Y-12131722D02*
X12127206Y-12112674D01*
X12127206Y-12112674D02*
X12146253Y-12103150D01*
X12146253Y-12103150D02*
X12174825Y-12103150D01*
X12174825Y-12103150D02*
X12193872Y-12112674D01*
X12270063Y-12312674D02*
X12279587Y-12303150D01*
X12279587Y-12303150D02*
X12298634Y-12274579D01*
X12298634Y-12274579D02*
X12308158Y-12255531D01*
X12308158Y-12255531D02*
X12317682Y-12226960D01*
X12317682Y-12226960D02*
X12327206Y-12179341D01*
X12327206Y-12179341D02*
X12327206Y-12141246D01*
X12327206Y-12141246D02*
X12317682Y-12093627D01*
X12317682Y-12093627D02*
X12308158Y-12065055D01*
X12308158Y-12065055D02*
X12298634Y-12046008D01*
X12298634Y-12046008D02*
X12279587Y-12017436D01*
X12279587Y-12017436D02*
X12270063Y-12007912D01*
D10*
X7495000Y-12409000D02*
G75*
G02*
X7430000Y-12409000I-32500J0D01*
G01*
X7430000Y-12409000D02*
G75*
G02*
X7495000Y-12409000I32500J0D01*
G01*
D11*
X7793872Y-12300484D02*
X7812920Y-12300484D01*
X7812920Y-12300484D02*
X7831967Y-12310008D01*
X7831967Y-12310008D02*
X7841491Y-12319531D01*
X7841491Y-12319531D02*
X7851015Y-12338579D01*
X7851015Y-12338579D02*
X7860539Y-12376674D01*
X7860539Y-12376674D02*
X7860539Y-12424293D01*
X7860539Y-12424293D02*
X7851015Y-12462388D01*
X7851015Y-12462388D02*
X7841491Y-12481436D01*
X7841491Y-12481436D02*
X7831967Y-12490960D01*
X7831967Y-12490960D02*
X7812920Y-12500484D01*
X7812920Y-12500484D02*
X7793872Y-12500484D01*
X7793872Y-12500484D02*
X7774824Y-12490960D01*
X7774824Y-12490960D02*
X7765301Y-12481436D01*
X7765301Y-12481436D02*
X7755777Y-12462388D01*
X7755777Y-12462388D02*
X7746253Y-12424293D01*
X7746253Y-12424293D02*
X7746253Y-12376674D01*
X7746253Y-12376674D02*
X7755777Y-12338579D01*
X7755777Y-12338579D02*
X7765301Y-12319531D01*
X7765301Y-12319531D02*
X7774824Y-12310008D01*
X7774824Y-12310008D02*
X7793872Y-12300484D01*
X7946253Y-12481436D02*
X7955777Y-12490960D01*
X7955777Y-12490960D02*
X7946253Y-12500484D01*
X7946253Y-12500484D02*
X7936729Y-12490960D01*
X7936729Y-12490960D02*
X7946253Y-12481436D01*
X7946253Y-12481436D02*
X7946253Y-12500484D01*
X8127205Y-12300484D02*
X8089110Y-12300484D01*
X8089110Y-12300484D02*
X8070062Y-12310008D01*
X8070062Y-12310008D02*
X8060539Y-12319531D01*
X8060539Y-12319531D02*
X8041491Y-12348103D01*
X8041491Y-12348103D02*
X8031967Y-12386198D01*
X8031967Y-12386198D02*
X8031967Y-12462388D01*
X8031967Y-12462388D02*
X8041491Y-12481436D01*
X8041491Y-12481436D02*
X8051015Y-12490960D01*
X8051015Y-12490960D02*
X8070062Y-12500484D01*
X8070062Y-12500484D02*
X8108158Y-12500484D01*
X8108158Y-12500484D02*
X8127205Y-12490960D01*
X8127205Y-12490960D02*
X8136729Y-12481436D01*
X8136729Y-12481436D02*
X8146253Y-12462388D01*
X8146253Y-12462388D02*
X8146253Y-12414769D01*
X8146253Y-12414769D02*
X8136729Y-12395722D01*
X8136729Y-12395722D02*
X8127205Y-12386198D01*
X8127205Y-12386198D02*
X8108158Y-12376674D01*
X8108158Y-12376674D02*
X8070062Y-12376674D01*
X8070062Y-12376674D02*
X8051015Y-12386198D01*
X8051015Y-12386198D02*
X8041491Y-12395722D01*
X8041491Y-12395722D02*
X8031967Y-12414769D01*
X8327205Y-12300484D02*
X8231967Y-12300484D01*
X8231967Y-12300484D02*
X8222443Y-12395722D01*
X8222443Y-12395722D02*
X8231967Y-12386198D01*
X8231967Y-12386198D02*
X8251015Y-12376674D01*
X8251015Y-12376674D02*
X8298634Y-12376674D01*
X8298634Y-12376674D02*
X8317682Y-12386198D01*
X8317682Y-12386198D02*
X8327205Y-12395722D01*
X8327205Y-12395722D02*
X8336729Y-12414769D01*
X8336729Y-12414769D02*
X8336729Y-12462388D01*
X8336729Y-12462388D02*
X8327205Y-12481436D01*
X8327205Y-12481436D02*
X8317682Y-12490960D01*
X8317682Y-12490960D02*
X8298634Y-12500484D01*
X8298634Y-12500484D02*
X8251015Y-12500484D01*
X8251015Y-12500484D02*
X8231967Y-12490960D01*
X8231967Y-12490960D02*
X8222443Y-12481436D01*
X8460539Y-12300484D02*
X8479586Y-12300484D01*
X8479586Y-12300484D02*
X8498634Y-12310008D01*
X8498634Y-12310008D02*
X8508158Y-12319531D01*
X8508158Y-12319531D02*
X8517682Y-12338579D01*
X8517682Y-12338579D02*
X8527205Y-12376674D01*
X8527205Y-12376674D02*
X8527205Y-12424293D01*
X8527205Y-12424293D02*
X8517682Y-12462388D01*
X8517682Y-12462388D02*
X8508158Y-12481436D01*
X8508158Y-12481436D02*
X8498634Y-12490960D01*
X8498634Y-12490960D02*
X8479586Y-12500484D01*
X8479586Y-12500484D02*
X8460539Y-12500484D01*
X8460539Y-12500484D02*
X8441491Y-12490960D01*
X8441491Y-12490960D02*
X8431967Y-12481436D01*
X8431967Y-12481436D02*
X8422444Y-12462388D01*
X8422444Y-12462388D02*
X8412920Y-12424293D01*
X8412920Y-12424293D02*
X8412920Y-12376674D01*
X8412920Y-12376674D02*
X8422444Y-12338579D01*
X8422444Y-12338579D02*
X8431967Y-12319531D01*
X8431967Y-12319531D02*
X8441491Y-12310008D01*
X8441491Y-12310008D02*
X8460539Y-12300484D01*
X8612920Y-12500484D02*
X8612920Y-12367150D01*
X8612920Y-12386198D02*
X8622444Y-12376674D01*
X8622444Y-12376674D02*
X8641491Y-12367150D01*
X8641491Y-12367150D02*
X8670063Y-12367150D01*
X8670063Y-12367150D02*
X8689110Y-12376674D01*
X8689110Y-12376674D02*
X8698634Y-12395722D01*
X8698634Y-12395722D02*
X8698634Y-12500484D01*
X8698634Y-12395722D02*
X8708158Y-12376674D01*
X8708158Y-12376674D02*
X8727205Y-12367150D01*
X8727205Y-12367150D02*
X8755777Y-12367150D01*
X8755777Y-12367150D02*
X8774825Y-12376674D01*
X8774825Y-12376674D02*
X8784348Y-12395722D01*
X8784348Y-12395722D02*
X8784348Y-12500484D01*
X8879586Y-12500484D02*
X8879586Y-12367150D01*
X8879586Y-12386198D02*
X8889110Y-12376674D01*
X8889110Y-12376674D02*
X8908158Y-12367150D01*
X8908158Y-12367150D02*
X8936729Y-12367150D01*
X8936729Y-12367150D02*
X8955777Y-12376674D01*
X8955777Y-12376674D02*
X8965301Y-12395722D01*
X8965301Y-12395722D02*
X8965301Y-12500484D01*
X8965301Y-12395722D02*
X8974825Y-12376674D01*
X8974825Y-12376674D02*
X8993872Y-12367150D01*
X8993872Y-12367150D02*
X9022444Y-12367150D01*
X9022444Y-12367150D02*
X9041491Y-12376674D01*
X9041491Y-12376674D02*
X9051015Y-12395722D01*
X9051015Y-12395722D02*
X9051015Y-12500484D01*
X9441491Y-12290960D02*
X9270063Y-12548103D01*
X9698634Y-12300484D02*
X9717682Y-12300484D01*
X9717682Y-12300484D02*
X9736729Y-12310008D01*
X9736729Y-12310008D02*
X9746253Y-12319531D01*
X9746253Y-12319531D02*
X9755777Y-12338579D01*
X9755777Y-12338579D02*
X9765301Y-12376674D01*
X9765301Y-12376674D02*
X9765301Y-12424293D01*
X9765301Y-12424293D02*
X9755777Y-12462388D01*
X9755777Y-12462388D02*
X9746253Y-12481436D01*
X9746253Y-12481436D02*
X9736729Y-12490960D01*
X9736729Y-12490960D02*
X9717682Y-12500484D01*
X9717682Y-12500484D02*
X9698634Y-12500484D01*
X9698634Y-12500484D02*
X9679587Y-12490960D01*
X9679587Y-12490960D02*
X9670063Y-12481436D01*
X9670063Y-12481436D02*
X9660539Y-12462388D01*
X9660539Y-12462388D02*
X9651015Y-12424293D01*
X9651015Y-12424293D02*
X9651015Y-12376674D01*
X9651015Y-12376674D02*
X9660539Y-12338579D01*
X9660539Y-12338579D02*
X9670063Y-12319531D01*
X9670063Y-12319531D02*
X9679587Y-12310008D01*
X9679587Y-12310008D02*
X9698634Y-12300484D01*
X9851015Y-12481436D02*
X9860539Y-12490960D01*
X9860539Y-12490960D02*
X9851015Y-12500484D01*
X9851015Y-12500484D02*
X9841491Y-12490960D01*
X9841491Y-12490960D02*
X9851015Y-12481436D01*
X9851015Y-12481436D02*
X9851015Y-12500484D01*
X9984348Y-12300484D02*
X10003396Y-12300484D01*
X10003396Y-12300484D02*
X10022444Y-12310008D01*
X10022444Y-12310008D02*
X10031968Y-12319531D01*
X10031968Y-12319531D02*
X10041491Y-12338579D01*
X10041491Y-12338579D02*
X10051015Y-12376674D01*
X10051015Y-12376674D02*
X10051015Y-12424293D01*
X10051015Y-12424293D02*
X10041491Y-12462388D01*
X10041491Y-12462388D02*
X10031968Y-12481436D01*
X10031968Y-12481436D02*
X10022444Y-12490960D01*
X10022444Y-12490960D02*
X10003396Y-12500484D01*
X10003396Y-12500484D02*
X9984348Y-12500484D01*
X9984348Y-12500484D02*
X9965301Y-12490960D01*
X9965301Y-12490960D02*
X9955777Y-12481436D01*
X9955777Y-12481436D02*
X9946253Y-12462388D01*
X9946253Y-12462388D02*
X9936729Y-12424293D01*
X9936729Y-12424293D02*
X9936729Y-12376674D01*
X9936729Y-12376674D02*
X9946253Y-12338579D01*
X9946253Y-12338579D02*
X9955777Y-12319531D01*
X9955777Y-12319531D02*
X9965301Y-12310008D01*
X9965301Y-12310008D02*
X9984348Y-12300484D01*
X10127206Y-12319531D02*
X10136729Y-12310008D01*
X10136729Y-12310008D02*
X10155777Y-12300484D01*
X10155777Y-12300484D02*
X10203396Y-12300484D01*
X10203396Y-12300484D02*
X10222444Y-12310008D01*
X10222444Y-12310008D02*
X10231968Y-12319531D01*
X10231968Y-12319531D02*
X10241491Y-12338579D01*
X10241491Y-12338579D02*
X10241491Y-12357627D01*
X10241491Y-12357627D02*
X10231968Y-12386198D01*
X10231968Y-12386198D02*
X10117682Y-12500484D01*
X10117682Y-12500484D02*
X10241491Y-12500484D01*
X10422444Y-12300484D02*
X10327206Y-12300484D01*
X10327206Y-12300484D02*
X10317682Y-12395722D01*
X10317682Y-12395722D02*
X10327206Y-12386198D01*
X10327206Y-12386198D02*
X10346253Y-12376674D01*
X10346253Y-12376674D02*
X10393872Y-12376674D01*
X10393872Y-12376674D02*
X10412920Y-12386198D01*
X10412920Y-12386198D02*
X10422444Y-12395722D01*
X10422444Y-12395722D02*
X10431968Y-12414769D01*
X10431968Y-12414769D02*
X10431968Y-12462388D01*
X10431968Y-12462388D02*
X10422444Y-12481436D01*
X10422444Y-12481436D02*
X10412920Y-12490960D01*
X10412920Y-12490960D02*
X10393872Y-12500484D01*
X10393872Y-12500484D02*
X10346253Y-12500484D01*
X10346253Y-12500484D02*
X10327206Y-12490960D01*
X10327206Y-12490960D02*
X10317682Y-12481436D01*
X10603396Y-12300484D02*
X10565301Y-12300484D01*
X10565301Y-12300484D02*
X10546253Y-12310008D01*
X10546253Y-12310008D02*
X10536729Y-12319531D01*
X10536729Y-12319531D02*
X10517682Y-12348103D01*
X10517682Y-12348103D02*
X10508158Y-12386198D01*
X10508158Y-12386198D02*
X10508158Y-12462388D01*
X10508158Y-12462388D02*
X10517682Y-12481436D01*
X10517682Y-12481436D02*
X10527206Y-12490960D01*
X10527206Y-12490960D02*
X10546253Y-12500484D01*
X10546253Y-12500484D02*
X10584349Y-12500484D01*
X10584349Y-12500484D02*
X10603396Y-12490960D01*
X10603396Y-12490960D02*
X10612920Y-12481436D01*
X10612920Y-12481436D02*
X10622444Y-12462388D01*
X10622444Y-12462388D02*
X10622444Y-12414769D01*
X10622444Y-12414769D02*
X10612920Y-12395722D01*
X10612920Y-12395722D02*
X10603396Y-12386198D01*
X10603396Y-12386198D02*
X10584349Y-12376674D01*
X10584349Y-12376674D02*
X10546253Y-12376674D01*
X10546253Y-12376674D02*
X10527206Y-12386198D01*
X10527206Y-12386198D02*
X10517682Y-12395722D01*
X10517682Y-12395722D02*
X10508158Y-12414769D01*
X10698634Y-12300484D02*
X10698634Y-12338579D01*
X10774825Y-12300484D02*
X10774825Y-12338579D01*
X11070063Y-12576674D02*
X11060539Y-12567150D01*
X11060539Y-12567150D02*
X11041491Y-12538579D01*
X11041491Y-12538579D02*
X11031968Y-12519531D01*
X11031968Y-12519531D02*
X11022444Y-12490960D01*
X11022444Y-12490960D02*
X11012920Y-12443341D01*
X11012920Y-12443341D02*
X11012920Y-12405246D01*
X11012920Y-12405246D02*
X11022444Y-12357627D01*
X11022444Y-12357627D02*
X11031968Y-12329055D01*
X11031968Y-12329055D02*
X11041491Y-12310008D01*
X11041491Y-12310008D02*
X11060539Y-12281436D01*
X11060539Y-12281436D02*
X11070063Y-12271912D01*
X11231968Y-12367150D02*
X11231968Y-12500484D01*
X11184349Y-12290960D02*
X11136730Y-12433817D01*
X11136730Y-12433817D02*
X11260539Y-12433817D01*
X11489110Y-12500484D02*
X11489110Y-12300484D01*
X11574825Y-12500484D02*
X11574825Y-12395722D01*
X11574825Y-12395722D02*
X11565301Y-12376674D01*
X11565301Y-12376674D02*
X11546253Y-12367150D01*
X11546253Y-12367150D02*
X11517682Y-12367150D01*
X11517682Y-12367150D02*
X11498634Y-12376674D01*
X11498634Y-12376674D02*
X11489110Y-12386198D01*
X11698634Y-12500484D02*
X11679587Y-12490960D01*
X11679587Y-12490960D02*
X11670063Y-12481436D01*
X11670063Y-12481436D02*
X11660539Y-12462388D01*
X11660539Y-12462388D02*
X11660539Y-12405246D01*
X11660539Y-12405246D02*
X11670063Y-12386198D01*
X11670063Y-12386198D02*
X11679587Y-12376674D01*
X11679587Y-12376674D02*
X11698634Y-12367150D01*
X11698634Y-12367150D02*
X11727206Y-12367150D01*
X11727206Y-12367150D02*
X11746253Y-12376674D01*
X11746253Y-12376674D02*
X11755777Y-12386198D01*
X11755777Y-12386198D02*
X11765301Y-12405246D01*
X11765301Y-12405246D02*
X11765301Y-12462388D01*
X11765301Y-12462388D02*
X11755777Y-12481436D01*
X11755777Y-12481436D02*
X11746253Y-12490960D01*
X11746253Y-12490960D02*
X11727206Y-12500484D01*
X11727206Y-12500484D02*
X11698634Y-12500484D01*
X11879587Y-12500484D02*
X11860539Y-12490960D01*
X11860539Y-12490960D02*
X11851015Y-12471912D01*
X11851015Y-12471912D02*
X11851015Y-12300484D01*
X12031968Y-12490960D02*
X12012920Y-12500484D01*
X12012920Y-12500484D02*
X11974825Y-12500484D01*
X11974825Y-12500484D02*
X11955777Y-12490960D01*
X11955777Y-12490960D02*
X11946253Y-12471912D01*
X11946253Y-12471912D02*
X11946253Y-12395722D01*
X11946253Y-12395722D02*
X11955777Y-12376674D01*
X11955777Y-12376674D02*
X11974825Y-12367150D01*
X11974825Y-12367150D02*
X12012920Y-12367150D01*
X12012920Y-12367150D02*
X12031968Y-12376674D01*
X12031968Y-12376674D02*
X12041491Y-12395722D01*
X12041491Y-12395722D02*
X12041491Y-12414769D01*
X12041491Y-12414769D02*
X11946253Y-12433817D01*
X12117682Y-12490960D02*
X12136730Y-12500484D01*
X12136730Y-12500484D02*
X12174825Y-12500484D01*
X12174825Y-12500484D02*
X12193872Y-12490960D01*
X12193872Y-12490960D02*
X12203396Y-12471912D01*
X12203396Y-12471912D02*
X12203396Y-12462388D01*
X12203396Y-12462388D02*
X12193872Y-12443341D01*
X12193872Y-12443341D02*
X12174825Y-12433817D01*
X12174825Y-12433817D02*
X12146253Y-12433817D01*
X12146253Y-12433817D02*
X12127206Y-12424293D01*
X12127206Y-12424293D02*
X12117682Y-12405246D01*
X12117682Y-12405246D02*
X12117682Y-12395722D01*
X12117682Y-12395722D02*
X12127206Y-12376674D01*
X12127206Y-12376674D02*
X12146253Y-12367150D01*
X12146253Y-12367150D02*
X12174825Y-12367150D01*
X12174825Y-12367150D02*
X12193872Y-12376674D01*
X12270063Y-12576674D02*
X12279587Y-12567150D01*
X12279587Y-12567150D02*
X12298634Y-12538579D01*
X12298634Y-12538579D02*
X12308158Y-12519531D01*
X12308158Y-12519531D02*
X12317682Y-12490960D01*
X12317682Y-12490960D02*
X12327206Y-12443341D01*
X12327206Y-12443341D02*
X12327206Y-12405246D01*
X12327206Y-12405246D02*
X12317682Y-12357627D01*
X12317682Y-12357627D02*
X12308158Y-12329055D01*
X12308158Y-12329055D02*
X12298634Y-12310008D01*
X12298634Y-12310008D02*
X12279587Y-12281436D01*
X12279587Y-12281436D02*
X12270063Y-12271912D01*
D10*
X7455000Y-12633000D02*
X7455000Y-12713000D01*
X7415000Y-12673000D02*
X7495000Y-12673000D01*
D11*
X7793872Y-12564484D02*
X7812920Y-12564484D01*
X7812920Y-12564484D02*
X7831967Y-12574008D01*
X7831967Y-12574008D02*
X7841491Y-12583531D01*
X7841491Y-12583531D02*
X7851015Y-12602579D01*
X7851015Y-12602579D02*
X7860539Y-12640674D01*
X7860539Y-12640674D02*
X7860539Y-12688293D01*
X7860539Y-12688293D02*
X7851015Y-12726388D01*
X7851015Y-12726388D02*
X7841491Y-12745436D01*
X7841491Y-12745436D02*
X7831967Y-12754960D01*
X7831967Y-12754960D02*
X7812920Y-12764484D01*
X7812920Y-12764484D02*
X7793872Y-12764484D01*
X7793872Y-12764484D02*
X7774824Y-12754960D01*
X7774824Y-12754960D02*
X7765301Y-12745436D01*
X7765301Y-12745436D02*
X7755777Y-12726388D01*
X7755777Y-12726388D02*
X7746253Y-12688293D01*
X7746253Y-12688293D02*
X7746253Y-12640674D01*
X7746253Y-12640674D02*
X7755777Y-12602579D01*
X7755777Y-12602579D02*
X7765301Y-12583531D01*
X7765301Y-12583531D02*
X7774824Y-12574008D01*
X7774824Y-12574008D02*
X7793872Y-12564484D01*
X7946253Y-12745436D02*
X7955777Y-12754960D01*
X7955777Y-12754960D02*
X7946253Y-12764484D01*
X7946253Y-12764484D02*
X7936729Y-12754960D01*
X7936729Y-12754960D02*
X7946253Y-12745436D01*
X7946253Y-12745436D02*
X7946253Y-12764484D01*
X8070062Y-12650198D02*
X8051015Y-12640674D01*
X8051015Y-12640674D02*
X8041491Y-12631150D01*
X8041491Y-12631150D02*
X8031967Y-12612103D01*
X8031967Y-12612103D02*
X8031967Y-12602579D01*
X8031967Y-12602579D02*
X8041491Y-12583531D01*
X8041491Y-12583531D02*
X8051015Y-12574008D01*
X8051015Y-12574008D02*
X8070062Y-12564484D01*
X8070062Y-12564484D02*
X8108158Y-12564484D01*
X8108158Y-12564484D02*
X8127205Y-12574008D01*
X8127205Y-12574008D02*
X8136729Y-12583531D01*
X8136729Y-12583531D02*
X8146253Y-12602579D01*
X8146253Y-12602579D02*
X8146253Y-12612103D01*
X8146253Y-12612103D02*
X8136729Y-12631150D01*
X8136729Y-12631150D02*
X8127205Y-12640674D01*
X8127205Y-12640674D02*
X8108158Y-12650198D01*
X8108158Y-12650198D02*
X8070062Y-12650198D01*
X8070062Y-12650198D02*
X8051015Y-12659722D01*
X8051015Y-12659722D02*
X8041491Y-12669246D01*
X8041491Y-12669246D02*
X8031967Y-12688293D01*
X8031967Y-12688293D02*
X8031967Y-12726388D01*
X8031967Y-12726388D02*
X8041491Y-12745436D01*
X8041491Y-12745436D02*
X8051015Y-12754960D01*
X8051015Y-12754960D02*
X8070062Y-12764484D01*
X8070062Y-12764484D02*
X8108158Y-12764484D01*
X8108158Y-12764484D02*
X8127205Y-12754960D01*
X8127205Y-12754960D02*
X8136729Y-12745436D01*
X8136729Y-12745436D02*
X8146253Y-12726388D01*
X8146253Y-12726388D02*
X8146253Y-12688293D01*
X8146253Y-12688293D02*
X8136729Y-12669246D01*
X8136729Y-12669246D02*
X8127205Y-12659722D01*
X8127205Y-12659722D02*
X8108158Y-12650198D01*
X8270062Y-12564484D02*
X8289110Y-12564484D01*
X8289110Y-12564484D02*
X8308158Y-12574008D01*
X8308158Y-12574008D02*
X8317682Y-12583531D01*
X8317682Y-12583531D02*
X8327205Y-12602579D01*
X8327205Y-12602579D02*
X8336729Y-12640674D01*
X8336729Y-12640674D02*
X8336729Y-12688293D01*
X8336729Y-12688293D02*
X8327205Y-12726388D01*
X8327205Y-12726388D02*
X8317682Y-12745436D01*
X8317682Y-12745436D02*
X8308158Y-12754960D01*
X8308158Y-12754960D02*
X8289110Y-12764484D01*
X8289110Y-12764484D02*
X8270062Y-12764484D01*
X8270062Y-12764484D02*
X8251015Y-12754960D01*
X8251015Y-12754960D02*
X8241491Y-12745436D01*
X8241491Y-12745436D02*
X8231967Y-12726388D01*
X8231967Y-12726388D02*
X8222443Y-12688293D01*
X8222443Y-12688293D02*
X8222443Y-12640674D01*
X8222443Y-12640674D02*
X8231967Y-12602579D01*
X8231967Y-12602579D02*
X8241491Y-12583531D01*
X8241491Y-12583531D02*
X8251015Y-12574008D01*
X8251015Y-12574008D02*
X8270062Y-12564484D01*
X8460539Y-12564484D02*
X8479586Y-12564484D01*
X8479586Y-12564484D02*
X8498634Y-12574008D01*
X8498634Y-12574008D02*
X8508158Y-12583531D01*
X8508158Y-12583531D02*
X8517682Y-12602579D01*
X8517682Y-12602579D02*
X8527205Y-12640674D01*
X8527205Y-12640674D02*
X8527205Y-12688293D01*
X8527205Y-12688293D02*
X8517682Y-12726388D01*
X8517682Y-12726388D02*
X8508158Y-12745436D01*
X8508158Y-12745436D02*
X8498634Y-12754960D01*
X8498634Y-12754960D02*
X8479586Y-12764484D01*
X8479586Y-12764484D02*
X8460539Y-12764484D01*
X8460539Y-12764484D02*
X8441491Y-12754960D01*
X8441491Y-12754960D02*
X8431967Y-12745436D01*
X8431967Y-12745436D02*
X8422444Y-12726388D01*
X8422444Y-12726388D02*
X8412920Y-12688293D01*
X8412920Y-12688293D02*
X8412920Y-12640674D01*
X8412920Y-12640674D02*
X8422444Y-12602579D01*
X8422444Y-12602579D02*
X8431967Y-12583531D01*
X8431967Y-12583531D02*
X8441491Y-12574008D01*
X8441491Y-12574008D02*
X8460539Y-12564484D01*
X8612920Y-12764484D02*
X8612920Y-12631150D01*
X8612920Y-12650198D02*
X8622444Y-12640674D01*
X8622444Y-12640674D02*
X8641491Y-12631150D01*
X8641491Y-12631150D02*
X8670063Y-12631150D01*
X8670063Y-12631150D02*
X8689110Y-12640674D01*
X8689110Y-12640674D02*
X8698634Y-12659722D01*
X8698634Y-12659722D02*
X8698634Y-12764484D01*
X8698634Y-12659722D02*
X8708158Y-12640674D01*
X8708158Y-12640674D02*
X8727205Y-12631150D01*
X8727205Y-12631150D02*
X8755777Y-12631150D01*
X8755777Y-12631150D02*
X8774825Y-12640674D01*
X8774825Y-12640674D02*
X8784348Y-12659722D01*
X8784348Y-12659722D02*
X8784348Y-12764484D01*
X8879586Y-12764484D02*
X8879586Y-12631150D01*
X8879586Y-12650198D02*
X8889110Y-12640674D01*
X8889110Y-12640674D02*
X8908158Y-12631150D01*
X8908158Y-12631150D02*
X8936729Y-12631150D01*
X8936729Y-12631150D02*
X8955777Y-12640674D01*
X8955777Y-12640674D02*
X8965301Y-12659722D01*
X8965301Y-12659722D02*
X8965301Y-12764484D01*
X8965301Y-12659722D02*
X8974825Y-12640674D01*
X8974825Y-12640674D02*
X8993872Y-12631150D01*
X8993872Y-12631150D02*
X9022444Y-12631150D01*
X9022444Y-12631150D02*
X9041491Y-12640674D01*
X9041491Y-12640674D02*
X9051015Y-12659722D01*
X9051015Y-12659722D02*
X9051015Y-12764484D01*
X9441491Y-12554960D02*
X9270063Y-12812103D01*
X9698634Y-12564484D02*
X9717682Y-12564484D01*
X9717682Y-12564484D02*
X9736729Y-12574008D01*
X9736729Y-12574008D02*
X9746253Y-12583531D01*
X9746253Y-12583531D02*
X9755777Y-12602579D01*
X9755777Y-12602579D02*
X9765301Y-12640674D01*
X9765301Y-12640674D02*
X9765301Y-12688293D01*
X9765301Y-12688293D02*
X9755777Y-12726388D01*
X9755777Y-12726388D02*
X9746253Y-12745436D01*
X9746253Y-12745436D02*
X9736729Y-12754960D01*
X9736729Y-12754960D02*
X9717682Y-12764484D01*
X9717682Y-12764484D02*
X9698634Y-12764484D01*
X9698634Y-12764484D02*
X9679587Y-12754960D01*
X9679587Y-12754960D02*
X9670063Y-12745436D01*
X9670063Y-12745436D02*
X9660539Y-12726388D01*
X9660539Y-12726388D02*
X9651015Y-12688293D01*
X9651015Y-12688293D02*
X9651015Y-12640674D01*
X9651015Y-12640674D02*
X9660539Y-12602579D01*
X9660539Y-12602579D02*
X9670063Y-12583531D01*
X9670063Y-12583531D02*
X9679587Y-12574008D01*
X9679587Y-12574008D02*
X9698634Y-12564484D01*
X9851015Y-12745436D02*
X9860539Y-12754960D01*
X9860539Y-12754960D02*
X9851015Y-12764484D01*
X9851015Y-12764484D02*
X9841491Y-12754960D01*
X9841491Y-12754960D02*
X9851015Y-12745436D01*
X9851015Y-12745436D02*
X9851015Y-12764484D01*
X9984348Y-12564484D02*
X10003396Y-12564484D01*
X10003396Y-12564484D02*
X10022444Y-12574008D01*
X10022444Y-12574008D02*
X10031968Y-12583531D01*
X10031968Y-12583531D02*
X10041491Y-12602579D01*
X10041491Y-12602579D02*
X10051015Y-12640674D01*
X10051015Y-12640674D02*
X10051015Y-12688293D01*
X10051015Y-12688293D02*
X10041491Y-12726388D01*
X10041491Y-12726388D02*
X10031968Y-12745436D01*
X10031968Y-12745436D02*
X10022444Y-12754960D01*
X10022444Y-12754960D02*
X10003396Y-12764484D01*
X10003396Y-12764484D02*
X9984348Y-12764484D01*
X9984348Y-12764484D02*
X9965301Y-12754960D01*
X9965301Y-12754960D02*
X9955777Y-12745436D01*
X9955777Y-12745436D02*
X9946253Y-12726388D01*
X9946253Y-12726388D02*
X9936729Y-12688293D01*
X9936729Y-12688293D02*
X9936729Y-12640674D01*
X9936729Y-12640674D02*
X9946253Y-12602579D01*
X9946253Y-12602579D02*
X9955777Y-12583531D01*
X9955777Y-12583531D02*
X9965301Y-12574008D01*
X9965301Y-12574008D02*
X9984348Y-12564484D01*
X10117682Y-12564484D02*
X10241491Y-12564484D01*
X10241491Y-12564484D02*
X10174825Y-12640674D01*
X10174825Y-12640674D02*
X10203396Y-12640674D01*
X10203396Y-12640674D02*
X10222444Y-12650198D01*
X10222444Y-12650198D02*
X10231968Y-12659722D01*
X10231968Y-12659722D02*
X10241491Y-12678769D01*
X10241491Y-12678769D02*
X10241491Y-12726388D01*
X10241491Y-12726388D02*
X10231968Y-12745436D01*
X10231968Y-12745436D02*
X10222444Y-12754960D01*
X10222444Y-12754960D02*
X10203396Y-12764484D01*
X10203396Y-12764484D02*
X10146253Y-12764484D01*
X10146253Y-12764484D02*
X10127206Y-12754960D01*
X10127206Y-12754960D02*
X10117682Y-12745436D01*
X10431968Y-12764484D02*
X10317682Y-12764484D01*
X10374825Y-12764484D02*
X10374825Y-12564484D01*
X10374825Y-12564484D02*
X10355777Y-12593055D01*
X10355777Y-12593055D02*
X10336729Y-12612103D01*
X10336729Y-12612103D02*
X10317682Y-12621627D01*
X10612920Y-12564484D02*
X10517682Y-12564484D01*
X10517682Y-12564484D02*
X10508158Y-12659722D01*
X10508158Y-12659722D02*
X10517682Y-12650198D01*
X10517682Y-12650198D02*
X10536729Y-12640674D01*
X10536729Y-12640674D02*
X10584349Y-12640674D01*
X10584349Y-12640674D02*
X10603396Y-12650198D01*
X10603396Y-12650198D02*
X10612920Y-12659722D01*
X10612920Y-12659722D02*
X10622444Y-12678769D01*
X10622444Y-12678769D02*
X10622444Y-12726388D01*
X10622444Y-12726388D02*
X10612920Y-12745436D01*
X10612920Y-12745436D02*
X10603396Y-12754960D01*
X10603396Y-12754960D02*
X10584349Y-12764484D01*
X10584349Y-12764484D02*
X10536729Y-12764484D01*
X10536729Y-12764484D02*
X10517682Y-12754960D01*
X10517682Y-12754960D02*
X10508158Y-12745436D01*
X10698634Y-12564484D02*
X10698634Y-12602579D01*
X10774825Y-12564484D02*
X10774825Y-12602579D01*
X11070063Y-12840674D02*
X11060539Y-12831150D01*
X11060539Y-12831150D02*
X11041491Y-12802579D01*
X11041491Y-12802579D02*
X11031968Y-12783531D01*
X11031968Y-12783531D02*
X11022444Y-12754960D01*
X11022444Y-12754960D02*
X11012920Y-12707341D01*
X11012920Y-12707341D02*
X11012920Y-12669246D01*
X11012920Y-12669246D02*
X11022444Y-12621627D01*
X11022444Y-12621627D02*
X11031968Y-12593055D01*
X11031968Y-12593055D02*
X11041491Y-12574008D01*
X11041491Y-12574008D02*
X11060539Y-12545436D01*
X11060539Y-12545436D02*
X11070063Y-12535912D01*
X11231968Y-12631150D02*
X11231968Y-12764484D01*
X11184349Y-12554960D02*
X11136730Y-12697817D01*
X11136730Y-12697817D02*
X11260539Y-12697817D01*
X11489110Y-12764484D02*
X11489110Y-12564484D01*
X11574825Y-12764484D02*
X11574825Y-12659722D01*
X11574825Y-12659722D02*
X11565301Y-12640674D01*
X11565301Y-12640674D02*
X11546253Y-12631150D01*
X11546253Y-12631150D02*
X11517682Y-12631150D01*
X11517682Y-12631150D02*
X11498634Y-12640674D01*
X11498634Y-12640674D02*
X11489110Y-12650198D01*
X11698634Y-12764484D02*
X11679587Y-12754960D01*
X11679587Y-12754960D02*
X11670063Y-12745436D01*
X11670063Y-12745436D02*
X11660539Y-12726388D01*
X11660539Y-12726388D02*
X11660539Y-12669246D01*
X11660539Y-12669246D02*
X11670063Y-12650198D01*
X11670063Y-12650198D02*
X11679587Y-12640674D01*
X11679587Y-12640674D02*
X11698634Y-12631150D01*
X11698634Y-12631150D02*
X11727206Y-12631150D01*
X11727206Y-12631150D02*
X11746253Y-12640674D01*
X11746253Y-12640674D02*
X11755777Y-12650198D01*
X11755777Y-12650198D02*
X11765301Y-12669246D01*
X11765301Y-12669246D02*
X11765301Y-12726388D01*
X11765301Y-12726388D02*
X11755777Y-12745436D01*
X11755777Y-12745436D02*
X11746253Y-12754960D01*
X11746253Y-12754960D02*
X11727206Y-12764484D01*
X11727206Y-12764484D02*
X11698634Y-12764484D01*
X11879587Y-12764484D02*
X11860539Y-12754960D01*
X11860539Y-12754960D02*
X11851015Y-12735912D01*
X11851015Y-12735912D02*
X11851015Y-12564484D01*
X12031968Y-12754960D02*
X12012920Y-12764484D01*
X12012920Y-12764484D02*
X11974825Y-12764484D01*
X11974825Y-12764484D02*
X11955777Y-12754960D01*
X11955777Y-12754960D02*
X11946253Y-12735912D01*
X11946253Y-12735912D02*
X11946253Y-12659722D01*
X11946253Y-12659722D02*
X11955777Y-12640674D01*
X11955777Y-12640674D02*
X11974825Y-12631150D01*
X11974825Y-12631150D02*
X12012920Y-12631150D01*
X12012920Y-12631150D02*
X12031968Y-12640674D01*
X12031968Y-12640674D02*
X12041491Y-12659722D01*
X12041491Y-12659722D02*
X12041491Y-12678769D01*
X12041491Y-12678769D02*
X11946253Y-12697817D01*
X12117682Y-12754960D02*
X12136730Y-12764484D01*
X12136730Y-12764484D02*
X12174825Y-12764484D01*
X12174825Y-12764484D02*
X12193872Y-12754960D01*
X12193872Y-12754960D02*
X12203396Y-12735912D01*
X12203396Y-12735912D02*
X12203396Y-12726388D01*
X12203396Y-12726388D02*
X12193872Y-12707341D01*
X12193872Y-12707341D02*
X12174825Y-12697817D01*
X12174825Y-12697817D02*
X12146253Y-12697817D01*
X12146253Y-12697817D02*
X12127206Y-12688293D01*
X12127206Y-12688293D02*
X12117682Y-12669246D01*
X12117682Y-12669246D02*
X12117682Y-12659722D01*
X12117682Y-12659722D02*
X12127206Y-12640674D01*
X12127206Y-12640674D02*
X12146253Y-12631150D01*
X12146253Y-12631150D02*
X12174825Y-12631150D01*
X12174825Y-12631150D02*
X12193872Y-12640674D01*
X12270063Y-12840674D02*
X12279587Y-12831150D01*
X12279587Y-12831150D02*
X12298634Y-12802579D01*
X12298634Y-12802579D02*
X12308158Y-12783531D01*
X12308158Y-12783531D02*
X12317682Y-12754960D01*
X12317682Y-12754960D02*
X12327206Y-12707341D01*
X12327206Y-12707341D02*
X12327206Y-12669246D01*
X12327206Y-12669246D02*
X12317682Y-12621627D01*
X12317682Y-12621627D02*
X12308158Y-12593055D01*
X12308158Y-12593055D02*
X12298634Y-12574008D01*
X12298634Y-12574008D02*
X12279587Y-12545436D01*
X12279587Y-12545436D02*
X12270063Y-12535912D01*
D10*
X7480356Y-12972356D02*
X7480356Y-12901644D01*
X7409644Y-12901644D01*
X7409644Y-12972356D01*
X7480356Y-12972356D01*
D11*
X7860539Y-13028484D02*
X7746253Y-13028484D01*
X7803396Y-13028484D02*
X7803396Y-12828484D01*
X7803396Y-12828484D02*
X7784348Y-12857055D01*
X7784348Y-12857055D02*
X7765301Y-12876103D01*
X7765301Y-12876103D02*
X7746253Y-12885627D01*
X7946253Y-13009436D02*
X7955777Y-13018960D01*
X7955777Y-13018960D02*
X7946253Y-13028484D01*
X7946253Y-13028484D02*
X7936729Y-13018960D01*
X7936729Y-13018960D02*
X7946253Y-13009436D01*
X7946253Y-13009436D02*
X7946253Y-13028484D01*
X8079586Y-12828484D02*
X8098634Y-12828484D01*
X8098634Y-12828484D02*
X8117682Y-12838008D01*
X8117682Y-12838008D02*
X8127205Y-12847531D01*
X8127205Y-12847531D02*
X8136729Y-12866579D01*
X8136729Y-12866579D02*
X8146253Y-12904674D01*
X8146253Y-12904674D02*
X8146253Y-12952293D01*
X8146253Y-12952293D02*
X8136729Y-12990388D01*
X8136729Y-12990388D02*
X8127205Y-13009436D01*
X8127205Y-13009436D02*
X8117682Y-13018960D01*
X8117682Y-13018960D02*
X8098634Y-13028484D01*
X8098634Y-13028484D02*
X8079586Y-13028484D01*
X8079586Y-13028484D02*
X8060539Y-13018960D01*
X8060539Y-13018960D02*
X8051015Y-13009436D01*
X8051015Y-13009436D02*
X8041491Y-12990388D01*
X8041491Y-12990388D02*
X8031967Y-12952293D01*
X8031967Y-12952293D02*
X8031967Y-12904674D01*
X8031967Y-12904674D02*
X8041491Y-12866579D01*
X8041491Y-12866579D02*
X8051015Y-12847531D01*
X8051015Y-12847531D02*
X8060539Y-12838008D01*
X8060539Y-12838008D02*
X8079586Y-12828484D01*
X8270062Y-12828484D02*
X8289110Y-12828484D01*
X8289110Y-12828484D02*
X8308158Y-12838008D01*
X8308158Y-12838008D02*
X8317682Y-12847531D01*
X8317682Y-12847531D02*
X8327205Y-12866579D01*
X8327205Y-12866579D02*
X8336729Y-12904674D01*
X8336729Y-12904674D02*
X8336729Y-12952293D01*
X8336729Y-12952293D02*
X8327205Y-12990388D01*
X8327205Y-12990388D02*
X8317682Y-13009436D01*
X8317682Y-13009436D02*
X8308158Y-13018960D01*
X8308158Y-13018960D02*
X8289110Y-13028484D01*
X8289110Y-13028484D02*
X8270062Y-13028484D01*
X8270062Y-13028484D02*
X8251015Y-13018960D01*
X8251015Y-13018960D02*
X8241491Y-13009436D01*
X8241491Y-13009436D02*
X8231967Y-12990388D01*
X8231967Y-12990388D02*
X8222443Y-12952293D01*
X8222443Y-12952293D02*
X8222443Y-12904674D01*
X8222443Y-12904674D02*
X8231967Y-12866579D01*
X8231967Y-12866579D02*
X8241491Y-12847531D01*
X8241491Y-12847531D02*
X8251015Y-12838008D01*
X8251015Y-12838008D02*
X8270062Y-12828484D01*
X8460539Y-12828484D02*
X8479586Y-12828484D01*
X8479586Y-12828484D02*
X8498634Y-12838008D01*
X8498634Y-12838008D02*
X8508158Y-12847531D01*
X8508158Y-12847531D02*
X8517682Y-12866579D01*
X8517682Y-12866579D02*
X8527205Y-12904674D01*
X8527205Y-12904674D02*
X8527205Y-12952293D01*
X8527205Y-12952293D02*
X8517682Y-12990388D01*
X8517682Y-12990388D02*
X8508158Y-13009436D01*
X8508158Y-13009436D02*
X8498634Y-13018960D01*
X8498634Y-13018960D02*
X8479586Y-13028484D01*
X8479586Y-13028484D02*
X8460539Y-13028484D01*
X8460539Y-13028484D02*
X8441491Y-13018960D01*
X8441491Y-13018960D02*
X8431967Y-13009436D01*
X8431967Y-13009436D02*
X8422444Y-12990388D01*
X8422444Y-12990388D02*
X8412920Y-12952293D01*
X8412920Y-12952293D02*
X8412920Y-12904674D01*
X8412920Y-12904674D02*
X8422444Y-12866579D01*
X8422444Y-12866579D02*
X8431967Y-12847531D01*
X8431967Y-12847531D02*
X8441491Y-12838008D01*
X8441491Y-12838008D02*
X8460539Y-12828484D01*
X8612920Y-13028484D02*
X8612920Y-12895150D01*
X8612920Y-12914198D02*
X8622444Y-12904674D01*
X8622444Y-12904674D02*
X8641491Y-12895150D01*
X8641491Y-12895150D02*
X8670063Y-12895150D01*
X8670063Y-12895150D02*
X8689110Y-12904674D01*
X8689110Y-12904674D02*
X8698634Y-12923722D01*
X8698634Y-12923722D02*
X8698634Y-13028484D01*
X8698634Y-12923722D02*
X8708158Y-12904674D01*
X8708158Y-12904674D02*
X8727205Y-12895150D01*
X8727205Y-12895150D02*
X8755777Y-12895150D01*
X8755777Y-12895150D02*
X8774825Y-12904674D01*
X8774825Y-12904674D02*
X8784348Y-12923722D01*
X8784348Y-12923722D02*
X8784348Y-13028484D01*
X8879586Y-13028484D02*
X8879586Y-12895150D01*
X8879586Y-12914198D02*
X8889110Y-12904674D01*
X8889110Y-12904674D02*
X8908158Y-12895150D01*
X8908158Y-12895150D02*
X8936729Y-12895150D01*
X8936729Y-12895150D02*
X8955777Y-12904674D01*
X8955777Y-12904674D02*
X8965301Y-12923722D01*
X8965301Y-12923722D02*
X8965301Y-13028484D01*
X8965301Y-12923722D02*
X8974825Y-12904674D01*
X8974825Y-12904674D02*
X8993872Y-12895150D01*
X8993872Y-12895150D02*
X9022444Y-12895150D01*
X9022444Y-12895150D02*
X9041491Y-12904674D01*
X9041491Y-12904674D02*
X9051015Y-12923722D01*
X9051015Y-12923722D02*
X9051015Y-13028484D01*
X9441491Y-12818960D02*
X9270063Y-13076103D01*
X9698634Y-12828484D02*
X9717682Y-12828484D01*
X9717682Y-12828484D02*
X9736729Y-12838008D01*
X9736729Y-12838008D02*
X9746253Y-12847531D01*
X9746253Y-12847531D02*
X9755777Y-12866579D01*
X9755777Y-12866579D02*
X9765301Y-12904674D01*
X9765301Y-12904674D02*
X9765301Y-12952293D01*
X9765301Y-12952293D02*
X9755777Y-12990388D01*
X9755777Y-12990388D02*
X9746253Y-13009436D01*
X9746253Y-13009436D02*
X9736729Y-13018960D01*
X9736729Y-13018960D02*
X9717682Y-13028484D01*
X9717682Y-13028484D02*
X9698634Y-13028484D01*
X9698634Y-13028484D02*
X9679587Y-13018960D01*
X9679587Y-13018960D02*
X9670063Y-13009436D01*
X9670063Y-13009436D02*
X9660539Y-12990388D01*
X9660539Y-12990388D02*
X9651015Y-12952293D01*
X9651015Y-12952293D02*
X9651015Y-12904674D01*
X9651015Y-12904674D02*
X9660539Y-12866579D01*
X9660539Y-12866579D02*
X9670063Y-12847531D01*
X9670063Y-12847531D02*
X9679587Y-12838008D01*
X9679587Y-12838008D02*
X9698634Y-12828484D01*
X9851015Y-13009436D02*
X9860539Y-13018960D01*
X9860539Y-13018960D02*
X9851015Y-13028484D01*
X9851015Y-13028484D02*
X9841491Y-13018960D01*
X9841491Y-13018960D02*
X9851015Y-13009436D01*
X9851015Y-13009436D02*
X9851015Y-13028484D01*
X9984348Y-12828484D02*
X10003396Y-12828484D01*
X10003396Y-12828484D02*
X10022444Y-12838008D01*
X10022444Y-12838008D02*
X10031968Y-12847531D01*
X10031968Y-12847531D02*
X10041491Y-12866579D01*
X10041491Y-12866579D02*
X10051015Y-12904674D01*
X10051015Y-12904674D02*
X10051015Y-12952293D01*
X10051015Y-12952293D02*
X10041491Y-12990388D01*
X10041491Y-12990388D02*
X10031968Y-13009436D01*
X10031968Y-13009436D02*
X10022444Y-13018960D01*
X10022444Y-13018960D02*
X10003396Y-13028484D01*
X10003396Y-13028484D02*
X9984348Y-13028484D01*
X9984348Y-13028484D02*
X9965301Y-13018960D01*
X9965301Y-13018960D02*
X9955777Y-13009436D01*
X9955777Y-13009436D02*
X9946253Y-12990388D01*
X9946253Y-12990388D02*
X9936729Y-12952293D01*
X9936729Y-12952293D02*
X9936729Y-12904674D01*
X9936729Y-12904674D02*
X9946253Y-12866579D01*
X9946253Y-12866579D02*
X9955777Y-12847531D01*
X9955777Y-12847531D02*
X9965301Y-12838008D01*
X9965301Y-12838008D02*
X9984348Y-12828484D01*
X10117682Y-12828484D02*
X10241491Y-12828484D01*
X10241491Y-12828484D02*
X10174825Y-12904674D01*
X10174825Y-12904674D02*
X10203396Y-12904674D01*
X10203396Y-12904674D02*
X10222444Y-12914198D01*
X10222444Y-12914198D02*
X10231968Y-12923722D01*
X10231968Y-12923722D02*
X10241491Y-12942769D01*
X10241491Y-12942769D02*
X10241491Y-12990388D01*
X10241491Y-12990388D02*
X10231968Y-13009436D01*
X10231968Y-13009436D02*
X10222444Y-13018960D01*
X10222444Y-13018960D02*
X10203396Y-13028484D01*
X10203396Y-13028484D02*
X10146253Y-13028484D01*
X10146253Y-13028484D02*
X10127206Y-13018960D01*
X10127206Y-13018960D02*
X10117682Y-13009436D01*
X10336729Y-13028484D02*
X10374825Y-13028484D01*
X10374825Y-13028484D02*
X10393872Y-13018960D01*
X10393872Y-13018960D02*
X10403396Y-13009436D01*
X10403396Y-13009436D02*
X10422444Y-12980865D01*
X10422444Y-12980865D02*
X10431968Y-12942769D01*
X10431968Y-12942769D02*
X10431968Y-12866579D01*
X10431968Y-12866579D02*
X10422444Y-12847531D01*
X10422444Y-12847531D02*
X10412920Y-12838008D01*
X10412920Y-12838008D02*
X10393872Y-12828484D01*
X10393872Y-12828484D02*
X10355777Y-12828484D01*
X10355777Y-12828484D02*
X10336729Y-12838008D01*
X10336729Y-12838008D02*
X10327206Y-12847531D01*
X10327206Y-12847531D02*
X10317682Y-12866579D01*
X10317682Y-12866579D02*
X10317682Y-12914198D01*
X10317682Y-12914198D02*
X10327206Y-12933246D01*
X10327206Y-12933246D02*
X10336729Y-12942769D01*
X10336729Y-12942769D02*
X10355777Y-12952293D01*
X10355777Y-12952293D02*
X10393872Y-12952293D01*
X10393872Y-12952293D02*
X10412920Y-12942769D01*
X10412920Y-12942769D02*
X10422444Y-12933246D01*
X10422444Y-12933246D02*
X10431968Y-12914198D01*
X10603396Y-12895150D02*
X10603396Y-13028484D01*
X10555777Y-12818960D02*
X10508158Y-12961817D01*
X10508158Y-12961817D02*
X10631968Y-12961817D01*
X10698634Y-12828484D02*
X10698634Y-12866579D01*
X10774825Y-12828484D02*
X10774825Y-12866579D01*
X11070063Y-13104674D02*
X11060539Y-13095150D01*
X11060539Y-13095150D02*
X11041491Y-13066579D01*
X11041491Y-13066579D02*
X11031968Y-13047531D01*
X11031968Y-13047531D02*
X11022444Y-13018960D01*
X11022444Y-13018960D02*
X11012920Y-12971341D01*
X11012920Y-12971341D02*
X11012920Y-12933246D01*
X11012920Y-12933246D02*
X11022444Y-12885627D01*
X11022444Y-12885627D02*
X11031968Y-12857055D01*
X11031968Y-12857055D02*
X11041491Y-12838008D01*
X11041491Y-12838008D02*
X11060539Y-12809436D01*
X11060539Y-12809436D02*
X11070063Y-12799912D01*
X11231968Y-12895150D02*
X11231968Y-13028484D01*
X11184349Y-12818960D02*
X11136730Y-12961817D01*
X11136730Y-12961817D02*
X11260539Y-12961817D01*
X11489110Y-13028484D02*
X11489110Y-12828484D01*
X11574825Y-13028484D02*
X11574825Y-12923722D01*
X11574825Y-12923722D02*
X11565301Y-12904674D01*
X11565301Y-12904674D02*
X11546253Y-12895150D01*
X11546253Y-12895150D02*
X11517682Y-12895150D01*
X11517682Y-12895150D02*
X11498634Y-12904674D01*
X11498634Y-12904674D02*
X11489110Y-12914198D01*
X11698634Y-13028484D02*
X11679587Y-13018960D01*
X11679587Y-13018960D02*
X11670063Y-13009436D01*
X11670063Y-13009436D02*
X11660539Y-12990388D01*
X11660539Y-12990388D02*
X11660539Y-12933246D01*
X11660539Y-12933246D02*
X11670063Y-12914198D01*
X11670063Y-12914198D02*
X11679587Y-12904674D01*
X11679587Y-12904674D02*
X11698634Y-12895150D01*
X11698634Y-12895150D02*
X11727206Y-12895150D01*
X11727206Y-12895150D02*
X11746253Y-12904674D01*
X11746253Y-12904674D02*
X11755777Y-12914198D01*
X11755777Y-12914198D02*
X11765301Y-12933246D01*
X11765301Y-12933246D02*
X11765301Y-12990388D01*
X11765301Y-12990388D02*
X11755777Y-13009436D01*
X11755777Y-13009436D02*
X11746253Y-13018960D01*
X11746253Y-13018960D02*
X11727206Y-13028484D01*
X11727206Y-13028484D02*
X11698634Y-13028484D01*
X11879587Y-13028484D02*
X11860539Y-13018960D01*
X11860539Y-13018960D02*
X11851015Y-12999912D01*
X11851015Y-12999912D02*
X11851015Y-12828484D01*
X12031968Y-13018960D02*
X12012920Y-13028484D01*
X12012920Y-13028484D02*
X11974825Y-13028484D01*
X11974825Y-13028484D02*
X11955777Y-13018960D01*
X11955777Y-13018960D02*
X11946253Y-12999912D01*
X11946253Y-12999912D02*
X11946253Y-12923722D01*
X11946253Y-12923722D02*
X11955777Y-12904674D01*
X11955777Y-12904674D02*
X11974825Y-12895150D01*
X11974825Y-12895150D02*
X12012920Y-12895150D01*
X12012920Y-12895150D02*
X12031968Y-12904674D01*
X12031968Y-12904674D02*
X12041491Y-12923722D01*
X12041491Y-12923722D02*
X12041491Y-12942769D01*
X12041491Y-12942769D02*
X11946253Y-12961817D01*
X12117682Y-13018960D02*
X12136730Y-13028484D01*
X12136730Y-13028484D02*
X12174825Y-13028484D01*
X12174825Y-13028484D02*
X12193872Y-13018960D01*
X12193872Y-13018960D02*
X12203396Y-12999912D01*
X12203396Y-12999912D02*
X12203396Y-12990388D01*
X12203396Y-12990388D02*
X12193872Y-12971341D01*
X12193872Y-12971341D02*
X12174825Y-12961817D01*
X12174825Y-12961817D02*
X12146253Y-12961817D01*
X12146253Y-12961817D02*
X12127206Y-12952293D01*
X12127206Y-12952293D02*
X12117682Y-12933246D01*
X12117682Y-12933246D02*
X12117682Y-12923722D01*
X12117682Y-12923722D02*
X12127206Y-12904674D01*
X12127206Y-12904674D02*
X12146253Y-12895150D01*
X12146253Y-12895150D02*
X12174825Y-12895150D01*
X12174825Y-12895150D02*
X12193872Y-12904674D01*
X12270063Y-13104674D02*
X12279587Y-13095150D01*
X12279587Y-13095150D02*
X12298634Y-13066579D01*
X12298634Y-13066579D02*
X12308158Y-13047531D01*
X12308158Y-13047531D02*
X12317682Y-13018960D01*
X12317682Y-13018960D02*
X12327206Y-12971341D01*
X12327206Y-12971341D02*
X12327206Y-12933246D01*
X12327206Y-12933246D02*
X12317682Y-12885627D01*
X12317682Y-12885627D02*
X12308158Y-12857055D01*
X12308158Y-12857055D02*
X12298634Y-12838008D01*
X12298634Y-12838008D02*
X12279587Y-12809436D01*
X12279587Y-12809436D02*
X12270063Y-12799912D01*
X7395000Y-13301000D02*
X7495000Y-13201000D01*
X7395000Y-13101000D01*
X7295000Y-13201000D01*
X7395000Y-13301000D01*
X7746253Y-13111531D02*
X7755777Y-13102008D01*
X7755777Y-13102008D02*
X7774824Y-13092484D01*
X7774824Y-13092484D02*
X7822443Y-13092484D01*
X7822443Y-13092484D02*
X7841491Y-13102008D01*
X7841491Y-13102008D02*
X7851015Y-13111531D01*
X7851015Y-13111531D02*
X7860539Y-13130579D01*
X7860539Y-13130579D02*
X7860539Y-13149627D01*
X7860539Y-13149627D02*
X7851015Y-13178198D01*
X7851015Y-13178198D02*
X7736729Y-13292484D01*
X7736729Y-13292484D02*
X7860539Y-13292484D01*
X7946253Y-13273436D02*
X7955777Y-13282960D01*
X7955777Y-13282960D02*
X7946253Y-13292484D01*
X7946253Y-13292484D02*
X7936729Y-13282960D01*
X7936729Y-13282960D02*
X7946253Y-13273436D01*
X7946253Y-13273436D02*
X7946253Y-13292484D01*
X8031967Y-13111531D02*
X8041491Y-13102008D01*
X8041491Y-13102008D02*
X8060539Y-13092484D01*
X8060539Y-13092484D02*
X8108158Y-13092484D01*
X8108158Y-13092484D02*
X8127205Y-13102008D01*
X8127205Y-13102008D02*
X8136729Y-13111531D01*
X8136729Y-13111531D02*
X8146253Y-13130579D01*
X8146253Y-13130579D02*
X8146253Y-13149627D01*
X8146253Y-13149627D02*
X8136729Y-13178198D01*
X8136729Y-13178198D02*
X8022443Y-13292484D01*
X8022443Y-13292484D02*
X8146253Y-13292484D01*
X8270062Y-13092484D02*
X8289110Y-13092484D01*
X8289110Y-13092484D02*
X8308158Y-13102008D01*
X8308158Y-13102008D02*
X8317682Y-13111531D01*
X8317682Y-13111531D02*
X8327205Y-13130579D01*
X8327205Y-13130579D02*
X8336729Y-13168674D01*
X8336729Y-13168674D02*
X8336729Y-13216293D01*
X8336729Y-13216293D02*
X8327205Y-13254388D01*
X8327205Y-13254388D02*
X8317682Y-13273436D01*
X8317682Y-13273436D02*
X8308158Y-13282960D01*
X8308158Y-13282960D02*
X8289110Y-13292484D01*
X8289110Y-13292484D02*
X8270062Y-13292484D01*
X8270062Y-13292484D02*
X8251015Y-13282960D01*
X8251015Y-13282960D02*
X8241491Y-13273436D01*
X8241491Y-13273436D02*
X8231967Y-13254388D01*
X8231967Y-13254388D02*
X8222443Y-13216293D01*
X8222443Y-13216293D02*
X8222443Y-13168674D01*
X8222443Y-13168674D02*
X8231967Y-13130579D01*
X8231967Y-13130579D02*
X8241491Y-13111531D01*
X8241491Y-13111531D02*
X8251015Y-13102008D01*
X8251015Y-13102008D02*
X8270062Y-13092484D01*
X8460539Y-13092484D02*
X8479586Y-13092484D01*
X8479586Y-13092484D02*
X8498634Y-13102008D01*
X8498634Y-13102008D02*
X8508158Y-13111531D01*
X8508158Y-13111531D02*
X8517682Y-13130579D01*
X8517682Y-13130579D02*
X8527205Y-13168674D01*
X8527205Y-13168674D02*
X8527205Y-13216293D01*
X8527205Y-13216293D02*
X8517682Y-13254388D01*
X8517682Y-13254388D02*
X8508158Y-13273436D01*
X8508158Y-13273436D02*
X8498634Y-13282960D01*
X8498634Y-13282960D02*
X8479586Y-13292484D01*
X8479586Y-13292484D02*
X8460539Y-13292484D01*
X8460539Y-13292484D02*
X8441491Y-13282960D01*
X8441491Y-13282960D02*
X8431967Y-13273436D01*
X8431967Y-13273436D02*
X8422444Y-13254388D01*
X8422444Y-13254388D02*
X8412920Y-13216293D01*
X8412920Y-13216293D02*
X8412920Y-13168674D01*
X8412920Y-13168674D02*
X8422444Y-13130579D01*
X8422444Y-13130579D02*
X8431967Y-13111531D01*
X8431967Y-13111531D02*
X8441491Y-13102008D01*
X8441491Y-13102008D02*
X8460539Y-13092484D01*
X8612920Y-13292484D02*
X8612920Y-13159150D01*
X8612920Y-13178198D02*
X8622444Y-13168674D01*
X8622444Y-13168674D02*
X8641491Y-13159150D01*
X8641491Y-13159150D02*
X8670063Y-13159150D01*
X8670063Y-13159150D02*
X8689110Y-13168674D01*
X8689110Y-13168674D02*
X8698634Y-13187722D01*
X8698634Y-13187722D02*
X8698634Y-13292484D01*
X8698634Y-13187722D02*
X8708158Y-13168674D01*
X8708158Y-13168674D02*
X8727205Y-13159150D01*
X8727205Y-13159150D02*
X8755777Y-13159150D01*
X8755777Y-13159150D02*
X8774825Y-13168674D01*
X8774825Y-13168674D02*
X8784348Y-13187722D01*
X8784348Y-13187722D02*
X8784348Y-13292484D01*
X8879586Y-13292484D02*
X8879586Y-13159150D01*
X8879586Y-13178198D02*
X8889110Y-13168674D01*
X8889110Y-13168674D02*
X8908158Y-13159150D01*
X8908158Y-13159150D02*
X8936729Y-13159150D01*
X8936729Y-13159150D02*
X8955777Y-13168674D01*
X8955777Y-13168674D02*
X8965301Y-13187722D01*
X8965301Y-13187722D02*
X8965301Y-13292484D01*
X8965301Y-13187722D02*
X8974825Y-13168674D01*
X8974825Y-13168674D02*
X8993872Y-13159150D01*
X8993872Y-13159150D02*
X9022444Y-13159150D01*
X9022444Y-13159150D02*
X9041491Y-13168674D01*
X9041491Y-13168674D02*
X9051015Y-13187722D01*
X9051015Y-13187722D02*
X9051015Y-13292484D01*
X9441491Y-13082960D02*
X9270063Y-13340103D01*
X9698634Y-13092484D02*
X9717682Y-13092484D01*
X9717682Y-13092484D02*
X9736729Y-13102008D01*
X9736729Y-13102008D02*
X9746253Y-13111531D01*
X9746253Y-13111531D02*
X9755777Y-13130579D01*
X9755777Y-13130579D02*
X9765301Y-13168674D01*
X9765301Y-13168674D02*
X9765301Y-13216293D01*
X9765301Y-13216293D02*
X9755777Y-13254388D01*
X9755777Y-13254388D02*
X9746253Y-13273436D01*
X9746253Y-13273436D02*
X9736729Y-13282960D01*
X9736729Y-13282960D02*
X9717682Y-13292484D01*
X9717682Y-13292484D02*
X9698634Y-13292484D01*
X9698634Y-13292484D02*
X9679587Y-13282960D01*
X9679587Y-13282960D02*
X9670063Y-13273436D01*
X9670063Y-13273436D02*
X9660539Y-13254388D01*
X9660539Y-13254388D02*
X9651015Y-13216293D01*
X9651015Y-13216293D02*
X9651015Y-13168674D01*
X9651015Y-13168674D02*
X9660539Y-13130579D01*
X9660539Y-13130579D02*
X9670063Y-13111531D01*
X9670063Y-13111531D02*
X9679587Y-13102008D01*
X9679587Y-13102008D02*
X9698634Y-13092484D01*
X9851015Y-13273436D02*
X9860539Y-13282960D01*
X9860539Y-13282960D02*
X9851015Y-13292484D01*
X9851015Y-13292484D02*
X9841491Y-13282960D01*
X9841491Y-13282960D02*
X9851015Y-13273436D01*
X9851015Y-13273436D02*
X9851015Y-13292484D01*
X9984348Y-13092484D02*
X10003396Y-13092484D01*
X10003396Y-13092484D02*
X10022444Y-13102008D01*
X10022444Y-13102008D02*
X10031968Y-13111531D01*
X10031968Y-13111531D02*
X10041491Y-13130579D01*
X10041491Y-13130579D02*
X10051015Y-13168674D01*
X10051015Y-13168674D02*
X10051015Y-13216293D01*
X10051015Y-13216293D02*
X10041491Y-13254388D01*
X10041491Y-13254388D02*
X10031968Y-13273436D01*
X10031968Y-13273436D02*
X10022444Y-13282960D01*
X10022444Y-13282960D02*
X10003396Y-13292484D01*
X10003396Y-13292484D02*
X9984348Y-13292484D01*
X9984348Y-13292484D02*
X9965301Y-13282960D01*
X9965301Y-13282960D02*
X9955777Y-13273436D01*
X9955777Y-13273436D02*
X9946253Y-13254388D01*
X9946253Y-13254388D02*
X9936729Y-13216293D01*
X9936729Y-13216293D02*
X9936729Y-13168674D01*
X9936729Y-13168674D02*
X9946253Y-13130579D01*
X9946253Y-13130579D02*
X9955777Y-13111531D01*
X9955777Y-13111531D02*
X9965301Y-13102008D01*
X9965301Y-13102008D02*
X9984348Y-13092484D01*
X10165301Y-13178198D02*
X10146253Y-13168674D01*
X10146253Y-13168674D02*
X10136729Y-13159150D01*
X10136729Y-13159150D02*
X10127206Y-13140103D01*
X10127206Y-13140103D02*
X10127206Y-13130579D01*
X10127206Y-13130579D02*
X10136729Y-13111531D01*
X10136729Y-13111531D02*
X10146253Y-13102008D01*
X10146253Y-13102008D02*
X10165301Y-13092484D01*
X10165301Y-13092484D02*
X10203396Y-13092484D01*
X10203396Y-13092484D02*
X10222444Y-13102008D01*
X10222444Y-13102008D02*
X10231968Y-13111531D01*
X10231968Y-13111531D02*
X10241491Y-13130579D01*
X10241491Y-13130579D02*
X10241491Y-13140103D01*
X10241491Y-13140103D02*
X10231968Y-13159150D01*
X10231968Y-13159150D02*
X10222444Y-13168674D01*
X10222444Y-13168674D02*
X10203396Y-13178198D01*
X10203396Y-13178198D02*
X10165301Y-13178198D01*
X10165301Y-13178198D02*
X10146253Y-13187722D01*
X10146253Y-13187722D02*
X10136729Y-13197246D01*
X10136729Y-13197246D02*
X10127206Y-13216293D01*
X10127206Y-13216293D02*
X10127206Y-13254388D01*
X10127206Y-13254388D02*
X10136729Y-13273436D01*
X10136729Y-13273436D02*
X10146253Y-13282960D01*
X10146253Y-13282960D02*
X10165301Y-13292484D01*
X10165301Y-13292484D02*
X10203396Y-13292484D01*
X10203396Y-13292484D02*
X10222444Y-13282960D01*
X10222444Y-13282960D02*
X10231968Y-13273436D01*
X10231968Y-13273436D02*
X10241491Y-13254388D01*
X10241491Y-13254388D02*
X10241491Y-13216293D01*
X10241491Y-13216293D02*
X10231968Y-13197246D01*
X10231968Y-13197246D02*
X10222444Y-13187722D01*
X10222444Y-13187722D02*
X10203396Y-13178198D01*
X10412920Y-13092484D02*
X10374825Y-13092484D01*
X10374825Y-13092484D02*
X10355777Y-13102008D01*
X10355777Y-13102008D02*
X10346253Y-13111531D01*
X10346253Y-13111531D02*
X10327206Y-13140103D01*
X10327206Y-13140103D02*
X10317682Y-13178198D01*
X10317682Y-13178198D02*
X10317682Y-13254388D01*
X10317682Y-13254388D02*
X10327206Y-13273436D01*
X10327206Y-13273436D02*
X10336729Y-13282960D01*
X10336729Y-13282960D02*
X10355777Y-13292484D01*
X10355777Y-13292484D02*
X10393872Y-13292484D01*
X10393872Y-13292484D02*
X10412920Y-13282960D01*
X10412920Y-13282960D02*
X10422444Y-13273436D01*
X10422444Y-13273436D02*
X10431968Y-13254388D01*
X10431968Y-13254388D02*
X10431968Y-13206769D01*
X10431968Y-13206769D02*
X10422444Y-13187722D01*
X10422444Y-13187722D02*
X10412920Y-13178198D01*
X10412920Y-13178198D02*
X10393872Y-13168674D01*
X10393872Y-13168674D02*
X10355777Y-13168674D01*
X10355777Y-13168674D02*
X10336729Y-13178198D01*
X10336729Y-13178198D02*
X10327206Y-13187722D01*
X10327206Y-13187722D02*
X10317682Y-13206769D01*
X10603396Y-13092484D02*
X10565301Y-13092484D01*
X10565301Y-13092484D02*
X10546253Y-13102008D01*
X10546253Y-13102008D02*
X10536729Y-13111531D01*
X10536729Y-13111531D02*
X10517682Y-13140103D01*
X10517682Y-13140103D02*
X10508158Y-13178198D01*
X10508158Y-13178198D02*
X10508158Y-13254388D01*
X10508158Y-13254388D02*
X10517682Y-13273436D01*
X10517682Y-13273436D02*
X10527206Y-13282960D01*
X10527206Y-13282960D02*
X10546253Y-13292484D01*
X10546253Y-13292484D02*
X10584349Y-13292484D01*
X10584349Y-13292484D02*
X10603396Y-13282960D01*
X10603396Y-13282960D02*
X10612920Y-13273436D01*
X10612920Y-13273436D02*
X10622444Y-13254388D01*
X10622444Y-13254388D02*
X10622444Y-13206769D01*
X10622444Y-13206769D02*
X10612920Y-13187722D01*
X10612920Y-13187722D02*
X10603396Y-13178198D01*
X10603396Y-13178198D02*
X10584349Y-13168674D01*
X10584349Y-13168674D02*
X10546253Y-13168674D01*
X10546253Y-13168674D02*
X10527206Y-13178198D01*
X10527206Y-13178198D02*
X10517682Y-13187722D01*
X10517682Y-13187722D02*
X10508158Y-13206769D01*
X10698634Y-13092484D02*
X10698634Y-13130579D01*
X10774825Y-13092484D02*
X10774825Y-13130579D01*
X11070063Y-13368674D02*
X11060539Y-13359150D01*
X11060539Y-13359150D02*
X11041491Y-13330579D01*
X11041491Y-13330579D02*
X11031968Y-13311531D01*
X11031968Y-13311531D02*
X11022444Y-13282960D01*
X11022444Y-13282960D02*
X11012920Y-13235341D01*
X11012920Y-13235341D02*
X11012920Y-13197246D01*
X11012920Y-13197246D02*
X11022444Y-13149627D01*
X11022444Y-13149627D02*
X11031968Y-13121055D01*
X11031968Y-13121055D02*
X11041491Y-13102008D01*
X11041491Y-13102008D02*
X11060539Y-13073436D01*
X11060539Y-13073436D02*
X11070063Y-13063912D01*
X11251015Y-13292484D02*
X11136730Y-13292484D01*
X11193872Y-13292484D02*
X11193872Y-13092484D01*
X11193872Y-13092484D02*
X11174825Y-13121055D01*
X11174825Y-13121055D02*
X11155777Y-13140103D01*
X11155777Y-13140103D02*
X11136730Y-13149627D01*
X11489110Y-13292484D02*
X11489110Y-13092484D01*
X11574825Y-13292484D02*
X11574825Y-13187722D01*
X11574825Y-13187722D02*
X11565301Y-13168674D01*
X11565301Y-13168674D02*
X11546253Y-13159150D01*
X11546253Y-13159150D02*
X11517682Y-13159150D01*
X11517682Y-13159150D02*
X11498634Y-13168674D01*
X11498634Y-13168674D02*
X11489110Y-13178198D01*
X11698634Y-13292484D02*
X11679587Y-13282960D01*
X11679587Y-13282960D02*
X11670063Y-13273436D01*
X11670063Y-13273436D02*
X11660539Y-13254388D01*
X11660539Y-13254388D02*
X11660539Y-13197246D01*
X11660539Y-13197246D02*
X11670063Y-13178198D01*
X11670063Y-13178198D02*
X11679587Y-13168674D01*
X11679587Y-13168674D02*
X11698634Y-13159150D01*
X11698634Y-13159150D02*
X11727206Y-13159150D01*
X11727206Y-13159150D02*
X11746253Y-13168674D01*
X11746253Y-13168674D02*
X11755777Y-13178198D01*
X11755777Y-13178198D02*
X11765301Y-13197246D01*
X11765301Y-13197246D02*
X11765301Y-13254388D01*
X11765301Y-13254388D02*
X11755777Y-13273436D01*
X11755777Y-13273436D02*
X11746253Y-13282960D01*
X11746253Y-13282960D02*
X11727206Y-13292484D01*
X11727206Y-13292484D02*
X11698634Y-13292484D01*
X11879587Y-13292484D02*
X11860539Y-13282960D01*
X11860539Y-13282960D02*
X11851015Y-13263912D01*
X11851015Y-13263912D02*
X11851015Y-13092484D01*
X12031968Y-13282960D02*
X12012920Y-13292484D01*
X12012920Y-13292484D02*
X11974825Y-13292484D01*
X11974825Y-13292484D02*
X11955777Y-13282960D01*
X11955777Y-13282960D02*
X11946253Y-13263912D01*
X11946253Y-13263912D02*
X11946253Y-13187722D01*
X11946253Y-13187722D02*
X11955777Y-13168674D01*
X11955777Y-13168674D02*
X11974825Y-13159150D01*
X11974825Y-13159150D02*
X12012920Y-13159150D01*
X12012920Y-13159150D02*
X12031968Y-13168674D01*
X12031968Y-13168674D02*
X12041491Y-13187722D01*
X12041491Y-13187722D02*
X12041491Y-13206769D01*
X12041491Y-13206769D02*
X11946253Y-13225817D01*
X12108158Y-13368674D02*
X12117682Y-13359150D01*
X12117682Y-13359150D02*
X12136730Y-13330579D01*
X12136730Y-13330579D02*
X12146253Y-13311531D01*
X12146253Y-13311531D02*
X12155777Y-13282960D01*
X12155777Y-13282960D02*
X12165301Y-13235341D01*
X12165301Y-13235341D02*
X12165301Y-13197246D01*
X12165301Y-13197246D02*
X12155777Y-13149627D01*
X12155777Y-13149627D02*
X12146253Y-13121055D01*
X12146253Y-13121055D02*
X12136730Y-13102008D01*
X12136730Y-13102008D02*
X12117682Y-13073436D01*
X12117682Y-13073436D02*
X12108158Y-13063912D01*
X7295000Y-13421000D02*
X7495000Y-13621000D01*
X7495000Y-13421000D02*
X7295000Y-13621000D01*
X7495000Y-13521000D02*
G75*
G02*
X7295000Y-13521000I-100000J0D01*
G01*
X7295000Y-13521000D02*
G75*
G02*
X7495000Y-13521000I100000J0D01*
G01*
X7746253Y-13431531D02*
X7755777Y-13422008D01*
X7755777Y-13422008D02*
X7774824Y-13412484D01*
X7774824Y-13412484D02*
X7822443Y-13412484D01*
X7822443Y-13412484D02*
X7841491Y-13422008D01*
X7841491Y-13422008D02*
X7851015Y-13431531D01*
X7851015Y-13431531D02*
X7860539Y-13450579D01*
X7860539Y-13450579D02*
X7860539Y-13469627D01*
X7860539Y-13469627D02*
X7851015Y-13498198D01*
X7851015Y-13498198D02*
X7736729Y-13612484D01*
X7736729Y-13612484D02*
X7860539Y-13612484D01*
X7946253Y-13593436D02*
X7955777Y-13602960D01*
X7955777Y-13602960D02*
X7946253Y-13612484D01*
X7946253Y-13612484D02*
X7936729Y-13602960D01*
X7936729Y-13602960D02*
X7946253Y-13593436D01*
X7946253Y-13593436D02*
X7946253Y-13612484D01*
X8022443Y-13412484D02*
X8155777Y-13412484D01*
X8155777Y-13412484D02*
X8070062Y-13612484D01*
X8270062Y-13412484D02*
X8289110Y-13412484D01*
X8289110Y-13412484D02*
X8308158Y-13422008D01*
X8308158Y-13422008D02*
X8317682Y-13431531D01*
X8317682Y-13431531D02*
X8327205Y-13450579D01*
X8327205Y-13450579D02*
X8336729Y-13488674D01*
X8336729Y-13488674D02*
X8336729Y-13536293D01*
X8336729Y-13536293D02*
X8327205Y-13574388D01*
X8327205Y-13574388D02*
X8317682Y-13593436D01*
X8317682Y-13593436D02*
X8308158Y-13602960D01*
X8308158Y-13602960D02*
X8289110Y-13612484D01*
X8289110Y-13612484D02*
X8270062Y-13612484D01*
X8270062Y-13612484D02*
X8251015Y-13602960D01*
X8251015Y-13602960D02*
X8241491Y-13593436D01*
X8241491Y-13593436D02*
X8231967Y-13574388D01*
X8231967Y-13574388D02*
X8222443Y-13536293D01*
X8222443Y-13536293D02*
X8222443Y-13488674D01*
X8222443Y-13488674D02*
X8231967Y-13450579D01*
X8231967Y-13450579D02*
X8241491Y-13431531D01*
X8241491Y-13431531D02*
X8251015Y-13422008D01*
X8251015Y-13422008D02*
X8270062Y-13412484D01*
X8460539Y-13412484D02*
X8479586Y-13412484D01*
X8479586Y-13412484D02*
X8498634Y-13422008D01*
X8498634Y-13422008D02*
X8508158Y-13431531D01*
X8508158Y-13431531D02*
X8517682Y-13450579D01*
X8517682Y-13450579D02*
X8527205Y-13488674D01*
X8527205Y-13488674D02*
X8527205Y-13536293D01*
X8527205Y-13536293D02*
X8517682Y-13574388D01*
X8517682Y-13574388D02*
X8508158Y-13593436D01*
X8508158Y-13593436D02*
X8498634Y-13602960D01*
X8498634Y-13602960D02*
X8479586Y-13612484D01*
X8479586Y-13612484D02*
X8460539Y-13612484D01*
X8460539Y-13612484D02*
X8441491Y-13602960D01*
X8441491Y-13602960D02*
X8431967Y-13593436D01*
X8431967Y-13593436D02*
X8422444Y-13574388D01*
X8422444Y-13574388D02*
X8412920Y-13536293D01*
X8412920Y-13536293D02*
X8412920Y-13488674D01*
X8412920Y-13488674D02*
X8422444Y-13450579D01*
X8422444Y-13450579D02*
X8431967Y-13431531D01*
X8431967Y-13431531D02*
X8441491Y-13422008D01*
X8441491Y-13422008D02*
X8460539Y-13412484D01*
X8612920Y-13612484D02*
X8612920Y-13479150D01*
X8612920Y-13498198D02*
X8622444Y-13488674D01*
X8622444Y-13488674D02*
X8641491Y-13479150D01*
X8641491Y-13479150D02*
X8670063Y-13479150D01*
X8670063Y-13479150D02*
X8689110Y-13488674D01*
X8689110Y-13488674D02*
X8698634Y-13507722D01*
X8698634Y-13507722D02*
X8698634Y-13612484D01*
X8698634Y-13507722D02*
X8708158Y-13488674D01*
X8708158Y-13488674D02*
X8727205Y-13479150D01*
X8727205Y-13479150D02*
X8755777Y-13479150D01*
X8755777Y-13479150D02*
X8774825Y-13488674D01*
X8774825Y-13488674D02*
X8784348Y-13507722D01*
X8784348Y-13507722D02*
X8784348Y-13612484D01*
X8879586Y-13612484D02*
X8879586Y-13479150D01*
X8879586Y-13498198D02*
X8889110Y-13488674D01*
X8889110Y-13488674D02*
X8908158Y-13479150D01*
X8908158Y-13479150D02*
X8936729Y-13479150D01*
X8936729Y-13479150D02*
X8955777Y-13488674D01*
X8955777Y-13488674D02*
X8965301Y-13507722D01*
X8965301Y-13507722D02*
X8965301Y-13612484D01*
X8965301Y-13507722D02*
X8974825Y-13488674D01*
X8974825Y-13488674D02*
X8993872Y-13479150D01*
X8993872Y-13479150D02*
X9022444Y-13479150D01*
X9022444Y-13479150D02*
X9041491Y-13488674D01*
X9041491Y-13488674D02*
X9051015Y-13507722D01*
X9051015Y-13507722D02*
X9051015Y-13612484D01*
X9441491Y-13402960D02*
X9270063Y-13660103D01*
X9698634Y-13412484D02*
X9717682Y-13412484D01*
X9717682Y-13412484D02*
X9736729Y-13422008D01*
X9736729Y-13422008D02*
X9746253Y-13431531D01*
X9746253Y-13431531D02*
X9755777Y-13450579D01*
X9755777Y-13450579D02*
X9765301Y-13488674D01*
X9765301Y-13488674D02*
X9765301Y-13536293D01*
X9765301Y-13536293D02*
X9755777Y-13574388D01*
X9755777Y-13574388D02*
X9746253Y-13593436D01*
X9746253Y-13593436D02*
X9736729Y-13602960D01*
X9736729Y-13602960D02*
X9717682Y-13612484D01*
X9717682Y-13612484D02*
X9698634Y-13612484D01*
X9698634Y-13612484D02*
X9679587Y-13602960D01*
X9679587Y-13602960D02*
X9670063Y-13593436D01*
X9670063Y-13593436D02*
X9660539Y-13574388D01*
X9660539Y-13574388D02*
X9651015Y-13536293D01*
X9651015Y-13536293D02*
X9651015Y-13488674D01*
X9651015Y-13488674D02*
X9660539Y-13450579D01*
X9660539Y-13450579D02*
X9670063Y-13431531D01*
X9670063Y-13431531D02*
X9679587Y-13422008D01*
X9679587Y-13422008D02*
X9698634Y-13412484D01*
X9851015Y-13593436D02*
X9860539Y-13602960D01*
X9860539Y-13602960D02*
X9851015Y-13612484D01*
X9851015Y-13612484D02*
X9841491Y-13602960D01*
X9841491Y-13602960D02*
X9851015Y-13593436D01*
X9851015Y-13593436D02*
X9851015Y-13612484D01*
X10051015Y-13612484D02*
X9936729Y-13612484D01*
X9993872Y-13612484D02*
X9993872Y-13412484D01*
X9993872Y-13412484D02*
X9974825Y-13441055D01*
X9974825Y-13441055D02*
X9955777Y-13460103D01*
X9955777Y-13460103D02*
X9936729Y-13469627D01*
X10174825Y-13412484D02*
X10193872Y-13412484D01*
X10193872Y-13412484D02*
X10212920Y-13422008D01*
X10212920Y-13422008D02*
X10222444Y-13431531D01*
X10222444Y-13431531D02*
X10231968Y-13450579D01*
X10231968Y-13450579D02*
X10241491Y-13488674D01*
X10241491Y-13488674D02*
X10241491Y-13536293D01*
X10241491Y-13536293D02*
X10231968Y-13574388D01*
X10231968Y-13574388D02*
X10222444Y-13593436D01*
X10222444Y-13593436D02*
X10212920Y-13602960D01*
X10212920Y-13602960D02*
X10193872Y-13612484D01*
X10193872Y-13612484D02*
X10174825Y-13612484D01*
X10174825Y-13612484D02*
X10155777Y-13602960D01*
X10155777Y-13602960D02*
X10146253Y-13593436D01*
X10146253Y-13593436D02*
X10136729Y-13574388D01*
X10136729Y-13574388D02*
X10127206Y-13536293D01*
X10127206Y-13536293D02*
X10127206Y-13488674D01*
X10127206Y-13488674D02*
X10136729Y-13450579D01*
X10136729Y-13450579D02*
X10146253Y-13431531D01*
X10146253Y-13431531D02*
X10155777Y-13422008D01*
X10155777Y-13422008D02*
X10174825Y-13412484D01*
X10412920Y-13412484D02*
X10374825Y-13412484D01*
X10374825Y-13412484D02*
X10355777Y-13422008D01*
X10355777Y-13422008D02*
X10346253Y-13431531D01*
X10346253Y-13431531D02*
X10327206Y-13460103D01*
X10327206Y-13460103D02*
X10317682Y-13498198D01*
X10317682Y-13498198D02*
X10317682Y-13574388D01*
X10317682Y-13574388D02*
X10327206Y-13593436D01*
X10327206Y-13593436D02*
X10336729Y-13602960D01*
X10336729Y-13602960D02*
X10355777Y-13612484D01*
X10355777Y-13612484D02*
X10393872Y-13612484D01*
X10393872Y-13612484D02*
X10412920Y-13602960D01*
X10412920Y-13602960D02*
X10422444Y-13593436D01*
X10422444Y-13593436D02*
X10431968Y-13574388D01*
X10431968Y-13574388D02*
X10431968Y-13526769D01*
X10431968Y-13526769D02*
X10422444Y-13507722D01*
X10422444Y-13507722D02*
X10412920Y-13498198D01*
X10412920Y-13498198D02*
X10393872Y-13488674D01*
X10393872Y-13488674D02*
X10355777Y-13488674D01*
X10355777Y-13488674D02*
X10336729Y-13498198D01*
X10336729Y-13498198D02*
X10327206Y-13507722D01*
X10327206Y-13507722D02*
X10317682Y-13526769D01*
X10498634Y-13412484D02*
X10622444Y-13412484D01*
X10622444Y-13412484D02*
X10555777Y-13488674D01*
X10555777Y-13488674D02*
X10584349Y-13488674D01*
X10584349Y-13488674D02*
X10603396Y-13498198D01*
X10603396Y-13498198D02*
X10612920Y-13507722D01*
X10612920Y-13507722D02*
X10622444Y-13526769D01*
X10622444Y-13526769D02*
X10622444Y-13574388D01*
X10622444Y-13574388D02*
X10612920Y-13593436D01*
X10612920Y-13593436D02*
X10603396Y-13602960D01*
X10603396Y-13602960D02*
X10584349Y-13612484D01*
X10584349Y-13612484D02*
X10527206Y-13612484D01*
X10527206Y-13612484D02*
X10508158Y-13602960D01*
X10508158Y-13602960D02*
X10498634Y-13593436D01*
X10698634Y-13412484D02*
X10698634Y-13450579D01*
X10774825Y-13412484D02*
X10774825Y-13450579D01*
X11070063Y-13688674D02*
X11060539Y-13679150D01*
X11060539Y-13679150D02*
X11041491Y-13650579D01*
X11041491Y-13650579D02*
X11031968Y-13631531D01*
X11031968Y-13631531D02*
X11022444Y-13602960D01*
X11022444Y-13602960D02*
X11012920Y-13555341D01*
X11012920Y-13555341D02*
X11012920Y-13517246D01*
X11012920Y-13517246D02*
X11022444Y-13469627D01*
X11022444Y-13469627D02*
X11031968Y-13441055D01*
X11031968Y-13441055D02*
X11041491Y-13422008D01*
X11041491Y-13422008D02*
X11060539Y-13393436D01*
X11060539Y-13393436D02*
X11070063Y-13383912D01*
X11251015Y-13612484D02*
X11136730Y-13612484D01*
X11193872Y-13612484D02*
X11193872Y-13412484D01*
X11193872Y-13412484D02*
X11174825Y-13441055D01*
X11174825Y-13441055D02*
X11155777Y-13460103D01*
X11155777Y-13460103D02*
X11136730Y-13469627D01*
X11489110Y-13612484D02*
X11489110Y-13412484D01*
X11574825Y-13612484D02*
X11574825Y-13507722D01*
X11574825Y-13507722D02*
X11565301Y-13488674D01*
X11565301Y-13488674D02*
X11546253Y-13479150D01*
X11546253Y-13479150D02*
X11517682Y-13479150D01*
X11517682Y-13479150D02*
X11498634Y-13488674D01*
X11498634Y-13488674D02*
X11489110Y-13498198D01*
X11698634Y-13612484D02*
X11679587Y-13602960D01*
X11679587Y-13602960D02*
X11670063Y-13593436D01*
X11670063Y-13593436D02*
X11660539Y-13574388D01*
X11660539Y-13574388D02*
X11660539Y-13517246D01*
X11660539Y-13517246D02*
X11670063Y-13498198D01*
X11670063Y-13498198D02*
X11679587Y-13488674D01*
X11679587Y-13488674D02*
X11698634Y-13479150D01*
X11698634Y-13479150D02*
X11727206Y-13479150D01*
X11727206Y-13479150D02*
X11746253Y-13488674D01*
X11746253Y-13488674D02*
X11755777Y-13498198D01*
X11755777Y-13498198D02*
X11765301Y-13517246D01*
X11765301Y-13517246D02*
X11765301Y-13574388D01*
X11765301Y-13574388D02*
X11755777Y-13593436D01*
X11755777Y-13593436D02*
X11746253Y-13602960D01*
X11746253Y-13602960D02*
X11727206Y-13612484D01*
X11727206Y-13612484D02*
X11698634Y-13612484D01*
X11879587Y-13612484D02*
X11860539Y-13602960D01*
X11860539Y-13602960D02*
X11851015Y-13583912D01*
X11851015Y-13583912D02*
X11851015Y-13412484D01*
X12031968Y-13602960D02*
X12012920Y-13612484D01*
X12012920Y-13612484D02*
X11974825Y-13612484D01*
X11974825Y-13612484D02*
X11955777Y-13602960D01*
X11955777Y-13602960D02*
X11946253Y-13583912D01*
X11946253Y-13583912D02*
X11946253Y-13507722D01*
X11946253Y-13507722D02*
X11955777Y-13488674D01*
X11955777Y-13488674D02*
X11974825Y-13479150D01*
X11974825Y-13479150D02*
X12012920Y-13479150D01*
X12012920Y-13479150D02*
X12031968Y-13488674D01*
X12031968Y-13488674D02*
X12041491Y-13507722D01*
X12041491Y-13507722D02*
X12041491Y-13526769D01*
X12041491Y-13526769D02*
X11946253Y-13545817D01*
X12108158Y-13688674D02*
X12117682Y-13679150D01*
X12117682Y-13679150D02*
X12136730Y-13650579D01*
X12136730Y-13650579D02*
X12146253Y-13631531D01*
X12146253Y-13631531D02*
X12155777Y-13602960D01*
X12155777Y-13602960D02*
X12165301Y-13555341D01*
X12165301Y-13555341D02*
X12165301Y-13517246D01*
X12165301Y-13517246D02*
X12155777Y-13469627D01*
X12155777Y-13469627D02*
X12146253Y-13441055D01*
X12146253Y-13441055D02*
X12136730Y-13422008D01*
X12136730Y-13422008D02*
X12117682Y-13393436D01*
X12117682Y-13393436D02*
X12108158Y-13383912D01*
X7295000Y-13741000D02*
X7495000Y-13941000D01*
X7495000Y-13741000D02*
X7295000Y-13941000D01*
X7395000Y-13741000D02*
X7395000Y-13941000D01*
X7295000Y-13841000D02*
X7495000Y-13841000D01*
X7736729Y-13732484D02*
X7860539Y-13732484D01*
X7860539Y-13732484D02*
X7793872Y-13808674D01*
X7793872Y-13808674D02*
X7822443Y-13808674D01*
X7822443Y-13808674D02*
X7841491Y-13818198D01*
X7841491Y-13818198D02*
X7851015Y-13827722D01*
X7851015Y-13827722D02*
X7860539Y-13846769D01*
X7860539Y-13846769D02*
X7860539Y-13894388D01*
X7860539Y-13894388D02*
X7851015Y-13913436D01*
X7851015Y-13913436D02*
X7841491Y-13922960D01*
X7841491Y-13922960D02*
X7822443Y-13932484D01*
X7822443Y-13932484D02*
X7765301Y-13932484D01*
X7765301Y-13932484D02*
X7746253Y-13922960D01*
X7746253Y-13922960D02*
X7736729Y-13913436D01*
X7946253Y-13913436D02*
X7955777Y-13922960D01*
X7955777Y-13922960D02*
X7946253Y-13932484D01*
X7946253Y-13932484D02*
X7936729Y-13922960D01*
X7936729Y-13922960D02*
X7946253Y-13913436D01*
X7946253Y-13913436D02*
X7946253Y-13932484D01*
X8031967Y-13751531D02*
X8041491Y-13742008D01*
X8041491Y-13742008D02*
X8060539Y-13732484D01*
X8060539Y-13732484D02*
X8108158Y-13732484D01*
X8108158Y-13732484D02*
X8127205Y-13742008D01*
X8127205Y-13742008D02*
X8136729Y-13751531D01*
X8136729Y-13751531D02*
X8146253Y-13770579D01*
X8146253Y-13770579D02*
X8146253Y-13789627D01*
X8146253Y-13789627D02*
X8136729Y-13818198D01*
X8136729Y-13818198D02*
X8022443Y-13932484D01*
X8022443Y-13932484D02*
X8146253Y-13932484D01*
X8270062Y-13732484D02*
X8289110Y-13732484D01*
X8289110Y-13732484D02*
X8308158Y-13742008D01*
X8308158Y-13742008D02*
X8317682Y-13751531D01*
X8317682Y-13751531D02*
X8327205Y-13770579D01*
X8327205Y-13770579D02*
X8336729Y-13808674D01*
X8336729Y-13808674D02*
X8336729Y-13856293D01*
X8336729Y-13856293D02*
X8327205Y-13894388D01*
X8327205Y-13894388D02*
X8317682Y-13913436D01*
X8317682Y-13913436D02*
X8308158Y-13922960D01*
X8308158Y-13922960D02*
X8289110Y-13932484D01*
X8289110Y-13932484D02*
X8270062Y-13932484D01*
X8270062Y-13932484D02*
X8251015Y-13922960D01*
X8251015Y-13922960D02*
X8241491Y-13913436D01*
X8241491Y-13913436D02*
X8231967Y-13894388D01*
X8231967Y-13894388D02*
X8222443Y-13856293D01*
X8222443Y-13856293D02*
X8222443Y-13808674D01*
X8222443Y-13808674D02*
X8231967Y-13770579D01*
X8231967Y-13770579D02*
X8241491Y-13751531D01*
X8241491Y-13751531D02*
X8251015Y-13742008D01*
X8251015Y-13742008D02*
X8270062Y-13732484D01*
X8460539Y-13732484D02*
X8479586Y-13732484D01*
X8479586Y-13732484D02*
X8498634Y-13742008D01*
X8498634Y-13742008D02*
X8508158Y-13751531D01*
X8508158Y-13751531D02*
X8517682Y-13770579D01*
X8517682Y-13770579D02*
X8527205Y-13808674D01*
X8527205Y-13808674D02*
X8527205Y-13856293D01*
X8527205Y-13856293D02*
X8517682Y-13894388D01*
X8517682Y-13894388D02*
X8508158Y-13913436D01*
X8508158Y-13913436D02*
X8498634Y-13922960D01*
X8498634Y-13922960D02*
X8479586Y-13932484D01*
X8479586Y-13932484D02*
X8460539Y-13932484D01*
X8460539Y-13932484D02*
X8441491Y-13922960D01*
X8441491Y-13922960D02*
X8431967Y-13913436D01*
X8431967Y-13913436D02*
X8422444Y-13894388D01*
X8422444Y-13894388D02*
X8412920Y-13856293D01*
X8412920Y-13856293D02*
X8412920Y-13808674D01*
X8412920Y-13808674D02*
X8422444Y-13770579D01*
X8422444Y-13770579D02*
X8431967Y-13751531D01*
X8431967Y-13751531D02*
X8441491Y-13742008D01*
X8441491Y-13742008D02*
X8460539Y-13732484D01*
X8612920Y-13932484D02*
X8612920Y-13799150D01*
X8612920Y-13818198D02*
X8622444Y-13808674D01*
X8622444Y-13808674D02*
X8641491Y-13799150D01*
X8641491Y-13799150D02*
X8670063Y-13799150D01*
X8670063Y-13799150D02*
X8689110Y-13808674D01*
X8689110Y-13808674D02*
X8698634Y-13827722D01*
X8698634Y-13827722D02*
X8698634Y-13932484D01*
X8698634Y-13827722D02*
X8708158Y-13808674D01*
X8708158Y-13808674D02*
X8727205Y-13799150D01*
X8727205Y-13799150D02*
X8755777Y-13799150D01*
X8755777Y-13799150D02*
X8774825Y-13808674D01*
X8774825Y-13808674D02*
X8784348Y-13827722D01*
X8784348Y-13827722D02*
X8784348Y-13932484D01*
X8879586Y-13932484D02*
X8879586Y-13799150D01*
X8879586Y-13818198D02*
X8889110Y-13808674D01*
X8889110Y-13808674D02*
X8908158Y-13799150D01*
X8908158Y-13799150D02*
X8936729Y-13799150D01*
X8936729Y-13799150D02*
X8955777Y-13808674D01*
X8955777Y-13808674D02*
X8965301Y-13827722D01*
X8965301Y-13827722D02*
X8965301Y-13932484D01*
X8965301Y-13827722D02*
X8974825Y-13808674D01*
X8974825Y-13808674D02*
X8993872Y-13799150D01*
X8993872Y-13799150D02*
X9022444Y-13799150D01*
X9022444Y-13799150D02*
X9041491Y-13808674D01*
X9041491Y-13808674D02*
X9051015Y-13827722D01*
X9051015Y-13827722D02*
X9051015Y-13932484D01*
X9441491Y-13722960D02*
X9270063Y-13980103D01*
X9698634Y-13732484D02*
X9717682Y-13732484D01*
X9717682Y-13732484D02*
X9736729Y-13742008D01*
X9736729Y-13742008D02*
X9746253Y-13751531D01*
X9746253Y-13751531D02*
X9755777Y-13770579D01*
X9755777Y-13770579D02*
X9765301Y-13808674D01*
X9765301Y-13808674D02*
X9765301Y-13856293D01*
X9765301Y-13856293D02*
X9755777Y-13894388D01*
X9755777Y-13894388D02*
X9746253Y-13913436D01*
X9746253Y-13913436D02*
X9736729Y-13922960D01*
X9736729Y-13922960D02*
X9717682Y-13932484D01*
X9717682Y-13932484D02*
X9698634Y-13932484D01*
X9698634Y-13932484D02*
X9679587Y-13922960D01*
X9679587Y-13922960D02*
X9670063Y-13913436D01*
X9670063Y-13913436D02*
X9660539Y-13894388D01*
X9660539Y-13894388D02*
X9651015Y-13856293D01*
X9651015Y-13856293D02*
X9651015Y-13808674D01*
X9651015Y-13808674D02*
X9660539Y-13770579D01*
X9660539Y-13770579D02*
X9670063Y-13751531D01*
X9670063Y-13751531D02*
X9679587Y-13742008D01*
X9679587Y-13742008D02*
X9698634Y-13732484D01*
X9851015Y-13913436D02*
X9860539Y-13922960D01*
X9860539Y-13922960D02*
X9851015Y-13932484D01*
X9851015Y-13932484D02*
X9841491Y-13922960D01*
X9841491Y-13922960D02*
X9851015Y-13913436D01*
X9851015Y-13913436D02*
X9851015Y-13932484D01*
X10051015Y-13932484D02*
X9936729Y-13932484D01*
X9993872Y-13932484D02*
X9993872Y-13732484D01*
X9993872Y-13732484D02*
X9974825Y-13761055D01*
X9974825Y-13761055D02*
X9955777Y-13780103D01*
X9955777Y-13780103D02*
X9936729Y-13789627D01*
X10127206Y-13751531D02*
X10136729Y-13742008D01*
X10136729Y-13742008D02*
X10155777Y-13732484D01*
X10155777Y-13732484D02*
X10203396Y-13732484D01*
X10203396Y-13732484D02*
X10222444Y-13742008D01*
X10222444Y-13742008D02*
X10231968Y-13751531D01*
X10231968Y-13751531D02*
X10241491Y-13770579D01*
X10241491Y-13770579D02*
X10241491Y-13789627D01*
X10241491Y-13789627D02*
X10231968Y-13818198D01*
X10231968Y-13818198D02*
X10117682Y-13932484D01*
X10117682Y-13932484D02*
X10241491Y-13932484D01*
X10412920Y-13732484D02*
X10374825Y-13732484D01*
X10374825Y-13732484D02*
X10355777Y-13742008D01*
X10355777Y-13742008D02*
X10346253Y-13751531D01*
X10346253Y-13751531D02*
X10327206Y-13780103D01*
X10327206Y-13780103D02*
X10317682Y-13818198D01*
X10317682Y-13818198D02*
X10317682Y-13894388D01*
X10317682Y-13894388D02*
X10327206Y-13913436D01*
X10327206Y-13913436D02*
X10336729Y-13922960D01*
X10336729Y-13922960D02*
X10355777Y-13932484D01*
X10355777Y-13932484D02*
X10393872Y-13932484D01*
X10393872Y-13932484D02*
X10412920Y-13922960D01*
X10412920Y-13922960D02*
X10422444Y-13913436D01*
X10422444Y-13913436D02*
X10431968Y-13894388D01*
X10431968Y-13894388D02*
X10431968Y-13846769D01*
X10431968Y-13846769D02*
X10422444Y-13827722D01*
X10422444Y-13827722D02*
X10412920Y-13818198D01*
X10412920Y-13818198D02*
X10393872Y-13808674D01*
X10393872Y-13808674D02*
X10355777Y-13808674D01*
X10355777Y-13808674D02*
X10336729Y-13818198D01*
X10336729Y-13818198D02*
X10327206Y-13827722D01*
X10327206Y-13827722D02*
X10317682Y-13846769D01*
X10555777Y-13732484D02*
X10574825Y-13732484D01*
X10574825Y-13732484D02*
X10593872Y-13742008D01*
X10593872Y-13742008D02*
X10603396Y-13751531D01*
X10603396Y-13751531D02*
X10612920Y-13770579D01*
X10612920Y-13770579D02*
X10622444Y-13808674D01*
X10622444Y-13808674D02*
X10622444Y-13856293D01*
X10622444Y-13856293D02*
X10612920Y-13894388D01*
X10612920Y-13894388D02*
X10603396Y-13913436D01*
X10603396Y-13913436D02*
X10593872Y-13922960D01*
X10593872Y-13922960D02*
X10574825Y-13932484D01*
X10574825Y-13932484D02*
X10555777Y-13932484D01*
X10555777Y-13932484D02*
X10536729Y-13922960D01*
X10536729Y-13922960D02*
X10527206Y-13913436D01*
X10527206Y-13913436D02*
X10517682Y-13894388D01*
X10517682Y-13894388D02*
X10508158Y-13856293D01*
X10508158Y-13856293D02*
X10508158Y-13808674D01*
X10508158Y-13808674D02*
X10517682Y-13770579D01*
X10517682Y-13770579D02*
X10527206Y-13751531D01*
X10527206Y-13751531D02*
X10536729Y-13742008D01*
X10536729Y-13742008D02*
X10555777Y-13732484D01*
X10698634Y-13732484D02*
X10698634Y-13770579D01*
X10774825Y-13732484D02*
X10774825Y-13770579D01*
X11070063Y-14008674D02*
X11060539Y-13999150D01*
X11060539Y-13999150D02*
X11041491Y-13970579D01*
X11041491Y-13970579D02*
X11031968Y-13951531D01*
X11031968Y-13951531D02*
X11022444Y-13922960D01*
X11022444Y-13922960D02*
X11012920Y-13875341D01*
X11012920Y-13875341D02*
X11012920Y-13837246D01*
X11012920Y-13837246D02*
X11022444Y-13789627D01*
X11022444Y-13789627D02*
X11031968Y-13761055D01*
X11031968Y-13761055D02*
X11041491Y-13742008D01*
X11041491Y-13742008D02*
X11060539Y-13713436D01*
X11060539Y-13713436D02*
X11070063Y-13703912D01*
X11251015Y-13932484D02*
X11136730Y-13932484D01*
X11193872Y-13932484D02*
X11193872Y-13732484D01*
X11193872Y-13732484D02*
X11174825Y-13761055D01*
X11174825Y-13761055D02*
X11155777Y-13780103D01*
X11155777Y-13780103D02*
X11136730Y-13789627D01*
X11489110Y-13932484D02*
X11489110Y-13732484D01*
X11574825Y-13932484D02*
X11574825Y-13827722D01*
X11574825Y-13827722D02*
X11565301Y-13808674D01*
X11565301Y-13808674D02*
X11546253Y-13799150D01*
X11546253Y-13799150D02*
X11517682Y-13799150D01*
X11517682Y-13799150D02*
X11498634Y-13808674D01*
X11498634Y-13808674D02*
X11489110Y-13818198D01*
X11698634Y-13932484D02*
X11679587Y-13922960D01*
X11679587Y-13922960D02*
X11670063Y-13913436D01*
X11670063Y-13913436D02*
X11660539Y-13894388D01*
X11660539Y-13894388D02*
X11660539Y-13837246D01*
X11660539Y-13837246D02*
X11670063Y-13818198D01*
X11670063Y-13818198D02*
X11679587Y-13808674D01*
X11679587Y-13808674D02*
X11698634Y-13799150D01*
X11698634Y-13799150D02*
X11727206Y-13799150D01*
X11727206Y-13799150D02*
X11746253Y-13808674D01*
X11746253Y-13808674D02*
X11755777Y-13818198D01*
X11755777Y-13818198D02*
X11765301Y-13837246D01*
X11765301Y-13837246D02*
X11765301Y-13894388D01*
X11765301Y-13894388D02*
X11755777Y-13913436D01*
X11755777Y-13913436D02*
X11746253Y-13922960D01*
X11746253Y-13922960D02*
X11727206Y-13932484D01*
X11727206Y-13932484D02*
X11698634Y-13932484D01*
X11879587Y-13932484D02*
X11860539Y-13922960D01*
X11860539Y-13922960D02*
X11851015Y-13903912D01*
X11851015Y-13903912D02*
X11851015Y-13732484D01*
X12031968Y-13922960D02*
X12012920Y-13932484D01*
X12012920Y-13932484D02*
X11974825Y-13932484D01*
X11974825Y-13932484D02*
X11955777Y-13922960D01*
X11955777Y-13922960D02*
X11946253Y-13903912D01*
X11946253Y-13903912D02*
X11946253Y-13827722D01*
X11946253Y-13827722D02*
X11955777Y-13808674D01*
X11955777Y-13808674D02*
X11974825Y-13799150D01*
X11974825Y-13799150D02*
X12012920Y-13799150D01*
X12012920Y-13799150D02*
X12031968Y-13808674D01*
X12031968Y-13808674D02*
X12041491Y-13827722D01*
X12041491Y-13827722D02*
X12041491Y-13846769D01*
X12041491Y-13846769D02*
X11946253Y-13865817D01*
X12108158Y-14008674D02*
X12117682Y-13999150D01*
X12117682Y-13999150D02*
X12136730Y-13970579D01*
X12136730Y-13970579D02*
X12146253Y-13951531D01*
X12146253Y-13951531D02*
X12155777Y-13922960D01*
X12155777Y-13922960D02*
X12165301Y-13875341D01*
X12165301Y-13875341D02*
X12165301Y-13837246D01*
X12165301Y-13837246D02*
X12155777Y-13789627D01*
X12155777Y-13789627D02*
X12146253Y-13761055D01*
X12146253Y-13761055D02*
X12136730Y-13742008D01*
X12136730Y-13742008D02*
X12117682Y-13713436D01*
X12117682Y-13713436D02*
X12108158Y-13703912D01*
X7295000Y-14061000D02*
X7495000Y-14261000D01*
X7495000Y-14061000D02*
X7295000Y-14261000D01*
X7465711Y-14231711D02*
X7465711Y-14090289D01*
X7324289Y-14090289D01*
X7324289Y-14231711D01*
X7465711Y-14231711D01*
X7841491Y-14119150D02*
X7841491Y-14252484D01*
X7793872Y-14042960D02*
X7746253Y-14185817D01*
X7746253Y-14185817D02*
X7870062Y-14185817D01*
X7946253Y-14233436D02*
X7955777Y-14242960D01*
X7955777Y-14242960D02*
X7946253Y-14252484D01*
X7946253Y-14252484D02*
X7936729Y-14242960D01*
X7936729Y-14242960D02*
X7946253Y-14233436D01*
X7946253Y-14233436D02*
X7946253Y-14252484D01*
X8022443Y-14052484D02*
X8146253Y-14052484D01*
X8146253Y-14052484D02*
X8079586Y-14128674D01*
X8079586Y-14128674D02*
X8108158Y-14128674D01*
X8108158Y-14128674D02*
X8127205Y-14138198D01*
X8127205Y-14138198D02*
X8136729Y-14147722D01*
X8136729Y-14147722D02*
X8146253Y-14166769D01*
X8146253Y-14166769D02*
X8146253Y-14214388D01*
X8146253Y-14214388D02*
X8136729Y-14233436D01*
X8136729Y-14233436D02*
X8127205Y-14242960D01*
X8127205Y-14242960D02*
X8108158Y-14252484D01*
X8108158Y-14252484D02*
X8051015Y-14252484D01*
X8051015Y-14252484D02*
X8031967Y-14242960D01*
X8031967Y-14242960D02*
X8022443Y-14233436D01*
X8270062Y-14052484D02*
X8289110Y-14052484D01*
X8289110Y-14052484D02*
X8308158Y-14062008D01*
X8308158Y-14062008D02*
X8317682Y-14071531D01*
X8317682Y-14071531D02*
X8327205Y-14090579D01*
X8327205Y-14090579D02*
X8336729Y-14128674D01*
X8336729Y-14128674D02*
X8336729Y-14176293D01*
X8336729Y-14176293D02*
X8327205Y-14214388D01*
X8327205Y-14214388D02*
X8317682Y-14233436D01*
X8317682Y-14233436D02*
X8308158Y-14242960D01*
X8308158Y-14242960D02*
X8289110Y-14252484D01*
X8289110Y-14252484D02*
X8270062Y-14252484D01*
X8270062Y-14252484D02*
X8251015Y-14242960D01*
X8251015Y-14242960D02*
X8241491Y-14233436D01*
X8241491Y-14233436D02*
X8231967Y-14214388D01*
X8231967Y-14214388D02*
X8222443Y-14176293D01*
X8222443Y-14176293D02*
X8222443Y-14128674D01*
X8222443Y-14128674D02*
X8231967Y-14090579D01*
X8231967Y-14090579D02*
X8241491Y-14071531D01*
X8241491Y-14071531D02*
X8251015Y-14062008D01*
X8251015Y-14062008D02*
X8270062Y-14052484D01*
X8460539Y-14052484D02*
X8479586Y-14052484D01*
X8479586Y-14052484D02*
X8498634Y-14062008D01*
X8498634Y-14062008D02*
X8508158Y-14071531D01*
X8508158Y-14071531D02*
X8517682Y-14090579D01*
X8517682Y-14090579D02*
X8527205Y-14128674D01*
X8527205Y-14128674D02*
X8527205Y-14176293D01*
X8527205Y-14176293D02*
X8517682Y-14214388D01*
X8517682Y-14214388D02*
X8508158Y-14233436D01*
X8508158Y-14233436D02*
X8498634Y-14242960D01*
X8498634Y-14242960D02*
X8479586Y-14252484D01*
X8479586Y-14252484D02*
X8460539Y-14252484D01*
X8460539Y-14252484D02*
X8441491Y-14242960D01*
X8441491Y-14242960D02*
X8431967Y-14233436D01*
X8431967Y-14233436D02*
X8422444Y-14214388D01*
X8422444Y-14214388D02*
X8412920Y-14176293D01*
X8412920Y-14176293D02*
X8412920Y-14128674D01*
X8412920Y-14128674D02*
X8422444Y-14090579D01*
X8422444Y-14090579D02*
X8431967Y-14071531D01*
X8431967Y-14071531D02*
X8441491Y-14062008D01*
X8441491Y-14062008D02*
X8460539Y-14052484D01*
X8612920Y-14252484D02*
X8612920Y-14119150D01*
X8612920Y-14138198D02*
X8622444Y-14128674D01*
X8622444Y-14128674D02*
X8641491Y-14119150D01*
X8641491Y-14119150D02*
X8670063Y-14119150D01*
X8670063Y-14119150D02*
X8689110Y-14128674D01*
X8689110Y-14128674D02*
X8698634Y-14147722D01*
X8698634Y-14147722D02*
X8698634Y-14252484D01*
X8698634Y-14147722D02*
X8708158Y-14128674D01*
X8708158Y-14128674D02*
X8727205Y-14119150D01*
X8727205Y-14119150D02*
X8755777Y-14119150D01*
X8755777Y-14119150D02*
X8774825Y-14128674D01*
X8774825Y-14128674D02*
X8784348Y-14147722D01*
X8784348Y-14147722D02*
X8784348Y-14252484D01*
X8879586Y-14252484D02*
X8879586Y-14119150D01*
X8879586Y-14138198D02*
X8889110Y-14128674D01*
X8889110Y-14128674D02*
X8908158Y-14119150D01*
X8908158Y-14119150D02*
X8936729Y-14119150D01*
X8936729Y-14119150D02*
X8955777Y-14128674D01*
X8955777Y-14128674D02*
X8965301Y-14147722D01*
X8965301Y-14147722D02*
X8965301Y-14252484D01*
X8965301Y-14147722D02*
X8974825Y-14128674D01*
X8974825Y-14128674D02*
X8993872Y-14119150D01*
X8993872Y-14119150D02*
X9022444Y-14119150D01*
X9022444Y-14119150D02*
X9041491Y-14128674D01*
X9041491Y-14128674D02*
X9051015Y-14147722D01*
X9051015Y-14147722D02*
X9051015Y-14252484D01*
X9441491Y-14042960D02*
X9270063Y-14300103D01*
X9698634Y-14052484D02*
X9717682Y-14052484D01*
X9717682Y-14052484D02*
X9736729Y-14062008D01*
X9736729Y-14062008D02*
X9746253Y-14071531D01*
X9746253Y-14071531D02*
X9755777Y-14090579D01*
X9755777Y-14090579D02*
X9765301Y-14128674D01*
X9765301Y-14128674D02*
X9765301Y-14176293D01*
X9765301Y-14176293D02*
X9755777Y-14214388D01*
X9755777Y-14214388D02*
X9746253Y-14233436D01*
X9746253Y-14233436D02*
X9736729Y-14242960D01*
X9736729Y-14242960D02*
X9717682Y-14252484D01*
X9717682Y-14252484D02*
X9698634Y-14252484D01*
X9698634Y-14252484D02*
X9679587Y-14242960D01*
X9679587Y-14242960D02*
X9670063Y-14233436D01*
X9670063Y-14233436D02*
X9660539Y-14214388D01*
X9660539Y-14214388D02*
X9651015Y-14176293D01*
X9651015Y-14176293D02*
X9651015Y-14128674D01*
X9651015Y-14128674D02*
X9660539Y-14090579D01*
X9660539Y-14090579D02*
X9670063Y-14071531D01*
X9670063Y-14071531D02*
X9679587Y-14062008D01*
X9679587Y-14062008D02*
X9698634Y-14052484D01*
X9851015Y-14233436D02*
X9860539Y-14242960D01*
X9860539Y-14242960D02*
X9851015Y-14252484D01*
X9851015Y-14252484D02*
X9841491Y-14242960D01*
X9841491Y-14242960D02*
X9851015Y-14233436D01*
X9851015Y-14233436D02*
X9851015Y-14252484D01*
X10051015Y-14252484D02*
X9936729Y-14252484D01*
X9993872Y-14252484D02*
X9993872Y-14052484D01*
X9993872Y-14052484D02*
X9974825Y-14081055D01*
X9974825Y-14081055D02*
X9955777Y-14100103D01*
X9955777Y-14100103D02*
X9936729Y-14109627D01*
X10222444Y-14052484D02*
X10184348Y-14052484D01*
X10184348Y-14052484D02*
X10165301Y-14062008D01*
X10165301Y-14062008D02*
X10155777Y-14071531D01*
X10155777Y-14071531D02*
X10136729Y-14100103D01*
X10136729Y-14100103D02*
X10127206Y-14138198D01*
X10127206Y-14138198D02*
X10127206Y-14214388D01*
X10127206Y-14214388D02*
X10136729Y-14233436D01*
X10136729Y-14233436D02*
X10146253Y-14242960D01*
X10146253Y-14242960D02*
X10165301Y-14252484D01*
X10165301Y-14252484D02*
X10203396Y-14252484D01*
X10203396Y-14252484D02*
X10222444Y-14242960D01*
X10222444Y-14242960D02*
X10231968Y-14233436D01*
X10231968Y-14233436D02*
X10241491Y-14214388D01*
X10241491Y-14214388D02*
X10241491Y-14166769D01*
X10241491Y-14166769D02*
X10231968Y-14147722D01*
X10231968Y-14147722D02*
X10222444Y-14138198D01*
X10222444Y-14138198D02*
X10203396Y-14128674D01*
X10203396Y-14128674D02*
X10165301Y-14128674D01*
X10165301Y-14128674D02*
X10146253Y-14138198D01*
X10146253Y-14138198D02*
X10136729Y-14147722D01*
X10136729Y-14147722D02*
X10127206Y-14166769D01*
X10336729Y-14252484D02*
X10374825Y-14252484D01*
X10374825Y-14252484D02*
X10393872Y-14242960D01*
X10393872Y-14242960D02*
X10403396Y-14233436D01*
X10403396Y-14233436D02*
X10422444Y-14204865D01*
X10422444Y-14204865D02*
X10431968Y-14166769D01*
X10431968Y-14166769D02*
X10431968Y-14090579D01*
X10431968Y-14090579D02*
X10422444Y-14071531D01*
X10422444Y-14071531D02*
X10412920Y-14062008D01*
X10412920Y-14062008D02*
X10393872Y-14052484D01*
X10393872Y-14052484D02*
X10355777Y-14052484D01*
X10355777Y-14052484D02*
X10336729Y-14062008D01*
X10336729Y-14062008D02*
X10327206Y-14071531D01*
X10327206Y-14071531D02*
X10317682Y-14090579D01*
X10317682Y-14090579D02*
X10317682Y-14138198D01*
X10317682Y-14138198D02*
X10327206Y-14157246D01*
X10327206Y-14157246D02*
X10336729Y-14166769D01*
X10336729Y-14166769D02*
X10355777Y-14176293D01*
X10355777Y-14176293D02*
X10393872Y-14176293D01*
X10393872Y-14176293D02*
X10412920Y-14166769D01*
X10412920Y-14166769D02*
X10422444Y-14157246D01*
X10422444Y-14157246D02*
X10431968Y-14138198D01*
X10498634Y-14052484D02*
X10622444Y-14052484D01*
X10622444Y-14052484D02*
X10555777Y-14128674D01*
X10555777Y-14128674D02*
X10584349Y-14128674D01*
X10584349Y-14128674D02*
X10603396Y-14138198D01*
X10603396Y-14138198D02*
X10612920Y-14147722D01*
X10612920Y-14147722D02*
X10622444Y-14166769D01*
X10622444Y-14166769D02*
X10622444Y-14214388D01*
X10622444Y-14214388D02*
X10612920Y-14233436D01*
X10612920Y-14233436D02*
X10603396Y-14242960D01*
X10603396Y-14242960D02*
X10584349Y-14252484D01*
X10584349Y-14252484D02*
X10527206Y-14252484D01*
X10527206Y-14252484D02*
X10508158Y-14242960D01*
X10508158Y-14242960D02*
X10498634Y-14233436D01*
X10698634Y-14052484D02*
X10698634Y-14090579D01*
X10774825Y-14052484D02*
X10774825Y-14090579D01*
X11070063Y-14328674D02*
X11060539Y-14319150D01*
X11060539Y-14319150D02*
X11041491Y-14290579D01*
X11041491Y-14290579D02*
X11031968Y-14271531D01*
X11031968Y-14271531D02*
X11022444Y-14242960D01*
X11022444Y-14242960D02*
X11012920Y-14195341D01*
X11012920Y-14195341D02*
X11012920Y-14157246D01*
X11012920Y-14157246D02*
X11022444Y-14109627D01*
X11022444Y-14109627D02*
X11031968Y-14081055D01*
X11031968Y-14081055D02*
X11041491Y-14062008D01*
X11041491Y-14062008D02*
X11060539Y-14033436D01*
X11060539Y-14033436D02*
X11070063Y-14023912D01*
X11251015Y-14252484D02*
X11136730Y-14252484D01*
X11193872Y-14252484D02*
X11193872Y-14052484D01*
X11193872Y-14052484D02*
X11174825Y-14081055D01*
X11174825Y-14081055D02*
X11155777Y-14100103D01*
X11155777Y-14100103D02*
X11136730Y-14109627D01*
X11489110Y-14252484D02*
X11489110Y-14052484D01*
X11574825Y-14252484D02*
X11574825Y-14147722D01*
X11574825Y-14147722D02*
X11565301Y-14128674D01*
X11565301Y-14128674D02*
X11546253Y-14119150D01*
X11546253Y-14119150D02*
X11517682Y-14119150D01*
X11517682Y-14119150D02*
X11498634Y-14128674D01*
X11498634Y-14128674D02*
X11489110Y-14138198D01*
X11698634Y-14252484D02*
X11679587Y-14242960D01*
X11679587Y-14242960D02*
X11670063Y-14233436D01*
X11670063Y-14233436D02*
X11660539Y-14214388D01*
X11660539Y-14214388D02*
X11660539Y-14157246D01*
X11660539Y-14157246D02*
X11670063Y-14138198D01*
X11670063Y-14138198D02*
X11679587Y-14128674D01*
X11679587Y-14128674D02*
X11698634Y-14119150D01*
X11698634Y-14119150D02*
X11727206Y-14119150D01*
X11727206Y-14119150D02*
X11746253Y-14128674D01*
X11746253Y-14128674D02*
X11755777Y-14138198D01*
X11755777Y-14138198D02*
X11765301Y-14157246D01*
X11765301Y-14157246D02*
X11765301Y-14214388D01*
X11765301Y-14214388D02*
X11755777Y-14233436D01*
X11755777Y-14233436D02*
X11746253Y-14242960D01*
X11746253Y-14242960D02*
X11727206Y-14252484D01*
X11727206Y-14252484D02*
X11698634Y-14252484D01*
X11879587Y-14252484D02*
X11860539Y-14242960D01*
X11860539Y-14242960D02*
X11851015Y-14223912D01*
X11851015Y-14223912D02*
X11851015Y-14052484D01*
X12031968Y-14242960D02*
X12012920Y-14252484D01*
X12012920Y-14252484D02*
X11974825Y-14252484D01*
X11974825Y-14252484D02*
X11955777Y-14242960D01*
X11955777Y-14242960D02*
X11946253Y-14223912D01*
X11946253Y-14223912D02*
X11946253Y-14147722D01*
X11946253Y-14147722D02*
X11955777Y-14128674D01*
X11955777Y-14128674D02*
X11974825Y-14119150D01*
X11974825Y-14119150D02*
X12012920Y-14119150D01*
X12012920Y-14119150D02*
X12031968Y-14128674D01*
X12031968Y-14128674D02*
X12041491Y-14147722D01*
X12041491Y-14147722D02*
X12041491Y-14166769D01*
X12041491Y-14166769D02*
X11946253Y-14185817D01*
X12108158Y-14328674D02*
X12117682Y-14319150D01*
X12117682Y-14319150D02*
X12136730Y-14290579D01*
X12136730Y-14290579D02*
X12146253Y-14271531D01*
X12146253Y-14271531D02*
X12155777Y-14242960D01*
X12155777Y-14242960D02*
X12165301Y-14195341D01*
X12165301Y-14195341D02*
X12165301Y-14157246D01*
X12165301Y-14157246D02*
X12155777Y-14109627D01*
X12155777Y-14109627D02*
X12146253Y-14081055D01*
X12146253Y-14081055D02*
X12136730Y-14062008D01*
X12136730Y-14062008D02*
X12117682Y-14033436D01*
X12117682Y-14033436D02*
X12108158Y-14023912D01*
X7295000Y-14381000D02*
X7495000Y-14581000D01*
X7495000Y-14381000D02*
X7295000Y-14581000D01*
X7395000Y-14581000D02*
X7495000Y-14481000D01*
X7395000Y-14381000D01*
X7295000Y-14481000D01*
X7395000Y-14581000D01*
X7851015Y-14372484D02*
X7755777Y-14372484D01*
X7755777Y-14372484D02*
X7746253Y-14467722D01*
X7746253Y-14467722D02*
X7755777Y-14458198D01*
X7755777Y-14458198D02*
X7774824Y-14448674D01*
X7774824Y-14448674D02*
X7822443Y-14448674D01*
X7822443Y-14448674D02*
X7841491Y-14458198D01*
X7841491Y-14458198D02*
X7851015Y-14467722D01*
X7851015Y-14467722D02*
X7860539Y-14486769D01*
X7860539Y-14486769D02*
X7860539Y-14534388D01*
X7860539Y-14534388D02*
X7851015Y-14553436D01*
X7851015Y-14553436D02*
X7841491Y-14562960D01*
X7841491Y-14562960D02*
X7822443Y-14572484D01*
X7822443Y-14572484D02*
X7774824Y-14572484D01*
X7774824Y-14572484D02*
X7755777Y-14562960D01*
X7755777Y-14562960D02*
X7746253Y-14553436D01*
X7946253Y-14553436D02*
X7955777Y-14562960D01*
X7955777Y-14562960D02*
X7946253Y-14572484D01*
X7946253Y-14572484D02*
X7936729Y-14562960D01*
X7936729Y-14562960D02*
X7946253Y-14553436D01*
X7946253Y-14553436D02*
X7946253Y-14572484D01*
X8022443Y-14372484D02*
X8146253Y-14372484D01*
X8146253Y-14372484D02*
X8079586Y-14448674D01*
X8079586Y-14448674D02*
X8108158Y-14448674D01*
X8108158Y-14448674D02*
X8127205Y-14458198D01*
X8127205Y-14458198D02*
X8136729Y-14467722D01*
X8136729Y-14467722D02*
X8146253Y-14486769D01*
X8146253Y-14486769D02*
X8146253Y-14534388D01*
X8146253Y-14534388D02*
X8136729Y-14553436D01*
X8136729Y-14553436D02*
X8127205Y-14562960D01*
X8127205Y-14562960D02*
X8108158Y-14572484D01*
X8108158Y-14572484D02*
X8051015Y-14572484D01*
X8051015Y-14572484D02*
X8031967Y-14562960D01*
X8031967Y-14562960D02*
X8022443Y-14553436D01*
X8270062Y-14372484D02*
X8289110Y-14372484D01*
X8289110Y-14372484D02*
X8308158Y-14382008D01*
X8308158Y-14382008D02*
X8317682Y-14391531D01*
X8317682Y-14391531D02*
X8327205Y-14410579D01*
X8327205Y-14410579D02*
X8336729Y-14448674D01*
X8336729Y-14448674D02*
X8336729Y-14496293D01*
X8336729Y-14496293D02*
X8327205Y-14534388D01*
X8327205Y-14534388D02*
X8317682Y-14553436D01*
X8317682Y-14553436D02*
X8308158Y-14562960D01*
X8308158Y-14562960D02*
X8289110Y-14572484D01*
X8289110Y-14572484D02*
X8270062Y-14572484D01*
X8270062Y-14572484D02*
X8251015Y-14562960D01*
X8251015Y-14562960D02*
X8241491Y-14553436D01*
X8241491Y-14553436D02*
X8231967Y-14534388D01*
X8231967Y-14534388D02*
X8222443Y-14496293D01*
X8222443Y-14496293D02*
X8222443Y-14448674D01*
X8222443Y-14448674D02*
X8231967Y-14410579D01*
X8231967Y-14410579D02*
X8241491Y-14391531D01*
X8241491Y-14391531D02*
X8251015Y-14382008D01*
X8251015Y-14382008D02*
X8270062Y-14372484D01*
X8460539Y-14372484D02*
X8479586Y-14372484D01*
X8479586Y-14372484D02*
X8498634Y-14382008D01*
X8498634Y-14382008D02*
X8508158Y-14391531D01*
X8508158Y-14391531D02*
X8517682Y-14410579D01*
X8517682Y-14410579D02*
X8527205Y-14448674D01*
X8527205Y-14448674D02*
X8527205Y-14496293D01*
X8527205Y-14496293D02*
X8517682Y-14534388D01*
X8517682Y-14534388D02*
X8508158Y-14553436D01*
X8508158Y-14553436D02*
X8498634Y-14562960D01*
X8498634Y-14562960D02*
X8479586Y-14572484D01*
X8479586Y-14572484D02*
X8460539Y-14572484D01*
X8460539Y-14572484D02*
X8441491Y-14562960D01*
X8441491Y-14562960D02*
X8431967Y-14553436D01*
X8431967Y-14553436D02*
X8422444Y-14534388D01*
X8422444Y-14534388D02*
X8412920Y-14496293D01*
X8412920Y-14496293D02*
X8412920Y-14448674D01*
X8412920Y-14448674D02*
X8422444Y-14410579D01*
X8422444Y-14410579D02*
X8431967Y-14391531D01*
X8431967Y-14391531D02*
X8441491Y-14382008D01*
X8441491Y-14382008D02*
X8460539Y-14372484D01*
X8612920Y-14572484D02*
X8612920Y-14439150D01*
X8612920Y-14458198D02*
X8622444Y-14448674D01*
X8622444Y-14448674D02*
X8641491Y-14439150D01*
X8641491Y-14439150D02*
X8670063Y-14439150D01*
X8670063Y-14439150D02*
X8689110Y-14448674D01*
X8689110Y-14448674D02*
X8698634Y-14467722D01*
X8698634Y-14467722D02*
X8698634Y-14572484D01*
X8698634Y-14467722D02*
X8708158Y-14448674D01*
X8708158Y-14448674D02*
X8727205Y-14439150D01*
X8727205Y-14439150D02*
X8755777Y-14439150D01*
X8755777Y-14439150D02*
X8774825Y-14448674D01*
X8774825Y-14448674D02*
X8784348Y-14467722D01*
X8784348Y-14467722D02*
X8784348Y-14572484D01*
X8879586Y-14572484D02*
X8879586Y-14439150D01*
X8879586Y-14458198D02*
X8889110Y-14448674D01*
X8889110Y-14448674D02*
X8908158Y-14439150D01*
X8908158Y-14439150D02*
X8936729Y-14439150D01*
X8936729Y-14439150D02*
X8955777Y-14448674D01*
X8955777Y-14448674D02*
X8965301Y-14467722D01*
X8965301Y-14467722D02*
X8965301Y-14572484D01*
X8965301Y-14467722D02*
X8974825Y-14448674D01*
X8974825Y-14448674D02*
X8993872Y-14439150D01*
X8993872Y-14439150D02*
X9022444Y-14439150D01*
X9022444Y-14439150D02*
X9041491Y-14448674D01*
X9041491Y-14448674D02*
X9051015Y-14467722D01*
X9051015Y-14467722D02*
X9051015Y-14572484D01*
X9441491Y-14362960D02*
X9270063Y-14620103D01*
X9698634Y-14372484D02*
X9717682Y-14372484D01*
X9717682Y-14372484D02*
X9736729Y-14382008D01*
X9736729Y-14382008D02*
X9746253Y-14391531D01*
X9746253Y-14391531D02*
X9755777Y-14410579D01*
X9755777Y-14410579D02*
X9765301Y-14448674D01*
X9765301Y-14448674D02*
X9765301Y-14496293D01*
X9765301Y-14496293D02*
X9755777Y-14534388D01*
X9755777Y-14534388D02*
X9746253Y-14553436D01*
X9746253Y-14553436D02*
X9736729Y-14562960D01*
X9736729Y-14562960D02*
X9717682Y-14572484D01*
X9717682Y-14572484D02*
X9698634Y-14572484D01*
X9698634Y-14572484D02*
X9679587Y-14562960D01*
X9679587Y-14562960D02*
X9670063Y-14553436D01*
X9670063Y-14553436D02*
X9660539Y-14534388D01*
X9660539Y-14534388D02*
X9651015Y-14496293D01*
X9651015Y-14496293D02*
X9651015Y-14448674D01*
X9651015Y-14448674D02*
X9660539Y-14410579D01*
X9660539Y-14410579D02*
X9670063Y-14391531D01*
X9670063Y-14391531D02*
X9679587Y-14382008D01*
X9679587Y-14382008D02*
X9698634Y-14372484D01*
X9851015Y-14553436D02*
X9860539Y-14562960D01*
X9860539Y-14562960D02*
X9851015Y-14572484D01*
X9851015Y-14572484D02*
X9841491Y-14562960D01*
X9841491Y-14562960D02*
X9851015Y-14553436D01*
X9851015Y-14553436D02*
X9851015Y-14572484D01*
X9936729Y-14391531D02*
X9946253Y-14382008D01*
X9946253Y-14382008D02*
X9965301Y-14372484D01*
X9965301Y-14372484D02*
X10012920Y-14372484D01*
X10012920Y-14372484D02*
X10031968Y-14382008D01*
X10031968Y-14382008D02*
X10041491Y-14391531D01*
X10041491Y-14391531D02*
X10051015Y-14410579D01*
X10051015Y-14410579D02*
X10051015Y-14429627D01*
X10051015Y-14429627D02*
X10041491Y-14458198D01*
X10041491Y-14458198D02*
X9927206Y-14572484D01*
X9927206Y-14572484D02*
X10051015Y-14572484D01*
X10174825Y-14372484D02*
X10193872Y-14372484D01*
X10193872Y-14372484D02*
X10212920Y-14382008D01*
X10212920Y-14382008D02*
X10222444Y-14391531D01*
X10222444Y-14391531D02*
X10231968Y-14410579D01*
X10231968Y-14410579D02*
X10241491Y-14448674D01*
X10241491Y-14448674D02*
X10241491Y-14496293D01*
X10241491Y-14496293D02*
X10231968Y-14534388D01*
X10231968Y-14534388D02*
X10222444Y-14553436D01*
X10222444Y-14553436D02*
X10212920Y-14562960D01*
X10212920Y-14562960D02*
X10193872Y-14572484D01*
X10193872Y-14572484D02*
X10174825Y-14572484D01*
X10174825Y-14572484D02*
X10155777Y-14562960D01*
X10155777Y-14562960D02*
X10146253Y-14553436D01*
X10146253Y-14553436D02*
X10136729Y-14534388D01*
X10136729Y-14534388D02*
X10127206Y-14496293D01*
X10127206Y-14496293D02*
X10127206Y-14448674D01*
X10127206Y-14448674D02*
X10136729Y-14410579D01*
X10136729Y-14410579D02*
X10146253Y-14391531D01*
X10146253Y-14391531D02*
X10155777Y-14382008D01*
X10155777Y-14382008D02*
X10174825Y-14372484D01*
X10355777Y-14458198D02*
X10336729Y-14448674D01*
X10336729Y-14448674D02*
X10327206Y-14439150D01*
X10327206Y-14439150D02*
X10317682Y-14420103D01*
X10317682Y-14420103D02*
X10317682Y-14410579D01*
X10317682Y-14410579D02*
X10327206Y-14391531D01*
X10327206Y-14391531D02*
X10336729Y-14382008D01*
X10336729Y-14382008D02*
X10355777Y-14372484D01*
X10355777Y-14372484D02*
X10393872Y-14372484D01*
X10393872Y-14372484D02*
X10412920Y-14382008D01*
X10412920Y-14382008D02*
X10422444Y-14391531D01*
X10422444Y-14391531D02*
X10431968Y-14410579D01*
X10431968Y-14410579D02*
X10431968Y-14420103D01*
X10431968Y-14420103D02*
X10422444Y-14439150D01*
X10422444Y-14439150D02*
X10412920Y-14448674D01*
X10412920Y-14448674D02*
X10393872Y-14458198D01*
X10393872Y-14458198D02*
X10355777Y-14458198D01*
X10355777Y-14458198D02*
X10336729Y-14467722D01*
X10336729Y-14467722D02*
X10327206Y-14477246D01*
X10327206Y-14477246D02*
X10317682Y-14496293D01*
X10317682Y-14496293D02*
X10317682Y-14534388D01*
X10317682Y-14534388D02*
X10327206Y-14553436D01*
X10327206Y-14553436D02*
X10336729Y-14562960D01*
X10336729Y-14562960D02*
X10355777Y-14572484D01*
X10355777Y-14572484D02*
X10393872Y-14572484D01*
X10393872Y-14572484D02*
X10412920Y-14562960D01*
X10412920Y-14562960D02*
X10422444Y-14553436D01*
X10422444Y-14553436D02*
X10431968Y-14534388D01*
X10431968Y-14534388D02*
X10431968Y-14496293D01*
X10431968Y-14496293D02*
X10422444Y-14477246D01*
X10422444Y-14477246D02*
X10412920Y-14467722D01*
X10412920Y-14467722D02*
X10393872Y-14458198D01*
X10498634Y-14372484D02*
X10631968Y-14372484D01*
X10631968Y-14372484D02*
X10546253Y-14572484D01*
X10698634Y-14372484D02*
X10698634Y-14410579D01*
X10774825Y-14372484D02*
X10774825Y-14410579D01*
X11070063Y-14648674D02*
X11060539Y-14639150D01*
X11060539Y-14639150D02*
X11041491Y-14610579D01*
X11041491Y-14610579D02*
X11031968Y-14591531D01*
X11031968Y-14591531D02*
X11022444Y-14562960D01*
X11022444Y-14562960D02*
X11012920Y-14515341D01*
X11012920Y-14515341D02*
X11012920Y-14477246D01*
X11012920Y-14477246D02*
X11022444Y-14429627D01*
X11022444Y-14429627D02*
X11031968Y-14401055D01*
X11031968Y-14401055D02*
X11041491Y-14382008D01*
X11041491Y-14382008D02*
X11060539Y-14353436D01*
X11060539Y-14353436D02*
X11070063Y-14343912D01*
X11251015Y-14572484D02*
X11136730Y-14572484D01*
X11193872Y-14572484D02*
X11193872Y-14372484D01*
X11193872Y-14372484D02*
X11174825Y-14401055D01*
X11174825Y-14401055D02*
X11155777Y-14420103D01*
X11155777Y-14420103D02*
X11136730Y-14429627D01*
X11489110Y-14572484D02*
X11489110Y-14372484D01*
X11574825Y-14572484D02*
X11574825Y-14467722D01*
X11574825Y-14467722D02*
X11565301Y-14448674D01*
X11565301Y-14448674D02*
X11546253Y-14439150D01*
X11546253Y-14439150D02*
X11517682Y-14439150D01*
X11517682Y-14439150D02*
X11498634Y-14448674D01*
X11498634Y-14448674D02*
X11489110Y-14458198D01*
X11698634Y-14572484D02*
X11679587Y-14562960D01*
X11679587Y-14562960D02*
X11670063Y-14553436D01*
X11670063Y-14553436D02*
X11660539Y-14534388D01*
X11660539Y-14534388D02*
X11660539Y-14477246D01*
X11660539Y-14477246D02*
X11670063Y-14458198D01*
X11670063Y-14458198D02*
X11679587Y-14448674D01*
X11679587Y-14448674D02*
X11698634Y-14439150D01*
X11698634Y-14439150D02*
X11727206Y-14439150D01*
X11727206Y-14439150D02*
X11746253Y-14448674D01*
X11746253Y-14448674D02*
X11755777Y-14458198D01*
X11755777Y-14458198D02*
X11765301Y-14477246D01*
X11765301Y-14477246D02*
X11765301Y-14534388D01*
X11765301Y-14534388D02*
X11755777Y-14553436D01*
X11755777Y-14553436D02*
X11746253Y-14562960D01*
X11746253Y-14562960D02*
X11727206Y-14572484D01*
X11727206Y-14572484D02*
X11698634Y-14572484D01*
X11879587Y-14572484D02*
X11860539Y-14562960D01*
X11860539Y-14562960D02*
X11851015Y-14543912D01*
X11851015Y-14543912D02*
X11851015Y-14372484D01*
X12031968Y-14562960D02*
X12012920Y-14572484D01*
X12012920Y-14572484D02*
X11974825Y-14572484D01*
X11974825Y-14572484D02*
X11955777Y-14562960D01*
X11955777Y-14562960D02*
X11946253Y-14543912D01*
X11946253Y-14543912D02*
X11946253Y-14467722D01*
X11946253Y-14467722D02*
X11955777Y-14448674D01*
X11955777Y-14448674D02*
X11974825Y-14439150D01*
X11974825Y-14439150D02*
X12012920Y-14439150D01*
X12012920Y-14439150D02*
X12031968Y-14448674D01*
X12031968Y-14448674D02*
X12041491Y-14467722D01*
X12041491Y-14467722D02*
X12041491Y-14486769D01*
X12041491Y-14486769D02*
X11946253Y-14505817D01*
X12108158Y-14648674D02*
X12117682Y-14639150D01*
X12117682Y-14639150D02*
X12136730Y-14610579D01*
X12136730Y-14610579D02*
X12146253Y-14591531D01*
X12146253Y-14591531D02*
X12155777Y-14562960D01*
X12155777Y-14562960D02*
X12165301Y-14515341D01*
X12165301Y-14515341D02*
X12165301Y-14477246D01*
X12165301Y-14477246D02*
X12155777Y-14429627D01*
X12155777Y-14429627D02*
X12146253Y-14401055D01*
X12146253Y-14401055D02*
X12136730Y-14382008D01*
X12136730Y-14382008D02*
X12117682Y-14353436D01*
X12117682Y-14353436D02*
X12108158Y-14343912D01*
X7395000Y-14701000D02*
X7395000Y-14901000D01*
X7295000Y-14801000D02*
X7495000Y-14801000D01*
X7495000Y-14801000D02*
G75*
G02*
X7295000Y-14801000I-100000J0D01*
G01*
X7295000Y-14801000D02*
G75*
G02*
X7495000Y-14801000I100000J0D01*
G01*
X7841491Y-14692484D02*
X7803396Y-14692484D01*
X7803396Y-14692484D02*
X7784348Y-14702008D01*
X7784348Y-14702008D02*
X7774824Y-14711531D01*
X7774824Y-14711531D02*
X7755777Y-14740103D01*
X7755777Y-14740103D02*
X7746253Y-14778198D01*
X7746253Y-14778198D02*
X7746253Y-14854388D01*
X7746253Y-14854388D02*
X7755777Y-14873436D01*
X7755777Y-14873436D02*
X7765301Y-14882960D01*
X7765301Y-14882960D02*
X7784348Y-14892484D01*
X7784348Y-14892484D02*
X7822443Y-14892484D01*
X7822443Y-14892484D02*
X7841491Y-14882960D01*
X7841491Y-14882960D02*
X7851015Y-14873436D01*
X7851015Y-14873436D02*
X7860539Y-14854388D01*
X7860539Y-14854388D02*
X7860539Y-14806769D01*
X7860539Y-14806769D02*
X7851015Y-14787722D01*
X7851015Y-14787722D02*
X7841491Y-14778198D01*
X7841491Y-14778198D02*
X7822443Y-14768674D01*
X7822443Y-14768674D02*
X7784348Y-14768674D01*
X7784348Y-14768674D02*
X7765301Y-14778198D01*
X7765301Y-14778198D02*
X7755777Y-14787722D01*
X7755777Y-14787722D02*
X7746253Y-14806769D01*
X7946253Y-14873436D02*
X7955777Y-14882960D01*
X7955777Y-14882960D02*
X7946253Y-14892484D01*
X7946253Y-14892484D02*
X7936729Y-14882960D01*
X7936729Y-14882960D02*
X7946253Y-14873436D01*
X7946253Y-14873436D02*
X7946253Y-14892484D01*
X8127205Y-14759150D02*
X8127205Y-14892484D01*
X8079586Y-14682960D02*
X8031967Y-14825817D01*
X8031967Y-14825817D02*
X8155777Y-14825817D01*
X8270062Y-14692484D02*
X8289110Y-14692484D01*
X8289110Y-14692484D02*
X8308158Y-14702008D01*
X8308158Y-14702008D02*
X8317682Y-14711531D01*
X8317682Y-14711531D02*
X8327205Y-14730579D01*
X8327205Y-14730579D02*
X8336729Y-14768674D01*
X8336729Y-14768674D02*
X8336729Y-14816293D01*
X8336729Y-14816293D02*
X8327205Y-14854388D01*
X8327205Y-14854388D02*
X8317682Y-14873436D01*
X8317682Y-14873436D02*
X8308158Y-14882960D01*
X8308158Y-14882960D02*
X8289110Y-14892484D01*
X8289110Y-14892484D02*
X8270062Y-14892484D01*
X8270062Y-14892484D02*
X8251015Y-14882960D01*
X8251015Y-14882960D02*
X8241491Y-14873436D01*
X8241491Y-14873436D02*
X8231967Y-14854388D01*
X8231967Y-14854388D02*
X8222443Y-14816293D01*
X8222443Y-14816293D02*
X8222443Y-14768674D01*
X8222443Y-14768674D02*
X8231967Y-14730579D01*
X8231967Y-14730579D02*
X8241491Y-14711531D01*
X8241491Y-14711531D02*
X8251015Y-14702008D01*
X8251015Y-14702008D02*
X8270062Y-14692484D01*
X8460539Y-14692484D02*
X8479586Y-14692484D01*
X8479586Y-14692484D02*
X8498634Y-14702008D01*
X8498634Y-14702008D02*
X8508158Y-14711531D01*
X8508158Y-14711531D02*
X8517682Y-14730579D01*
X8517682Y-14730579D02*
X8527205Y-14768674D01*
X8527205Y-14768674D02*
X8527205Y-14816293D01*
X8527205Y-14816293D02*
X8517682Y-14854388D01*
X8517682Y-14854388D02*
X8508158Y-14873436D01*
X8508158Y-14873436D02*
X8498634Y-14882960D01*
X8498634Y-14882960D02*
X8479586Y-14892484D01*
X8479586Y-14892484D02*
X8460539Y-14892484D01*
X8460539Y-14892484D02*
X8441491Y-14882960D01*
X8441491Y-14882960D02*
X8431967Y-14873436D01*
X8431967Y-14873436D02*
X8422444Y-14854388D01*
X8422444Y-14854388D02*
X8412920Y-14816293D01*
X8412920Y-14816293D02*
X8412920Y-14768674D01*
X8412920Y-14768674D02*
X8422444Y-14730579D01*
X8422444Y-14730579D02*
X8431967Y-14711531D01*
X8431967Y-14711531D02*
X8441491Y-14702008D01*
X8441491Y-14702008D02*
X8460539Y-14692484D01*
X8612920Y-14892484D02*
X8612920Y-14759150D01*
X8612920Y-14778198D02*
X8622444Y-14768674D01*
X8622444Y-14768674D02*
X8641491Y-14759150D01*
X8641491Y-14759150D02*
X8670063Y-14759150D01*
X8670063Y-14759150D02*
X8689110Y-14768674D01*
X8689110Y-14768674D02*
X8698634Y-14787722D01*
X8698634Y-14787722D02*
X8698634Y-14892484D01*
X8698634Y-14787722D02*
X8708158Y-14768674D01*
X8708158Y-14768674D02*
X8727205Y-14759150D01*
X8727205Y-14759150D02*
X8755777Y-14759150D01*
X8755777Y-14759150D02*
X8774825Y-14768674D01*
X8774825Y-14768674D02*
X8784348Y-14787722D01*
X8784348Y-14787722D02*
X8784348Y-14892484D01*
X8879586Y-14892484D02*
X8879586Y-14759150D01*
X8879586Y-14778198D02*
X8889110Y-14768674D01*
X8889110Y-14768674D02*
X8908158Y-14759150D01*
X8908158Y-14759150D02*
X8936729Y-14759150D01*
X8936729Y-14759150D02*
X8955777Y-14768674D01*
X8955777Y-14768674D02*
X8965301Y-14787722D01*
X8965301Y-14787722D02*
X8965301Y-14892484D01*
X8965301Y-14787722D02*
X8974825Y-14768674D01*
X8974825Y-14768674D02*
X8993872Y-14759150D01*
X8993872Y-14759150D02*
X9022444Y-14759150D01*
X9022444Y-14759150D02*
X9041491Y-14768674D01*
X9041491Y-14768674D02*
X9051015Y-14787722D01*
X9051015Y-14787722D02*
X9051015Y-14892484D01*
X9441491Y-14682960D02*
X9270063Y-14940103D01*
X9698634Y-14692484D02*
X9717682Y-14692484D01*
X9717682Y-14692484D02*
X9736729Y-14702008D01*
X9736729Y-14702008D02*
X9746253Y-14711531D01*
X9746253Y-14711531D02*
X9755777Y-14730579D01*
X9755777Y-14730579D02*
X9765301Y-14768674D01*
X9765301Y-14768674D02*
X9765301Y-14816293D01*
X9765301Y-14816293D02*
X9755777Y-14854388D01*
X9755777Y-14854388D02*
X9746253Y-14873436D01*
X9746253Y-14873436D02*
X9736729Y-14882960D01*
X9736729Y-14882960D02*
X9717682Y-14892484D01*
X9717682Y-14892484D02*
X9698634Y-14892484D01*
X9698634Y-14892484D02*
X9679587Y-14882960D01*
X9679587Y-14882960D02*
X9670063Y-14873436D01*
X9670063Y-14873436D02*
X9660539Y-14854388D01*
X9660539Y-14854388D02*
X9651015Y-14816293D01*
X9651015Y-14816293D02*
X9651015Y-14768674D01*
X9651015Y-14768674D02*
X9660539Y-14730579D01*
X9660539Y-14730579D02*
X9670063Y-14711531D01*
X9670063Y-14711531D02*
X9679587Y-14702008D01*
X9679587Y-14702008D02*
X9698634Y-14692484D01*
X9851015Y-14873436D02*
X9860539Y-14882960D01*
X9860539Y-14882960D02*
X9851015Y-14892484D01*
X9851015Y-14892484D02*
X9841491Y-14882960D01*
X9841491Y-14882960D02*
X9851015Y-14873436D01*
X9851015Y-14873436D02*
X9851015Y-14892484D01*
X9936729Y-14711531D02*
X9946253Y-14702008D01*
X9946253Y-14702008D02*
X9965301Y-14692484D01*
X9965301Y-14692484D02*
X10012920Y-14692484D01*
X10012920Y-14692484D02*
X10031968Y-14702008D01*
X10031968Y-14702008D02*
X10041491Y-14711531D01*
X10041491Y-14711531D02*
X10051015Y-14730579D01*
X10051015Y-14730579D02*
X10051015Y-14749627D01*
X10051015Y-14749627D02*
X10041491Y-14778198D01*
X10041491Y-14778198D02*
X9927206Y-14892484D01*
X9927206Y-14892484D02*
X10051015Y-14892484D01*
X10231968Y-14692484D02*
X10136729Y-14692484D01*
X10136729Y-14692484D02*
X10127206Y-14787722D01*
X10127206Y-14787722D02*
X10136729Y-14778198D01*
X10136729Y-14778198D02*
X10155777Y-14768674D01*
X10155777Y-14768674D02*
X10203396Y-14768674D01*
X10203396Y-14768674D02*
X10222444Y-14778198D01*
X10222444Y-14778198D02*
X10231968Y-14787722D01*
X10231968Y-14787722D02*
X10241491Y-14806769D01*
X10241491Y-14806769D02*
X10241491Y-14854388D01*
X10241491Y-14854388D02*
X10231968Y-14873436D01*
X10231968Y-14873436D02*
X10222444Y-14882960D01*
X10222444Y-14882960D02*
X10203396Y-14892484D01*
X10203396Y-14892484D02*
X10155777Y-14892484D01*
X10155777Y-14892484D02*
X10136729Y-14882960D01*
X10136729Y-14882960D02*
X10127206Y-14873436D01*
X10317682Y-14711531D02*
X10327206Y-14702008D01*
X10327206Y-14702008D02*
X10346253Y-14692484D01*
X10346253Y-14692484D02*
X10393872Y-14692484D01*
X10393872Y-14692484D02*
X10412920Y-14702008D01*
X10412920Y-14702008D02*
X10422444Y-14711531D01*
X10422444Y-14711531D02*
X10431968Y-14730579D01*
X10431968Y-14730579D02*
X10431968Y-14749627D01*
X10431968Y-14749627D02*
X10422444Y-14778198D01*
X10422444Y-14778198D02*
X10308158Y-14892484D01*
X10308158Y-14892484D02*
X10431968Y-14892484D01*
X10555777Y-14692484D02*
X10574825Y-14692484D01*
X10574825Y-14692484D02*
X10593872Y-14702008D01*
X10593872Y-14702008D02*
X10603396Y-14711531D01*
X10603396Y-14711531D02*
X10612920Y-14730579D01*
X10612920Y-14730579D02*
X10622444Y-14768674D01*
X10622444Y-14768674D02*
X10622444Y-14816293D01*
X10622444Y-14816293D02*
X10612920Y-14854388D01*
X10612920Y-14854388D02*
X10603396Y-14873436D01*
X10603396Y-14873436D02*
X10593872Y-14882960D01*
X10593872Y-14882960D02*
X10574825Y-14892484D01*
X10574825Y-14892484D02*
X10555777Y-14892484D01*
X10555777Y-14892484D02*
X10536729Y-14882960D01*
X10536729Y-14882960D02*
X10527206Y-14873436D01*
X10527206Y-14873436D02*
X10517682Y-14854388D01*
X10517682Y-14854388D02*
X10508158Y-14816293D01*
X10508158Y-14816293D02*
X10508158Y-14768674D01*
X10508158Y-14768674D02*
X10517682Y-14730579D01*
X10517682Y-14730579D02*
X10527206Y-14711531D01*
X10527206Y-14711531D02*
X10536729Y-14702008D01*
X10536729Y-14702008D02*
X10555777Y-14692484D01*
X10698634Y-14692484D02*
X10698634Y-14730579D01*
X10774825Y-14692484D02*
X10774825Y-14730579D01*
X11070063Y-14968674D02*
X11060539Y-14959150D01*
X11060539Y-14959150D02*
X11041491Y-14930579D01*
X11041491Y-14930579D02*
X11031968Y-14911531D01*
X11031968Y-14911531D02*
X11022444Y-14882960D01*
X11022444Y-14882960D02*
X11012920Y-14835341D01*
X11012920Y-14835341D02*
X11012920Y-14797246D01*
X11012920Y-14797246D02*
X11022444Y-14749627D01*
X11022444Y-14749627D02*
X11031968Y-14721055D01*
X11031968Y-14721055D02*
X11041491Y-14702008D01*
X11041491Y-14702008D02*
X11060539Y-14673436D01*
X11060539Y-14673436D02*
X11070063Y-14663912D01*
X11136730Y-14711531D02*
X11146253Y-14702008D01*
X11146253Y-14702008D02*
X11165301Y-14692484D01*
X11165301Y-14692484D02*
X11212920Y-14692484D01*
X11212920Y-14692484D02*
X11231968Y-14702008D01*
X11231968Y-14702008D02*
X11241491Y-14711531D01*
X11241491Y-14711531D02*
X11251015Y-14730579D01*
X11251015Y-14730579D02*
X11251015Y-14749627D01*
X11251015Y-14749627D02*
X11241491Y-14778198D01*
X11241491Y-14778198D02*
X11127206Y-14892484D01*
X11127206Y-14892484D02*
X11251015Y-14892484D01*
X11489110Y-14892484D02*
X11489110Y-14692484D01*
X11574825Y-14892484D02*
X11574825Y-14787722D01*
X11574825Y-14787722D02*
X11565301Y-14768674D01*
X11565301Y-14768674D02*
X11546253Y-14759150D01*
X11546253Y-14759150D02*
X11517682Y-14759150D01*
X11517682Y-14759150D02*
X11498634Y-14768674D01*
X11498634Y-14768674D02*
X11489110Y-14778198D01*
X11698634Y-14892484D02*
X11679587Y-14882960D01*
X11679587Y-14882960D02*
X11670063Y-14873436D01*
X11670063Y-14873436D02*
X11660539Y-14854388D01*
X11660539Y-14854388D02*
X11660539Y-14797246D01*
X11660539Y-14797246D02*
X11670063Y-14778198D01*
X11670063Y-14778198D02*
X11679587Y-14768674D01*
X11679587Y-14768674D02*
X11698634Y-14759150D01*
X11698634Y-14759150D02*
X11727206Y-14759150D01*
X11727206Y-14759150D02*
X11746253Y-14768674D01*
X11746253Y-14768674D02*
X11755777Y-14778198D01*
X11755777Y-14778198D02*
X11765301Y-14797246D01*
X11765301Y-14797246D02*
X11765301Y-14854388D01*
X11765301Y-14854388D02*
X11755777Y-14873436D01*
X11755777Y-14873436D02*
X11746253Y-14882960D01*
X11746253Y-14882960D02*
X11727206Y-14892484D01*
X11727206Y-14892484D02*
X11698634Y-14892484D01*
X11879587Y-14892484D02*
X11860539Y-14882960D01*
X11860539Y-14882960D02*
X11851015Y-14863912D01*
X11851015Y-14863912D02*
X11851015Y-14692484D01*
X12031968Y-14882960D02*
X12012920Y-14892484D01*
X12012920Y-14892484D02*
X11974825Y-14892484D01*
X11974825Y-14892484D02*
X11955777Y-14882960D01*
X11955777Y-14882960D02*
X11946253Y-14863912D01*
X11946253Y-14863912D02*
X11946253Y-14787722D01*
X11946253Y-14787722D02*
X11955777Y-14768674D01*
X11955777Y-14768674D02*
X11974825Y-14759150D01*
X11974825Y-14759150D02*
X12012920Y-14759150D01*
X12012920Y-14759150D02*
X12031968Y-14768674D01*
X12031968Y-14768674D02*
X12041491Y-14787722D01*
X12041491Y-14787722D02*
X12041491Y-14806769D01*
X12041491Y-14806769D02*
X11946253Y-14825817D01*
X12117682Y-14882960D02*
X12136730Y-14892484D01*
X12136730Y-14892484D02*
X12174825Y-14892484D01*
X12174825Y-14892484D02*
X12193872Y-14882960D01*
X12193872Y-14882960D02*
X12203396Y-14863912D01*
X12203396Y-14863912D02*
X12203396Y-14854388D01*
X12203396Y-14854388D02*
X12193872Y-14835341D01*
X12193872Y-14835341D02*
X12174825Y-14825817D01*
X12174825Y-14825817D02*
X12146253Y-14825817D01*
X12146253Y-14825817D02*
X12127206Y-14816293D01*
X12127206Y-14816293D02*
X12117682Y-14797246D01*
X12117682Y-14797246D02*
X12117682Y-14787722D01*
X12117682Y-14787722D02*
X12127206Y-14768674D01*
X12127206Y-14768674D02*
X12146253Y-14759150D01*
X12146253Y-14759150D02*
X12174825Y-14759150D01*
X12174825Y-14759150D02*
X12193872Y-14768674D01*
X12270063Y-14968674D02*
X12279587Y-14959150D01*
X12279587Y-14959150D02*
X12298634Y-14930579D01*
X12298634Y-14930579D02*
X12308158Y-14911531D01*
X12308158Y-14911531D02*
X12317682Y-14882960D01*
X12317682Y-14882960D02*
X12327206Y-14835341D01*
X12327206Y-14835341D02*
X12327206Y-14797246D01*
X12327206Y-14797246D02*
X12317682Y-14749627D01*
X12317682Y-14749627D02*
X12308158Y-14721055D01*
X12308158Y-14721055D02*
X12298634Y-14702008D01*
X12298634Y-14702008D02*
X12279587Y-14673436D01*
X12279587Y-14673436D02*
X12270063Y-14663912D01*
M02*
