G04 #@! TF.GenerationSoftware,KiCad,Pcbnew,8.0.5*
G04 #@! TF.CreationDate,2024-09-12T21:57:31+02:00*
G04 #@! TF.ProjectId,Ruler_IPRL_KiCad,52756c65-725f-4495-9052-4c5f4b694361,rev?*
G04 #@! TF.SameCoordinates,Original*
G04 #@! TF.FileFunction,Paste,Top*
G04 #@! TF.FilePolarity,Positive*
%FSLAX46Y46*%
G04 Gerber Fmt 4.6, Leading zero omitted, Abs format (unit mm)*
G04 Created by KiCad (PCBNEW 8.0.5) date 2024-09-12 21:57:31*
%MOMM*%
%LPD*%
G01*
G04 APERTURE LIST*
G04 Aperture macros list*
%AMRoundRect*
0 Rectangle with rounded corners*
0 $1 Rounding radius*
0 $2 $3 $4 $5 $6 $7 $8 $9 X,Y pos of 4 corners*
0 Add a 4 corners polygon primitive as box body*
4,1,4,$2,$3,$4,$5,$6,$7,$8,$9,$2,$3,0*
0 Add four circle primitives for the rounded corners*
1,1,$1+$1,$2,$3*
1,1,$1+$1,$4,$5*
1,1,$1+$1,$6,$7*
1,1,$1+$1,$8,$9*
0 Add four rect primitives between the rounded corners*
20,1,$1+$1,$2,$3,$4,$5,0*
20,1,$1+$1,$4,$5,$6,$7,0*
20,1,$1+$1,$6,$7,$8,$9,0*
20,1,$1+$1,$8,$9,$2,$3,0*%
G04 Aperture macros list end*
%ADD10RoundRect,0.135000X0.135000X0.185000X-0.135000X0.185000X-0.135000X-0.185000X0.135000X-0.185000X0*%
%ADD11RoundRect,0.147500X0.147500X0.172500X-0.147500X0.172500X-0.147500X-0.172500X0.147500X-0.172500X0*%
%ADD12RoundRect,0.140000X-0.170000X0.140000X-0.170000X-0.140000X0.170000X-0.140000X0.170000X0.140000X0*%
%ADD13RoundRect,0.135000X0.185000X-0.135000X0.185000X0.135000X-0.185000X0.135000X-0.185000X-0.135000X0*%
%ADD14RoundRect,0.175000X-0.425000X0.175000X-0.425000X-0.175000X0.425000X-0.175000X0.425000X0.175000X0*%
%ADD15RoundRect,0.190000X0.410000X-0.190000X0.410000X0.190000X-0.410000X0.190000X-0.410000X-0.190000X0*%
%ADD16RoundRect,0.200000X0.400000X-0.200000X0.400000X0.200000X-0.400000X0.200000X-0.400000X-0.200000X0*%
%ADD17RoundRect,0.175000X0.425000X-0.175000X0.425000X0.175000X-0.425000X0.175000X-0.425000X-0.175000X0*%
%ADD18RoundRect,0.190000X-0.410000X0.190000X-0.410000X-0.190000X0.410000X-0.190000X0.410000X0.190000X0*%
%ADD19RoundRect,0.200000X-0.400000X0.200000X-0.400000X-0.200000X0.400000X-0.200000X0.400000X0.200000X0*%
%ADD20RoundRect,0.250000X-0.425000X0.650000X-0.425000X-0.650000X0.425000X-0.650000X0.425000X0.650000X0*%
%ADD21RoundRect,0.250000X-0.500000X0.650000X-0.500000X-0.650000X0.500000X-0.650000X0.500000X0.650000X0*%
%ADD22RoundRect,0.147500X-0.172500X0.147500X-0.172500X-0.147500X0.172500X-0.147500X0.172500X0.147500X0*%
%ADD23RoundRect,0.150000X0.850000X0.150000X-0.850000X0.150000X-0.850000X-0.150000X0.850000X-0.150000X0*%
%ADD24RoundRect,0.150000X0.150000X-0.825000X0.150000X0.825000X-0.150000X0.825000X-0.150000X-0.825000X0*%
G04 APERTURE END LIST*
D10*
X118622000Y-89027000D03*
X117602000Y-89027000D03*
D11*
X96266000Y-95250000D03*
X95296000Y-95250000D03*
X109047000Y-89662000D03*
X108077000Y-89662000D03*
D12*
X83947000Y-95123000D03*
X83947000Y-96083000D03*
D11*
X109728000Y-94361000D03*
X108758000Y-94361000D03*
D13*
X83947000Y-93857000D03*
X83947000Y-92837000D03*
D11*
X98552000Y-91948000D03*
X97582000Y-91948000D03*
X119634000Y-101092000D03*
X118664000Y-101092000D03*
X115316000Y-100330000D03*
X114346000Y-100330000D03*
X92029000Y-96266000D03*
X91059000Y-96266000D03*
D14*
X81532500Y-99404000D03*
D15*
X81532500Y-101424000D03*
D16*
X81532500Y-102654000D03*
D17*
X81532500Y-100404000D03*
D18*
X81532500Y-98384000D03*
D19*
X81532500Y-97154000D03*
D20*
X81477500Y-94779000D03*
D21*
X77897500Y-94779000D03*
D20*
X81477500Y-105029000D03*
D21*
X77897500Y-105029000D03*
D11*
X117221000Y-107315000D03*
X116251000Y-107315000D03*
D22*
X101473000Y-89027000D03*
X101473000Y-89997000D03*
D11*
X105918000Y-91186000D03*
X104948000Y-91186000D03*
D23*
X89709000Y-107442000D03*
X89709000Y-106172000D03*
X89709000Y-104902000D03*
X89709000Y-103632000D03*
X89709000Y-102362000D03*
X89709000Y-101092000D03*
X89709000Y-99822000D03*
X89709000Y-98552000D03*
X84709000Y-98552000D03*
X84709000Y-99822000D03*
X84709000Y-101092000D03*
X84709000Y-102362000D03*
X84709000Y-103632000D03*
X84709000Y-104902000D03*
X84709000Y-106172000D03*
X84709000Y-107442000D03*
D13*
X83947000Y-91567000D03*
X83947000Y-90547000D03*
D24*
X85471000Y-95885000D03*
X86741000Y-95885000D03*
X88011000Y-95885000D03*
X89281000Y-95885000D03*
X89281000Y-90935000D03*
X88011000Y-90935000D03*
X86741000Y-90935000D03*
X85471000Y-90935000D03*
M02*
