G04 #@! TF.GenerationSoftware,KiCad,Pcbnew,9.0.0*
G04 #@! TF.CreationDate,2025-04-19T11:55:25+01:00*
G04 #@! TF.ProjectId,LED_Connector,4c45445f-436f-46e6-9e65-63746f722e6b,rev?*
G04 #@! TF.SameCoordinates,Original*
G04 #@! TF.FileFunction,Legend,Top*
G04 #@! TF.FilePolarity,Positive*
%FSLAX46Y46*%
G04 Gerber Fmt 4.6, Leading zero omitted, Abs format (unit mm)*
G04 Created by KiCad (PCBNEW 9.0.0) date 2025-04-19 11:55:25*
%MOMM*%
%LPD*%
G01*
G04 APERTURE LIST*
%ADD10C,0.100000*%
%ADD11C,0.150000*%
%ADD12C,0.120000*%
%ADD13R,2.800000X2.800000*%
%ADD14C,2.800000*%
%ADD15R,1.800000X1.800000*%
%ADD16C,1.800000*%
G04 APERTURE END LIST*
D10*
X150963884Y-99991466D02*
X151725789Y-99991466D01*
X151344836Y-100372419D02*
X151344836Y-99610514D01*
D11*
X139154819Y-99883333D02*
X139869104Y-99883333D01*
X139869104Y-99883333D02*
X140011961Y-99930952D01*
X140011961Y-99930952D02*
X140107200Y-100026190D01*
X140107200Y-100026190D02*
X140154819Y-100169047D01*
X140154819Y-100169047D02*
X140154819Y-100264285D01*
X140154819Y-98883333D02*
X140154819Y-99454761D01*
X140154819Y-99169047D02*
X139154819Y-99169047D01*
X139154819Y-99169047D02*
X139297676Y-99264285D01*
X139297676Y-99264285D02*
X139392914Y-99359523D01*
X139392914Y-99359523D02*
X139440533Y-99454761D01*
D12*
X136415000Y-94305000D02*
X139700000Y-94305000D01*
X136415000Y-96955000D02*
X136415000Y-94305000D01*
X136415000Y-99495000D02*
X136415000Y-104685000D01*
X136415000Y-99495000D02*
X142985000Y-99495000D01*
X136415000Y-104685000D02*
X142985000Y-104685000D01*
X142985000Y-99495000D02*
X142985000Y-104685000D01*
X144880000Y-98455000D02*
X144880000Y-101545000D01*
X144880000Y-98455170D02*
G75*
G02*
X150430000Y-99999952I2560000J-1544830D01*
G01*
X150430000Y-100000048D02*
G75*
G02*
X144880000Y-101544830I-2990000J48D01*
G01*
X149940000Y-100000000D02*
G75*
G02*
X144940000Y-100000000I-2500000J0D01*
G01*
X144940000Y-100000000D02*
G75*
G02*
X149940000Y-100000000I2500000J0D01*
G01*
%LPC*%
D13*
X139700000Y-96955000D03*
D14*
X139700000Y-102035000D03*
D15*
X146170000Y-100000000D03*
D16*
X148710000Y-100000000D03*
%LPD*%
M02*
