M48
; DRILL file {KiCad 9.0.3} date 2025-09-05T12:37:06+0200
; FORMAT={-:-/ absolute / metric / decimal}
; #@! TF.CreationDate,2025-09-05T12:37:06+02:00
; #@! TF.GenerationSoftware,Kicad,Pcbnew,9.0.3
; #@! TF.FileFunction,Plated,1,2,PTH
FMAT,2
METRIC
; #@! TA.AperFunction,Plated,PTH,ViaDrill
T1C0.300
; #@! TA.AperFunction,Plated,PTH,ComponentDrill
T2C0.500
; #@! TA.AperFunction,Plated,PTH,ComponentDrill
T3C0.650
; #@! TA.AperFunction,Plated,PTH,ComponentDrill
T4C0.800
; #@! TA.AperFunction,Plated,PTH,ComponentDrill
T5C1.000
; #@! TA.AperFunction,Plated,PTH,ComponentDrill
T6C2.200
; #@! TA.AperFunction,Plated,PTH,ComponentDrill
T7C2.700
; #@! TA.AperFunction,Plated,PTH,ComponentDrill
T8C3.200
; #@! TA.AperFunction,Plated,PTH,ComponentDrill
T9C4.300
; #@! TA.AperFunction,Plated,PTH,ComponentDrill
T10C5.300
%
G90
G05
T1
X83.7Y-108.1
X85.55Y-106.65
X97.55Y-101.0
X101.5Y-101.0
X104.4Y-101.0
X108.15Y-96.0
X112.15Y-96.0
X116.8Y-100.8
X117.2Y-95.05
X119.35Y-92.7
X125.3Y-96.85
X127.95Y-96.2
X128.35Y-97.9
X131.7Y-97.15
X139.15Y-98.25
X142.75Y-102.15
X146.7Y-94.4
X208.5Y-99.95
X208.5Y-101.25
X208.5Y-102.5
X208.5Y-103.77
X208.5Y-105.04
X208.5Y-106.31
X208.5Y-107.58
X212.3Y-98.8
X212.4Y-97.8
X212.4Y-97.8
X212.55Y-96.72
X213.2Y-91.95
X214.25Y-106.31
X214.25Y-107.58
X214.25Y-108.85
X214.7Y-102.15
X215.05Y-98.65
X220.6Y-90.15
T2
X205.0Y-105.15
X205.0Y-106.15
X205.0Y-107.15
X205.0Y-108.15
T3
X201.6Y-105.29
X201.6Y-106.56
X201.6Y-107.83
X201.6Y-109.1
T4
X205.0Y-93.65
X205.0Y-95.65
X205.0Y-97.65
X205.0Y-99.65
T5
X201.6Y-91.78
X201.6Y-94.32
X201.6Y-96.86
X201.6Y-99.4
T6
X185.0Y-107.0
T7
X185.0Y-100.5
T8
X185.0Y-93.0
T9
X194.0Y-105.5
T10
X194.0Y-94.5
M30
