%TF.GenerationSoftware,KiCad,Pcbnew,9.0.3*%
%TF.CreationDate,2025-08-19T12:47:54+01:00*%
%TF.ProjectId,PCB_RULER_IPRL_2025,5043425f-5255-44c4-9552-5f4950524c5f,rev?*%
%TF.SameCoordinates,Original*%
%TF.FileFunction,Drillmap*%
%TF.FilePolarity,Positive*%
%FSLAX45Y45*%
G04 Gerber Fmt 4.5, Leading zero omitted, Abs format (unit mm)*
G04 Created by KiCad (PCBNEW 9.0.3) date 2025-08-19 12:47:54*
%MOMM*%
%LPD*%
G01*
G04 APERTURE LIST*
%ADD10C,0.050000*%
%ADD11C,0.200000*%
G04 APERTURE END LIST*
D10*
X7220000Y-8500000D02*
X22750000Y-8500000D01*
X22750000Y-11500000D01*
X7220000Y-11500000D01*
X7220000Y-8500000D01*
D11*
X7478277Y-11813984D02*
X7478277Y-11613984D01*
X7478277Y-11613984D02*
X7525896Y-11613984D01*
X7525896Y-11613984D02*
X7554467Y-11623508D01*
X7554467Y-11623508D02*
X7573515Y-11642555D01*
X7573515Y-11642555D02*
X7583039Y-11661603D01*
X7583039Y-11661603D02*
X7592562Y-11699698D01*
X7592562Y-11699698D02*
X7592562Y-11728269D01*
X7592562Y-11728269D02*
X7583039Y-11766365D01*
X7583039Y-11766365D02*
X7573515Y-11785412D01*
X7573515Y-11785412D02*
X7554467Y-11804460D01*
X7554467Y-11804460D02*
X7525896Y-11813984D01*
X7525896Y-11813984D02*
X7478277Y-11813984D01*
X7678277Y-11813984D02*
X7678277Y-11680650D01*
X7678277Y-11718746D02*
X7687801Y-11699698D01*
X7687801Y-11699698D02*
X7697324Y-11690174D01*
X7697324Y-11690174D02*
X7716372Y-11680650D01*
X7716372Y-11680650D02*
X7735420Y-11680650D01*
X7802086Y-11813984D02*
X7802086Y-11680650D01*
X7802086Y-11613984D02*
X7792562Y-11623508D01*
X7792562Y-11623508D02*
X7802086Y-11633031D01*
X7802086Y-11633031D02*
X7811610Y-11623508D01*
X7811610Y-11623508D02*
X7802086Y-11613984D01*
X7802086Y-11613984D02*
X7802086Y-11633031D01*
X7925896Y-11813984D02*
X7906848Y-11804460D01*
X7906848Y-11804460D02*
X7897324Y-11785412D01*
X7897324Y-11785412D02*
X7897324Y-11613984D01*
X8030658Y-11813984D02*
X8011610Y-11804460D01*
X8011610Y-11804460D02*
X8002086Y-11785412D01*
X8002086Y-11785412D02*
X8002086Y-11613984D01*
X8259229Y-11813984D02*
X8259229Y-11613984D01*
X8259229Y-11613984D02*
X8325896Y-11756841D01*
X8325896Y-11756841D02*
X8392563Y-11613984D01*
X8392563Y-11613984D02*
X8392563Y-11813984D01*
X8573515Y-11813984D02*
X8573515Y-11709222D01*
X8573515Y-11709222D02*
X8563991Y-11690174D01*
X8563991Y-11690174D02*
X8544944Y-11680650D01*
X8544944Y-11680650D02*
X8506848Y-11680650D01*
X8506848Y-11680650D02*
X8487801Y-11690174D01*
X8573515Y-11804460D02*
X8554467Y-11813984D01*
X8554467Y-11813984D02*
X8506848Y-11813984D01*
X8506848Y-11813984D02*
X8487801Y-11804460D01*
X8487801Y-11804460D02*
X8478277Y-11785412D01*
X8478277Y-11785412D02*
X8478277Y-11766365D01*
X8478277Y-11766365D02*
X8487801Y-11747317D01*
X8487801Y-11747317D02*
X8506848Y-11737793D01*
X8506848Y-11737793D02*
X8554467Y-11737793D01*
X8554467Y-11737793D02*
X8573515Y-11728269D01*
X8668753Y-11680650D02*
X8668753Y-11880650D01*
X8668753Y-11690174D02*
X8687801Y-11680650D01*
X8687801Y-11680650D02*
X8725896Y-11680650D01*
X8725896Y-11680650D02*
X8744944Y-11690174D01*
X8744944Y-11690174D02*
X8754467Y-11699698D01*
X8754467Y-11699698D02*
X8763991Y-11718746D01*
X8763991Y-11718746D02*
X8763991Y-11775888D01*
X8763991Y-11775888D02*
X8754467Y-11794936D01*
X8754467Y-11794936D02*
X8744944Y-11804460D01*
X8744944Y-11804460D02*
X8725896Y-11813984D01*
X8725896Y-11813984D02*
X8687801Y-11813984D01*
X8687801Y-11813984D02*
X8668753Y-11804460D01*
X8849705Y-11794936D02*
X8859229Y-11804460D01*
X8859229Y-11804460D02*
X8849705Y-11813984D01*
X8849705Y-11813984D02*
X8840182Y-11804460D01*
X8840182Y-11804460D02*
X8849705Y-11794936D01*
X8849705Y-11794936D02*
X8849705Y-11813984D01*
X8849705Y-11690174D02*
X8859229Y-11699698D01*
X8859229Y-11699698D02*
X8849705Y-11709222D01*
X8849705Y-11709222D02*
X8840182Y-11699698D01*
X8840182Y-11699698D02*
X8849705Y-11690174D01*
X8849705Y-11690174D02*
X8849705Y-11709222D01*
M02*
