G04 #@! TF.GenerationSoftware,KiCad,Pcbnew,9.0.3*
G04 #@! TF.CreationDate,2025-09-05T12:37:08+02:00*
G04 #@! TF.ProjectId,PCB_RULER_IPRL_2025,5043425f-5255-44c4-9552-5f4950524c5f,rev?*
G04 #@! TF.SameCoordinates,Original*
G04 #@! TF.FileFunction,Soldermask,Top*
G04 #@! TF.FilePolarity,Negative*
%FSLAX46Y46*%
G04 Gerber Fmt 4.6, Leading zero omitted, Abs format (unit mm)*
G04 Created by KiCad (PCBNEW 9.0.3) date 2025-09-05 12:37:08*
%MOMM*%
%LPD*%
G01*
G04 APERTURE LIST*
G04 Aperture macros list*
%AMRoundRect*
0 Rectangle with rounded corners*
0 $1 Rounding radius*
0 $2 $3 $4 $5 $6 $7 $8 $9 X,Y pos of 4 corners*
0 Add a 4 corners polygon primitive as box body*
4,1,4,$2,$3,$4,$5,$6,$7,$8,$9,$2,$3,0*
0 Add four circle primitives for the rounded corners*
1,1,$1+$1,$2,$3*
1,1,$1+$1,$4,$5*
1,1,$1+$1,$6,$7*
1,1,$1+$1,$8,$9*
0 Add four rect primitives between the rounded corners*
20,1,$1+$1,$2,$3,$4,$5,0*
20,1,$1+$1,$4,$5,$6,$7,0*
20,1,$1+$1,$6,$7,$8,$9,0*
20,1,$1+$1,$8,$9,$2,$3,0*%
G04 Aperture macros list end*
%ADD10C,0.381000*%
%ADD11RoundRect,0.147500X-0.147500X-0.172500X0.147500X-0.172500X0.147500X0.172500X-0.147500X0.172500X0*%
%ADD12RoundRect,0.135000X-0.185000X0.135000X-0.185000X-0.135000X0.185000X-0.135000X0.185000X0.135000X0*%
%ADD13RoundRect,0.175000X0.425000X-0.175000X0.425000X0.175000X-0.425000X0.175000X-0.425000X-0.175000X0*%
%ADD14RoundRect,0.190000X-0.410000X0.190000X-0.410000X-0.190000X0.410000X-0.190000X0.410000X0.190000X0*%
%ADD15RoundRect,0.200000X-0.400000X0.200000X-0.400000X-0.200000X0.400000X-0.200000X0.400000X0.200000X0*%
%ADD16RoundRect,0.175000X-0.425000X0.175000X-0.425000X-0.175000X0.425000X-0.175000X0.425000X0.175000X0*%
%ADD17RoundRect,0.190000X0.410000X-0.190000X0.410000X0.190000X-0.410000X0.190000X-0.410000X-0.190000X0*%
%ADD18RoundRect,0.200000X0.400000X-0.200000X0.400000X0.200000X-0.400000X0.200000X-0.400000X-0.200000X0*%
%ADD19RoundRect,0.250000X0.425000X-0.650000X0.425000X0.650000X-0.425000X0.650000X-0.425000X-0.650000X0*%
%ADD20RoundRect,0.250000X0.500000X-0.650000X0.500000X0.650000X-0.500000X0.650000X-0.500000X-0.650000X0*%
%ADD21C,5.700000*%
%ADD22C,9.200000*%
%ADD23RoundRect,0.150000X-0.850000X-0.150000X0.850000X-0.150000X0.850000X0.150000X-0.850000X0.150000X0*%
%ADD24C,4.700000*%
%ADD25C,7.500000*%
%ADD26RoundRect,0.147500X-0.172500X0.147500X-0.172500X-0.147500X0.172500X-0.147500X0.172500X0.147500X0*%
%ADD27RoundRect,0.135000X0.185000X-0.135000X0.185000X0.135000X-0.185000X0.135000X-0.185000X-0.135000X0*%
%ADD28RoundRect,0.150000X-0.825000X-0.150000X0.825000X-0.150000X0.825000X0.150000X-0.825000X0.150000X0*%
%ADD29RoundRect,0.135000X0.135000X0.185000X-0.135000X0.185000X-0.135000X-0.185000X0.135000X-0.185000X0*%
%ADD30RoundRect,0.147500X0.147500X0.172500X-0.147500X0.172500X-0.147500X-0.172500X0.147500X-0.172500X0*%
%ADD31R,1.000000X1.000000*%
%ADD32C,1.000000*%
%ADD33C,2.600000*%
%ADD34C,3.800000*%
%ADD35R,1.350000X1.350000*%
%ADD36C,1.350000*%
%ADD37RoundRect,0.140000X0.170000X-0.140000X0.170000X0.140000X-0.170000X0.140000X-0.170000X-0.140000X0*%
%ADD38C,3.100000*%
%ADD39R,0.450000X1.425000*%
%ADD40RoundRect,0.140000X-0.170000X0.140000X-0.170000X-0.140000X0.170000X-0.140000X0.170000X0.140000X0*%
%ADD41R,1.700000X1.700000*%
%ADD42C,1.700000*%
%ADD43R,0.850000X0.850000*%
%ADD44C,0.850000*%
%ADD45C,3.600000*%
%ADD46C,5.600000*%
G04 APERTURE END LIST*
D10*
X72697940Y-114600000D02*
X72697940Y-111600000D01*
X73700020Y-114600000D02*
X73700780Y-112600000D01*
X74700020Y-114600000D02*
X74700780Y-112600000D01*
X75700020Y-114600000D02*
X75700780Y-112600000D01*
X76699620Y-114600000D02*
X76700380Y-112600000D01*
X77699600Y-114600000D02*
X77699600Y-110600000D01*
X78699620Y-114600000D02*
X78700380Y-112600000D01*
X79699620Y-114600000D02*
X79700380Y-112600000D01*
X80699620Y-114600000D02*
X80700380Y-112600000D01*
X81699620Y-114600000D02*
X81700380Y-112600000D01*
X82698720Y-114600000D02*
X82698720Y-111600000D01*
X83699620Y-114600000D02*
X83700380Y-112600000D01*
X84699620Y-114600000D02*
X84700380Y-112600000D01*
X85699620Y-114600000D02*
X85700380Y-112600000D01*
X86699220Y-114600000D02*
X86699980Y-112600000D01*
X87699980Y-114600000D02*
X87699980Y-110600000D01*
X88697580Y-114600000D02*
X88698340Y-112600000D01*
X89697580Y-114600000D02*
X89698340Y-112600000D01*
X90697580Y-114600000D02*
X90698340Y-112600000D01*
X91697580Y-114600000D02*
X91698340Y-112600000D01*
X92696680Y-114600000D02*
X92696680Y-111600000D01*
X93697580Y-114600000D02*
X93698340Y-112600000D01*
X94697580Y-114600000D02*
X94698340Y-112600000D01*
X95697580Y-114600000D02*
X95698340Y-112600000D01*
X96697180Y-114600000D02*
X96697940Y-112600000D01*
X97697940Y-114600000D02*
X97697940Y-110600000D01*
X98697960Y-114600000D02*
X98698720Y-112600000D01*
X99697960Y-114600000D02*
X99698720Y-112600000D01*
X100697960Y-114600000D02*
X100698720Y-112600000D01*
X101697960Y-114600000D02*
X101698720Y-112600000D01*
X102697060Y-114600000D02*
X102697060Y-111600000D01*
X103697960Y-114600000D02*
X103698720Y-112600000D01*
X104697960Y-114600000D02*
X104698720Y-112600000D01*
X105697960Y-114600000D02*
X105698720Y-112600000D01*
X106697560Y-114600000D02*
X106698320Y-112600000D01*
X107698320Y-114600000D02*
X107698320Y-110600000D01*
X108697580Y-114600000D02*
X108698340Y-112600000D01*
X109697580Y-114600000D02*
X109698340Y-112600000D01*
X110697580Y-114600000D02*
X110698340Y-112600000D01*
X111697580Y-114600000D02*
X111698340Y-112600000D01*
X112696680Y-114600000D02*
X112696680Y-111600000D01*
X113697580Y-114600000D02*
X113698340Y-112600000D01*
X114697580Y-114600000D02*
X114698340Y-112600000D01*
X115697580Y-114600000D02*
X115698340Y-112600000D01*
X116697180Y-114600000D02*
X116697940Y-112600000D01*
X117697940Y-114600000D02*
X117697940Y-110600000D01*
X118697960Y-114600000D02*
X118698720Y-112600000D01*
X119697960Y-114600000D02*
X119698720Y-112600000D01*
X120697960Y-114600000D02*
X120698720Y-112600000D01*
X121697960Y-114600000D02*
X121698720Y-112600000D01*
X122697060Y-114600000D02*
X122697060Y-111600000D01*
X123697960Y-114600000D02*
X123698720Y-112600000D01*
X124697960Y-114600000D02*
X124698720Y-112600000D01*
X125697960Y-114600000D02*
X125698720Y-112600000D01*
X126697560Y-114600000D02*
X126698320Y-112600000D01*
X127698320Y-114600000D02*
X127698320Y-110600000D01*
X128695920Y-114600000D02*
X128696680Y-112600000D01*
X129695920Y-114600000D02*
X129696680Y-112600000D01*
X130695920Y-114600000D02*
X130696680Y-112600000D01*
X131695920Y-114600000D02*
X131696680Y-112600000D01*
X132695020Y-114600000D02*
X132695020Y-111600000D01*
X133695920Y-114600000D02*
X133696680Y-112600000D01*
X134695920Y-114600000D02*
X134696680Y-112600000D01*
X135695920Y-114600000D02*
X135696680Y-112600000D01*
X136695520Y-114600000D02*
X136696280Y-112600000D01*
X137696280Y-114600000D02*
X137696280Y-110600000D01*
X138696300Y-114600000D02*
X138697060Y-112600000D01*
X139696300Y-114600000D02*
X139697060Y-112600000D01*
X140696300Y-114600000D02*
X140697060Y-112600000D01*
X141696300Y-114600000D02*
X141697060Y-112600000D01*
X142695400Y-114600000D02*
X142695400Y-111600000D01*
X143696300Y-114600000D02*
X143697060Y-112600000D01*
X144696300Y-114600000D02*
X144697060Y-112600000D01*
X145696300Y-114600000D02*
X145697060Y-112600000D01*
X146695900Y-114600000D02*
X146696660Y-112600000D01*
X147696660Y-114600000D02*
X147696660Y-110600000D01*
X148702560Y-114600000D02*
X148703320Y-112600000D01*
X149702560Y-114600000D02*
X149703320Y-112600000D01*
X150702560Y-114600000D02*
X150703320Y-112600000D01*
X151702560Y-114600000D02*
X151703320Y-112600000D01*
X152701660Y-114600000D02*
X152701660Y-111600000D01*
X153702560Y-114600000D02*
X153703320Y-112600000D01*
X154702560Y-114600000D02*
X154703320Y-112600000D01*
X155702560Y-114600000D02*
X155703320Y-112600000D01*
X156702160Y-114600000D02*
X156702920Y-112600000D01*
X157702920Y-114600000D02*
X157702920Y-110600000D01*
X158702940Y-114600000D02*
X158703700Y-112600000D01*
X159702940Y-114600000D02*
X159703700Y-112600000D01*
X160702940Y-114600000D02*
X160703700Y-112600000D01*
X161702940Y-114600000D02*
X161703700Y-112600000D01*
X162702040Y-114600000D02*
X162702040Y-111600000D01*
X163702940Y-114600000D02*
X163703700Y-112600000D01*
X164702940Y-114600000D02*
X164703700Y-112600000D01*
X165702940Y-114600000D02*
X165703700Y-112600000D01*
X166702540Y-114600000D02*
X166703300Y-112600000D01*
X167703300Y-114600000D02*
X167703300Y-110600000D01*
X168700900Y-114600000D02*
X168701660Y-112600000D01*
X169700900Y-114600000D02*
X169701660Y-112600000D01*
X170700900Y-114600000D02*
X170701660Y-112600000D01*
X171700900Y-114600000D02*
X171701660Y-112600000D01*
X172700000Y-114600000D02*
X172700000Y-111600000D01*
X173700900Y-114600000D02*
X173701660Y-112600000D01*
X174700900Y-114600000D02*
X174701660Y-112600000D01*
X175700900Y-114600000D02*
X175701660Y-112600000D01*
X176700500Y-114600000D02*
X176701260Y-112600000D01*
X177701260Y-114600000D02*
X177701260Y-110600000D01*
X178701280Y-114600000D02*
X178702040Y-112600000D01*
X179701280Y-114600000D02*
X179702040Y-112600000D01*
X180701280Y-114600000D02*
X180702040Y-112600000D01*
X181701280Y-114600000D02*
X181702040Y-112600000D01*
X182700380Y-114600000D02*
X182700380Y-111600000D01*
X183701280Y-114600000D02*
X183702040Y-112600000D01*
X184701280Y-114600000D02*
X184702040Y-112600000D01*
X185701280Y-114600000D02*
X185702040Y-112600000D01*
X186700880Y-114600000D02*
X186701640Y-112600000D01*
X187701640Y-114600000D02*
X187701640Y-110600000D01*
X188700900Y-114600000D02*
X188701660Y-112600000D01*
X189700900Y-114600000D02*
X189701660Y-112600000D01*
X190700900Y-114600000D02*
X190701660Y-112600000D01*
X191700900Y-114600000D02*
X191701660Y-112600000D01*
X192700000Y-114600000D02*
X192700000Y-111600000D01*
X193700900Y-114600000D02*
X193701660Y-112600000D01*
X194700900Y-114600000D02*
X194701660Y-112600000D01*
X195700900Y-114600000D02*
X195701660Y-112600000D01*
X196700500Y-114600000D02*
X196701260Y-112600000D01*
X197701260Y-114600000D02*
X197701260Y-110600000D01*
X198701280Y-114600000D02*
X198702040Y-112600000D01*
X199701280Y-114600000D02*
X199702040Y-112600000D01*
X200701280Y-114600000D02*
X200702040Y-112600000D01*
X201701280Y-114600000D02*
X201702040Y-112600000D01*
X202700380Y-114600000D02*
X202700380Y-111600000D01*
X203701280Y-114600000D02*
X203702040Y-112600000D01*
X204701280Y-114600000D02*
X204702040Y-112600000D01*
X205701280Y-114600000D02*
X205702040Y-112600000D01*
X206700880Y-114600000D02*
X206701640Y-112600000D01*
X207701640Y-114600000D02*
X207701640Y-110600000D01*
X208699240Y-114600000D02*
X208700000Y-112600000D01*
X209699240Y-114600000D02*
X209700000Y-112600000D01*
X210699240Y-114600000D02*
X210700000Y-112600000D01*
X211699240Y-114600000D02*
X211700000Y-112600000D01*
X212698340Y-114600000D02*
X212698340Y-111600000D01*
X213699240Y-114600000D02*
X213700000Y-112600000D01*
X214699240Y-114600000D02*
X214700000Y-112600000D01*
X215699240Y-114600000D02*
X215700000Y-112600000D01*
X216698840Y-114600000D02*
X216699600Y-112600000D01*
X217699600Y-114600000D02*
X217699600Y-110600000D01*
X218699620Y-114600000D02*
X218700380Y-112600000D01*
X219699620Y-114600000D02*
X219700380Y-112600000D01*
X220699620Y-114600000D02*
X220700380Y-112600000D01*
X221699620Y-114600000D02*
X221700380Y-112600000D01*
X222698720Y-114600000D02*
X222698720Y-111600000D01*
X223699620Y-114600000D02*
X223700380Y-112600000D01*
X224699620Y-114600000D02*
X224700380Y-112600000D01*
X225699620Y-114600000D02*
X225700380Y-112600000D01*
X226699220Y-114600000D02*
X226699980Y-112600000D01*
X227699980Y-114600000D02*
X227699980Y-110600000D01*
X72350000Y-85400000D02*
X72350000Y-89210000D01*
X73620000Y-85400000D02*
X73620000Y-87305000D01*
X74890000Y-85400000D02*
X74890000Y-87305000D01*
X76160000Y-85400000D02*
X76160000Y-87305000D01*
X77430000Y-85400000D02*
X77430000Y-87305000D01*
X78700000Y-85400000D02*
X78700000Y-87940000D01*
X79970000Y-85400000D02*
X79970000Y-87305000D01*
X81240000Y-85400000D02*
X81240000Y-87305000D01*
X82510000Y-85400000D02*
X82510000Y-87305000D01*
X83780000Y-85400000D02*
X83780000Y-87305000D01*
X85050000Y-85400000D02*
X85050000Y-87940000D01*
X86320000Y-85400000D02*
X86320000Y-87305000D01*
X87590000Y-85400000D02*
X87590000Y-87305000D01*
X88860000Y-85400000D02*
X88860000Y-87305000D01*
X90130000Y-85400000D02*
X90130000Y-87305000D01*
X91400000Y-85400000D02*
X91400000Y-87940000D01*
X92670000Y-85400000D02*
X92670000Y-87305000D01*
X93940000Y-85400000D02*
X93940000Y-87305000D01*
X95210000Y-85400000D02*
X95210000Y-87305000D01*
X96480000Y-85400000D02*
X96480000Y-87305000D01*
X97750000Y-85400000D02*
X97750000Y-89210000D01*
X99020000Y-85400000D02*
X99020000Y-87305000D01*
X100290000Y-85400000D02*
X100290000Y-87305000D01*
X101560000Y-85400000D02*
X101560000Y-87305000D01*
X102830000Y-85400000D02*
X102830000Y-87305000D01*
X104100000Y-85400000D02*
X104100000Y-87940000D01*
X105370000Y-85400000D02*
X105370000Y-87305000D01*
X106640000Y-85400000D02*
X106640000Y-87305000D01*
X107910000Y-85400000D02*
X107910000Y-87305000D01*
X109180000Y-85400000D02*
X109180000Y-87305000D01*
X110450000Y-85400000D02*
X110450000Y-87940000D01*
X111720000Y-85400000D02*
X111720000Y-87305000D01*
X112990000Y-85400000D02*
X112990000Y-87305000D01*
X114260000Y-85400000D02*
X114260000Y-87305000D01*
X115530000Y-85400000D02*
X115530000Y-87305000D01*
X116800000Y-85400000D02*
X116800000Y-87940000D01*
X118070000Y-85400000D02*
X118070000Y-87305000D01*
X119340000Y-85400000D02*
X119340000Y-87305000D01*
X120610000Y-85400000D02*
X120610000Y-87305000D01*
X121880000Y-85400000D02*
X121880000Y-87305000D01*
X123150000Y-85400000D02*
X123150000Y-89210000D01*
X124420000Y-85400000D02*
X124420000Y-87305000D01*
X125690000Y-85400000D02*
X125690000Y-87305000D01*
X126960000Y-85400000D02*
X126960000Y-87305000D01*
X128230000Y-85400000D02*
X128230000Y-87305000D01*
X129500000Y-85400000D02*
X129500000Y-87940000D01*
X130770000Y-85400000D02*
X130770000Y-87305000D01*
X132040000Y-85400000D02*
X132040000Y-87305000D01*
X133310000Y-85400000D02*
X133310000Y-87305000D01*
X134580000Y-85400000D02*
X134580000Y-87305000D01*
X135850000Y-85400000D02*
X135850000Y-87940000D01*
X137120000Y-85400000D02*
X137120000Y-87305000D01*
X138390000Y-85400000D02*
X138390000Y-87305000D01*
X139660000Y-85400000D02*
X139660000Y-87305000D01*
X140930000Y-85400000D02*
X140930000Y-87305000D01*
X142200000Y-85400000D02*
X142200000Y-87940000D01*
X143470000Y-85400000D02*
X143470000Y-87305000D01*
X144740000Y-85400000D02*
X144740000Y-87305000D01*
X146010000Y-85400000D02*
X146010000Y-87305000D01*
X147280000Y-85400000D02*
X147280000Y-87305000D01*
X148550000Y-85400000D02*
X148550000Y-89210000D01*
X149820000Y-85400000D02*
X149820000Y-87305000D01*
X151090000Y-85400000D02*
X151090000Y-87305000D01*
X152360000Y-85400000D02*
X152360000Y-87305000D01*
X153630000Y-85400000D02*
X153630000Y-87305000D01*
X154900000Y-85400000D02*
X154900000Y-87940000D01*
X156170000Y-85400000D02*
X156170000Y-87305000D01*
X157440000Y-85400000D02*
X157440000Y-87305000D01*
X158710000Y-85400000D02*
X158710000Y-87305000D01*
X159980000Y-85400000D02*
X159980000Y-87305000D01*
X161250000Y-85400000D02*
X161250000Y-87940000D01*
X162520000Y-85400000D02*
X162520000Y-87305000D01*
X163790000Y-85400000D02*
X163790000Y-87305000D01*
X165060000Y-85400000D02*
X165060000Y-87305000D01*
X166330000Y-85400000D02*
X166330000Y-87305000D01*
X167600000Y-85400000D02*
X167600000Y-87940000D01*
X168870000Y-85400000D02*
X168870000Y-87305000D01*
X170140000Y-85400000D02*
X170140000Y-87305000D01*
X171410000Y-85400000D02*
X171410000Y-87305000D01*
X172680000Y-85400000D02*
X172680000Y-87305000D01*
X173950000Y-85400000D02*
X173950000Y-89210000D01*
X175220000Y-85400000D02*
X175220000Y-87305000D01*
X176490000Y-85400000D02*
X176490000Y-87305000D01*
X177760000Y-85400000D02*
X177760000Y-87305000D01*
X179030000Y-85400000D02*
X179030000Y-87305000D01*
X180300000Y-85400000D02*
X180300000Y-87940000D01*
X181570000Y-85400000D02*
X181570000Y-87305000D01*
X182840000Y-85400000D02*
X182840000Y-87305000D01*
X184110000Y-85400000D02*
X184110000Y-87305000D01*
X185380000Y-85400000D02*
X185380000Y-87305000D01*
X186650000Y-85400000D02*
X186650000Y-87940000D01*
X187920000Y-85400000D02*
X187920000Y-87305000D01*
X189190000Y-85400000D02*
X189190000Y-87305000D01*
X190460000Y-85400000D02*
X190460000Y-87305000D01*
X191730000Y-85400000D02*
X191730000Y-87305000D01*
X193000000Y-85400000D02*
X193000000Y-87940000D01*
X194270000Y-85400000D02*
X194270000Y-87305000D01*
X195540000Y-85400000D02*
X195540000Y-87305000D01*
X196810000Y-85400000D02*
X196810000Y-87305000D01*
X198080000Y-85400000D02*
X198080000Y-87305000D01*
X199350000Y-85400000D02*
X199350000Y-89210000D01*
X200620000Y-85400000D02*
X200620000Y-87305000D01*
X201890000Y-85400000D02*
X201890000Y-87305000D01*
X203160000Y-85400000D02*
X203160000Y-87305000D01*
X204430000Y-85400000D02*
X204430000Y-87305000D01*
X205700000Y-85400000D02*
X205700000Y-87940000D01*
X206970000Y-85400000D02*
X206970000Y-87305000D01*
X208240000Y-85400000D02*
X208240000Y-87305000D01*
X209510000Y-85400000D02*
X209510000Y-87305000D01*
X210780000Y-85400000D02*
X210780000Y-87305000D01*
X212050000Y-85400000D02*
X212050000Y-87940000D01*
X213320000Y-85400000D02*
X213320000Y-87305000D01*
X214590000Y-85400000D02*
X214590000Y-87305000D01*
X215860000Y-85400000D02*
X215860000Y-87305000D01*
X217130000Y-85400000D02*
X217130000Y-87305000D01*
X218400000Y-85400000D02*
X218400000Y-87940000D01*
X219670000Y-85400000D02*
X219670000Y-87305000D01*
X220940000Y-85400000D02*
X220940000Y-87305000D01*
X222210000Y-85400000D02*
X222210000Y-87305000D01*
X223480000Y-85400000D02*
X223480000Y-87305000D01*
X224750000Y-85400000D02*
X224750000Y-89210000D01*
D11*
X124485000Y-96900000D03*
X123515000Y-96900000D03*
X115515000Y-100200000D03*
X116485000Y-100200000D03*
D12*
X213900000Y-96690000D03*
X213900000Y-97710000D03*
D13*
X220967500Y-100500000D03*
D14*
X220967500Y-98480000D03*
D15*
X220967500Y-97250000D03*
D16*
X220967500Y-99500000D03*
D17*
X220967500Y-101520000D03*
D18*
X220967500Y-102750000D03*
D19*
X221022500Y-105125000D03*
D20*
X224602500Y-105125000D03*
D19*
X221022500Y-94875000D03*
D20*
X224602500Y-94875000D03*
D21*
X194000000Y-94500000D03*
D22*
X194000000Y-94500000D03*
D23*
X211050000Y-99960000D03*
X211050000Y-101230000D03*
X211050000Y-102500000D03*
X211050000Y-103770000D03*
X211050000Y-105040000D03*
X211050000Y-106310000D03*
X211050000Y-107580000D03*
X211050000Y-108850000D03*
X216050000Y-108850000D03*
X216050000Y-107580000D03*
X216050000Y-106310000D03*
X216050000Y-105040000D03*
X216050000Y-103770000D03*
X216050000Y-102500000D03*
X216050000Y-101230000D03*
X216050000Y-99960000D03*
D11*
X126515000Y-97950000D03*
X127485000Y-97950000D03*
D24*
X194000000Y-105500000D03*
D25*
X194000000Y-105500000D03*
D26*
X90467750Y-107865000D03*
X90467750Y-108835000D03*
D27*
X219850000Y-91160000D03*
X219850000Y-90140000D03*
D28*
X211350000Y-90700000D03*
X211350000Y-91970000D03*
X211350000Y-93240000D03*
X211350000Y-94510000D03*
X216300000Y-94510000D03*
X216300000Y-93240000D03*
X216300000Y-91970000D03*
X216300000Y-90700000D03*
D29*
X221810000Y-107650000D03*
X220790000Y-107650000D03*
D12*
X216450000Y-96640000D03*
X216450000Y-97660000D03*
D26*
X104400000Y-99030000D03*
X104400000Y-100000000D03*
D30*
X221785000Y-108800000D03*
X220815000Y-108800000D03*
D31*
X201600000Y-109100000D03*
D32*
X201600000Y-107830000D03*
X201600000Y-106560000D03*
X201600000Y-105290000D03*
D26*
X97550000Y-99115000D03*
X97550000Y-100085000D03*
D33*
X185000000Y-107000000D03*
D34*
X185000000Y-107000000D03*
D11*
X138165000Y-97550000D03*
X139135000Y-97550000D03*
D35*
X205000000Y-99650000D03*
D36*
X205000000Y-97650000D03*
X205000000Y-95650000D03*
X205000000Y-93650000D03*
D37*
X85550000Y-108380000D03*
X85550000Y-107420000D03*
D38*
X185000000Y-100500000D03*
D24*
X185000000Y-100500000D03*
D26*
X101500000Y-99115000D03*
X101500000Y-100085000D03*
D39*
X86992750Y-108362000D03*
X87642750Y-108362000D03*
X88292750Y-108362000D03*
X88942750Y-108362000D03*
X88942750Y-103938000D03*
X88292750Y-103938000D03*
X87642750Y-103938000D03*
X86992750Y-103938000D03*
D11*
X115515000Y-95050000D03*
X116485000Y-95050000D03*
D12*
X90467750Y-103440000D03*
X90467750Y-104460000D03*
D11*
X117515000Y-92700000D03*
X118485000Y-92700000D03*
D40*
X211350000Y-96720000D03*
X211350000Y-97680000D03*
D41*
X201600000Y-99400000D03*
D42*
X201600000Y-96860000D03*
X201600000Y-94320000D03*
X201600000Y-91780000D03*
D11*
X141815000Y-101400000D03*
X142785000Y-101400000D03*
D37*
X90467750Y-106560000D03*
X90467750Y-105600000D03*
D43*
X205000000Y-108150000D03*
D44*
X205000000Y-107150000D03*
X205000000Y-106150000D03*
X205000000Y-105150000D03*
D45*
X185000000Y-93000000D03*
D46*
X185000000Y-93000000D03*
M02*
