%TF.GenerationSoftware,KiCad,Pcbnew,9.0.3*%
%TF.CreationDate,2025-09-04T21:51:00+02:00*%
%TF.ProjectId,PCB_RULER_IPRL_2025,5043425f-5255-44c4-9552-5f4950524c5f,rev?*%
%TF.SameCoordinates,Original*%
%TF.FileFunction,Drillmap*%
%TF.FilePolarity,Positive*%
%FSLAX45Y45*%
G04 Gerber Fmt 4.5, Leading zero omitted, Abs format (unit mm)*
G04 Created by KiCad (PCBNEW 9.0.3) date 2025-09-04 21:51:00*
%MOMM*%
%LPD*%
G01*
G04 APERTURE LIST*
%ADD10C,0.050000*%
%ADD11C,0.200000*%
%ADD12C,0.100000*%
%ADD13C,0.220000*%
%ADD14C,0.270000*%
%ADD15C,0.320000*%
%ADD16C,0.430000*%
%ADD17C,0.530000*%
G04 APERTURE END LIST*
D10*
X7220000Y-8500000D02*
X22750000Y-8500000D01*
X22750000Y-11500000D01*
X7220000Y-11500000D01*
X7220000Y-8500000D01*
D11*
D12*
X8355000Y-10795000D02*
X8385000Y-10825000D01*
X8385000Y-10795000D02*
X8355000Y-10825000D01*
X8540000Y-10650000D02*
X8570000Y-10680000D01*
X8570000Y-10650000D02*
X8540000Y-10680000D01*
X9735000Y-10065000D02*
X9765000Y-10095000D01*
X9765000Y-10065000D02*
X9735000Y-10095000D01*
X10135000Y-10065000D02*
X10165000Y-10095000D01*
X10165000Y-10065000D02*
X10135000Y-10095000D01*
X10405000Y-10065000D02*
X10435000Y-10095000D01*
X10435000Y-10065000D02*
X10405000Y-10095000D01*
X10800000Y-9585000D02*
X10830000Y-9615000D01*
X10830000Y-9585000D02*
X10800000Y-9615000D01*
X11200000Y-9585000D02*
X11230000Y-9615000D01*
X11230000Y-9585000D02*
X11200000Y-9615000D01*
X11665000Y-10065000D02*
X11695000Y-10095000D01*
X11695000Y-10065000D02*
X11665000Y-10095000D01*
X11705000Y-9490000D02*
X11735000Y-9520000D01*
X11735000Y-9490000D02*
X11705000Y-9520000D01*
X11920000Y-9255000D02*
X11950000Y-9285000D01*
X11950000Y-9255000D02*
X11920000Y-9285000D01*
X12515000Y-9670000D02*
X12545000Y-9700000D01*
X12545000Y-9670000D02*
X12515000Y-9700000D01*
X12780000Y-9605000D02*
X12810000Y-9635000D01*
X12810000Y-9605000D02*
X12780000Y-9635000D01*
X12820000Y-9775000D02*
X12850000Y-9805000D01*
X12850000Y-9775000D02*
X12820000Y-9805000D01*
X13155000Y-9700000D02*
X13185000Y-9730000D01*
X13185000Y-9700000D02*
X13155000Y-9730000D01*
X13900000Y-9810000D02*
X13930000Y-9840000D01*
X13930000Y-9810000D02*
X13900000Y-9840000D01*
X14260000Y-10200000D02*
X14290000Y-10230000D01*
X14290000Y-10200000D02*
X14260000Y-10230000D01*
X14655000Y-9425000D02*
X14685000Y-9455000D01*
X14685000Y-9425000D02*
X14655000Y-9455000D01*
X20835000Y-9980000D02*
X20865000Y-10010000D01*
X20865000Y-9980000D02*
X20835000Y-10010000D01*
X20835000Y-10110000D02*
X20865000Y-10140000D01*
X20865000Y-10110000D02*
X20835000Y-10140000D01*
X20835000Y-10235000D02*
X20865000Y-10265000D01*
X20865000Y-10235000D02*
X20835000Y-10265000D01*
X20835000Y-10362000D02*
X20865000Y-10392000D01*
X20865000Y-10362000D02*
X20835000Y-10392000D01*
X20835000Y-10489000D02*
X20865000Y-10519000D01*
X20865000Y-10489000D02*
X20835000Y-10519000D01*
X20835000Y-10616000D02*
X20865000Y-10646000D01*
X20865000Y-10616000D02*
X20835000Y-10646000D01*
X20835000Y-10743000D02*
X20865000Y-10773000D01*
X20865000Y-10743000D02*
X20835000Y-10773000D01*
X21215000Y-9865000D02*
X21245000Y-9895000D01*
X21245000Y-9865000D02*
X21215000Y-9895000D01*
X21225000Y-9765000D02*
X21255000Y-9795000D01*
X21255000Y-9765000D02*
X21225000Y-9795000D01*
X21225000Y-9765000D02*
X21255000Y-9795000D01*
X21255000Y-9765000D02*
X21225000Y-9795000D01*
X21240000Y-9657000D02*
X21270000Y-9687000D01*
X21270000Y-9657000D02*
X21240000Y-9687000D01*
X21305000Y-9180000D02*
X21335000Y-9210000D01*
X21335000Y-9180000D02*
X21305000Y-9210000D01*
X21455000Y-10200000D02*
X21485000Y-10230000D01*
X21485000Y-10200000D02*
X21455000Y-10230000D01*
X21490000Y-9850000D02*
X21520000Y-9880000D01*
X21520000Y-9850000D02*
X21490000Y-9880000D01*
X21765000Y-10616000D02*
X21795000Y-10646000D01*
X21795000Y-10616000D02*
X21765000Y-10646000D01*
X21765000Y-10743000D02*
X21795000Y-10773000D01*
X21795000Y-10743000D02*
X21765000Y-10773000D01*
X21765000Y-10870000D02*
X21795000Y-10900000D01*
X21795000Y-10870000D02*
X21765000Y-10900000D01*
X21970000Y-8895000D02*
X22000000Y-8925000D01*
X22000000Y-8895000D02*
X21970000Y-8925000D01*
X20525000Y-10515000D02*
G75*
G02*
X20475000Y-10515000I-25000J0D01*
G01*
X20475000Y-10515000D02*
G75*
G02*
X20525000Y-10515000I25000J0D01*
G01*
X20525000Y-10615000D02*
G75*
G02*
X20475000Y-10615000I-25000J0D01*
G01*
X20475000Y-10615000D02*
G75*
G02*
X20525000Y-10615000I25000J0D01*
G01*
X20525000Y-10715000D02*
G75*
G02*
X20475000Y-10715000I-25000J0D01*
G01*
X20475000Y-10715000D02*
G75*
G02*
X20525000Y-10715000I25000J0D01*
G01*
X20525000Y-10815000D02*
G75*
G02*
X20475000Y-10815000I-25000J0D01*
G01*
X20475000Y-10815000D02*
G75*
G02*
X20525000Y-10815000I25000J0D01*
G01*
X20160000Y-10496500D02*
X20160000Y-10561500D01*
X20127500Y-10529000D02*
X20192500Y-10529000D01*
X20160000Y-10623500D02*
X20160000Y-10688500D01*
X20127500Y-10656000D02*
X20192500Y-10656000D01*
X20160000Y-10750500D02*
X20160000Y-10815500D01*
X20127500Y-10783000D02*
X20192500Y-10783000D01*
X20160000Y-10877500D02*
X20160000Y-10942500D01*
X20127500Y-10910000D02*
X20192500Y-10910000D01*
X20528285Y-9393285D02*
X20528285Y-9336716D01*
X20471716Y-9336716D01*
X20471716Y-9393285D01*
X20528285Y-9393285D01*
X20528285Y-9593285D02*
X20528285Y-9536716D01*
X20471716Y-9536716D01*
X20471716Y-9593285D01*
X20528285Y-9593285D01*
X20528285Y-9793285D02*
X20528285Y-9736716D01*
X20471716Y-9736716D01*
X20471716Y-9793285D01*
X20528285Y-9793285D01*
X20528285Y-9993285D02*
X20528285Y-9936716D01*
X20471716Y-9936716D01*
X20471716Y-9993285D01*
X20528285Y-9993285D01*
X20160000Y-9228000D02*
X20210000Y-9178000D01*
X20160000Y-9128000D01*
X20110000Y-9178000D01*
X20160000Y-9228000D01*
X20160000Y-9482000D02*
X20210000Y-9432000D01*
X20160000Y-9382000D01*
X20110000Y-9432000D01*
X20160000Y-9482000D01*
X20160000Y-9736000D02*
X20210000Y-9686000D01*
X20160000Y-9636000D01*
X20110000Y-9686000D01*
X20160000Y-9736000D01*
X20160000Y-9990000D02*
X20210000Y-9940000D01*
X20160000Y-9890000D01*
X20110000Y-9940000D01*
X20160000Y-9990000D01*
D13*
X18390000Y-10590000D02*
X18610000Y-10810000D01*
X18610000Y-10590000D02*
X18390000Y-10810000D01*
X18610000Y-10700000D02*
G75*
G02*
X18390000Y-10700000I-110000J0D01*
G01*
X18390000Y-10700000D02*
G75*
G02*
X18610000Y-10700000I110000J0D01*
G01*
D14*
X18365000Y-9915000D02*
X18635000Y-10185000D01*
X18635000Y-9915000D02*
X18365000Y-10185000D01*
X18500000Y-9915000D02*
X18500000Y-10185000D01*
X18365000Y-10050000D02*
X18635000Y-10050000D01*
D15*
X18340000Y-9140000D02*
X18660000Y-9460000D01*
X18660000Y-9140000D02*
X18340000Y-9460000D01*
X18613138Y-9413138D02*
X18613138Y-9186862D01*
X18386862Y-9186862D01*
X18386862Y-9413138D01*
X18613138Y-9413138D01*
D16*
X19185000Y-10335000D02*
X19615000Y-10765000D01*
X19615000Y-10335000D02*
X19185000Y-10765000D01*
X19400000Y-10765000D02*
X19615000Y-10550000D01*
X19400000Y-10335000D01*
X19185000Y-10550000D01*
X19400000Y-10765000D01*
D17*
X19400000Y-9185000D02*
X19400000Y-9715000D01*
X19135000Y-9450000D02*
X19665000Y-9450000D01*
X19665000Y-9450000D02*
G75*
G02*
X19135000Y-9450000I-265000J0D01*
G01*
X19135000Y-9450000D02*
G75*
G02*
X19665000Y-9450000I265000J0D01*
G01*
D11*
X7478277Y-11813984D02*
X7478277Y-11613984D01*
X7478277Y-11613984D02*
X7525896Y-11613984D01*
X7525896Y-11613984D02*
X7554467Y-11623508D01*
X7554467Y-11623508D02*
X7573515Y-11642555D01*
X7573515Y-11642555D02*
X7583039Y-11661603D01*
X7583039Y-11661603D02*
X7592562Y-11699698D01*
X7592562Y-11699698D02*
X7592562Y-11728269D01*
X7592562Y-11728269D02*
X7583039Y-11766365D01*
X7583039Y-11766365D02*
X7573515Y-11785412D01*
X7573515Y-11785412D02*
X7554467Y-11804460D01*
X7554467Y-11804460D02*
X7525896Y-11813984D01*
X7525896Y-11813984D02*
X7478277Y-11813984D01*
X7678277Y-11813984D02*
X7678277Y-11680650D01*
X7678277Y-11718746D02*
X7687801Y-11699698D01*
X7687801Y-11699698D02*
X7697324Y-11690174D01*
X7697324Y-11690174D02*
X7716372Y-11680650D01*
X7716372Y-11680650D02*
X7735420Y-11680650D01*
X7802086Y-11813984D02*
X7802086Y-11680650D01*
X7802086Y-11613984D02*
X7792562Y-11623508D01*
X7792562Y-11623508D02*
X7802086Y-11633031D01*
X7802086Y-11633031D02*
X7811610Y-11623508D01*
X7811610Y-11623508D02*
X7802086Y-11613984D01*
X7802086Y-11613984D02*
X7802086Y-11633031D01*
X7925896Y-11813984D02*
X7906848Y-11804460D01*
X7906848Y-11804460D02*
X7897324Y-11785412D01*
X7897324Y-11785412D02*
X7897324Y-11613984D01*
X8030658Y-11813984D02*
X8011610Y-11804460D01*
X8011610Y-11804460D02*
X8002086Y-11785412D01*
X8002086Y-11785412D02*
X8002086Y-11613984D01*
X8259229Y-11813984D02*
X8259229Y-11613984D01*
X8259229Y-11613984D02*
X8325896Y-11756841D01*
X8325896Y-11756841D02*
X8392563Y-11613984D01*
X8392563Y-11613984D02*
X8392563Y-11813984D01*
X8573515Y-11813984D02*
X8573515Y-11709222D01*
X8573515Y-11709222D02*
X8563991Y-11690174D01*
X8563991Y-11690174D02*
X8544944Y-11680650D01*
X8544944Y-11680650D02*
X8506848Y-11680650D01*
X8506848Y-11680650D02*
X8487801Y-11690174D01*
X8573515Y-11804460D02*
X8554467Y-11813984D01*
X8554467Y-11813984D02*
X8506848Y-11813984D01*
X8506848Y-11813984D02*
X8487801Y-11804460D01*
X8487801Y-11804460D02*
X8478277Y-11785412D01*
X8478277Y-11785412D02*
X8478277Y-11766365D01*
X8478277Y-11766365D02*
X8487801Y-11747317D01*
X8487801Y-11747317D02*
X8506848Y-11737793D01*
X8506848Y-11737793D02*
X8554467Y-11737793D01*
X8554467Y-11737793D02*
X8573515Y-11728269D01*
X8668753Y-11680650D02*
X8668753Y-11880650D01*
X8668753Y-11690174D02*
X8687801Y-11680650D01*
X8687801Y-11680650D02*
X8725896Y-11680650D01*
X8725896Y-11680650D02*
X8744944Y-11690174D01*
X8744944Y-11690174D02*
X8754467Y-11699698D01*
X8754467Y-11699698D02*
X8763991Y-11718746D01*
X8763991Y-11718746D02*
X8763991Y-11775888D01*
X8763991Y-11775888D02*
X8754467Y-11794936D01*
X8754467Y-11794936D02*
X8744944Y-11804460D01*
X8744944Y-11804460D02*
X8725896Y-11813984D01*
X8725896Y-11813984D02*
X8687801Y-11813984D01*
X8687801Y-11813984D02*
X8668753Y-11804460D01*
X8849705Y-11794936D02*
X8859229Y-11804460D01*
X8859229Y-11804460D02*
X8849705Y-11813984D01*
X8849705Y-11813984D02*
X8840182Y-11804460D01*
X8840182Y-11804460D02*
X8849705Y-11794936D01*
X8849705Y-11794936D02*
X8849705Y-11813984D01*
X8849705Y-11690174D02*
X8859229Y-11699698D01*
X8859229Y-11699698D02*
X8849705Y-11709222D01*
X8849705Y-11709222D02*
X8840182Y-11699698D01*
X8840182Y-11699698D02*
X8849705Y-11690174D01*
X8849705Y-11690174D02*
X8849705Y-11709222D01*
D12*
X7187500Y-12127500D02*
X7217500Y-12157500D01*
X7217500Y-12127500D02*
X7187500Y-12157500D01*
D11*
X7516372Y-12033984D02*
X7535420Y-12033984D01*
X7535420Y-12033984D02*
X7554467Y-12043508D01*
X7554467Y-12043508D02*
X7563991Y-12053031D01*
X7563991Y-12053031D02*
X7573515Y-12072079D01*
X7573515Y-12072079D02*
X7583039Y-12110174D01*
X7583039Y-12110174D02*
X7583039Y-12157793D01*
X7583039Y-12157793D02*
X7573515Y-12195888D01*
X7573515Y-12195888D02*
X7563991Y-12214936D01*
X7563991Y-12214936D02*
X7554467Y-12224460D01*
X7554467Y-12224460D02*
X7535420Y-12233984D01*
X7535420Y-12233984D02*
X7516372Y-12233984D01*
X7516372Y-12233984D02*
X7497324Y-12224460D01*
X7497324Y-12224460D02*
X7487801Y-12214936D01*
X7487801Y-12214936D02*
X7478277Y-12195888D01*
X7478277Y-12195888D02*
X7468753Y-12157793D01*
X7468753Y-12157793D02*
X7468753Y-12110174D01*
X7468753Y-12110174D02*
X7478277Y-12072079D01*
X7478277Y-12072079D02*
X7487801Y-12053031D01*
X7487801Y-12053031D02*
X7497324Y-12043508D01*
X7497324Y-12043508D02*
X7516372Y-12033984D01*
X7668753Y-12214936D02*
X7678277Y-12224460D01*
X7678277Y-12224460D02*
X7668753Y-12233984D01*
X7668753Y-12233984D02*
X7659229Y-12224460D01*
X7659229Y-12224460D02*
X7668753Y-12214936D01*
X7668753Y-12214936D02*
X7668753Y-12233984D01*
X7744943Y-12033984D02*
X7868753Y-12033984D01*
X7868753Y-12033984D02*
X7802086Y-12110174D01*
X7802086Y-12110174D02*
X7830658Y-12110174D01*
X7830658Y-12110174D02*
X7849705Y-12119698D01*
X7849705Y-12119698D02*
X7859229Y-12129222D01*
X7859229Y-12129222D02*
X7868753Y-12148269D01*
X7868753Y-12148269D02*
X7868753Y-12195888D01*
X7868753Y-12195888D02*
X7859229Y-12214936D01*
X7859229Y-12214936D02*
X7849705Y-12224460D01*
X7849705Y-12224460D02*
X7830658Y-12233984D01*
X7830658Y-12233984D02*
X7773515Y-12233984D01*
X7773515Y-12233984D02*
X7754467Y-12224460D01*
X7754467Y-12224460D02*
X7744943Y-12214936D01*
X7992562Y-12033984D02*
X8011610Y-12033984D01*
X8011610Y-12033984D02*
X8030658Y-12043508D01*
X8030658Y-12043508D02*
X8040182Y-12053031D01*
X8040182Y-12053031D02*
X8049705Y-12072079D01*
X8049705Y-12072079D02*
X8059229Y-12110174D01*
X8059229Y-12110174D02*
X8059229Y-12157793D01*
X8059229Y-12157793D02*
X8049705Y-12195888D01*
X8049705Y-12195888D02*
X8040182Y-12214936D01*
X8040182Y-12214936D02*
X8030658Y-12224460D01*
X8030658Y-12224460D02*
X8011610Y-12233984D01*
X8011610Y-12233984D02*
X7992562Y-12233984D01*
X7992562Y-12233984D02*
X7973515Y-12224460D01*
X7973515Y-12224460D02*
X7963991Y-12214936D01*
X7963991Y-12214936D02*
X7954467Y-12195888D01*
X7954467Y-12195888D02*
X7944943Y-12157793D01*
X7944943Y-12157793D02*
X7944943Y-12110174D01*
X7944943Y-12110174D02*
X7954467Y-12072079D01*
X7954467Y-12072079D02*
X7963991Y-12053031D01*
X7963991Y-12053031D02*
X7973515Y-12043508D01*
X7973515Y-12043508D02*
X7992562Y-12033984D01*
X8183039Y-12033984D02*
X8202086Y-12033984D01*
X8202086Y-12033984D02*
X8221134Y-12043508D01*
X8221134Y-12043508D02*
X8230658Y-12053031D01*
X8230658Y-12053031D02*
X8240182Y-12072079D01*
X8240182Y-12072079D02*
X8249705Y-12110174D01*
X8249705Y-12110174D02*
X8249705Y-12157793D01*
X8249705Y-12157793D02*
X8240182Y-12195888D01*
X8240182Y-12195888D02*
X8230658Y-12214936D01*
X8230658Y-12214936D02*
X8221134Y-12224460D01*
X8221134Y-12224460D02*
X8202086Y-12233984D01*
X8202086Y-12233984D02*
X8183039Y-12233984D01*
X8183039Y-12233984D02*
X8163991Y-12224460D01*
X8163991Y-12224460D02*
X8154467Y-12214936D01*
X8154467Y-12214936D02*
X8144943Y-12195888D01*
X8144943Y-12195888D02*
X8135420Y-12157793D01*
X8135420Y-12157793D02*
X8135420Y-12110174D01*
X8135420Y-12110174D02*
X8144943Y-12072079D01*
X8144943Y-12072079D02*
X8154467Y-12053031D01*
X8154467Y-12053031D02*
X8163991Y-12043508D01*
X8163991Y-12043508D02*
X8183039Y-12033984D01*
X8335420Y-12233984D02*
X8335420Y-12100650D01*
X8335420Y-12119698D02*
X8344943Y-12110174D01*
X8344943Y-12110174D02*
X8363991Y-12100650D01*
X8363991Y-12100650D02*
X8392563Y-12100650D01*
X8392563Y-12100650D02*
X8411610Y-12110174D01*
X8411610Y-12110174D02*
X8421134Y-12129222D01*
X8421134Y-12129222D02*
X8421134Y-12233984D01*
X8421134Y-12129222D02*
X8430658Y-12110174D01*
X8430658Y-12110174D02*
X8449705Y-12100650D01*
X8449705Y-12100650D02*
X8478277Y-12100650D01*
X8478277Y-12100650D02*
X8497325Y-12110174D01*
X8497325Y-12110174D02*
X8506848Y-12129222D01*
X8506848Y-12129222D02*
X8506848Y-12233984D01*
X8602086Y-12233984D02*
X8602086Y-12100650D01*
X8602086Y-12119698D02*
X8611610Y-12110174D01*
X8611610Y-12110174D02*
X8630658Y-12100650D01*
X8630658Y-12100650D02*
X8659229Y-12100650D01*
X8659229Y-12100650D02*
X8678277Y-12110174D01*
X8678277Y-12110174D02*
X8687801Y-12129222D01*
X8687801Y-12129222D02*
X8687801Y-12233984D01*
X8687801Y-12129222D02*
X8697325Y-12110174D01*
X8697325Y-12110174D02*
X8716372Y-12100650D01*
X8716372Y-12100650D02*
X8744944Y-12100650D01*
X8744944Y-12100650D02*
X8763991Y-12110174D01*
X8763991Y-12110174D02*
X8773515Y-12129222D01*
X8773515Y-12129222D02*
X8773515Y-12233984D01*
X9163991Y-12024460D02*
X8992563Y-12281603D01*
X9421134Y-12033984D02*
X9440182Y-12033984D01*
X9440182Y-12033984D02*
X9459229Y-12043508D01*
X9459229Y-12043508D02*
X9468753Y-12053031D01*
X9468753Y-12053031D02*
X9478277Y-12072079D01*
X9478277Y-12072079D02*
X9487801Y-12110174D01*
X9487801Y-12110174D02*
X9487801Y-12157793D01*
X9487801Y-12157793D02*
X9478277Y-12195888D01*
X9478277Y-12195888D02*
X9468753Y-12214936D01*
X9468753Y-12214936D02*
X9459229Y-12224460D01*
X9459229Y-12224460D02*
X9440182Y-12233984D01*
X9440182Y-12233984D02*
X9421134Y-12233984D01*
X9421134Y-12233984D02*
X9402087Y-12224460D01*
X9402087Y-12224460D02*
X9392563Y-12214936D01*
X9392563Y-12214936D02*
X9383039Y-12195888D01*
X9383039Y-12195888D02*
X9373515Y-12157793D01*
X9373515Y-12157793D02*
X9373515Y-12110174D01*
X9373515Y-12110174D02*
X9383039Y-12072079D01*
X9383039Y-12072079D02*
X9392563Y-12053031D01*
X9392563Y-12053031D02*
X9402087Y-12043508D01*
X9402087Y-12043508D02*
X9421134Y-12033984D01*
X9573515Y-12214936D02*
X9583039Y-12224460D01*
X9583039Y-12224460D02*
X9573515Y-12233984D01*
X9573515Y-12233984D02*
X9563991Y-12224460D01*
X9563991Y-12224460D02*
X9573515Y-12214936D01*
X9573515Y-12214936D02*
X9573515Y-12233984D01*
X9706848Y-12033984D02*
X9725896Y-12033984D01*
X9725896Y-12033984D02*
X9744944Y-12043508D01*
X9744944Y-12043508D02*
X9754468Y-12053031D01*
X9754468Y-12053031D02*
X9763991Y-12072079D01*
X9763991Y-12072079D02*
X9773515Y-12110174D01*
X9773515Y-12110174D02*
X9773515Y-12157793D01*
X9773515Y-12157793D02*
X9763991Y-12195888D01*
X9763991Y-12195888D02*
X9754468Y-12214936D01*
X9754468Y-12214936D02*
X9744944Y-12224460D01*
X9744944Y-12224460D02*
X9725896Y-12233984D01*
X9725896Y-12233984D02*
X9706848Y-12233984D01*
X9706848Y-12233984D02*
X9687801Y-12224460D01*
X9687801Y-12224460D02*
X9678277Y-12214936D01*
X9678277Y-12214936D02*
X9668753Y-12195888D01*
X9668753Y-12195888D02*
X9659229Y-12157793D01*
X9659229Y-12157793D02*
X9659229Y-12110174D01*
X9659229Y-12110174D02*
X9668753Y-12072079D01*
X9668753Y-12072079D02*
X9678277Y-12053031D01*
X9678277Y-12053031D02*
X9687801Y-12043508D01*
X9687801Y-12043508D02*
X9706848Y-12033984D01*
X9963991Y-12233984D02*
X9849706Y-12233984D01*
X9906848Y-12233984D02*
X9906848Y-12033984D01*
X9906848Y-12033984D02*
X9887801Y-12062555D01*
X9887801Y-12062555D02*
X9868753Y-12081603D01*
X9868753Y-12081603D02*
X9849706Y-12091127D01*
X10154468Y-12233984D02*
X10040182Y-12233984D01*
X10097325Y-12233984D02*
X10097325Y-12033984D01*
X10097325Y-12033984D02*
X10078277Y-12062555D01*
X10078277Y-12062555D02*
X10059229Y-12081603D01*
X10059229Y-12081603D02*
X10040182Y-12091127D01*
X10268753Y-12119698D02*
X10249706Y-12110174D01*
X10249706Y-12110174D02*
X10240182Y-12100650D01*
X10240182Y-12100650D02*
X10230658Y-12081603D01*
X10230658Y-12081603D02*
X10230658Y-12072079D01*
X10230658Y-12072079D02*
X10240182Y-12053031D01*
X10240182Y-12053031D02*
X10249706Y-12043508D01*
X10249706Y-12043508D02*
X10268753Y-12033984D01*
X10268753Y-12033984D02*
X10306849Y-12033984D01*
X10306849Y-12033984D02*
X10325896Y-12043508D01*
X10325896Y-12043508D02*
X10335420Y-12053031D01*
X10335420Y-12053031D02*
X10344944Y-12072079D01*
X10344944Y-12072079D02*
X10344944Y-12081603D01*
X10344944Y-12081603D02*
X10335420Y-12100650D01*
X10335420Y-12100650D02*
X10325896Y-12110174D01*
X10325896Y-12110174D02*
X10306849Y-12119698D01*
X10306849Y-12119698D02*
X10268753Y-12119698D01*
X10268753Y-12119698D02*
X10249706Y-12129222D01*
X10249706Y-12129222D02*
X10240182Y-12138746D01*
X10240182Y-12138746D02*
X10230658Y-12157793D01*
X10230658Y-12157793D02*
X10230658Y-12195888D01*
X10230658Y-12195888D02*
X10240182Y-12214936D01*
X10240182Y-12214936D02*
X10249706Y-12224460D01*
X10249706Y-12224460D02*
X10268753Y-12233984D01*
X10268753Y-12233984D02*
X10306849Y-12233984D01*
X10306849Y-12233984D02*
X10325896Y-12224460D01*
X10325896Y-12224460D02*
X10335420Y-12214936D01*
X10335420Y-12214936D02*
X10344944Y-12195888D01*
X10344944Y-12195888D02*
X10344944Y-12157793D01*
X10344944Y-12157793D02*
X10335420Y-12138746D01*
X10335420Y-12138746D02*
X10325896Y-12129222D01*
X10325896Y-12129222D02*
X10306849Y-12119698D01*
X10421134Y-12033984D02*
X10421134Y-12072079D01*
X10497325Y-12033984D02*
X10497325Y-12072079D01*
X10792563Y-12310174D02*
X10783039Y-12300650D01*
X10783039Y-12300650D02*
X10763991Y-12272079D01*
X10763991Y-12272079D02*
X10754468Y-12253031D01*
X10754468Y-12253031D02*
X10744944Y-12224460D01*
X10744944Y-12224460D02*
X10735420Y-12176841D01*
X10735420Y-12176841D02*
X10735420Y-12138746D01*
X10735420Y-12138746D02*
X10744944Y-12091127D01*
X10744944Y-12091127D02*
X10754468Y-12062555D01*
X10754468Y-12062555D02*
X10763991Y-12043508D01*
X10763991Y-12043508D02*
X10783039Y-12014936D01*
X10783039Y-12014936D02*
X10792563Y-12005412D01*
X10849706Y-12033984D02*
X10973515Y-12033984D01*
X10973515Y-12033984D02*
X10906849Y-12110174D01*
X10906849Y-12110174D02*
X10935420Y-12110174D01*
X10935420Y-12110174D02*
X10954468Y-12119698D01*
X10954468Y-12119698D02*
X10963991Y-12129222D01*
X10963991Y-12129222D02*
X10973515Y-12148269D01*
X10973515Y-12148269D02*
X10973515Y-12195888D01*
X10973515Y-12195888D02*
X10963991Y-12214936D01*
X10963991Y-12214936D02*
X10954468Y-12224460D01*
X10954468Y-12224460D02*
X10935420Y-12233984D01*
X10935420Y-12233984D02*
X10878277Y-12233984D01*
X10878277Y-12233984D02*
X10859230Y-12224460D01*
X10859230Y-12224460D02*
X10849706Y-12214936D01*
X11154468Y-12033984D02*
X11059230Y-12033984D01*
X11059230Y-12033984D02*
X11049706Y-12129222D01*
X11049706Y-12129222D02*
X11059230Y-12119698D01*
X11059230Y-12119698D02*
X11078277Y-12110174D01*
X11078277Y-12110174D02*
X11125896Y-12110174D01*
X11125896Y-12110174D02*
X11144944Y-12119698D01*
X11144944Y-12119698D02*
X11154468Y-12129222D01*
X11154468Y-12129222D02*
X11163991Y-12148269D01*
X11163991Y-12148269D02*
X11163991Y-12195888D01*
X11163991Y-12195888D02*
X11154468Y-12214936D01*
X11154468Y-12214936D02*
X11144944Y-12224460D01*
X11144944Y-12224460D02*
X11125896Y-12233984D01*
X11125896Y-12233984D02*
X11078277Y-12233984D01*
X11078277Y-12233984D02*
X11059230Y-12224460D01*
X11059230Y-12224460D02*
X11049706Y-12214936D01*
X11402087Y-12233984D02*
X11402087Y-12033984D01*
X11487801Y-12233984D02*
X11487801Y-12129222D01*
X11487801Y-12129222D02*
X11478277Y-12110174D01*
X11478277Y-12110174D02*
X11459230Y-12100650D01*
X11459230Y-12100650D02*
X11430658Y-12100650D01*
X11430658Y-12100650D02*
X11411610Y-12110174D01*
X11411610Y-12110174D02*
X11402087Y-12119698D01*
X11611610Y-12233984D02*
X11592563Y-12224460D01*
X11592563Y-12224460D02*
X11583039Y-12214936D01*
X11583039Y-12214936D02*
X11573515Y-12195888D01*
X11573515Y-12195888D02*
X11573515Y-12138746D01*
X11573515Y-12138746D02*
X11583039Y-12119698D01*
X11583039Y-12119698D02*
X11592563Y-12110174D01*
X11592563Y-12110174D02*
X11611610Y-12100650D01*
X11611610Y-12100650D02*
X11640182Y-12100650D01*
X11640182Y-12100650D02*
X11659230Y-12110174D01*
X11659230Y-12110174D02*
X11668753Y-12119698D01*
X11668753Y-12119698D02*
X11678277Y-12138746D01*
X11678277Y-12138746D02*
X11678277Y-12195888D01*
X11678277Y-12195888D02*
X11668753Y-12214936D01*
X11668753Y-12214936D02*
X11659230Y-12224460D01*
X11659230Y-12224460D02*
X11640182Y-12233984D01*
X11640182Y-12233984D02*
X11611610Y-12233984D01*
X11792563Y-12233984D02*
X11773515Y-12224460D01*
X11773515Y-12224460D02*
X11763991Y-12205412D01*
X11763991Y-12205412D02*
X11763991Y-12033984D01*
X11944944Y-12224460D02*
X11925896Y-12233984D01*
X11925896Y-12233984D02*
X11887801Y-12233984D01*
X11887801Y-12233984D02*
X11868753Y-12224460D01*
X11868753Y-12224460D02*
X11859230Y-12205412D01*
X11859230Y-12205412D02*
X11859230Y-12129222D01*
X11859230Y-12129222D02*
X11868753Y-12110174D01*
X11868753Y-12110174D02*
X11887801Y-12100650D01*
X11887801Y-12100650D02*
X11925896Y-12100650D01*
X11925896Y-12100650D02*
X11944944Y-12110174D01*
X11944944Y-12110174D02*
X11954468Y-12129222D01*
X11954468Y-12129222D02*
X11954468Y-12148269D01*
X11954468Y-12148269D02*
X11859230Y-12167317D01*
X12030658Y-12224460D02*
X12049706Y-12233984D01*
X12049706Y-12233984D02*
X12087801Y-12233984D01*
X12087801Y-12233984D02*
X12106849Y-12224460D01*
X12106849Y-12224460D02*
X12116372Y-12205412D01*
X12116372Y-12205412D02*
X12116372Y-12195888D01*
X12116372Y-12195888D02*
X12106849Y-12176841D01*
X12106849Y-12176841D02*
X12087801Y-12167317D01*
X12087801Y-12167317D02*
X12059230Y-12167317D01*
X12059230Y-12167317D02*
X12040182Y-12157793D01*
X12040182Y-12157793D02*
X12030658Y-12138746D01*
X12030658Y-12138746D02*
X12030658Y-12129222D01*
X12030658Y-12129222D02*
X12040182Y-12110174D01*
X12040182Y-12110174D02*
X12059230Y-12100650D01*
X12059230Y-12100650D02*
X12087801Y-12100650D01*
X12087801Y-12100650D02*
X12106849Y-12110174D01*
X12183039Y-12310174D02*
X12192563Y-12300650D01*
X12192563Y-12300650D02*
X12211611Y-12272079D01*
X12211611Y-12272079D02*
X12221134Y-12253031D01*
X12221134Y-12253031D02*
X12230658Y-12224460D01*
X12230658Y-12224460D02*
X12240182Y-12176841D01*
X12240182Y-12176841D02*
X12240182Y-12138746D01*
X12240182Y-12138746D02*
X12230658Y-12091127D01*
X12230658Y-12091127D02*
X12221134Y-12062555D01*
X12221134Y-12062555D02*
X12211611Y-12043508D01*
X12211611Y-12043508D02*
X12192563Y-12014936D01*
X12192563Y-12014936D02*
X12183039Y-12005412D01*
D12*
X7217500Y-12406500D02*
G75*
G02*
X7167500Y-12406500I-25000J0D01*
G01*
X7167500Y-12406500D02*
G75*
G02*
X7217500Y-12406500I25000J0D01*
G01*
D11*
X7516372Y-12297984D02*
X7535420Y-12297984D01*
X7535420Y-12297984D02*
X7554467Y-12307508D01*
X7554467Y-12307508D02*
X7563991Y-12317031D01*
X7563991Y-12317031D02*
X7573515Y-12336079D01*
X7573515Y-12336079D02*
X7583039Y-12374174D01*
X7583039Y-12374174D02*
X7583039Y-12421793D01*
X7583039Y-12421793D02*
X7573515Y-12459888D01*
X7573515Y-12459888D02*
X7563991Y-12478936D01*
X7563991Y-12478936D02*
X7554467Y-12488460D01*
X7554467Y-12488460D02*
X7535420Y-12497984D01*
X7535420Y-12497984D02*
X7516372Y-12497984D01*
X7516372Y-12497984D02*
X7497324Y-12488460D01*
X7497324Y-12488460D02*
X7487801Y-12478936D01*
X7487801Y-12478936D02*
X7478277Y-12459888D01*
X7478277Y-12459888D02*
X7468753Y-12421793D01*
X7468753Y-12421793D02*
X7468753Y-12374174D01*
X7468753Y-12374174D02*
X7478277Y-12336079D01*
X7478277Y-12336079D02*
X7487801Y-12317031D01*
X7487801Y-12317031D02*
X7497324Y-12307508D01*
X7497324Y-12307508D02*
X7516372Y-12297984D01*
X7668753Y-12478936D02*
X7678277Y-12488460D01*
X7678277Y-12488460D02*
X7668753Y-12497984D01*
X7668753Y-12497984D02*
X7659229Y-12488460D01*
X7659229Y-12488460D02*
X7668753Y-12478936D01*
X7668753Y-12478936D02*
X7668753Y-12497984D01*
X7859229Y-12297984D02*
X7763991Y-12297984D01*
X7763991Y-12297984D02*
X7754467Y-12393222D01*
X7754467Y-12393222D02*
X7763991Y-12383698D01*
X7763991Y-12383698D02*
X7783039Y-12374174D01*
X7783039Y-12374174D02*
X7830658Y-12374174D01*
X7830658Y-12374174D02*
X7849705Y-12383698D01*
X7849705Y-12383698D02*
X7859229Y-12393222D01*
X7859229Y-12393222D02*
X7868753Y-12412269D01*
X7868753Y-12412269D02*
X7868753Y-12459888D01*
X7868753Y-12459888D02*
X7859229Y-12478936D01*
X7859229Y-12478936D02*
X7849705Y-12488460D01*
X7849705Y-12488460D02*
X7830658Y-12497984D01*
X7830658Y-12497984D02*
X7783039Y-12497984D01*
X7783039Y-12497984D02*
X7763991Y-12488460D01*
X7763991Y-12488460D02*
X7754467Y-12478936D01*
X7992562Y-12297984D02*
X8011610Y-12297984D01*
X8011610Y-12297984D02*
X8030658Y-12307508D01*
X8030658Y-12307508D02*
X8040182Y-12317031D01*
X8040182Y-12317031D02*
X8049705Y-12336079D01*
X8049705Y-12336079D02*
X8059229Y-12374174D01*
X8059229Y-12374174D02*
X8059229Y-12421793D01*
X8059229Y-12421793D02*
X8049705Y-12459888D01*
X8049705Y-12459888D02*
X8040182Y-12478936D01*
X8040182Y-12478936D02*
X8030658Y-12488460D01*
X8030658Y-12488460D02*
X8011610Y-12497984D01*
X8011610Y-12497984D02*
X7992562Y-12497984D01*
X7992562Y-12497984D02*
X7973515Y-12488460D01*
X7973515Y-12488460D02*
X7963991Y-12478936D01*
X7963991Y-12478936D02*
X7954467Y-12459888D01*
X7954467Y-12459888D02*
X7944943Y-12421793D01*
X7944943Y-12421793D02*
X7944943Y-12374174D01*
X7944943Y-12374174D02*
X7954467Y-12336079D01*
X7954467Y-12336079D02*
X7963991Y-12317031D01*
X7963991Y-12317031D02*
X7973515Y-12307508D01*
X7973515Y-12307508D02*
X7992562Y-12297984D01*
X8183039Y-12297984D02*
X8202086Y-12297984D01*
X8202086Y-12297984D02*
X8221134Y-12307508D01*
X8221134Y-12307508D02*
X8230658Y-12317031D01*
X8230658Y-12317031D02*
X8240182Y-12336079D01*
X8240182Y-12336079D02*
X8249705Y-12374174D01*
X8249705Y-12374174D02*
X8249705Y-12421793D01*
X8249705Y-12421793D02*
X8240182Y-12459888D01*
X8240182Y-12459888D02*
X8230658Y-12478936D01*
X8230658Y-12478936D02*
X8221134Y-12488460D01*
X8221134Y-12488460D02*
X8202086Y-12497984D01*
X8202086Y-12497984D02*
X8183039Y-12497984D01*
X8183039Y-12497984D02*
X8163991Y-12488460D01*
X8163991Y-12488460D02*
X8154467Y-12478936D01*
X8154467Y-12478936D02*
X8144943Y-12459888D01*
X8144943Y-12459888D02*
X8135420Y-12421793D01*
X8135420Y-12421793D02*
X8135420Y-12374174D01*
X8135420Y-12374174D02*
X8144943Y-12336079D01*
X8144943Y-12336079D02*
X8154467Y-12317031D01*
X8154467Y-12317031D02*
X8163991Y-12307508D01*
X8163991Y-12307508D02*
X8183039Y-12297984D01*
X8335420Y-12497984D02*
X8335420Y-12364650D01*
X8335420Y-12383698D02*
X8344943Y-12374174D01*
X8344943Y-12374174D02*
X8363991Y-12364650D01*
X8363991Y-12364650D02*
X8392563Y-12364650D01*
X8392563Y-12364650D02*
X8411610Y-12374174D01*
X8411610Y-12374174D02*
X8421134Y-12393222D01*
X8421134Y-12393222D02*
X8421134Y-12497984D01*
X8421134Y-12393222D02*
X8430658Y-12374174D01*
X8430658Y-12374174D02*
X8449705Y-12364650D01*
X8449705Y-12364650D02*
X8478277Y-12364650D01*
X8478277Y-12364650D02*
X8497325Y-12374174D01*
X8497325Y-12374174D02*
X8506848Y-12393222D01*
X8506848Y-12393222D02*
X8506848Y-12497984D01*
X8602086Y-12497984D02*
X8602086Y-12364650D01*
X8602086Y-12383698D02*
X8611610Y-12374174D01*
X8611610Y-12374174D02*
X8630658Y-12364650D01*
X8630658Y-12364650D02*
X8659229Y-12364650D01*
X8659229Y-12364650D02*
X8678277Y-12374174D01*
X8678277Y-12374174D02*
X8687801Y-12393222D01*
X8687801Y-12393222D02*
X8687801Y-12497984D01*
X8687801Y-12393222D02*
X8697325Y-12374174D01*
X8697325Y-12374174D02*
X8716372Y-12364650D01*
X8716372Y-12364650D02*
X8744944Y-12364650D01*
X8744944Y-12364650D02*
X8763991Y-12374174D01*
X8763991Y-12374174D02*
X8773515Y-12393222D01*
X8773515Y-12393222D02*
X8773515Y-12497984D01*
X9163991Y-12288460D02*
X8992563Y-12545603D01*
X9421134Y-12297984D02*
X9440182Y-12297984D01*
X9440182Y-12297984D02*
X9459229Y-12307508D01*
X9459229Y-12307508D02*
X9468753Y-12317031D01*
X9468753Y-12317031D02*
X9478277Y-12336079D01*
X9478277Y-12336079D02*
X9487801Y-12374174D01*
X9487801Y-12374174D02*
X9487801Y-12421793D01*
X9487801Y-12421793D02*
X9478277Y-12459888D01*
X9478277Y-12459888D02*
X9468753Y-12478936D01*
X9468753Y-12478936D02*
X9459229Y-12488460D01*
X9459229Y-12488460D02*
X9440182Y-12497984D01*
X9440182Y-12497984D02*
X9421134Y-12497984D01*
X9421134Y-12497984D02*
X9402087Y-12488460D01*
X9402087Y-12488460D02*
X9392563Y-12478936D01*
X9392563Y-12478936D02*
X9383039Y-12459888D01*
X9383039Y-12459888D02*
X9373515Y-12421793D01*
X9373515Y-12421793D02*
X9373515Y-12374174D01*
X9373515Y-12374174D02*
X9383039Y-12336079D01*
X9383039Y-12336079D02*
X9392563Y-12317031D01*
X9392563Y-12317031D02*
X9402087Y-12307508D01*
X9402087Y-12307508D02*
X9421134Y-12297984D01*
X9573515Y-12478936D02*
X9583039Y-12488460D01*
X9583039Y-12488460D02*
X9573515Y-12497984D01*
X9573515Y-12497984D02*
X9563991Y-12488460D01*
X9563991Y-12488460D02*
X9573515Y-12478936D01*
X9573515Y-12478936D02*
X9573515Y-12497984D01*
X9706848Y-12297984D02*
X9725896Y-12297984D01*
X9725896Y-12297984D02*
X9744944Y-12307508D01*
X9744944Y-12307508D02*
X9754468Y-12317031D01*
X9754468Y-12317031D02*
X9763991Y-12336079D01*
X9763991Y-12336079D02*
X9773515Y-12374174D01*
X9773515Y-12374174D02*
X9773515Y-12421793D01*
X9773515Y-12421793D02*
X9763991Y-12459888D01*
X9763991Y-12459888D02*
X9754468Y-12478936D01*
X9754468Y-12478936D02*
X9744944Y-12488460D01*
X9744944Y-12488460D02*
X9725896Y-12497984D01*
X9725896Y-12497984D02*
X9706848Y-12497984D01*
X9706848Y-12497984D02*
X9687801Y-12488460D01*
X9687801Y-12488460D02*
X9678277Y-12478936D01*
X9678277Y-12478936D02*
X9668753Y-12459888D01*
X9668753Y-12459888D02*
X9659229Y-12421793D01*
X9659229Y-12421793D02*
X9659229Y-12374174D01*
X9659229Y-12374174D02*
X9668753Y-12336079D01*
X9668753Y-12336079D02*
X9678277Y-12317031D01*
X9678277Y-12317031D02*
X9687801Y-12307508D01*
X9687801Y-12307508D02*
X9706848Y-12297984D01*
X9963991Y-12497984D02*
X9849706Y-12497984D01*
X9906848Y-12497984D02*
X9906848Y-12297984D01*
X9906848Y-12297984D02*
X9887801Y-12326555D01*
X9887801Y-12326555D02*
X9868753Y-12345603D01*
X9868753Y-12345603D02*
X9849706Y-12355127D01*
X10059229Y-12497984D02*
X10097325Y-12497984D01*
X10097325Y-12497984D02*
X10116372Y-12488460D01*
X10116372Y-12488460D02*
X10125896Y-12478936D01*
X10125896Y-12478936D02*
X10144944Y-12450365D01*
X10144944Y-12450365D02*
X10154468Y-12412269D01*
X10154468Y-12412269D02*
X10154468Y-12336079D01*
X10154468Y-12336079D02*
X10144944Y-12317031D01*
X10144944Y-12317031D02*
X10135420Y-12307508D01*
X10135420Y-12307508D02*
X10116372Y-12297984D01*
X10116372Y-12297984D02*
X10078277Y-12297984D01*
X10078277Y-12297984D02*
X10059229Y-12307508D01*
X10059229Y-12307508D02*
X10049706Y-12317031D01*
X10049706Y-12317031D02*
X10040182Y-12336079D01*
X10040182Y-12336079D02*
X10040182Y-12383698D01*
X10040182Y-12383698D02*
X10049706Y-12402746D01*
X10049706Y-12402746D02*
X10059229Y-12412269D01*
X10059229Y-12412269D02*
X10078277Y-12421793D01*
X10078277Y-12421793D02*
X10116372Y-12421793D01*
X10116372Y-12421793D02*
X10135420Y-12412269D01*
X10135420Y-12412269D02*
X10144944Y-12402746D01*
X10144944Y-12402746D02*
X10154468Y-12383698D01*
X10221134Y-12297984D02*
X10354468Y-12297984D01*
X10354468Y-12297984D02*
X10268753Y-12497984D01*
X10421134Y-12297984D02*
X10421134Y-12336079D01*
X10497325Y-12297984D02*
X10497325Y-12336079D01*
X10792563Y-12574174D02*
X10783039Y-12564650D01*
X10783039Y-12564650D02*
X10763991Y-12536079D01*
X10763991Y-12536079D02*
X10754468Y-12517031D01*
X10754468Y-12517031D02*
X10744944Y-12488460D01*
X10744944Y-12488460D02*
X10735420Y-12440841D01*
X10735420Y-12440841D02*
X10735420Y-12402746D01*
X10735420Y-12402746D02*
X10744944Y-12355127D01*
X10744944Y-12355127D02*
X10754468Y-12326555D01*
X10754468Y-12326555D02*
X10763991Y-12307508D01*
X10763991Y-12307508D02*
X10783039Y-12278936D01*
X10783039Y-12278936D02*
X10792563Y-12269412D01*
X10954468Y-12364650D02*
X10954468Y-12497984D01*
X10906849Y-12288460D02*
X10859230Y-12431317D01*
X10859230Y-12431317D02*
X10983039Y-12431317D01*
X11211610Y-12497984D02*
X11211610Y-12297984D01*
X11297325Y-12497984D02*
X11297325Y-12393222D01*
X11297325Y-12393222D02*
X11287801Y-12374174D01*
X11287801Y-12374174D02*
X11268753Y-12364650D01*
X11268753Y-12364650D02*
X11240182Y-12364650D01*
X11240182Y-12364650D02*
X11221134Y-12374174D01*
X11221134Y-12374174D02*
X11211610Y-12383698D01*
X11421134Y-12497984D02*
X11402087Y-12488460D01*
X11402087Y-12488460D02*
X11392563Y-12478936D01*
X11392563Y-12478936D02*
X11383039Y-12459888D01*
X11383039Y-12459888D02*
X11383039Y-12402746D01*
X11383039Y-12402746D02*
X11392563Y-12383698D01*
X11392563Y-12383698D02*
X11402087Y-12374174D01*
X11402087Y-12374174D02*
X11421134Y-12364650D01*
X11421134Y-12364650D02*
X11449706Y-12364650D01*
X11449706Y-12364650D02*
X11468753Y-12374174D01*
X11468753Y-12374174D02*
X11478277Y-12383698D01*
X11478277Y-12383698D02*
X11487801Y-12402746D01*
X11487801Y-12402746D02*
X11487801Y-12459888D01*
X11487801Y-12459888D02*
X11478277Y-12478936D01*
X11478277Y-12478936D02*
X11468753Y-12488460D01*
X11468753Y-12488460D02*
X11449706Y-12497984D01*
X11449706Y-12497984D02*
X11421134Y-12497984D01*
X11602087Y-12497984D02*
X11583039Y-12488460D01*
X11583039Y-12488460D02*
X11573515Y-12469412D01*
X11573515Y-12469412D02*
X11573515Y-12297984D01*
X11754468Y-12488460D02*
X11735420Y-12497984D01*
X11735420Y-12497984D02*
X11697325Y-12497984D01*
X11697325Y-12497984D02*
X11678277Y-12488460D01*
X11678277Y-12488460D02*
X11668753Y-12469412D01*
X11668753Y-12469412D02*
X11668753Y-12393222D01*
X11668753Y-12393222D02*
X11678277Y-12374174D01*
X11678277Y-12374174D02*
X11697325Y-12364650D01*
X11697325Y-12364650D02*
X11735420Y-12364650D01*
X11735420Y-12364650D02*
X11754468Y-12374174D01*
X11754468Y-12374174D02*
X11763991Y-12393222D01*
X11763991Y-12393222D02*
X11763991Y-12412269D01*
X11763991Y-12412269D02*
X11668753Y-12431317D01*
X11840182Y-12488460D02*
X11859230Y-12497984D01*
X11859230Y-12497984D02*
X11897325Y-12497984D01*
X11897325Y-12497984D02*
X11916372Y-12488460D01*
X11916372Y-12488460D02*
X11925896Y-12469412D01*
X11925896Y-12469412D02*
X11925896Y-12459888D01*
X11925896Y-12459888D02*
X11916372Y-12440841D01*
X11916372Y-12440841D02*
X11897325Y-12431317D01*
X11897325Y-12431317D02*
X11868753Y-12431317D01*
X11868753Y-12431317D02*
X11849706Y-12421793D01*
X11849706Y-12421793D02*
X11840182Y-12402746D01*
X11840182Y-12402746D02*
X11840182Y-12393222D01*
X11840182Y-12393222D02*
X11849706Y-12374174D01*
X11849706Y-12374174D02*
X11868753Y-12364650D01*
X11868753Y-12364650D02*
X11897325Y-12364650D01*
X11897325Y-12364650D02*
X11916372Y-12374174D01*
X11992563Y-12574174D02*
X12002087Y-12564650D01*
X12002087Y-12564650D02*
X12021134Y-12536079D01*
X12021134Y-12536079D02*
X12030658Y-12517031D01*
X12030658Y-12517031D02*
X12040182Y-12488460D01*
X12040182Y-12488460D02*
X12049706Y-12440841D01*
X12049706Y-12440841D02*
X12049706Y-12402746D01*
X12049706Y-12402746D02*
X12040182Y-12355127D01*
X12040182Y-12355127D02*
X12030658Y-12326555D01*
X12030658Y-12326555D02*
X12021134Y-12307508D01*
X12021134Y-12307508D02*
X12002087Y-12278936D01*
X12002087Y-12278936D02*
X11992563Y-12269412D01*
D12*
X7185000Y-12638000D02*
X7185000Y-12703000D01*
X7152500Y-12670500D02*
X7217500Y-12670500D01*
D11*
X7516372Y-12561984D02*
X7535420Y-12561984D01*
X7535420Y-12561984D02*
X7554467Y-12571508D01*
X7554467Y-12571508D02*
X7563991Y-12581031D01*
X7563991Y-12581031D02*
X7573515Y-12600079D01*
X7573515Y-12600079D02*
X7583039Y-12638174D01*
X7583039Y-12638174D02*
X7583039Y-12685793D01*
X7583039Y-12685793D02*
X7573515Y-12723888D01*
X7573515Y-12723888D02*
X7563991Y-12742936D01*
X7563991Y-12742936D02*
X7554467Y-12752460D01*
X7554467Y-12752460D02*
X7535420Y-12761984D01*
X7535420Y-12761984D02*
X7516372Y-12761984D01*
X7516372Y-12761984D02*
X7497324Y-12752460D01*
X7497324Y-12752460D02*
X7487801Y-12742936D01*
X7487801Y-12742936D02*
X7478277Y-12723888D01*
X7478277Y-12723888D02*
X7468753Y-12685793D01*
X7468753Y-12685793D02*
X7468753Y-12638174D01*
X7468753Y-12638174D02*
X7478277Y-12600079D01*
X7478277Y-12600079D02*
X7487801Y-12581031D01*
X7487801Y-12581031D02*
X7497324Y-12571508D01*
X7497324Y-12571508D02*
X7516372Y-12561984D01*
X7668753Y-12742936D02*
X7678277Y-12752460D01*
X7678277Y-12752460D02*
X7668753Y-12761984D01*
X7668753Y-12761984D02*
X7659229Y-12752460D01*
X7659229Y-12752460D02*
X7668753Y-12742936D01*
X7668753Y-12742936D02*
X7668753Y-12761984D01*
X7849705Y-12561984D02*
X7811610Y-12561984D01*
X7811610Y-12561984D02*
X7792562Y-12571508D01*
X7792562Y-12571508D02*
X7783039Y-12581031D01*
X7783039Y-12581031D02*
X7763991Y-12609603D01*
X7763991Y-12609603D02*
X7754467Y-12647698D01*
X7754467Y-12647698D02*
X7754467Y-12723888D01*
X7754467Y-12723888D02*
X7763991Y-12742936D01*
X7763991Y-12742936D02*
X7773515Y-12752460D01*
X7773515Y-12752460D02*
X7792562Y-12761984D01*
X7792562Y-12761984D02*
X7830658Y-12761984D01*
X7830658Y-12761984D02*
X7849705Y-12752460D01*
X7849705Y-12752460D02*
X7859229Y-12742936D01*
X7859229Y-12742936D02*
X7868753Y-12723888D01*
X7868753Y-12723888D02*
X7868753Y-12676269D01*
X7868753Y-12676269D02*
X7859229Y-12657222D01*
X7859229Y-12657222D02*
X7849705Y-12647698D01*
X7849705Y-12647698D02*
X7830658Y-12638174D01*
X7830658Y-12638174D02*
X7792562Y-12638174D01*
X7792562Y-12638174D02*
X7773515Y-12647698D01*
X7773515Y-12647698D02*
X7763991Y-12657222D01*
X7763991Y-12657222D02*
X7754467Y-12676269D01*
X8049705Y-12561984D02*
X7954467Y-12561984D01*
X7954467Y-12561984D02*
X7944943Y-12657222D01*
X7944943Y-12657222D02*
X7954467Y-12647698D01*
X7954467Y-12647698D02*
X7973515Y-12638174D01*
X7973515Y-12638174D02*
X8021134Y-12638174D01*
X8021134Y-12638174D02*
X8040182Y-12647698D01*
X8040182Y-12647698D02*
X8049705Y-12657222D01*
X8049705Y-12657222D02*
X8059229Y-12676269D01*
X8059229Y-12676269D02*
X8059229Y-12723888D01*
X8059229Y-12723888D02*
X8049705Y-12742936D01*
X8049705Y-12742936D02*
X8040182Y-12752460D01*
X8040182Y-12752460D02*
X8021134Y-12761984D01*
X8021134Y-12761984D02*
X7973515Y-12761984D01*
X7973515Y-12761984D02*
X7954467Y-12752460D01*
X7954467Y-12752460D02*
X7944943Y-12742936D01*
X8183039Y-12561984D02*
X8202086Y-12561984D01*
X8202086Y-12561984D02*
X8221134Y-12571508D01*
X8221134Y-12571508D02*
X8230658Y-12581031D01*
X8230658Y-12581031D02*
X8240182Y-12600079D01*
X8240182Y-12600079D02*
X8249705Y-12638174D01*
X8249705Y-12638174D02*
X8249705Y-12685793D01*
X8249705Y-12685793D02*
X8240182Y-12723888D01*
X8240182Y-12723888D02*
X8230658Y-12742936D01*
X8230658Y-12742936D02*
X8221134Y-12752460D01*
X8221134Y-12752460D02*
X8202086Y-12761984D01*
X8202086Y-12761984D02*
X8183039Y-12761984D01*
X8183039Y-12761984D02*
X8163991Y-12752460D01*
X8163991Y-12752460D02*
X8154467Y-12742936D01*
X8154467Y-12742936D02*
X8144943Y-12723888D01*
X8144943Y-12723888D02*
X8135420Y-12685793D01*
X8135420Y-12685793D02*
X8135420Y-12638174D01*
X8135420Y-12638174D02*
X8144943Y-12600079D01*
X8144943Y-12600079D02*
X8154467Y-12581031D01*
X8154467Y-12581031D02*
X8163991Y-12571508D01*
X8163991Y-12571508D02*
X8183039Y-12561984D01*
X8335420Y-12761984D02*
X8335420Y-12628650D01*
X8335420Y-12647698D02*
X8344943Y-12638174D01*
X8344943Y-12638174D02*
X8363991Y-12628650D01*
X8363991Y-12628650D02*
X8392563Y-12628650D01*
X8392563Y-12628650D02*
X8411610Y-12638174D01*
X8411610Y-12638174D02*
X8421134Y-12657222D01*
X8421134Y-12657222D02*
X8421134Y-12761984D01*
X8421134Y-12657222D02*
X8430658Y-12638174D01*
X8430658Y-12638174D02*
X8449705Y-12628650D01*
X8449705Y-12628650D02*
X8478277Y-12628650D01*
X8478277Y-12628650D02*
X8497325Y-12638174D01*
X8497325Y-12638174D02*
X8506848Y-12657222D01*
X8506848Y-12657222D02*
X8506848Y-12761984D01*
X8602086Y-12761984D02*
X8602086Y-12628650D01*
X8602086Y-12647698D02*
X8611610Y-12638174D01*
X8611610Y-12638174D02*
X8630658Y-12628650D01*
X8630658Y-12628650D02*
X8659229Y-12628650D01*
X8659229Y-12628650D02*
X8678277Y-12638174D01*
X8678277Y-12638174D02*
X8687801Y-12657222D01*
X8687801Y-12657222D02*
X8687801Y-12761984D01*
X8687801Y-12657222D02*
X8697325Y-12638174D01*
X8697325Y-12638174D02*
X8716372Y-12628650D01*
X8716372Y-12628650D02*
X8744944Y-12628650D01*
X8744944Y-12628650D02*
X8763991Y-12638174D01*
X8763991Y-12638174D02*
X8773515Y-12657222D01*
X8773515Y-12657222D02*
X8773515Y-12761984D01*
X9163991Y-12552460D02*
X8992563Y-12809603D01*
X9421134Y-12561984D02*
X9440182Y-12561984D01*
X9440182Y-12561984D02*
X9459229Y-12571508D01*
X9459229Y-12571508D02*
X9468753Y-12581031D01*
X9468753Y-12581031D02*
X9478277Y-12600079D01*
X9478277Y-12600079D02*
X9487801Y-12638174D01*
X9487801Y-12638174D02*
X9487801Y-12685793D01*
X9487801Y-12685793D02*
X9478277Y-12723888D01*
X9478277Y-12723888D02*
X9468753Y-12742936D01*
X9468753Y-12742936D02*
X9459229Y-12752460D01*
X9459229Y-12752460D02*
X9440182Y-12761984D01*
X9440182Y-12761984D02*
X9421134Y-12761984D01*
X9421134Y-12761984D02*
X9402087Y-12752460D01*
X9402087Y-12752460D02*
X9392563Y-12742936D01*
X9392563Y-12742936D02*
X9383039Y-12723888D01*
X9383039Y-12723888D02*
X9373515Y-12685793D01*
X9373515Y-12685793D02*
X9373515Y-12638174D01*
X9373515Y-12638174D02*
X9383039Y-12600079D01*
X9383039Y-12600079D02*
X9392563Y-12581031D01*
X9392563Y-12581031D02*
X9402087Y-12571508D01*
X9402087Y-12571508D02*
X9421134Y-12561984D01*
X9573515Y-12742936D02*
X9583039Y-12752460D01*
X9583039Y-12752460D02*
X9573515Y-12761984D01*
X9573515Y-12761984D02*
X9563991Y-12752460D01*
X9563991Y-12752460D02*
X9573515Y-12742936D01*
X9573515Y-12742936D02*
X9573515Y-12761984D01*
X9706848Y-12561984D02*
X9725896Y-12561984D01*
X9725896Y-12561984D02*
X9744944Y-12571508D01*
X9744944Y-12571508D02*
X9754468Y-12581031D01*
X9754468Y-12581031D02*
X9763991Y-12600079D01*
X9763991Y-12600079D02*
X9773515Y-12638174D01*
X9773515Y-12638174D02*
X9773515Y-12685793D01*
X9773515Y-12685793D02*
X9763991Y-12723888D01*
X9763991Y-12723888D02*
X9754468Y-12742936D01*
X9754468Y-12742936D02*
X9744944Y-12752460D01*
X9744944Y-12752460D02*
X9725896Y-12761984D01*
X9725896Y-12761984D02*
X9706848Y-12761984D01*
X9706848Y-12761984D02*
X9687801Y-12752460D01*
X9687801Y-12752460D02*
X9678277Y-12742936D01*
X9678277Y-12742936D02*
X9668753Y-12723888D01*
X9668753Y-12723888D02*
X9659229Y-12685793D01*
X9659229Y-12685793D02*
X9659229Y-12638174D01*
X9659229Y-12638174D02*
X9668753Y-12600079D01*
X9668753Y-12600079D02*
X9678277Y-12581031D01*
X9678277Y-12581031D02*
X9687801Y-12571508D01*
X9687801Y-12571508D02*
X9706848Y-12561984D01*
X9849706Y-12581031D02*
X9859229Y-12571508D01*
X9859229Y-12571508D02*
X9878277Y-12561984D01*
X9878277Y-12561984D02*
X9925896Y-12561984D01*
X9925896Y-12561984D02*
X9944944Y-12571508D01*
X9944944Y-12571508D02*
X9954468Y-12581031D01*
X9954468Y-12581031D02*
X9963991Y-12600079D01*
X9963991Y-12600079D02*
X9963991Y-12619127D01*
X9963991Y-12619127D02*
X9954468Y-12647698D01*
X9954468Y-12647698D02*
X9840182Y-12761984D01*
X9840182Y-12761984D02*
X9963991Y-12761984D01*
X10144944Y-12561984D02*
X10049706Y-12561984D01*
X10049706Y-12561984D02*
X10040182Y-12657222D01*
X10040182Y-12657222D02*
X10049706Y-12647698D01*
X10049706Y-12647698D02*
X10068753Y-12638174D01*
X10068753Y-12638174D02*
X10116372Y-12638174D01*
X10116372Y-12638174D02*
X10135420Y-12647698D01*
X10135420Y-12647698D02*
X10144944Y-12657222D01*
X10144944Y-12657222D02*
X10154468Y-12676269D01*
X10154468Y-12676269D02*
X10154468Y-12723888D01*
X10154468Y-12723888D02*
X10144944Y-12742936D01*
X10144944Y-12742936D02*
X10135420Y-12752460D01*
X10135420Y-12752460D02*
X10116372Y-12761984D01*
X10116372Y-12761984D02*
X10068753Y-12761984D01*
X10068753Y-12761984D02*
X10049706Y-12752460D01*
X10049706Y-12752460D02*
X10040182Y-12742936D01*
X10325896Y-12561984D02*
X10287801Y-12561984D01*
X10287801Y-12561984D02*
X10268753Y-12571508D01*
X10268753Y-12571508D02*
X10259229Y-12581031D01*
X10259229Y-12581031D02*
X10240182Y-12609603D01*
X10240182Y-12609603D02*
X10230658Y-12647698D01*
X10230658Y-12647698D02*
X10230658Y-12723888D01*
X10230658Y-12723888D02*
X10240182Y-12742936D01*
X10240182Y-12742936D02*
X10249706Y-12752460D01*
X10249706Y-12752460D02*
X10268753Y-12761984D01*
X10268753Y-12761984D02*
X10306849Y-12761984D01*
X10306849Y-12761984D02*
X10325896Y-12752460D01*
X10325896Y-12752460D02*
X10335420Y-12742936D01*
X10335420Y-12742936D02*
X10344944Y-12723888D01*
X10344944Y-12723888D02*
X10344944Y-12676269D01*
X10344944Y-12676269D02*
X10335420Y-12657222D01*
X10335420Y-12657222D02*
X10325896Y-12647698D01*
X10325896Y-12647698D02*
X10306849Y-12638174D01*
X10306849Y-12638174D02*
X10268753Y-12638174D01*
X10268753Y-12638174D02*
X10249706Y-12647698D01*
X10249706Y-12647698D02*
X10240182Y-12657222D01*
X10240182Y-12657222D02*
X10230658Y-12676269D01*
X10421134Y-12561984D02*
X10421134Y-12600079D01*
X10497325Y-12561984D02*
X10497325Y-12600079D01*
X10792563Y-12838174D02*
X10783039Y-12828650D01*
X10783039Y-12828650D02*
X10763991Y-12800079D01*
X10763991Y-12800079D02*
X10754468Y-12781031D01*
X10754468Y-12781031D02*
X10744944Y-12752460D01*
X10744944Y-12752460D02*
X10735420Y-12704841D01*
X10735420Y-12704841D02*
X10735420Y-12666746D01*
X10735420Y-12666746D02*
X10744944Y-12619127D01*
X10744944Y-12619127D02*
X10754468Y-12590555D01*
X10754468Y-12590555D02*
X10763991Y-12571508D01*
X10763991Y-12571508D02*
X10783039Y-12542936D01*
X10783039Y-12542936D02*
X10792563Y-12533412D01*
X10954468Y-12628650D02*
X10954468Y-12761984D01*
X10906849Y-12552460D02*
X10859230Y-12695317D01*
X10859230Y-12695317D02*
X10983039Y-12695317D01*
X11211610Y-12761984D02*
X11211610Y-12561984D01*
X11297325Y-12761984D02*
X11297325Y-12657222D01*
X11297325Y-12657222D02*
X11287801Y-12638174D01*
X11287801Y-12638174D02*
X11268753Y-12628650D01*
X11268753Y-12628650D02*
X11240182Y-12628650D01*
X11240182Y-12628650D02*
X11221134Y-12638174D01*
X11221134Y-12638174D02*
X11211610Y-12647698D01*
X11421134Y-12761984D02*
X11402087Y-12752460D01*
X11402087Y-12752460D02*
X11392563Y-12742936D01*
X11392563Y-12742936D02*
X11383039Y-12723888D01*
X11383039Y-12723888D02*
X11383039Y-12666746D01*
X11383039Y-12666746D02*
X11392563Y-12647698D01*
X11392563Y-12647698D02*
X11402087Y-12638174D01*
X11402087Y-12638174D02*
X11421134Y-12628650D01*
X11421134Y-12628650D02*
X11449706Y-12628650D01*
X11449706Y-12628650D02*
X11468753Y-12638174D01*
X11468753Y-12638174D02*
X11478277Y-12647698D01*
X11478277Y-12647698D02*
X11487801Y-12666746D01*
X11487801Y-12666746D02*
X11487801Y-12723888D01*
X11487801Y-12723888D02*
X11478277Y-12742936D01*
X11478277Y-12742936D02*
X11468753Y-12752460D01*
X11468753Y-12752460D02*
X11449706Y-12761984D01*
X11449706Y-12761984D02*
X11421134Y-12761984D01*
X11602087Y-12761984D02*
X11583039Y-12752460D01*
X11583039Y-12752460D02*
X11573515Y-12733412D01*
X11573515Y-12733412D02*
X11573515Y-12561984D01*
X11754468Y-12752460D02*
X11735420Y-12761984D01*
X11735420Y-12761984D02*
X11697325Y-12761984D01*
X11697325Y-12761984D02*
X11678277Y-12752460D01*
X11678277Y-12752460D02*
X11668753Y-12733412D01*
X11668753Y-12733412D02*
X11668753Y-12657222D01*
X11668753Y-12657222D02*
X11678277Y-12638174D01*
X11678277Y-12638174D02*
X11697325Y-12628650D01*
X11697325Y-12628650D02*
X11735420Y-12628650D01*
X11735420Y-12628650D02*
X11754468Y-12638174D01*
X11754468Y-12638174D02*
X11763991Y-12657222D01*
X11763991Y-12657222D02*
X11763991Y-12676269D01*
X11763991Y-12676269D02*
X11668753Y-12695317D01*
X11840182Y-12752460D02*
X11859230Y-12761984D01*
X11859230Y-12761984D02*
X11897325Y-12761984D01*
X11897325Y-12761984D02*
X11916372Y-12752460D01*
X11916372Y-12752460D02*
X11925896Y-12733412D01*
X11925896Y-12733412D02*
X11925896Y-12723888D01*
X11925896Y-12723888D02*
X11916372Y-12704841D01*
X11916372Y-12704841D02*
X11897325Y-12695317D01*
X11897325Y-12695317D02*
X11868753Y-12695317D01*
X11868753Y-12695317D02*
X11849706Y-12685793D01*
X11849706Y-12685793D02*
X11840182Y-12666746D01*
X11840182Y-12666746D02*
X11840182Y-12657222D01*
X11840182Y-12657222D02*
X11849706Y-12638174D01*
X11849706Y-12638174D02*
X11868753Y-12628650D01*
X11868753Y-12628650D02*
X11897325Y-12628650D01*
X11897325Y-12628650D02*
X11916372Y-12638174D01*
X11992563Y-12838174D02*
X12002087Y-12828650D01*
X12002087Y-12828650D02*
X12021134Y-12800079D01*
X12021134Y-12800079D02*
X12030658Y-12781031D01*
X12030658Y-12781031D02*
X12040182Y-12752460D01*
X12040182Y-12752460D02*
X12049706Y-12704841D01*
X12049706Y-12704841D02*
X12049706Y-12666746D01*
X12049706Y-12666746D02*
X12040182Y-12619127D01*
X12040182Y-12619127D02*
X12030658Y-12590555D01*
X12030658Y-12590555D02*
X12021134Y-12571508D01*
X12021134Y-12571508D02*
X12002087Y-12542936D01*
X12002087Y-12542936D02*
X11992563Y-12533412D01*
D12*
X7205784Y-12962784D02*
X7205784Y-12906215D01*
X7149215Y-12906215D01*
X7149215Y-12962784D01*
X7205784Y-12962784D01*
D11*
X7516372Y-12825984D02*
X7535420Y-12825984D01*
X7535420Y-12825984D02*
X7554467Y-12835508D01*
X7554467Y-12835508D02*
X7563991Y-12845031D01*
X7563991Y-12845031D02*
X7573515Y-12864079D01*
X7573515Y-12864079D02*
X7583039Y-12902174D01*
X7583039Y-12902174D02*
X7583039Y-12949793D01*
X7583039Y-12949793D02*
X7573515Y-12987888D01*
X7573515Y-12987888D02*
X7563991Y-13006936D01*
X7563991Y-13006936D02*
X7554467Y-13016460D01*
X7554467Y-13016460D02*
X7535420Y-13025984D01*
X7535420Y-13025984D02*
X7516372Y-13025984D01*
X7516372Y-13025984D02*
X7497324Y-13016460D01*
X7497324Y-13016460D02*
X7487801Y-13006936D01*
X7487801Y-13006936D02*
X7478277Y-12987888D01*
X7478277Y-12987888D02*
X7468753Y-12949793D01*
X7468753Y-12949793D02*
X7468753Y-12902174D01*
X7468753Y-12902174D02*
X7478277Y-12864079D01*
X7478277Y-12864079D02*
X7487801Y-12845031D01*
X7487801Y-12845031D02*
X7497324Y-12835508D01*
X7497324Y-12835508D02*
X7516372Y-12825984D01*
X7668753Y-13006936D02*
X7678277Y-13016460D01*
X7678277Y-13016460D02*
X7668753Y-13025984D01*
X7668753Y-13025984D02*
X7659229Y-13016460D01*
X7659229Y-13016460D02*
X7668753Y-13006936D01*
X7668753Y-13006936D02*
X7668753Y-13025984D01*
X7792562Y-12911698D02*
X7773515Y-12902174D01*
X7773515Y-12902174D02*
X7763991Y-12892650D01*
X7763991Y-12892650D02*
X7754467Y-12873603D01*
X7754467Y-12873603D02*
X7754467Y-12864079D01*
X7754467Y-12864079D02*
X7763991Y-12845031D01*
X7763991Y-12845031D02*
X7773515Y-12835508D01*
X7773515Y-12835508D02*
X7792562Y-12825984D01*
X7792562Y-12825984D02*
X7830658Y-12825984D01*
X7830658Y-12825984D02*
X7849705Y-12835508D01*
X7849705Y-12835508D02*
X7859229Y-12845031D01*
X7859229Y-12845031D02*
X7868753Y-12864079D01*
X7868753Y-12864079D02*
X7868753Y-12873603D01*
X7868753Y-12873603D02*
X7859229Y-12892650D01*
X7859229Y-12892650D02*
X7849705Y-12902174D01*
X7849705Y-12902174D02*
X7830658Y-12911698D01*
X7830658Y-12911698D02*
X7792562Y-12911698D01*
X7792562Y-12911698D02*
X7773515Y-12921222D01*
X7773515Y-12921222D02*
X7763991Y-12930746D01*
X7763991Y-12930746D02*
X7754467Y-12949793D01*
X7754467Y-12949793D02*
X7754467Y-12987888D01*
X7754467Y-12987888D02*
X7763991Y-13006936D01*
X7763991Y-13006936D02*
X7773515Y-13016460D01*
X7773515Y-13016460D02*
X7792562Y-13025984D01*
X7792562Y-13025984D02*
X7830658Y-13025984D01*
X7830658Y-13025984D02*
X7849705Y-13016460D01*
X7849705Y-13016460D02*
X7859229Y-13006936D01*
X7859229Y-13006936D02*
X7868753Y-12987888D01*
X7868753Y-12987888D02*
X7868753Y-12949793D01*
X7868753Y-12949793D02*
X7859229Y-12930746D01*
X7859229Y-12930746D02*
X7849705Y-12921222D01*
X7849705Y-12921222D02*
X7830658Y-12911698D01*
X7992562Y-12825984D02*
X8011610Y-12825984D01*
X8011610Y-12825984D02*
X8030658Y-12835508D01*
X8030658Y-12835508D02*
X8040182Y-12845031D01*
X8040182Y-12845031D02*
X8049705Y-12864079D01*
X8049705Y-12864079D02*
X8059229Y-12902174D01*
X8059229Y-12902174D02*
X8059229Y-12949793D01*
X8059229Y-12949793D02*
X8049705Y-12987888D01*
X8049705Y-12987888D02*
X8040182Y-13006936D01*
X8040182Y-13006936D02*
X8030658Y-13016460D01*
X8030658Y-13016460D02*
X8011610Y-13025984D01*
X8011610Y-13025984D02*
X7992562Y-13025984D01*
X7992562Y-13025984D02*
X7973515Y-13016460D01*
X7973515Y-13016460D02*
X7963991Y-13006936D01*
X7963991Y-13006936D02*
X7954467Y-12987888D01*
X7954467Y-12987888D02*
X7944943Y-12949793D01*
X7944943Y-12949793D02*
X7944943Y-12902174D01*
X7944943Y-12902174D02*
X7954467Y-12864079D01*
X7954467Y-12864079D02*
X7963991Y-12845031D01*
X7963991Y-12845031D02*
X7973515Y-12835508D01*
X7973515Y-12835508D02*
X7992562Y-12825984D01*
X8183039Y-12825984D02*
X8202086Y-12825984D01*
X8202086Y-12825984D02*
X8221134Y-12835508D01*
X8221134Y-12835508D02*
X8230658Y-12845031D01*
X8230658Y-12845031D02*
X8240182Y-12864079D01*
X8240182Y-12864079D02*
X8249705Y-12902174D01*
X8249705Y-12902174D02*
X8249705Y-12949793D01*
X8249705Y-12949793D02*
X8240182Y-12987888D01*
X8240182Y-12987888D02*
X8230658Y-13006936D01*
X8230658Y-13006936D02*
X8221134Y-13016460D01*
X8221134Y-13016460D02*
X8202086Y-13025984D01*
X8202086Y-13025984D02*
X8183039Y-13025984D01*
X8183039Y-13025984D02*
X8163991Y-13016460D01*
X8163991Y-13016460D02*
X8154467Y-13006936D01*
X8154467Y-13006936D02*
X8144943Y-12987888D01*
X8144943Y-12987888D02*
X8135420Y-12949793D01*
X8135420Y-12949793D02*
X8135420Y-12902174D01*
X8135420Y-12902174D02*
X8144943Y-12864079D01*
X8144943Y-12864079D02*
X8154467Y-12845031D01*
X8154467Y-12845031D02*
X8163991Y-12835508D01*
X8163991Y-12835508D02*
X8183039Y-12825984D01*
X8335420Y-13025984D02*
X8335420Y-12892650D01*
X8335420Y-12911698D02*
X8344943Y-12902174D01*
X8344943Y-12902174D02*
X8363991Y-12892650D01*
X8363991Y-12892650D02*
X8392563Y-12892650D01*
X8392563Y-12892650D02*
X8411610Y-12902174D01*
X8411610Y-12902174D02*
X8421134Y-12921222D01*
X8421134Y-12921222D02*
X8421134Y-13025984D01*
X8421134Y-12921222D02*
X8430658Y-12902174D01*
X8430658Y-12902174D02*
X8449705Y-12892650D01*
X8449705Y-12892650D02*
X8478277Y-12892650D01*
X8478277Y-12892650D02*
X8497325Y-12902174D01*
X8497325Y-12902174D02*
X8506848Y-12921222D01*
X8506848Y-12921222D02*
X8506848Y-13025984D01*
X8602086Y-13025984D02*
X8602086Y-12892650D01*
X8602086Y-12911698D02*
X8611610Y-12902174D01*
X8611610Y-12902174D02*
X8630658Y-12892650D01*
X8630658Y-12892650D02*
X8659229Y-12892650D01*
X8659229Y-12892650D02*
X8678277Y-12902174D01*
X8678277Y-12902174D02*
X8687801Y-12921222D01*
X8687801Y-12921222D02*
X8687801Y-13025984D01*
X8687801Y-12921222D02*
X8697325Y-12902174D01*
X8697325Y-12902174D02*
X8716372Y-12892650D01*
X8716372Y-12892650D02*
X8744944Y-12892650D01*
X8744944Y-12892650D02*
X8763991Y-12902174D01*
X8763991Y-12902174D02*
X8773515Y-12921222D01*
X8773515Y-12921222D02*
X8773515Y-13025984D01*
X9163991Y-12816460D02*
X8992563Y-13073603D01*
X9421134Y-12825984D02*
X9440182Y-12825984D01*
X9440182Y-12825984D02*
X9459229Y-12835508D01*
X9459229Y-12835508D02*
X9468753Y-12845031D01*
X9468753Y-12845031D02*
X9478277Y-12864079D01*
X9478277Y-12864079D02*
X9487801Y-12902174D01*
X9487801Y-12902174D02*
X9487801Y-12949793D01*
X9487801Y-12949793D02*
X9478277Y-12987888D01*
X9478277Y-12987888D02*
X9468753Y-13006936D01*
X9468753Y-13006936D02*
X9459229Y-13016460D01*
X9459229Y-13016460D02*
X9440182Y-13025984D01*
X9440182Y-13025984D02*
X9421134Y-13025984D01*
X9421134Y-13025984D02*
X9402087Y-13016460D01*
X9402087Y-13016460D02*
X9392563Y-13006936D01*
X9392563Y-13006936D02*
X9383039Y-12987888D01*
X9383039Y-12987888D02*
X9373515Y-12949793D01*
X9373515Y-12949793D02*
X9373515Y-12902174D01*
X9373515Y-12902174D02*
X9383039Y-12864079D01*
X9383039Y-12864079D02*
X9392563Y-12845031D01*
X9392563Y-12845031D02*
X9402087Y-12835508D01*
X9402087Y-12835508D02*
X9421134Y-12825984D01*
X9573515Y-13006936D02*
X9583039Y-13016460D01*
X9583039Y-13016460D02*
X9573515Y-13025984D01*
X9573515Y-13025984D02*
X9563991Y-13016460D01*
X9563991Y-13016460D02*
X9573515Y-13006936D01*
X9573515Y-13006936D02*
X9573515Y-13025984D01*
X9706848Y-12825984D02*
X9725896Y-12825984D01*
X9725896Y-12825984D02*
X9744944Y-12835508D01*
X9744944Y-12835508D02*
X9754468Y-12845031D01*
X9754468Y-12845031D02*
X9763991Y-12864079D01*
X9763991Y-12864079D02*
X9773515Y-12902174D01*
X9773515Y-12902174D02*
X9773515Y-12949793D01*
X9773515Y-12949793D02*
X9763991Y-12987888D01*
X9763991Y-12987888D02*
X9754468Y-13006936D01*
X9754468Y-13006936D02*
X9744944Y-13016460D01*
X9744944Y-13016460D02*
X9725896Y-13025984D01*
X9725896Y-13025984D02*
X9706848Y-13025984D01*
X9706848Y-13025984D02*
X9687801Y-13016460D01*
X9687801Y-13016460D02*
X9678277Y-13006936D01*
X9678277Y-13006936D02*
X9668753Y-12987888D01*
X9668753Y-12987888D02*
X9659229Y-12949793D01*
X9659229Y-12949793D02*
X9659229Y-12902174D01*
X9659229Y-12902174D02*
X9668753Y-12864079D01*
X9668753Y-12864079D02*
X9678277Y-12845031D01*
X9678277Y-12845031D02*
X9687801Y-12835508D01*
X9687801Y-12835508D02*
X9706848Y-12825984D01*
X9840182Y-12825984D02*
X9963991Y-12825984D01*
X9963991Y-12825984D02*
X9897325Y-12902174D01*
X9897325Y-12902174D02*
X9925896Y-12902174D01*
X9925896Y-12902174D02*
X9944944Y-12911698D01*
X9944944Y-12911698D02*
X9954468Y-12921222D01*
X9954468Y-12921222D02*
X9963991Y-12940269D01*
X9963991Y-12940269D02*
X9963991Y-12987888D01*
X9963991Y-12987888D02*
X9954468Y-13006936D01*
X9954468Y-13006936D02*
X9944944Y-13016460D01*
X9944944Y-13016460D02*
X9925896Y-13025984D01*
X9925896Y-13025984D02*
X9868753Y-13025984D01*
X9868753Y-13025984D02*
X9849706Y-13016460D01*
X9849706Y-13016460D02*
X9840182Y-13006936D01*
X10154468Y-13025984D02*
X10040182Y-13025984D01*
X10097325Y-13025984D02*
X10097325Y-12825984D01*
X10097325Y-12825984D02*
X10078277Y-12854555D01*
X10078277Y-12854555D02*
X10059229Y-12873603D01*
X10059229Y-12873603D02*
X10040182Y-12883127D01*
X10335420Y-12825984D02*
X10240182Y-12825984D01*
X10240182Y-12825984D02*
X10230658Y-12921222D01*
X10230658Y-12921222D02*
X10240182Y-12911698D01*
X10240182Y-12911698D02*
X10259229Y-12902174D01*
X10259229Y-12902174D02*
X10306849Y-12902174D01*
X10306849Y-12902174D02*
X10325896Y-12911698D01*
X10325896Y-12911698D02*
X10335420Y-12921222D01*
X10335420Y-12921222D02*
X10344944Y-12940269D01*
X10344944Y-12940269D02*
X10344944Y-12987888D01*
X10344944Y-12987888D02*
X10335420Y-13006936D01*
X10335420Y-13006936D02*
X10325896Y-13016460D01*
X10325896Y-13016460D02*
X10306849Y-13025984D01*
X10306849Y-13025984D02*
X10259229Y-13025984D01*
X10259229Y-13025984D02*
X10240182Y-13016460D01*
X10240182Y-13016460D02*
X10230658Y-13006936D01*
X10421134Y-12825984D02*
X10421134Y-12864079D01*
X10497325Y-12825984D02*
X10497325Y-12864079D01*
X10792563Y-13102174D02*
X10783039Y-13092650D01*
X10783039Y-13092650D02*
X10763991Y-13064079D01*
X10763991Y-13064079D02*
X10754468Y-13045031D01*
X10754468Y-13045031D02*
X10744944Y-13016460D01*
X10744944Y-13016460D02*
X10735420Y-12968841D01*
X10735420Y-12968841D02*
X10735420Y-12930746D01*
X10735420Y-12930746D02*
X10744944Y-12883127D01*
X10744944Y-12883127D02*
X10754468Y-12854555D01*
X10754468Y-12854555D02*
X10763991Y-12835508D01*
X10763991Y-12835508D02*
X10783039Y-12806936D01*
X10783039Y-12806936D02*
X10792563Y-12797412D01*
X10954468Y-12892650D02*
X10954468Y-13025984D01*
X10906849Y-12816460D02*
X10859230Y-12959317D01*
X10859230Y-12959317D02*
X10983039Y-12959317D01*
X11211610Y-13025984D02*
X11211610Y-12825984D01*
X11297325Y-13025984D02*
X11297325Y-12921222D01*
X11297325Y-12921222D02*
X11287801Y-12902174D01*
X11287801Y-12902174D02*
X11268753Y-12892650D01*
X11268753Y-12892650D02*
X11240182Y-12892650D01*
X11240182Y-12892650D02*
X11221134Y-12902174D01*
X11221134Y-12902174D02*
X11211610Y-12911698D01*
X11421134Y-13025984D02*
X11402087Y-13016460D01*
X11402087Y-13016460D02*
X11392563Y-13006936D01*
X11392563Y-13006936D02*
X11383039Y-12987888D01*
X11383039Y-12987888D02*
X11383039Y-12930746D01*
X11383039Y-12930746D02*
X11392563Y-12911698D01*
X11392563Y-12911698D02*
X11402087Y-12902174D01*
X11402087Y-12902174D02*
X11421134Y-12892650D01*
X11421134Y-12892650D02*
X11449706Y-12892650D01*
X11449706Y-12892650D02*
X11468753Y-12902174D01*
X11468753Y-12902174D02*
X11478277Y-12911698D01*
X11478277Y-12911698D02*
X11487801Y-12930746D01*
X11487801Y-12930746D02*
X11487801Y-12987888D01*
X11487801Y-12987888D02*
X11478277Y-13006936D01*
X11478277Y-13006936D02*
X11468753Y-13016460D01*
X11468753Y-13016460D02*
X11449706Y-13025984D01*
X11449706Y-13025984D02*
X11421134Y-13025984D01*
X11602087Y-13025984D02*
X11583039Y-13016460D01*
X11583039Y-13016460D02*
X11573515Y-12997412D01*
X11573515Y-12997412D02*
X11573515Y-12825984D01*
X11754468Y-13016460D02*
X11735420Y-13025984D01*
X11735420Y-13025984D02*
X11697325Y-13025984D01*
X11697325Y-13025984D02*
X11678277Y-13016460D01*
X11678277Y-13016460D02*
X11668753Y-12997412D01*
X11668753Y-12997412D02*
X11668753Y-12921222D01*
X11668753Y-12921222D02*
X11678277Y-12902174D01*
X11678277Y-12902174D02*
X11697325Y-12892650D01*
X11697325Y-12892650D02*
X11735420Y-12892650D01*
X11735420Y-12892650D02*
X11754468Y-12902174D01*
X11754468Y-12902174D02*
X11763991Y-12921222D01*
X11763991Y-12921222D02*
X11763991Y-12940269D01*
X11763991Y-12940269D02*
X11668753Y-12959317D01*
X11840182Y-13016460D02*
X11859230Y-13025984D01*
X11859230Y-13025984D02*
X11897325Y-13025984D01*
X11897325Y-13025984D02*
X11916372Y-13016460D01*
X11916372Y-13016460D02*
X11925896Y-12997412D01*
X11925896Y-12997412D02*
X11925896Y-12987888D01*
X11925896Y-12987888D02*
X11916372Y-12968841D01*
X11916372Y-12968841D02*
X11897325Y-12959317D01*
X11897325Y-12959317D02*
X11868753Y-12959317D01*
X11868753Y-12959317D02*
X11849706Y-12949793D01*
X11849706Y-12949793D02*
X11840182Y-12930746D01*
X11840182Y-12930746D02*
X11840182Y-12921222D01*
X11840182Y-12921222D02*
X11849706Y-12902174D01*
X11849706Y-12902174D02*
X11868753Y-12892650D01*
X11868753Y-12892650D02*
X11897325Y-12892650D01*
X11897325Y-12892650D02*
X11916372Y-12902174D01*
X11992563Y-13102174D02*
X12002087Y-13092650D01*
X12002087Y-13092650D02*
X12021134Y-13064079D01*
X12021134Y-13064079D02*
X12030658Y-13045031D01*
X12030658Y-13045031D02*
X12040182Y-13016460D01*
X12040182Y-13016460D02*
X12049706Y-12968841D01*
X12049706Y-12968841D02*
X12049706Y-12930746D01*
X12049706Y-12930746D02*
X12040182Y-12883127D01*
X12040182Y-12883127D02*
X12030658Y-12854555D01*
X12030658Y-12854555D02*
X12021134Y-12835508D01*
X12021134Y-12835508D02*
X12002087Y-12806936D01*
X12002087Y-12806936D02*
X11992563Y-12797412D01*
D12*
X7167500Y-13248500D02*
X7217500Y-13198500D01*
X7167500Y-13148500D01*
X7117500Y-13198500D01*
X7167500Y-13248500D01*
D11*
X7583039Y-13289984D02*
X7468753Y-13289984D01*
X7525896Y-13289984D02*
X7525896Y-13089984D01*
X7525896Y-13089984D02*
X7506848Y-13118555D01*
X7506848Y-13118555D02*
X7487801Y-13137603D01*
X7487801Y-13137603D02*
X7468753Y-13147127D01*
X7668753Y-13270936D02*
X7678277Y-13280460D01*
X7678277Y-13280460D02*
X7668753Y-13289984D01*
X7668753Y-13289984D02*
X7659229Y-13280460D01*
X7659229Y-13280460D02*
X7668753Y-13270936D01*
X7668753Y-13270936D02*
X7668753Y-13289984D01*
X7802086Y-13089984D02*
X7821134Y-13089984D01*
X7821134Y-13089984D02*
X7840182Y-13099508D01*
X7840182Y-13099508D02*
X7849705Y-13109031D01*
X7849705Y-13109031D02*
X7859229Y-13128079D01*
X7859229Y-13128079D02*
X7868753Y-13166174D01*
X7868753Y-13166174D02*
X7868753Y-13213793D01*
X7868753Y-13213793D02*
X7859229Y-13251888D01*
X7859229Y-13251888D02*
X7849705Y-13270936D01*
X7849705Y-13270936D02*
X7840182Y-13280460D01*
X7840182Y-13280460D02*
X7821134Y-13289984D01*
X7821134Y-13289984D02*
X7802086Y-13289984D01*
X7802086Y-13289984D02*
X7783039Y-13280460D01*
X7783039Y-13280460D02*
X7773515Y-13270936D01*
X7773515Y-13270936D02*
X7763991Y-13251888D01*
X7763991Y-13251888D02*
X7754467Y-13213793D01*
X7754467Y-13213793D02*
X7754467Y-13166174D01*
X7754467Y-13166174D02*
X7763991Y-13128079D01*
X7763991Y-13128079D02*
X7773515Y-13109031D01*
X7773515Y-13109031D02*
X7783039Y-13099508D01*
X7783039Y-13099508D02*
X7802086Y-13089984D01*
X7992562Y-13089984D02*
X8011610Y-13089984D01*
X8011610Y-13089984D02*
X8030658Y-13099508D01*
X8030658Y-13099508D02*
X8040182Y-13109031D01*
X8040182Y-13109031D02*
X8049705Y-13128079D01*
X8049705Y-13128079D02*
X8059229Y-13166174D01*
X8059229Y-13166174D02*
X8059229Y-13213793D01*
X8059229Y-13213793D02*
X8049705Y-13251888D01*
X8049705Y-13251888D02*
X8040182Y-13270936D01*
X8040182Y-13270936D02*
X8030658Y-13280460D01*
X8030658Y-13280460D02*
X8011610Y-13289984D01*
X8011610Y-13289984D02*
X7992562Y-13289984D01*
X7992562Y-13289984D02*
X7973515Y-13280460D01*
X7973515Y-13280460D02*
X7963991Y-13270936D01*
X7963991Y-13270936D02*
X7954467Y-13251888D01*
X7954467Y-13251888D02*
X7944943Y-13213793D01*
X7944943Y-13213793D02*
X7944943Y-13166174D01*
X7944943Y-13166174D02*
X7954467Y-13128079D01*
X7954467Y-13128079D02*
X7963991Y-13109031D01*
X7963991Y-13109031D02*
X7973515Y-13099508D01*
X7973515Y-13099508D02*
X7992562Y-13089984D01*
X8183039Y-13089984D02*
X8202086Y-13089984D01*
X8202086Y-13089984D02*
X8221134Y-13099508D01*
X8221134Y-13099508D02*
X8230658Y-13109031D01*
X8230658Y-13109031D02*
X8240182Y-13128079D01*
X8240182Y-13128079D02*
X8249705Y-13166174D01*
X8249705Y-13166174D02*
X8249705Y-13213793D01*
X8249705Y-13213793D02*
X8240182Y-13251888D01*
X8240182Y-13251888D02*
X8230658Y-13270936D01*
X8230658Y-13270936D02*
X8221134Y-13280460D01*
X8221134Y-13280460D02*
X8202086Y-13289984D01*
X8202086Y-13289984D02*
X8183039Y-13289984D01*
X8183039Y-13289984D02*
X8163991Y-13280460D01*
X8163991Y-13280460D02*
X8154467Y-13270936D01*
X8154467Y-13270936D02*
X8144943Y-13251888D01*
X8144943Y-13251888D02*
X8135420Y-13213793D01*
X8135420Y-13213793D02*
X8135420Y-13166174D01*
X8135420Y-13166174D02*
X8144943Y-13128079D01*
X8144943Y-13128079D02*
X8154467Y-13109031D01*
X8154467Y-13109031D02*
X8163991Y-13099508D01*
X8163991Y-13099508D02*
X8183039Y-13089984D01*
X8335420Y-13289984D02*
X8335420Y-13156650D01*
X8335420Y-13175698D02*
X8344943Y-13166174D01*
X8344943Y-13166174D02*
X8363991Y-13156650D01*
X8363991Y-13156650D02*
X8392563Y-13156650D01*
X8392563Y-13156650D02*
X8411610Y-13166174D01*
X8411610Y-13166174D02*
X8421134Y-13185222D01*
X8421134Y-13185222D02*
X8421134Y-13289984D01*
X8421134Y-13185222D02*
X8430658Y-13166174D01*
X8430658Y-13166174D02*
X8449705Y-13156650D01*
X8449705Y-13156650D02*
X8478277Y-13156650D01*
X8478277Y-13156650D02*
X8497325Y-13166174D01*
X8497325Y-13166174D02*
X8506848Y-13185222D01*
X8506848Y-13185222D02*
X8506848Y-13289984D01*
X8602086Y-13289984D02*
X8602086Y-13156650D01*
X8602086Y-13175698D02*
X8611610Y-13166174D01*
X8611610Y-13166174D02*
X8630658Y-13156650D01*
X8630658Y-13156650D02*
X8659229Y-13156650D01*
X8659229Y-13156650D02*
X8678277Y-13166174D01*
X8678277Y-13166174D02*
X8687801Y-13185222D01*
X8687801Y-13185222D02*
X8687801Y-13289984D01*
X8687801Y-13185222D02*
X8697325Y-13166174D01*
X8697325Y-13166174D02*
X8716372Y-13156650D01*
X8716372Y-13156650D02*
X8744944Y-13156650D01*
X8744944Y-13156650D02*
X8763991Y-13166174D01*
X8763991Y-13166174D02*
X8773515Y-13185222D01*
X8773515Y-13185222D02*
X8773515Y-13289984D01*
X9163991Y-13080460D02*
X8992563Y-13337603D01*
X9421134Y-13089984D02*
X9440182Y-13089984D01*
X9440182Y-13089984D02*
X9459229Y-13099508D01*
X9459229Y-13099508D02*
X9468753Y-13109031D01*
X9468753Y-13109031D02*
X9478277Y-13128079D01*
X9478277Y-13128079D02*
X9487801Y-13166174D01*
X9487801Y-13166174D02*
X9487801Y-13213793D01*
X9487801Y-13213793D02*
X9478277Y-13251888D01*
X9478277Y-13251888D02*
X9468753Y-13270936D01*
X9468753Y-13270936D02*
X9459229Y-13280460D01*
X9459229Y-13280460D02*
X9440182Y-13289984D01*
X9440182Y-13289984D02*
X9421134Y-13289984D01*
X9421134Y-13289984D02*
X9402087Y-13280460D01*
X9402087Y-13280460D02*
X9392563Y-13270936D01*
X9392563Y-13270936D02*
X9383039Y-13251888D01*
X9383039Y-13251888D02*
X9373515Y-13213793D01*
X9373515Y-13213793D02*
X9373515Y-13166174D01*
X9373515Y-13166174D02*
X9383039Y-13128079D01*
X9383039Y-13128079D02*
X9392563Y-13109031D01*
X9392563Y-13109031D02*
X9402087Y-13099508D01*
X9402087Y-13099508D02*
X9421134Y-13089984D01*
X9573515Y-13270936D02*
X9583039Y-13280460D01*
X9583039Y-13280460D02*
X9573515Y-13289984D01*
X9573515Y-13289984D02*
X9563991Y-13280460D01*
X9563991Y-13280460D02*
X9573515Y-13270936D01*
X9573515Y-13270936D02*
X9573515Y-13289984D01*
X9706848Y-13089984D02*
X9725896Y-13089984D01*
X9725896Y-13089984D02*
X9744944Y-13099508D01*
X9744944Y-13099508D02*
X9754468Y-13109031D01*
X9754468Y-13109031D02*
X9763991Y-13128079D01*
X9763991Y-13128079D02*
X9773515Y-13166174D01*
X9773515Y-13166174D02*
X9773515Y-13213793D01*
X9773515Y-13213793D02*
X9763991Y-13251888D01*
X9763991Y-13251888D02*
X9754468Y-13270936D01*
X9754468Y-13270936D02*
X9744944Y-13280460D01*
X9744944Y-13280460D02*
X9725896Y-13289984D01*
X9725896Y-13289984D02*
X9706848Y-13289984D01*
X9706848Y-13289984D02*
X9687801Y-13280460D01*
X9687801Y-13280460D02*
X9678277Y-13270936D01*
X9678277Y-13270936D02*
X9668753Y-13251888D01*
X9668753Y-13251888D02*
X9659229Y-13213793D01*
X9659229Y-13213793D02*
X9659229Y-13166174D01*
X9659229Y-13166174D02*
X9668753Y-13128079D01*
X9668753Y-13128079D02*
X9678277Y-13109031D01*
X9678277Y-13109031D02*
X9687801Y-13099508D01*
X9687801Y-13099508D02*
X9706848Y-13089984D01*
X9840182Y-13089984D02*
X9963991Y-13089984D01*
X9963991Y-13089984D02*
X9897325Y-13166174D01*
X9897325Y-13166174D02*
X9925896Y-13166174D01*
X9925896Y-13166174D02*
X9944944Y-13175698D01*
X9944944Y-13175698D02*
X9954468Y-13185222D01*
X9954468Y-13185222D02*
X9963991Y-13204269D01*
X9963991Y-13204269D02*
X9963991Y-13251888D01*
X9963991Y-13251888D02*
X9954468Y-13270936D01*
X9954468Y-13270936D02*
X9944944Y-13280460D01*
X9944944Y-13280460D02*
X9925896Y-13289984D01*
X9925896Y-13289984D02*
X9868753Y-13289984D01*
X9868753Y-13289984D02*
X9849706Y-13280460D01*
X9849706Y-13280460D02*
X9840182Y-13270936D01*
X10059229Y-13289984D02*
X10097325Y-13289984D01*
X10097325Y-13289984D02*
X10116372Y-13280460D01*
X10116372Y-13280460D02*
X10125896Y-13270936D01*
X10125896Y-13270936D02*
X10144944Y-13242365D01*
X10144944Y-13242365D02*
X10154468Y-13204269D01*
X10154468Y-13204269D02*
X10154468Y-13128079D01*
X10154468Y-13128079D02*
X10144944Y-13109031D01*
X10144944Y-13109031D02*
X10135420Y-13099508D01*
X10135420Y-13099508D02*
X10116372Y-13089984D01*
X10116372Y-13089984D02*
X10078277Y-13089984D01*
X10078277Y-13089984D02*
X10059229Y-13099508D01*
X10059229Y-13099508D02*
X10049706Y-13109031D01*
X10049706Y-13109031D02*
X10040182Y-13128079D01*
X10040182Y-13128079D02*
X10040182Y-13175698D01*
X10040182Y-13175698D02*
X10049706Y-13194746D01*
X10049706Y-13194746D02*
X10059229Y-13204269D01*
X10059229Y-13204269D02*
X10078277Y-13213793D01*
X10078277Y-13213793D02*
X10116372Y-13213793D01*
X10116372Y-13213793D02*
X10135420Y-13204269D01*
X10135420Y-13204269D02*
X10144944Y-13194746D01*
X10144944Y-13194746D02*
X10154468Y-13175698D01*
X10325896Y-13156650D02*
X10325896Y-13289984D01*
X10278277Y-13080460D02*
X10230658Y-13223317D01*
X10230658Y-13223317D02*
X10354468Y-13223317D01*
X10421134Y-13089984D02*
X10421134Y-13128079D01*
X10497325Y-13089984D02*
X10497325Y-13128079D01*
X10792563Y-13366174D02*
X10783039Y-13356650D01*
X10783039Y-13356650D02*
X10763991Y-13328079D01*
X10763991Y-13328079D02*
X10754468Y-13309031D01*
X10754468Y-13309031D02*
X10744944Y-13280460D01*
X10744944Y-13280460D02*
X10735420Y-13232841D01*
X10735420Y-13232841D02*
X10735420Y-13194746D01*
X10735420Y-13194746D02*
X10744944Y-13147127D01*
X10744944Y-13147127D02*
X10754468Y-13118555D01*
X10754468Y-13118555D02*
X10763991Y-13099508D01*
X10763991Y-13099508D02*
X10783039Y-13070936D01*
X10783039Y-13070936D02*
X10792563Y-13061412D01*
X10954468Y-13156650D02*
X10954468Y-13289984D01*
X10906849Y-13080460D02*
X10859230Y-13223317D01*
X10859230Y-13223317D02*
X10983039Y-13223317D01*
X11211610Y-13289984D02*
X11211610Y-13089984D01*
X11297325Y-13289984D02*
X11297325Y-13185222D01*
X11297325Y-13185222D02*
X11287801Y-13166174D01*
X11287801Y-13166174D02*
X11268753Y-13156650D01*
X11268753Y-13156650D02*
X11240182Y-13156650D01*
X11240182Y-13156650D02*
X11221134Y-13166174D01*
X11221134Y-13166174D02*
X11211610Y-13175698D01*
X11421134Y-13289984D02*
X11402087Y-13280460D01*
X11402087Y-13280460D02*
X11392563Y-13270936D01*
X11392563Y-13270936D02*
X11383039Y-13251888D01*
X11383039Y-13251888D02*
X11383039Y-13194746D01*
X11383039Y-13194746D02*
X11392563Y-13175698D01*
X11392563Y-13175698D02*
X11402087Y-13166174D01*
X11402087Y-13166174D02*
X11421134Y-13156650D01*
X11421134Y-13156650D02*
X11449706Y-13156650D01*
X11449706Y-13156650D02*
X11468753Y-13166174D01*
X11468753Y-13166174D02*
X11478277Y-13175698D01*
X11478277Y-13175698D02*
X11487801Y-13194746D01*
X11487801Y-13194746D02*
X11487801Y-13251888D01*
X11487801Y-13251888D02*
X11478277Y-13270936D01*
X11478277Y-13270936D02*
X11468753Y-13280460D01*
X11468753Y-13280460D02*
X11449706Y-13289984D01*
X11449706Y-13289984D02*
X11421134Y-13289984D01*
X11602087Y-13289984D02*
X11583039Y-13280460D01*
X11583039Y-13280460D02*
X11573515Y-13261412D01*
X11573515Y-13261412D02*
X11573515Y-13089984D01*
X11754468Y-13280460D02*
X11735420Y-13289984D01*
X11735420Y-13289984D02*
X11697325Y-13289984D01*
X11697325Y-13289984D02*
X11678277Y-13280460D01*
X11678277Y-13280460D02*
X11668753Y-13261412D01*
X11668753Y-13261412D02*
X11668753Y-13185222D01*
X11668753Y-13185222D02*
X11678277Y-13166174D01*
X11678277Y-13166174D02*
X11697325Y-13156650D01*
X11697325Y-13156650D02*
X11735420Y-13156650D01*
X11735420Y-13156650D02*
X11754468Y-13166174D01*
X11754468Y-13166174D02*
X11763991Y-13185222D01*
X11763991Y-13185222D02*
X11763991Y-13204269D01*
X11763991Y-13204269D02*
X11668753Y-13223317D01*
X11840182Y-13280460D02*
X11859230Y-13289984D01*
X11859230Y-13289984D02*
X11897325Y-13289984D01*
X11897325Y-13289984D02*
X11916372Y-13280460D01*
X11916372Y-13280460D02*
X11925896Y-13261412D01*
X11925896Y-13261412D02*
X11925896Y-13251888D01*
X11925896Y-13251888D02*
X11916372Y-13232841D01*
X11916372Y-13232841D02*
X11897325Y-13223317D01*
X11897325Y-13223317D02*
X11868753Y-13223317D01*
X11868753Y-13223317D02*
X11849706Y-13213793D01*
X11849706Y-13213793D02*
X11840182Y-13194746D01*
X11840182Y-13194746D02*
X11840182Y-13185222D01*
X11840182Y-13185222D02*
X11849706Y-13166174D01*
X11849706Y-13166174D02*
X11868753Y-13156650D01*
X11868753Y-13156650D02*
X11897325Y-13156650D01*
X11897325Y-13156650D02*
X11916372Y-13166174D01*
X11992563Y-13366174D02*
X12002087Y-13356650D01*
X12002087Y-13356650D02*
X12021134Y-13328079D01*
X12021134Y-13328079D02*
X12030658Y-13309031D01*
X12030658Y-13309031D02*
X12040182Y-13280460D01*
X12040182Y-13280460D02*
X12049706Y-13232841D01*
X12049706Y-13232841D02*
X12049706Y-13194746D01*
X12049706Y-13194746D02*
X12040182Y-13147127D01*
X12040182Y-13147127D02*
X12030658Y-13118555D01*
X12030658Y-13118555D02*
X12021134Y-13099508D01*
X12021134Y-13099508D02*
X12002087Y-13070936D01*
X12002087Y-13070936D02*
X11992563Y-13061412D01*
X7017500Y-13362500D02*
X7217500Y-13562500D01*
X7217500Y-13362500D02*
X7017500Y-13562500D01*
X7217500Y-13462500D02*
G75*
G02*
X7017500Y-13462500I-100000J0D01*
G01*
X7017500Y-13462500D02*
G75*
G02*
X7217500Y-13462500I100000J0D01*
G01*
X7468753Y-13373031D02*
X7478277Y-13363508D01*
X7478277Y-13363508D02*
X7497324Y-13353984D01*
X7497324Y-13353984D02*
X7544943Y-13353984D01*
X7544943Y-13353984D02*
X7563991Y-13363508D01*
X7563991Y-13363508D02*
X7573515Y-13373031D01*
X7573515Y-13373031D02*
X7583039Y-13392079D01*
X7583039Y-13392079D02*
X7583039Y-13411127D01*
X7583039Y-13411127D02*
X7573515Y-13439698D01*
X7573515Y-13439698D02*
X7459229Y-13553984D01*
X7459229Y-13553984D02*
X7583039Y-13553984D01*
X7668753Y-13534936D02*
X7678277Y-13544460D01*
X7678277Y-13544460D02*
X7668753Y-13553984D01*
X7668753Y-13553984D02*
X7659229Y-13544460D01*
X7659229Y-13544460D02*
X7668753Y-13534936D01*
X7668753Y-13534936D02*
X7668753Y-13553984D01*
X7754467Y-13373031D02*
X7763991Y-13363508D01*
X7763991Y-13363508D02*
X7783039Y-13353984D01*
X7783039Y-13353984D02*
X7830658Y-13353984D01*
X7830658Y-13353984D02*
X7849705Y-13363508D01*
X7849705Y-13363508D02*
X7859229Y-13373031D01*
X7859229Y-13373031D02*
X7868753Y-13392079D01*
X7868753Y-13392079D02*
X7868753Y-13411127D01*
X7868753Y-13411127D02*
X7859229Y-13439698D01*
X7859229Y-13439698D02*
X7744943Y-13553984D01*
X7744943Y-13553984D02*
X7868753Y-13553984D01*
X7992562Y-13353984D02*
X8011610Y-13353984D01*
X8011610Y-13353984D02*
X8030658Y-13363508D01*
X8030658Y-13363508D02*
X8040182Y-13373031D01*
X8040182Y-13373031D02*
X8049705Y-13392079D01*
X8049705Y-13392079D02*
X8059229Y-13430174D01*
X8059229Y-13430174D02*
X8059229Y-13477793D01*
X8059229Y-13477793D02*
X8049705Y-13515888D01*
X8049705Y-13515888D02*
X8040182Y-13534936D01*
X8040182Y-13534936D02*
X8030658Y-13544460D01*
X8030658Y-13544460D02*
X8011610Y-13553984D01*
X8011610Y-13553984D02*
X7992562Y-13553984D01*
X7992562Y-13553984D02*
X7973515Y-13544460D01*
X7973515Y-13544460D02*
X7963991Y-13534936D01*
X7963991Y-13534936D02*
X7954467Y-13515888D01*
X7954467Y-13515888D02*
X7944943Y-13477793D01*
X7944943Y-13477793D02*
X7944943Y-13430174D01*
X7944943Y-13430174D02*
X7954467Y-13392079D01*
X7954467Y-13392079D02*
X7963991Y-13373031D01*
X7963991Y-13373031D02*
X7973515Y-13363508D01*
X7973515Y-13363508D02*
X7992562Y-13353984D01*
X8183039Y-13353984D02*
X8202086Y-13353984D01*
X8202086Y-13353984D02*
X8221134Y-13363508D01*
X8221134Y-13363508D02*
X8230658Y-13373031D01*
X8230658Y-13373031D02*
X8240182Y-13392079D01*
X8240182Y-13392079D02*
X8249705Y-13430174D01*
X8249705Y-13430174D02*
X8249705Y-13477793D01*
X8249705Y-13477793D02*
X8240182Y-13515888D01*
X8240182Y-13515888D02*
X8230658Y-13534936D01*
X8230658Y-13534936D02*
X8221134Y-13544460D01*
X8221134Y-13544460D02*
X8202086Y-13553984D01*
X8202086Y-13553984D02*
X8183039Y-13553984D01*
X8183039Y-13553984D02*
X8163991Y-13544460D01*
X8163991Y-13544460D02*
X8154467Y-13534936D01*
X8154467Y-13534936D02*
X8144943Y-13515888D01*
X8144943Y-13515888D02*
X8135420Y-13477793D01*
X8135420Y-13477793D02*
X8135420Y-13430174D01*
X8135420Y-13430174D02*
X8144943Y-13392079D01*
X8144943Y-13392079D02*
X8154467Y-13373031D01*
X8154467Y-13373031D02*
X8163991Y-13363508D01*
X8163991Y-13363508D02*
X8183039Y-13353984D01*
X8335420Y-13553984D02*
X8335420Y-13420650D01*
X8335420Y-13439698D02*
X8344943Y-13430174D01*
X8344943Y-13430174D02*
X8363991Y-13420650D01*
X8363991Y-13420650D02*
X8392563Y-13420650D01*
X8392563Y-13420650D02*
X8411610Y-13430174D01*
X8411610Y-13430174D02*
X8421134Y-13449222D01*
X8421134Y-13449222D02*
X8421134Y-13553984D01*
X8421134Y-13449222D02*
X8430658Y-13430174D01*
X8430658Y-13430174D02*
X8449705Y-13420650D01*
X8449705Y-13420650D02*
X8478277Y-13420650D01*
X8478277Y-13420650D02*
X8497325Y-13430174D01*
X8497325Y-13430174D02*
X8506848Y-13449222D01*
X8506848Y-13449222D02*
X8506848Y-13553984D01*
X8602086Y-13553984D02*
X8602086Y-13420650D01*
X8602086Y-13439698D02*
X8611610Y-13430174D01*
X8611610Y-13430174D02*
X8630658Y-13420650D01*
X8630658Y-13420650D02*
X8659229Y-13420650D01*
X8659229Y-13420650D02*
X8678277Y-13430174D01*
X8678277Y-13430174D02*
X8687801Y-13449222D01*
X8687801Y-13449222D02*
X8687801Y-13553984D01*
X8687801Y-13449222D02*
X8697325Y-13430174D01*
X8697325Y-13430174D02*
X8716372Y-13420650D01*
X8716372Y-13420650D02*
X8744944Y-13420650D01*
X8744944Y-13420650D02*
X8763991Y-13430174D01*
X8763991Y-13430174D02*
X8773515Y-13449222D01*
X8773515Y-13449222D02*
X8773515Y-13553984D01*
X9163991Y-13344460D02*
X8992563Y-13601603D01*
X9421134Y-13353984D02*
X9440182Y-13353984D01*
X9440182Y-13353984D02*
X9459229Y-13363508D01*
X9459229Y-13363508D02*
X9468753Y-13373031D01*
X9468753Y-13373031D02*
X9478277Y-13392079D01*
X9478277Y-13392079D02*
X9487801Y-13430174D01*
X9487801Y-13430174D02*
X9487801Y-13477793D01*
X9487801Y-13477793D02*
X9478277Y-13515888D01*
X9478277Y-13515888D02*
X9468753Y-13534936D01*
X9468753Y-13534936D02*
X9459229Y-13544460D01*
X9459229Y-13544460D02*
X9440182Y-13553984D01*
X9440182Y-13553984D02*
X9421134Y-13553984D01*
X9421134Y-13553984D02*
X9402087Y-13544460D01*
X9402087Y-13544460D02*
X9392563Y-13534936D01*
X9392563Y-13534936D02*
X9383039Y-13515888D01*
X9383039Y-13515888D02*
X9373515Y-13477793D01*
X9373515Y-13477793D02*
X9373515Y-13430174D01*
X9373515Y-13430174D02*
X9383039Y-13392079D01*
X9383039Y-13392079D02*
X9392563Y-13373031D01*
X9392563Y-13373031D02*
X9402087Y-13363508D01*
X9402087Y-13363508D02*
X9421134Y-13353984D01*
X9573515Y-13534936D02*
X9583039Y-13544460D01*
X9583039Y-13544460D02*
X9573515Y-13553984D01*
X9573515Y-13553984D02*
X9563991Y-13544460D01*
X9563991Y-13544460D02*
X9573515Y-13534936D01*
X9573515Y-13534936D02*
X9573515Y-13553984D01*
X9706848Y-13353984D02*
X9725896Y-13353984D01*
X9725896Y-13353984D02*
X9744944Y-13363508D01*
X9744944Y-13363508D02*
X9754468Y-13373031D01*
X9754468Y-13373031D02*
X9763991Y-13392079D01*
X9763991Y-13392079D02*
X9773515Y-13430174D01*
X9773515Y-13430174D02*
X9773515Y-13477793D01*
X9773515Y-13477793D02*
X9763991Y-13515888D01*
X9763991Y-13515888D02*
X9754468Y-13534936D01*
X9754468Y-13534936D02*
X9744944Y-13544460D01*
X9744944Y-13544460D02*
X9725896Y-13553984D01*
X9725896Y-13553984D02*
X9706848Y-13553984D01*
X9706848Y-13553984D02*
X9687801Y-13544460D01*
X9687801Y-13544460D02*
X9678277Y-13534936D01*
X9678277Y-13534936D02*
X9668753Y-13515888D01*
X9668753Y-13515888D02*
X9659229Y-13477793D01*
X9659229Y-13477793D02*
X9659229Y-13430174D01*
X9659229Y-13430174D02*
X9668753Y-13392079D01*
X9668753Y-13392079D02*
X9678277Y-13373031D01*
X9678277Y-13373031D02*
X9687801Y-13363508D01*
X9687801Y-13363508D02*
X9706848Y-13353984D01*
X9887801Y-13439698D02*
X9868753Y-13430174D01*
X9868753Y-13430174D02*
X9859229Y-13420650D01*
X9859229Y-13420650D02*
X9849706Y-13401603D01*
X9849706Y-13401603D02*
X9849706Y-13392079D01*
X9849706Y-13392079D02*
X9859229Y-13373031D01*
X9859229Y-13373031D02*
X9868753Y-13363508D01*
X9868753Y-13363508D02*
X9887801Y-13353984D01*
X9887801Y-13353984D02*
X9925896Y-13353984D01*
X9925896Y-13353984D02*
X9944944Y-13363508D01*
X9944944Y-13363508D02*
X9954468Y-13373031D01*
X9954468Y-13373031D02*
X9963991Y-13392079D01*
X9963991Y-13392079D02*
X9963991Y-13401603D01*
X9963991Y-13401603D02*
X9954468Y-13420650D01*
X9954468Y-13420650D02*
X9944944Y-13430174D01*
X9944944Y-13430174D02*
X9925896Y-13439698D01*
X9925896Y-13439698D02*
X9887801Y-13439698D01*
X9887801Y-13439698D02*
X9868753Y-13449222D01*
X9868753Y-13449222D02*
X9859229Y-13458746D01*
X9859229Y-13458746D02*
X9849706Y-13477793D01*
X9849706Y-13477793D02*
X9849706Y-13515888D01*
X9849706Y-13515888D02*
X9859229Y-13534936D01*
X9859229Y-13534936D02*
X9868753Y-13544460D01*
X9868753Y-13544460D02*
X9887801Y-13553984D01*
X9887801Y-13553984D02*
X9925896Y-13553984D01*
X9925896Y-13553984D02*
X9944944Y-13544460D01*
X9944944Y-13544460D02*
X9954468Y-13534936D01*
X9954468Y-13534936D02*
X9963991Y-13515888D01*
X9963991Y-13515888D02*
X9963991Y-13477793D01*
X9963991Y-13477793D02*
X9954468Y-13458746D01*
X9954468Y-13458746D02*
X9944944Y-13449222D01*
X9944944Y-13449222D02*
X9925896Y-13439698D01*
X10135420Y-13353984D02*
X10097325Y-13353984D01*
X10097325Y-13353984D02*
X10078277Y-13363508D01*
X10078277Y-13363508D02*
X10068753Y-13373031D01*
X10068753Y-13373031D02*
X10049706Y-13401603D01*
X10049706Y-13401603D02*
X10040182Y-13439698D01*
X10040182Y-13439698D02*
X10040182Y-13515888D01*
X10040182Y-13515888D02*
X10049706Y-13534936D01*
X10049706Y-13534936D02*
X10059229Y-13544460D01*
X10059229Y-13544460D02*
X10078277Y-13553984D01*
X10078277Y-13553984D02*
X10116372Y-13553984D01*
X10116372Y-13553984D02*
X10135420Y-13544460D01*
X10135420Y-13544460D02*
X10144944Y-13534936D01*
X10144944Y-13534936D02*
X10154468Y-13515888D01*
X10154468Y-13515888D02*
X10154468Y-13468269D01*
X10154468Y-13468269D02*
X10144944Y-13449222D01*
X10144944Y-13449222D02*
X10135420Y-13439698D01*
X10135420Y-13439698D02*
X10116372Y-13430174D01*
X10116372Y-13430174D02*
X10078277Y-13430174D01*
X10078277Y-13430174D02*
X10059229Y-13439698D01*
X10059229Y-13439698D02*
X10049706Y-13449222D01*
X10049706Y-13449222D02*
X10040182Y-13468269D01*
X10325896Y-13353984D02*
X10287801Y-13353984D01*
X10287801Y-13353984D02*
X10268753Y-13363508D01*
X10268753Y-13363508D02*
X10259229Y-13373031D01*
X10259229Y-13373031D02*
X10240182Y-13401603D01*
X10240182Y-13401603D02*
X10230658Y-13439698D01*
X10230658Y-13439698D02*
X10230658Y-13515888D01*
X10230658Y-13515888D02*
X10240182Y-13534936D01*
X10240182Y-13534936D02*
X10249706Y-13544460D01*
X10249706Y-13544460D02*
X10268753Y-13553984D01*
X10268753Y-13553984D02*
X10306849Y-13553984D01*
X10306849Y-13553984D02*
X10325896Y-13544460D01*
X10325896Y-13544460D02*
X10335420Y-13534936D01*
X10335420Y-13534936D02*
X10344944Y-13515888D01*
X10344944Y-13515888D02*
X10344944Y-13468269D01*
X10344944Y-13468269D02*
X10335420Y-13449222D01*
X10335420Y-13449222D02*
X10325896Y-13439698D01*
X10325896Y-13439698D02*
X10306849Y-13430174D01*
X10306849Y-13430174D02*
X10268753Y-13430174D01*
X10268753Y-13430174D02*
X10249706Y-13439698D01*
X10249706Y-13439698D02*
X10240182Y-13449222D01*
X10240182Y-13449222D02*
X10230658Y-13468269D01*
X10421134Y-13353984D02*
X10421134Y-13392079D01*
X10497325Y-13353984D02*
X10497325Y-13392079D01*
X10792563Y-13630174D02*
X10783039Y-13620650D01*
X10783039Y-13620650D02*
X10763991Y-13592079D01*
X10763991Y-13592079D02*
X10754468Y-13573031D01*
X10754468Y-13573031D02*
X10744944Y-13544460D01*
X10744944Y-13544460D02*
X10735420Y-13496841D01*
X10735420Y-13496841D02*
X10735420Y-13458746D01*
X10735420Y-13458746D02*
X10744944Y-13411127D01*
X10744944Y-13411127D02*
X10754468Y-13382555D01*
X10754468Y-13382555D02*
X10763991Y-13363508D01*
X10763991Y-13363508D02*
X10783039Y-13334936D01*
X10783039Y-13334936D02*
X10792563Y-13325412D01*
X10973515Y-13553984D02*
X10859230Y-13553984D01*
X10916372Y-13553984D02*
X10916372Y-13353984D01*
X10916372Y-13353984D02*
X10897325Y-13382555D01*
X10897325Y-13382555D02*
X10878277Y-13401603D01*
X10878277Y-13401603D02*
X10859230Y-13411127D01*
X11211610Y-13553984D02*
X11211610Y-13353984D01*
X11297325Y-13553984D02*
X11297325Y-13449222D01*
X11297325Y-13449222D02*
X11287801Y-13430174D01*
X11287801Y-13430174D02*
X11268753Y-13420650D01*
X11268753Y-13420650D02*
X11240182Y-13420650D01*
X11240182Y-13420650D02*
X11221134Y-13430174D01*
X11221134Y-13430174D02*
X11211610Y-13439698D01*
X11421134Y-13553984D02*
X11402087Y-13544460D01*
X11402087Y-13544460D02*
X11392563Y-13534936D01*
X11392563Y-13534936D02*
X11383039Y-13515888D01*
X11383039Y-13515888D02*
X11383039Y-13458746D01*
X11383039Y-13458746D02*
X11392563Y-13439698D01*
X11392563Y-13439698D02*
X11402087Y-13430174D01*
X11402087Y-13430174D02*
X11421134Y-13420650D01*
X11421134Y-13420650D02*
X11449706Y-13420650D01*
X11449706Y-13420650D02*
X11468753Y-13430174D01*
X11468753Y-13430174D02*
X11478277Y-13439698D01*
X11478277Y-13439698D02*
X11487801Y-13458746D01*
X11487801Y-13458746D02*
X11487801Y-13515888D01*
X11487801Y-13515888D02*
X11478277Y-13534936D01*
X11478277Y-13534936D02*
X11468753Y-13544460D01*
X11468753Y-13544460D02*
X11449706Y-13553984D01*
X11449706Y-13553984D02*
X11421134Y-13553984D01*
X11602087Y-13553984D02*
X11583039Y-13544460D01*
X11583039Y-13544460D02*
X11573515Y-13525412D01*
X11573515Y-13525412D02*
X11573515Y-13353984D01*
X11754468Y-13544460D02*
X11735420Y-13553984D01*
X11735420Y-13553984D02*
X11697325Y-13553984D01*
X11697325Y-13553984D02*
X11678277Y-13544460D01*
X11678277Y-13544460D02*
X11668753Y-13525412D01*
X11668753Y-13525412D02*
X11668753Y-13449222D01*
X11668753Y-13449222D02*
X11678277Y-13430174D01*
X11678277Y-13430174D02*
X11697325Y-13420650D01*
X11697325Y-13420650D02*
X11735420Y-13420650D01*
X11735420Y-13420650D02*
X11754468Y-13430174D01*
X11754468Y-13430174D02*
X11763991Y-13449222D01*
X11763991Y-13449222D02*
X11763991Y-13468269D01*
X11763991Y-13468269D02*
X11668753Y-13487317D01*
X11830658Y-13630174D02*
X11840182Y-13620650D01*
X11840182Y-13620650D02*
X11859230Y-13592079D01*
X11859230Y-13592079D02*
X11868753Y-13573031D01*
X11868753Y-13573031D02*
X11878277Y-13544460D01*
X11878277Y-13544460D02*
X11887801Y-13496841D01*
X11887801Y-13496841D02*
X11887801Y-13458746D01*
X11887801Y-13458746D02*
X11878277Y-13411127D01*
X11878277Y-13411127D02*
X11868753Y-13382555D01*
X11868753Y-13382555D02*
X11859230Y-13363508D01*
X11859230Y-13363508D02*
X11840182Y-13334936D01*
X11840182Y-13334936D02*
X11830658Y-13325412D01*
X7017500Y-13682500D02*
X7217500Y-13882500D01*
X7217500Y-13682500D02*
X7017500Y-13882500D01*
X7117500Y-13682500D02*
X7117500Y-13882500D01*
X7017500Y-13782500D02*
X7217500Y-13782500D01*
X7468753Y-13693031D02*
X7478277Y-13683508D01*
X7478277Y-13683508D02*
X7497324Y-13673984D01*
X7497324Y-13673984D02*
X7544943Y-13673984D01*
X7544943Y-13673984D02*
X7563991Y-13683508D01*
X7563991Y-13683508D02*
X7573515Y-13693031D01*
X7573515Y-13693031D02*
X7583039Y-13712079D01*
X7583039Y-13712079D02*
X7583039Y-13731127D01*
X7583039Y-13731127D02*
X7573515Y-13759698D01*
X7573515Y-13759698D02*
X7459229Y-13873984D01*
X7459229Y-13873984D02*
X7583039Y-13873984D01*
X7668753Y-13854936D02*
X7678277Y-13864460D01*
X7678277Y-13864460D02*
X7668753Y-13873984D01*
X7668753Y-13873984D02*
X7659229Y-13864460D01*
X7659229Y-13864460D02*
X7668753Y-13854936D01*
X7668753Y-13854936D02*
X7668753Y-13873984D01*
X7744943Y-13673984D02*
X7878277Y-13673984D01*
X7878277Y-13673984D02*
X7792562Y-13873984D01*
X7992562Y-13673984D02*
X8011610Y-13673984D01*
X8011610Y-13673984D02*
X8030658Y-13683508D01*
X8030658Y-13683508D02*
X8040182Y-13693031D01*
X8040182Y-13693031D02*
X8049705Y-13712079D01*
X8049705Y-13712079D02*
X8059229Y-13750174D01*
X8059229Y-13750174D02*
X8059229Y-13797793D01*
X8059229Y-13797793D02*
X8049705Y-13835888D01*
X8049705Y-13835888D02*
X8040182Y-13854936D01*
X8040182Y-13854936D02*
X8030658Y-13864460D01*
X8030658Y-13864460D02*
X8011610Y-13873984D01*
X8011610Y-13873984D02*
X7992562Y-13873984D01*
X7992562Y-13873984D02*
X7973515Y-13864460D01*
X7973515Y-13864460D02*
X7963991Y-13854936D01*
X7963991Y-13854936D02*
X7954467Y-13835888D01*
X7954467Y-13835888D02*
X7944943Y-13797793D01*
X7944943Y-13797793D02*
X7944943Y-13750174D01*
X7944943Y-13750174D02*
X7954467Y-13712079D01*
X7954467Y-13712079D02*
X7963991Y-13693031D01*
X7963991Y-13693031D02*
X7973515Y-13683508D01*
X7973515Y-13683508D02*
X7992562Y-13673984D01*
X8183039Y-13673984D02*
X8202086Y-13673984D01*
X8202086Y-13673984D02*
X8221134Y-13683508D01*
X8221134Y-13683508D02*
X8230658Y-13693031D01*
X8230658Y-13693031D02*
X8240182Y-13712079D01*
X8240182Y-13712079D02*
X8249705Y-13750174D01*
X8249705Y-13750174D02*
X8249705Y-13797793D01*
X8249705Y-13797793D02*
X8240182Y-13835888D01*
X8240182Y-13835888D02*
X8230658Y-13854936D01*
X8230658Y-13854936D02*
X8221134Y-13864460D01*
X8221134Y-13864460D02*
X8202086Y-13873984D01*
X8202086Y-13873984D02*
X8183039Y-13873984D01*
X8183039Y-13873984D02*
X8163991Y-13864460D01*
X8163991Y-13864460D02*
X8154467Y-13854936D01*
X8154467Y-13854936D02*
X8144943Y-13835888D01*
X8144943Y-13835888D02*
X8135420Y-13797793D01*
X8135420Y-13797793D02*
X8135420Y-13750174D01*
X8135420Y-13750174D02*
X8144943Y-13712079D01*
X8144943Y-13712079D02*
X8154467Y-13693031D01*
X8154467Y-13693031D02*
X8163991Y-13683508D01*
X8163991Y-13683508D02*
X8183039Y-13673984D01*
X8335420Y-13873984D02*
X8335420Y-13740650D01*
X8335420Y-13759698D02*
X8344943Y-13750174D01*
X8344943Y-13750174D02*
X8363991Y-13740650D01*
X8363991Y-13740650D02*
X8392563Y-13740650D01*
X8392563Y-13740650D02*
X8411610Y-13750174D01*
X8411610Y-13750174D02*
X8421134Y-13769222D01*
X8421134Y-13769222D02*
X8421134Y-13873984D01*
X8421134Y-13769222D02*
X8430658Y-13750174D01*
X8430658Y-13750174D02*
X8449705Y-13740650D01*
X8449705Y-13740650D02*
X8478277Y-13740650D01*
X8478277Y-13740650D02*
X8497325Y-13750174D01*
X8497325Y-13750174D02*
X8506848Y-13769222D01*
X8506848Y-13769222D02*
X8506848Y-13873984D01*
X8602086Y-13873984D02*
X8602086Y-13740650D01*
X8602086Y-13759698D02*
X8611610Y-13750174D01*
X8611610Y-13750174D02*
X8630658Y-13740650D01*
X8630658Y-13740650D02*
X8659229Y-13740650D01*
X8659229Y-13740650D02*
X8678277Y-13750174D01*
X8678277Y-13750174D02*
X8687801Y-13769222D01*
X8687801Y-13769222D02*
X8687801Y-13873984D01*
X8687801Y-13769222D02*
X8697325Y-13750174D01*
X8697325Y-13750174D02*
X8716372Y-13740650D01*
X8716372Y-13740650D02*
X8744944Y-13740650D01*
X8744944Y-13740650D02*
X8763991Y-13750174D01*
X8763991Y-13750174D02*
X8773515Y-13769222D01*
X8773515Y-13769222D02*
X8773515Y-13873984D01*
X9163991Y-13664460D02*
X8992563Y-13921603D01*
X9421134Y-13673984D02*
X9440182Y-13673984D01*
X9440182Y-13673984D02*
X9459229Y-13683508D01*
X9459229Y-13683508D02*
X9468753Y-13693031D01*
X9468753Y-13693031D02*
X9478277Y-13712079D01*
X9478277Y-13712079D02*
X9487801Y-13750174D01*
X9487801Y-13750174D02*
X9487801Y-13797793D01*
X9487801Y-13797793D02*
X9478277Y-13835888D01*
X9478277Y-13835888D02*
X9468753Y-13854936D01*
X9468753Y-13854936D02*
X9459229Y-13864460D01*
X9459229Y-13864460D02*
X9440182Y-13873984D01*
X9440182Y-13873984D02*
X9421134Y-13873984D01*
X9421134Y-13873984D02*
X9402087Y-13864460D01*
X9402087Y-13864460D02*
X9392563Y-13854936D01*
X9392563Y-13854936D02*
X9383039Y-13835888D01*
X9383039Y-13835888D02*
X9373515Y-13797793D01*
X9373515Y-13797793D02*
X9373515Y-13750174D01*
X9373515Y-13750174D02*
X9383039Y-13712079D01*
X9383039Y-13712079D02*
X9392563Y-13693031D01*
X9392563Y-13693031D02*
X9402087Y-13683508D01*
X9402087Y-13683508D02*
X9421134Y-13673984D01*
X9573515Y-13854936D02*
X9583039Y-13864460D01*
X9583039Y-13864460D02*
X9573515Y-13873984D01*
X9573515Y-13873984D02*
X9563991Y-13864460D01*
X9563991Y-13864460D02*
X9573515Y-13854936D01*
X9573515Y-13854936D02*
X9573515Y-13873984D01*
X9773515Y-13873984D02*
X9659229Y-13873984D01*
X9716372Y-13873984D02*
X9716372Y-13673984D01*
X9716372Y-13673984D02*
X9697325Y-13702555D01*
X9697325Y-13702555D02*
X9678277Y-13721603D01*
X9678277Y-13721603D02*
X9659229Y-13731127D01*
X9897325Y-13673984D02*
X9916372Y-13673984D01*
X9916372Y-13673984D02*
X9935420Y-13683508D01*
X9935420Y-13683508D02*
X9944944Y-13693031D01*
X9944944Y-13693031D02*
X9954468Y-13712079D01*
X9954468Y-13712079D02*
X9963991Y-13750174D01*
X9963991Y-13750174D02*
X9963991Y-13797793D01*
X9963991Y-13797793D02*
X9954468Y-13835888D01*
X9954468Y-13835888D02*
X9944944Y-13854936D01*
X9944944Y-13854936D02*
X9935420Y-13864460D01*
X9935420Y-13864460D02*
X9916372Y-13873984D01*
X9916372Y-13873984D02*
X9897325Y-13873984D01*
X9897325Y-13873984D02*
X9878277Y-13864460D01*
X9878277Y-13864460D02*
X9868753Y-13854936D01*
X9868753Y-13854936D02*
X9859229Y-13835888D01*
X9859229Y-13835888D02*
X9849706Y-13797793D01*
X9849706Y-13797793D02*
X9849706Y-13750174D01*
X9849706Y-13750174D02*
X9859229Y-13712079D01*
X9859229Y-13712079D02*
X9868753Y-13693031D01*
X9868753Y-13693031D02*
X9878277Y-13683508D01*
X9878277Y-13683508D02*
X9897325Y-13673984D01*
X10135420Y-13673984D02*
X10097325Y-13673984D01*
X10097325Y-13673984D02*
X10078277Y-13683508D01*
X10078277Y-13683508D02*
X10068753Y-13693031D01*
X10068753Y-13693031D02*
X10049706Y-13721603D01*
X10049706Y-13721603D02*
X10040182Y-13759698D01*
X10040182Y-13759698D02*
X10040182Y-13835888D01*
X10040182Y-13835888D02*
X10049706Y-13854936D01*
X10049706Y-13854936D02*
X10059229Y-13864460D01*
X10059229Y-13864460D02*
X10078277Y-13873984D01*
X10078277Y-13873984D02*
X10116372Y-13873984D01*
X10116372Y-13873984D02*
X10135420Y-13864460D01*
X10135420Y-13864460D02*
X10144944Y-13854936D01*
X10144944Y-13854936D02*
X10154468Y-13835888D01*
X10154468Y-13835888D02*
X10154468Y-13788269D01*
X10154468Y-13788269D02*
X10144944Y-13769222D01*
X10144944Y-13769222D02*
X10135420Y-13759698D01*
X10135420Y-13759698D02*
X10116372Y-13750174D01*
X10116372Y-13750174D02*
X10078277Y-13750174D01*
X10078277Y-13750174D02*
X10059229Y-13759698D01*
X10059229Y-13759698D02*
X10049706Y-13769222D01*
X10049706Y-13769222D02*
X10040182Y-13788269D01*
X10221134Y-13673984D02*
X10344944Y-13673984D01*
X10344944Y-13673984D02*
X10278277Y-13750174D01*
X10278277Y-13750174D02*
X10306849Y-13750174D01*
X10306849Y-13750174D02*
X10325896Y-13759698D01*
X10325896Y-13759698D02*
X10335420Y-13769222D01*
X10335420Y-13769222D02*
X10344944Y-13788269D01*
X10344944Y-13788269D02*
X10344944Y-13835888D01*
X10344944Y-13835888D02*
X10335420Y-13854936D01*
X10335420Y-13854936D02*
X10325896Y-13864460D01*
X10325896Y-13864460D02*
X10306849Y-13873984D01*
X10306849Y-13873984D02*
X10249706Y-13873984D01*
X10249706Y-13873984D02*
X10230658Y-13864460D01*
X10230658Y-13864460D02*
X10221134Y-13854936D01*
X10421134Y-13673984D02*
X10421134Y-13712079D01*
X10497325Y-13673984D02*
X10497325Y-13712079D01*
X10792563Y-13950174D02*
X10783039Y-13940650D01*
X10783039Y-13940650D02*
X10763991Y-13912079D01*
X10763991Y-13912079D02*
X10754468Y-13893031D01*
X10754468Y-13893031D02*
X10744944Y-13864460D01*
X10744944Y-13864460D02*
X10735420Y-13816841D01*
X10735420Y-13816841D02*
X10735420Y-13778746D01*
X10735420Y-13778746D02*
X10744944Y-13731127D01*
X10744944Y-13731127D02*
X10754468Y-13702555D01*
X10754468Y-13702555D02*
X10763991Y-13683508D01*
X10763991Y-13683508D02*
X10783039Y-13654936D01*
X10783039Y-13654936D02*
X10792563Y-13645412D01*
X10973515Y-13873984D02*
X10859230Y-13873984D01*
X10916372Y-13873984D02*
X10916372Y-13673984D01*
X10916372Y-13673984D02*
X10897325Y-13702555D01*
X10897325Y-13702555D02*
X10878277Y-13721603D01*
X10878277Y-13721603D02*
X10859230Y-13731127D01*
X11211610Y-13873984D02*
X11211610Y-13673984D01*
X11297325Y-13873984D02*
X11297325Y-13769222D01*
X11297325Y-13769222D02*
X11287801Y-13750174D01*
X11287801Y-13750174D02*
X11268753Y-13740650D01*
X11268753Y-13740650D02*
X11240182Y-13740650D01*
X11240182Y-13740650D02*
X11221134Y-13750174D01*
X11221134Y-13750174D02*
X11211610Y-13759698D01*
X11421134Y-13873984D02*
X11402087Y-13864460D01*
X11402087Y-13864460D02*
X11392563Y-13854936D01*
X11392563Y-13854936D02*
X11383039Y-13835888D01*
X11383039Y-13835888D02*
X11383039Y-13778746D01*
X11383039Y-13778746D02*
X11392563Y-13759698D01*
X11392563Y-13759698D02*
X11402087Y-13750174D01*
X11402087Y-13750174D02*
X11421134Y-13740650D01*
X11421134Y-13740650D02*
X11449706Y-13740650D01*
X11449706Y-13740650D02*
X11468753Y-13750174D01*
X11468753Y-13750174D02*
X11478277Y-13759698D01*
X11478277Y-13759698D02*
X11487801Y-13778746D01*
X11487801Y-13778746D02*
X11487801Y-13835888D01*
X11487801Y-13835888D02*
X11478277Y-13854936D01*
X11478277Y-13854936D02*
X11468753Y-13864460D01*
X11468753Y-13864460D02*
X11449706Y-13873984D01*
X11449706Y-13873984D02*
X11421134Y-13873984D01*
X11602087Y-13873984D02*
X11583039Y-13864460D01*
X11583039Y-13864460D02*
X11573515Y-13845412D01*
X11573515Y-13845412D02*
X11573515Y-13673984D01*
X11754468Y-13864460D02*
X11735420Y-13873984D01*
X11735420Y-13873984D02*
X11697325Y-13873984D01*
X11697325Y-13873984D02*
X11678277Y-13864460D01*
X11678277Y-13864460D02*
X11668753Y-13845412D01*
X11668753Y-13845412D02*
X11668753Y-13769222D01*
X11668753Y-13769222D02*
X11678277Y-13750174D01*
X11678277Y-13750174D02*
X11697325Y-13740650D01*
X11697325Y-13740650D02*
X11735420Y-13740650D01*
X11735420Y-13740650D02*
X11754468Y-13750174D01*
X11754468Y-13750174D02*
X11763991Y-13769222D01*
X11763991Y-13769222D02*
X11763991Y-13788269D01*
X11763991Y-13788269D02*
X11668753Y-13807317D01*
X11830658Y-13950174D02*
X11840182Y-13940650D01*
X11840182Y-13940650D02*
X11859230Y-13912079D01*
X11859230Y-13912079D02*
X11868753Y-13893031D01*
X11868753Y-13893031D02*
X11878277Y-13864460D01*
X11878277Y-13864460D02*
X11887801Y-13816841D01*
X11887801Y-13816841D02*
X11887801Y-13778746D01*
X11887801Y-13778746D02*
X11878277Y-13731127D01*
X11878277Y-13731127D02*
X11868753Y-13702555D01*
X11868753Y-13702555D02*
X11859230Y-13683508D01*
X11859230Y-13683508D02*
X11840182Y-13654936D01*
X11840182Y-13654936D02*
X11830658Y-13645412D01*
X7017500Y-14002500D02*
X7217500Y-14202500D01*
X7217500Y-14002500D02*
X7017500Y-14202500D01*
X7188211Y-14173211D02*
X7188211Y-14031789D01*
X7046789Y-14031789D01*
X7046789Y-14173211D01*
X7188211Y-14173211D01*
X7459229Y-13993984D02*
X7583039Y-13993984D01*
X7583039Y-13993984D02*
X7516372Y-14070174D01*
X7516372Y-14070174D02*
X7544943Y-14070174D01*
X7544943Y-14070174D02*
X7563991Y-14079698D01*
X7563991Y-14079698D02*
X7573515Y-14089222D01*
X7573515Y-14089222D02*
X7583039Y-14108269D01*
X7583039Y-14108269D02*
X7583039Y-14155888D01*
X7583039Y-14155888D02*
X7573515Y-14174936D01*
X7573515Y-14174936D02*
X7563991Y-14184460D01*
X7563991Y-14184460D02*
X7544943Y-14193984D01*
X7544943Y-14193984D02*
X7487801Y-14193984D01*
X7487801Y-14193984D02*
X7468753Y-14184460D01*
X7468753Y-14184460D02*
X7459229Y-14174936D01*
X7668753Y-14174936D02*
X7678277Y-14184460D01*
X7678277Y-14184460D02*
X7668753Y-14193984D01*
X7668753Y-14193984D02*
X7659229Y-14184460D01*
X7659229Y-14184460D02*
X7668753Y-14174936D01*
X7668753Y-14174936D02*
X7668753Y-14193984D01*
X7754467Y-14013031D02*
X7763991Y-14003508D01*
X7763991Y-14003508D02*
X7783039Y-13993984D01*
X7783039Y-13993984D02*
X7830658Y-13993984D01*
X7830658Y-13993984D02*
X7849705Y-14003508D01*
X7849705Y-14003508D02*
X7859229Y-14013031D01*
X7859229Y-14013031D02*
X7868753Y-14032079D01*
X7868753Y-14032079D02*
X7868753Y-14051127D01*
X7868753Y-14051127D02*
X7859229Y-14079698D01*
X7859229Y-14079698D02*
X7744943Y-14193984D01*
X7744943Y-14193984D02*
X7868753Y-14193984D01*
X7992562Y-13993984D02*
X8011610Y-13993984D01*
X8011610Y-13993984D02*
X8030658Y-14003508D01*
X8030658Y-14003508D02*
X8040182Y-14013031D01*
X8040182Y-14013031D02*
X8049705Y-14032079D01*
X8049705Y-14032079D02*
X8059229Y-14070174D01*
X8059229Y-14070174D02*
X8059229Y-14117793D01*
X8059229Y-14117793D02*
X8049705Y-14155888D01*
X8049705Y-14155888D02*
X8040182Y-14174936D01*
X8040182Y-14174936D02*
X8030658Y-14184460D01*
X8030658Y-14184460D02*
X8011610Y-14193984D01*
X8011610Y-14193984D02*
X7992562Y-14193984D01*
X7992562Y-14193984D02*
X7973515Y-14184460D01*
X7973515Y-14184460D02*
X7963991Y-14174936D01*
X7963991Y-14174936D02*
X7954467Y-14155888D01*
X7954467Y-14155888D02*
X7944943Y-14117793D01*
X7944943Y-14117793D02*
X7944943Y-14070174D01*
X7944943Y-14070174D02*
X7954467Y-14032079D01*
X7954467Y-14032079D02*
X7963991Y-14013031D01*
X7963991Y-14013031D02*
X7973515Y-14003508D01*
X7973515Y-14003508D02*
X7992562Y-13993984D01*
X8183039Y-13993984D02*
X8202086Y-13993984D01*
X8202086Y-13993984D02*
X8221134Y-14003508D01*
X8221134Y-14003508D02*
X8230658Y-14013031D01*
X8230658Y-14013031D02*
X8240182Y-14032079D01*
X8240182Y-14032079D02*
X8249705Y-14070174D01*
X8249705Y-14070174D02*
X8249705Y-14117793D01*
X8249705Y-14117793D02*
X8240182Y-14155888D01*
X8240182Y-14155888D02*
X8230658Y-14174936D01*
X8230658Y-14174936D02*
X8221134Y-14184460D01*
X8221134Y-14184460D02*
X8202086Y-14193984D01*
X8202086Y-14193984D02*
X8183039Y-14193984D01*
X8183039Y-14193984D02*
X8163991Y-14184460D01*
X8163991Y-14184460D02*
X8154467Y-14174936D01*
X8154467Y-14174936D02*
X8144943Y-14155888D01*
X8144943Y-14155888D02*
X8135420Y-14117793D01*
X8135420Y-14117793D02*
X8135420Y-14070174D01*
X8135420Y-14070174D02*
X8144943Y-14032079D01*
X8144943Y-14032079D02*
X8154467Y-14013031D01*
X8154467Y-14013031D02*
X8163991Y-14003508D01*
X8163991Y-14003508D02*
X8183039Y-13993984D01*
X8335420Y-14193984D02*
X8335420Y-14060650D01*
X8335420Y-14079698D02*
X8344943Y-14070174D01*
X8344943Y-14070174D02*
X8363991Y-14060650D01*
X8363991Y-14060650D02*
X8392563Y-14060650D01*
X8392563Y-14060650D02*
X8411610Y-14070174D01*
X8411610Y-14070174D02*
X8421134Y-14089222D01*
X8421134Y-14089222D02*
X8421134Y-14193984D01*
X8421134Y-14089222D02*
X8430658Y-14070174D01*
X8430658Y-14070174D02*
X8449705Y-14060650D01*
X8449705Y-14060650D02*
X8478277Y-14060650D01*
X8478277Y-14060650D02*
X8497325Y-14070174D01*
X8497325Y-14070174D02*
X8506848Y-14089222D01*
X8506848Y-14089222D02*
X8506848Y-14193984D01*
X8602086Y-14193984D02*
X8602086Y-14060650D01*
X8602086Y-14079698D02*
X8611610Y-14070174D01*
X8611610Y-14070174D02*
X8630658Y-14060650D01*
X8630658Y-14060650D02*
X8659229Y-14060650D01*
X8659229Y-14060650D02*
X8678277Y-14070174D01*
X8678277Y-14070174D02*
X8687801Y-14089222D01*
X8687801Y-14089222D02*
X8687801Y-14193984D01*
X8687801Y-14089222D02*
X8697325Y-14070174D01*
X8697325Y-14070174D02*
X8716372Y-14060650D01*
X8716372Y-14060650D02*
X8744944Y-14060650D01*
X8744944Y-14060650D02*
X8763991Y-14070174D01*
X8763991Y-14070174D02*
X8773515Y-14089222D01*
X8773515Y-14089222D02*
X8773515Y-14193984D01*
X9163991Y-13984460D02*
X8992563Y-14241603D01*
X9421134Y-13993984D02*
X9440182Y-13993984D01*
X9440182Y-13993984D02*
X9459229Y-14003508D01*
X9459229Y-14003508D02*
X9468753Y-14013031D01*
X9468753Y-14013031D02*
X9478277Y-14032079D01*
X9478277Y-14032079D02*
X9487801Y-14070174D01*
X9487801Y-14070174D02*
X9487801Y-14117793D01*
X9487801Y-14117793D02*
X9478277Y-14155888D01*
X9478277Y-14155888D02*
X9468753Y-14174936D01*
X9468753Y-14174936D02*
X9459229Y-14184460D01*
X9459229Y-14184460D02*
X9440182Y-14193984D01*
X9440182Y-14193984D02*
X9421134Y-14193984D01*
X9421134Y-14193984D02*
X9402087Y-14184460D01*
X9402087Y-14184460D02*
X9392563Y-14174936D01*
X9392563Y-14174936D02*
X9383039Y-14155888D01*
X9383039Y-14155888D02*
X9373515Y-14117793D01*
X9373515Y-14117793D02*
X9373515Y-14070174D01*
X9373515Y-14070174D02*
X9383039Y-14032079D01*
X9383039Y-14032079D02*
X9392563Y-14013031D01*
X9392563Y-14013031D02*
X9402087Y-14003508D01*
X9402087Y-14003508D02*
X9421134Y-13993984D01*
X9573515Y-14174936D02*
X9583039Y-14184460D01*
X9583039Y-14184460D02*
X9573515Y-14193984D01*
X9573515Y-14193984D02*
X9563991Y-14184460D01*
X9563991Y-14184460D02*
X9573515Y-14174936D01*
X9573515Y-14174936D02*
X9573515Y-14193984D01*
X9773515Y-14193984D02*
X9659229Y-14193984D01*
X9716372Y-14193984D02*
X9716372Y-13993984D01*
X9716372Y-13993984D02*
X9697325Y-14022555D01*
X9697325Y-14022555D02*
X9678277Y-14041603D01*
X9678277Y-14041603D02*
X9659229Y-14051127D01*
X9849706Y-14013031D02*
X9859229Y-14003508D01*
X9859229Y-14003508D02*
X9878277Y-13993984D01*
X9878277Y-13993984D02*
X9925896Y-13993984D01*
X9925896Y-13993984D02*
X9944944Y-14003508D01*
X9944944Y-14003508D02*
X9954468Y-14013031D01*
X9954468Y-14013031D02*
X9963991Y-14032079D01*
X9963991Y-14032079D02*
X9963991Y-14051127D01*
X9963991Y-14051127D02*
X9954468Y-14079698D01*
X9954468Y-14079698D02*
X9840182Y-14193984D01*
X9840182Y-14193984D02*
X9963991Y-14193984D01*
X10135420Y-13993984D02*
X10097325Y-13993984D01*
X10097325Y-13993984D02*
X10078277Y-14003508D01*
X10078277Y-14003508D02*
X10068753Y-14013031D01*
X10068753Y-14013031D02*
X10049706Y-14041603D01*
X10049706Y-14041603D02*
X10040182Y-14079698D01*
X10040182Y-14079698D02*
X10040182Y-14155888D01*
X10040182Y-14155888D02*
X10049706Y-14174936D01*
X10049706Y-14174936D02*
X10059229Y-14184460D01*
X10059229Y-14184460D02*
X10078277Y-14193984D01*
X10078277Y-14193984D02*
X10116372Y-14193984D01*
X10116372Y-14193984D02*
X10135420Y-14184460D01*
X10135420Y-14184460D02*
X10144944Y-14174936D01*
X10144944Y-14174936D02*
X10154468Y-14155888D01*
X10154468Y-14155888D02*
X10154468Y-14108269D01*
X10154468Y-14108269D02*
X10144944Y-14089222D01*
X10144944Y-14089222D02*
X10135420Y-14079698D01*
X10135420Y-14079698D02*
X10116372Y-14070174D01*
X10116372Y-14070174D02*
X10078277Y-14070174D01*
X10078277Y-14070174D02*
X10059229Y-14079698D01*
X10059229Y-14079698D02*
X10049706Y-14089222D01*
X10049706Y-14089222D02*
X10040182Y-14108269D01*
X10278277Y-13993984D02*
X10297325Y-13993984D01*
X10297325Y-13993984D02*
X10316372Y-14003508D01*
X10316372Y-14003508D02*
X10325896Y-14013031D01*
X10325896Y-14013031D02*
X10335420Y-14032079D01*
X10335420Y-14032079D02*
X10344944Y-14070174D01*
X10344944Y-14070174D02*
X10344944Y-14117793D01*
X10344944Y-14117793D02*
X10335420Y-14155888D01*
X10335420Y-14155888D02*
X10325896Y-14174936D01*
X10325896Y-14174936D02*
X10316372Y-14184460D01*
X10316372Y-14184460D02*
X10297325Y-14193984D01*
X10297325Y-14193984D02*
X10278277Y-14193984D01*
X10278277Y-14193984D02*
X10259229Y-14184460D01*
X10259229Y-14184460D02*
X10249706Y-14174936D01*
X10249706Y-14174936D02*
X10240182Y-14155888D01*
X10240182Y-14155888D02*
X10230658Y-14117793D01*
X10230658Y-14117793D02*
X10230658Y-14070174D01*
X10230658Y-14070174D02*
X10240182Y-14032079D01*
X10240182Y-14032079D02*
X10249706Y-14013031D01*
X10249706Y-14013031D02*
X10259229Y-14003508D01*
X10259229Y-14003508D02*
X10278277Y-13993984D01*
X10421134Y-13993984D02*
X10421134Y-14032079D01*
X10497325Y-13993984D02*
X10497325Y-14032079D01*
X10792563Y-14270174D02*
X10783039Y-14260650D01*
X10783039Y-14260650D02*
X10763991Y-14232079D01*
X10763991Y-14232079D02*
X10754468Y-14213031D01*
X10754468Y-14213031D02*
X10744944Y-14184460D01*
X10744944Y-14184460D02*
X10735420Y-14136841D01*
X10735420Y-14136841D02*
X10735420Y-14098746D01*
X10735420Y-14098746D02*
X10744944Y-14051127D01*
X10744944Y-14051127D02*
X10754468Y-14022555D01*
X10754468Y-14022555D02*
X10763991Y-14003508D01*
X10763991Y-14003508D02*
X10783039Y-13974936D01*
X10783039Y-13974936D02*
X10792563Y-13965412D01*
X10973515Y-14193984D02*
X10859230Y-14193984D01*
X10916372Y-14193984D02*
X10916372Y-13993984D01*
X10916372Y-13993984D02*
X10897325Y-14022555D01*
X10897325Y-14022555D02*
X10878277Y-14041603D01*
X10878277Y-14041603D02*
X10859230Y-14051127D01*
X11211610Y-14193984D02*
X11211610Y-13993984D01*
X11297325Y-14193984D02*
X11297325Y-14089222D01*
X11297325Y-14089222D02*
X11287801Y-14070174D01*
X11287801Y-14070174D02*
X11268753Y-14060650D01*
X11268753Y-14060650D02*
X11240182Y-14060650D01*
X11240182Y-14060650D02*
X11221134Y-14070174D01*
X11221134Y-14070174D02*
X11211610Y-14079698D01*
X11421134Y-14193984D02*
X11402087Y-14184460D01*
X11402087Y-14184460D02*
X11392563Y-14174936D01*
X11392563Y-14174936D02*
X11383039Y-14155888D01*
X11383039Y-14155888D02*
X11383039Y-14098746D01*
X11383039Y-14098746D02*
X11392563Y-14079698D01*
X11392563Y-14079698D02*
X11402087Y-14070174D01*
X11402087Y-14070174D02*
X11421134Y-14060650D01*
X11421134Y-14060650D02*
X11449706Y-14060650D01*
X11449706Y-14060650D02*
X11468753Y-14070174D01*
X11468753Y-14070174D02*
X11478277Y-14079698D01*
X11478277Y-14079698D02*
X11487801Y-14098746D01*
X11487801Y-14098746D02*
X11487801Y-14155888D01*
X11487801Y-14155888D02*
X11478277Y-14174936D01*
X11478277Y-14174936D02*
X11468753Y-14184460D01*
X11468753Y-14184460D02*
X11449706Y-14193984D01*
X11449706Y-14193984D02*
X11421134Y-14193984D01*
X11602087Y-14193984D02*
X11583039Y-14184460D01*
X11583039Y-14184460D02*
X11573515Y-14165412D01*
X11573515Y-14165412D02*
X11573515Y-13993984D01*
X11754468Y-14184460D02*
X11735420Y-14193984D01*
X11735420Y-14193984D02*
X11697325Y-14193984D01*
X11697325Y-14193984D02*
X11678277Y-14184460D01*
X11678277Y-14184460D02*
X11668753Y-14165412D01*
X11668753Y-14165412D02*
X11668753Y-14089222D01*
X11668753Y-14089222D02*
X11678277Y-14070174D01*
X11678277Y-14070174D02*
X11697325Y-14060650D01*
X11697325Y-14060650D02*
X11735420Y-14060650D01*
X11735420Y-14060650D02*
X11754468Y-14070174D01*
X11754468Y-14070174D02*
X11763991Y-14089222D01*
X11763991Y-14089222D02*
X11763991Y-14108269D01*
X11763991Y-14108269D02*
X11668753Y-14127317D01*
X11830658Y-14270174D02*
X11840182Y-14260650D01*
X11840182Y-14260650D02*
X11859230Y-14232079D01*
X11859230Y-14232079D02*
X11868753Y-14213031D01*
X11868753Y-14213031D02*
X11878277Y-14184460D01*
X11878277Y-14184460D02*
X11887801Y-14136841D01*
X11887801Y-14136841D02*
X11887801Y-14098746D01*
X11887801Y-14098746D02*
X11878277Y-14051127D01*
X11878277Y-14051127D02*
X11868753Y-14022555D01*
X11868753Y-14022555D02*
X11859230Y-14003508D01*
X11859230Y-14003508D02*
X11840182Y-13974936D01*
X11840182Y-13974936D02*
X11830658Y-13965412D01*
X7017500Y-14322500D02*
X7217500Y-14522500D01*
X7217500Y-14322500D02*
X7017500Y-14522500D01*
X7117500Y-14522500D02*
X7217500Y-14422500D01*
X7117500Y-14322500D01*
X7017500Y-14422500D01*
X7117500Y-14522500D01*
X7563991Y-14380650D02*
X7563991Y-14513984D01*
X7516372Y-14304460D02*
X7468753Y-14447317D01*
X7468753Y-14447317D02*
X7592562Y-14447317D01*
X7668753Y-14494936D02*
X7678277Y-14504460D01*
X7678277Y-14504460D02*
X7668753Y-14513984D01*
X7668753Y-14513984D02*
X7659229Y-14504460D01*
X7659229Y-14504460D02*
X7668753Y-14494936D01*
X7668753Y-14494936D02*
X7668753Y-14513984D01*
X7744943Y-14313984D02*
X7868753Y-14313984D01*
X7868753Y-14313984D02*
X7802086Y-14390174D01*
X7802086Y-14390174D02*
X7830658Y-14390174D01*
X7830658Y-14390174D02*
X7849705Y-14399698D01*
X7849705Y-14399698D02*
X7859229Y-14409222D01*
X7859229Y-14409222D02*
X7868753Y-14428269D01*
X7868753Y-14428269D02*
X7868753Y-14475888D01*
X7868753Y-14475888D02*
X7859229Y-14494936D01*
X7859229Y-14494936D02*
X7849705Y-14504460D01*
X7849705Y-14504460D02*
X7830658Y-14513984D01*
X7830658Y-14513984D02*
X7773515Y-14513984D01*
X7773515Y-14513984D02*
X7754467Y-14504460D01*
X7754467Y-14504460D02*
X7744943Y-14494936D01*
X7992562Y-14313984D02*
X8011610Y-14313984D01*
X8011610Y-14313984D02*
X8030658Y-14323508D01*
X8030658Y-14323508D02*
X8040182Y-14333031D01*
X8040182Y-14333031D02*
X8049705Y-14352079D01*
X8049705Y-14352079D02*
X8059229Y-14390174D01*
X8059229Y-14390174D02*
X8059229Y-14437793D01*
X8059229Y-14437793D02*
X8049705Y-14475888D01*
X8049705Y-14475888D02*
X8040182Y-14494936D01*
X8040182Y-14494936D02*
X8030658Y-14504460D01*
X8030658Y-14504460D02*
X8011610Y-14513984D01*
X8011610Y-14513984D02*
X7992562Y-14513984D01*
X7992562Y-14513984D02*
X7973515Y-14504460D01*
X7973515Y-14504460D02*
X7963991Y-14494936D01*
X7963991Y-14494936D02*
X7954467Y-14475888D01*
X7954467Y-14475888D02*
X7944943Y-14437793D01*
X7944943Y-14437793D02*
X7944943Y-14390174D01*
X7944943Y-14390174D02*
X7954467Y-14352079D01*
X7954467Y-14352079D02*
X7963991Y-14333031D01*
X7963991Y-14333031D02*
X7973515Y-14323508D01*
X7973515Y-14323508D02*
X7992562Y-14313984D01*
X8183039Y-14313984D02*
X8202086Y-14313984D01*
X8202086Y-14313984D02*
X8221134Y-14323508D01*
X8221134Y-14323508D02*
X8230658Y-14333031D01*
X8230658Y-14333031D02*
X8240182Y-14352079D01*
X8240182Y-14352079D02*
X8249705Y-14390174D01*
X8249705Y-14390174D02*
X8249705Y-14437793D01*
X8249705Y-14437793D02*
X8240182Y-14475888D01*
X8240182Y-14475888D02*
X8230658Y-14494936D01*
X8230658Y-14494936D02*
X8221134Y-14504460D01*
X8221134Y-14504460D02*
X8202086Y-14513984D01*
X8202086Y-14513984D02*
X8183039Y-14513984D01*
X8183039Y-14513984D02*
X8163991Y-14504460D01*
X8163991Y-14504460D02*
X8154467Y-14494936D01*
X8154467Y-14494936D02*
X8144943Y-14475888D01*
X8144943Y-14475888D02*
X8135420Y-14437793D01*
X8135420Y-14437793D02*
X8135420Y-14390174D01*
X8135420Y-14390174D02*
X8144943Y-14352079D01*
X8144943Y-14352079D02*
X8154467Y-14333031D01*
X8154467Y-14333031D02*
X8163991Y-14323508D01*
X8163991Y-14323508D02*
X8183039Y-14313984D01*
X8335420Y-14513984D02*
X8335420Y-14380650D01*
X8335420Y-14399698D02*
X8344943Y-14390174D01*
X8344943Y-14390174D02*
X8363991Y-14380650D01*
X8363991Y-14380650D02*
X8392563Y-14380650D01*
X8392563Y-14380650D02*
X8411610Y-14390174D01*
X8411610Y-14390174D02*
X8421134Y-14409222D01*
X8421134Y-14409222D02*
X8421134Y-14513984D01*
X8421134Y-14409222D02*
X8430658Y-14390174D01*
X8430658Y-14390174D02*
X8449705Y-14380650D01*
X8449705Y-14380650D02*
X8478277Y-14380650D01*
X8478277Y-14380650D02*
X8497325Y-14390174D01*
X8497325Y-14390174D02*
X8506848Y-14409222D01*
X8506848Y-14409222D02*
X8506848Y-14513984D01*
X8602086Y-14513984D02*
X8602086Y-14380650D01*
X8602086Y-14399698D02*
X8611610Y-14390174D01*
X8611610Y-14390174D02*
X8630658Y-14380650D01*
X8630658Y-14380650D02*
X8659229Y-14380650D01*
X8659229Y-14380650D02*
X8678277Y-14390174D01*
X8678277Y-14390174D02*
X8687801Y-14409222D01*
X8687801Y-14409222D02*
X8687801Y-14513984D01*
X8687801Y-14409222D02*
X8697325Y-14390174D01*
X8697325Y-14390174D02*
X8716372Y-14380650D01*
X8716372Y-14380650D02*
X8744944Y-14380650D01*
X8744944Y-14380650D02*
X8763991Y-14390174D01*
X8763991Y-14390174D02*
X8773515Y-14409222D01*
X8773515Y-14409222D02*
X8773515Y-14513984D01*
X9163991Y-14304460D02*
X8992563Y-14561603D01*
X9421134Y-14313984D02*
X9440182Y-14313984D01*
X9440182Y-14313984D02*
X9459229Y-14323508D01*
X9459229Y-14323508D02*
X9468753Y-14333031D01*
X9468753Y-14333031D02*
X9478277Y-14352079D01*
X9478277Y-14352079D02*
X9487801Y-14390174D01*
X9487801Y-14390174D02*
X9487801Y-14437793D01*
X9487801Y-14437793D02*
X9478277Y-14475888D01*
X9478277Y-14475888D02*
X9468753Y-14494936D01*
X9468753Y-14494936D02*
X9459229Y-14504460D01*
X9459229Y-14504460D02*
X9440182Y-14513984D01*
X9440182Y-14513984D02*
X9421134Y-14513984D01*
X9421134Y-14513984D02*
X9402087Y-14504460D01*
X9402087Y-14504460D02*
X9392563Y-14494936D01*
X9392563Y-14494936D02*
X9383039Y-14475888D01*
X9383039Y-14475888D02*
X9373515Y-14437793D01*
X9373515Y-14437793D02*
X9373515Y-14390174D01*
X9373515Y-14390174D02*
X9383039Y-14352079D01*
X9383039Y-14352079D02*
X9392563Y-14333031D01*
X9392563Y-14333031D02*
X9402087Y-14323508D01*
X9402087Y-14323508D02*
X9421134Y-14313984D01*
X9573515Y-14494936D02*
X9583039Y-14504460D01*
X9583039Y-14504460D02*
X9573515Y-14513984D01*
X9573515Y-14513984D02*
X9563991Y-14504460D01*
X9563991Y-14504460D02*
X9573515Y-14494936D01*
X9573515Y-14494936D02*
X9573515Y-14513984D01*
X9773515Y-14513984D02*
X9659229Y-14513984D01*
X9716372Y-14513984D02*
X9716372Y-14313984D01*
X9716372Y-14313984D02*
X9697325Y-14342555D01*
X9697325Y-14342555D02*
X9678277Y-14361603D01*
X9678277Y-14361603D02*
X9659229Y-14371127D01*
X9944944Y-14313984D02*
X9906848Y-14313984D01*
X9906848Y-14313984D02*
X9887801Y-14323508D01*
X9887801Y-14323508D02*
X9878277Y-14333031D01*
X9878277Y-14333031D02*
X9859229Y-14361603D01*
X9859229Y-14361603D02*
X9849706Y-14399698D01*
X9849706Y-14399698D02*
X9849706Y-14475888D01*
X9849706Y-14475888D02*
X9859229Y-14494936D01*
X9859229Y-14494936D02*
X9868753Y-14504460D01*
X9868753Y-14504460D02*
X9887801Y-14513984D01*
X9887801Y-14513984D02*
X9925896Y-14513984D01*
X9925896Y-14513984D02*
X9944944Y-14504460D01*
X9944944Y-14504460D02*
X9954468Y-14494936D01*
X9954468Y-14494936D02*
X9963991Y-14475888D01*
X9963991Y-14475888D02*
X9963991Y-14428269D01*
X9963991Y-14428269D02*
X9954468Y-14409222D01*
X9954468Y-14409222D02*
X9944944Y-14399698D01*
X9944944Y-14399698D02*
X9925896Y-14390174D01*
X9925896Y-14390174D02*
X9887801Y-14390174D01*
X9887801Y-14390174D02*
X9868753Y-14399698D01*
X9868753Y-14399698D02*
X9859229Y-14409222D01*
X9859229Y-14409222D02*
X9849706Y-14428269D01*
X10059229Y-14513984D02*
X10097325Y-14513984D01*
X10097325Y-14513984D02*
X10116372Y-14504460D01*
X10116372Y-14504460D02*
X10125896Y-14494936D01*
X10125896Y-14494936D02*
X10144944Y-14466365D01*
X10144944Y-14466365D02*
X10154468Y-14428269D01*
X10154468Y-14428269D02*
X10154468Y-14352079D01*
X10154468Y-14352079D02*
X10144944Y-14333031D01*
X10144944Y-14333031D02*
X10135420Y-14323508D01*
X10135420Y-14323508D02*
X10116372Y-14313984D01*
X10116372Y-14313984D02*
X10078277Y-14313984D01*
X10078277Y-14313984D02*
X10059229Y-14323508D01*
X10059229Y-14323508D02*
X10049706Y-14333031D01*
X10049706Y-14333031D02*
X10040182Y-14352079D01*
X10040182Y-14352079D02*
X10040182Y-14399698D01*
X10040182Y-14399698D02*
X10049706Y-14418746D01*
X10049706Y-14418746D02*
X10059229Y-14428269D01*
X10059229Y-14428269D02*
X10078277Y-14437793D01*
X10078277Y-14437793D02*
X10116372Y-14437793D01*
X10116372Y-14437793D02*
X10135420Y-14428269D01*
X10135420Y-14428269D02*
X10144944Y-14418746D01*
X10144944Y-14418746D02*
X10154468Y-14399698D01*
X10221134Y-14313984D02*
X10344944Y-14313984D01*
X10344944Y-14313984D02*
X10278277Y-14390174D01*
X10278277Y-14390174D02*
X10306849Y-14390174D01*
X10306849Y-14390174D02*
X10325896Y-14399698D01*
X10325896Y-14399698D02*
X10335420Y-14409222D01*
X10335420Y-14409222D02*
X10344944Y-14428269D01*
X10344944Y-14428269D02*
X10344944Y-14475888D01*
X10344944Y-14475888D02*
X10335420Y-14494936D01*
X10335420Y-14494936D02*
X10325896Y-14504460D01*
X10325896Y-14504460D02*
X10306849Y-14513984D01*
X10306849Y-14513984D02*
X10249706Y-14513984D01*
X10249706Y-14513984D02*
X10230658Y-14504460D01*
X10230658Y-14504460D02*
X10221134Y-14494936D01*
X10421134Y-14313984D02*
X10421134Y-14352079D01*
X10497325Y-14313984D02*
X10497325Y-14352079D01*
X10792563Y-14590174D02*
X10783039Y-14580650D01*
X10783039Y-14580650D02*
X10763991Y-14552079D01*
X10763991Y-14552079D02*
X10754468Y-14533031D01*
X10754468Y-14533031D02*
X10744944Y-14504460D01*
X10744944Y-14504460D02*
X10735420Y-14456841D01*
X10735420Y-14456841D02*
X10735420Y-14418746D01*
X10735420Y-14418746D02*
X10744944Y-14371127D01*
X10744944Y-14371127D02*
X10754468Y-14342555D01*
X10754468Y-14342555D02*
X10763991Y-14323508D01*
X10763991Y-14323508D02*
X10783039Y-14294936D01*
X10783039Y-14294936D02*
X10792563Y-14285412D01*
X10973515Y-14513984D02*
X10859230Y-14513984D01*
X10916372Y-14513984D02*
X10916372Y-14313984D01*
X10916372Y-14313984D02*
X10897325Y-14342555D01*
X10897325Y-14342555D02*
X10878277Y-14361603D01*
X10878277Y-14361603D02*
X10859230Y-14371127D01*
X11211610Y-14513984D02*
X11211610Y-14313984D01*
X11297325Y-14513984D02*
X11297325Y-14409222D01*
X11297325Y-14409222D02*
X11287801Y-14390174D01*
X11287801Y-14390174D02*
X11268753Y-14380650D01*
X11268753Y-14380650D02*
X11240182Y-14380650D01*
X11240182Y-14380650D02*
X11221134Y-14390174D01*
X11221134Y-14390174D02*
X11211610Y-14399698D01*
X11421134Y-14513984D02*
X11402087Y-14504460D01*
X11402087Y-14504460D02*
X11392563Y-14494936D01*
X11392563Y-14494936D02*
X11383039Y-14475888D01*
X11383039Y-14475888D02*
X11383039Y-14418746D01*
X11383039Y-14418746D02*
X11392563Y-14399698D01*
X11392563Y-14399698D02*
X11402087Y-14390174D01*
X11402087Y-14390174D02*
X11421134Y-14380650D01*
X11421134Y-14380650D02*
X11449706Y-14380650D01*
X11449706Y-14380650D02*
X11468753Y-14390174D01*
X11468753Y-14390174D02*
X11478277Y-14399698D01*
X11478277Y-14399698D02*
X11487801Y-14418746D01*
X11487801Y-14418746D02*
X11487801Y-14475888D01*
X11487801Y-14475888D02*
X11478277Y-14494936D01*
X11478277Y-14494936D02*
X11468753Y-14504460D01*
X11468753Y-14504460D02*
X11449706Y-14513984D01*
X11449706Y-14513984D02*
X11421134Y-14513984D01*
X11602087Y-14513984D02*
X11583039Y-14504460D01*
X11583039Y-14504460D02*
X11573515Y-14485412D01*
X11573515Y-14485412D02*
X11573515Y-14313984D01*
X11754468Y-14504460D02*
X11735420Y-14513984D01*
X11735420Y-14513984D02*
X11697325Y-14513984D01*
X11697325Y-14513984D02*
X11678277Y-14504460D01*
X11678277Y-14504460D02*
X11668753Y-14485412D01*
X11668753Y-14485412D02*
X11668753Y-14409222D01*
X11668753Y-14409222D02*
X11678277Y-14390174D01*
X11678277Y-14390174D02*
X11697325Y-14380650D01*
X11697325Y-14380650D02*
X11735420Y-14380650D01*
X11735420Y-14380650D02*
X11754468Y-14390174D01*
X11754468Y-14390174D02*
X11763991Y-14409222D01*
X11763991Y-14409222D02*
X11763991Y-14428269D01*
X11763991Y-14428269D02*
X11668753Y-14447317D01*
X11830658Y-14590174D02*
X11840182Y-14580650D01*
X11840182Y-14580650D02*
X11859230Y-14552079D01*
X11859230Y-14552079D02*
X11868753Y-14533031D01*
X11868753Y-14533031D02*
X11878277Y-14504460D01*
X11878277Y-14504460D02*
X11887801Y-14456841D01*
X11887801Y-14456841D02*
X11887801Y-14418746D01*
X11887801Y-14418746D02*
X11878277Y-14371127D01*
X11878277Y-14371127D02*
X11868753Y-14342555D01*
X11868753Y-14342555D02*
X11859230Y-14323508D01*
X11859230Y-14323508D02*
X11840182Y-14294936D01*
X11840182Y-14294936D02*
X11830658Y-14285412D01*
X7117500Y-14642500D02*
X7117500Y-14842500D01*
X7017500Y-14742500D02*
X7217500Y-14742500D01*
X7217500Y-14742500D02*
G75*
G02*
X7017500Y-14742500I-100000J0D01*
G01*
X7017500Y-14742500D02*
G75*
G02*
X7217500Y-14742500I100000J0D01*
G01*
X7573515Y-14633984D02*
X7478277Y-14633984D01*
X7478277Y-14633984D02*
X7468753Y-14729222D01*
X7468753Y-14729222D02*
X7478277Y-14719698D01*
X7478277Y-14719698D02*
X7497324Y-14710174D01*
X7497324Y-14710174D02*
X7544943Y-14710174D01*
X7544943Y-14710174D02*
X7563991Y-14719698D01*
X7563991Y-14719698D02*
X7573515Y-14729222D01*
X7573515Y-14729222D02*
X7583039Y-14748269D01*
X7583039Y-14748269D02*
X7583039Y-14795888D01*
X7583039Y-14795888D02*
X7573515Y-14814936D01*
X7573515Y-14814936D02*
X7563991Y-14824460D01*
X7563991Y-14824460D02*
X7544943Y-14833984D01*
X7544943Y-14833984D02*
X7497324Y-14833984D01*
X7497324Y-14833984D02*
X7478277Y-14824460D01*
X7478277Y-14824460D02*
X7468753Y-14814936D01*
X7668753Y-14814936D02*
X7678277Y-14824460D01*
X7678277Y-14824460D02*
X7668753Y-14833984D01*
X7668753Y-14833984D02*
X7659229Y-14824460D01*
X7659229Y-14824460D02*
X7668753Y-14814936D01*
X7668753Y-14814936D02*
X7668753Y-14833984D01*
X7744943Y-14633984D02*
X7868753Y-14633984D01*
X7868753Y-14633984D02*
X7802086Y-14710174D01*
X7802086Y-14710174D02*
X7830658Y-14710174D01*
X7830658Y-14710174D02*
X7849705Y-14719698D01*
X7849705Y-14719698D02*
X7859229Y-14729222D01*
X7859229Y-14729222D02*
X7868753Y-14748269D01*
X7868753Y-14748269D02*
X7868753Y-14795888D01*
X7868753Y-14795888D02*
X7859229Y-14814936D01*
X7859229Y-14814936D02*
X7849705Y-14824460D01*
X7849705Y-14824460D02*
X7830658Y-14833984D01*
X7830658Y-14833984D02*
X7773515Y-14833984D01*
X7773515Y-14833984D02*
X7754467Y-14824460D01*
X7754467Y-14824460D02*
X7744943Y-14814936D01*
X7992562Y-14633984D02*
X8011610Y-14633984D01*
X8011610Y-14633984D02*
X8030658Y-14643508D01*
X8030658Y-14643508D02*
X8040182Y-14653031D01*
X8040182Y-14653031D02*
X8049705Y-14672079D01*
X8049705Y-14672079D02*
X8059229Y-14710174D01*
X8059229Y-14710174D02*
X8059229Y-14757793D01*
X8059229Y-14757793D02*
X8049705Y-14795888D01*
X8049705Y-14795888D02*
X8040182Y-14814936D01*
X8040182Y-14814936D02*
X8030658Y-14824460D01*
X8030658Y-14824460D02*
X8011610Y-14833984D01*
X8011610Y-14833984D02*
X7992562Y-14833984D01*
X7992562Y-14833984D02*
X7973515Y-14824460D01*
X7973515Y-14824460D02*
X7963991Y-14814936D01*
X7963991Y-14814936D02*
X7954467Y-14795888D01*
X7954467Y-14795888D02*
X7944943Y-14757793D01*
X7944943Y-14757793D02*
X7944943Y-14710174D01*
X7944943Y-14710174D02*
X7954467Y-14672079D01*
X7954467Y-14672079D02*
X7963991Y-14653031D01*
X7963991Y-14653031D02*
X7973515Y-14643508D01*
X7973515Y-14643508D02*
X7992562Y-14633984D01*
X8183039Y-14633984D02*
X8202086Y-14633984D01*
X8202086Y-14633984D02*
X8221134Y-14643508D01*
X8221134Y-14643508D02*
X8230658Y-14653031D01*
X8230658Y-14653031D02*
X8240182Y-14672079D01*
X8240182Y-14672079D02*
X8249705Y-14710174D01*
X8249705Y-14710174D02*
X8249705Y-14757793D01*
X8249705Y-14757793D02*
X8240182Y-14795888D01*
X8240182Y-14795888D02*
X8230658Y-14814936D01*
X8230658Y-14814936D02*
X8221134Y-14824460D01*
X8221134Y-14824460D02*
X8202086Y-14833984D01*
X8202086Y-14833984D02*
X8183039Y-14833984D01*
X8183039Y-14833984D02*
X8163991Y-14824460D01*
X8163991Y-14824460D02*
X8154467Y-14814936D01*
X8154467Y-14814936D02*
X8144943Y-14795888D01*
X8144943Y-14795888D02*
X8135420Y-14757793D01*
X8135420Y-14757793D02*
X8135420Y-14710174D01*
X8135420Y-14710174D02*
X8144943Y-14672079D01*
X8144943Y-14672079D02*
X8154467Y-14653031D01*
X8154467Y-14653031D02*
X8163991Y-14643508D01*
X8163991Y-14643508D02*
X8183039Y-14633984D01*
X8335420Y-14833984D02*
X8335420Y-14700650D01*
X8335420Y-14719698D02*
X8344943Y-14710174D01*
X8344943Y-14710174D02*
X8363991Y-14700650D01*
X8363991Y-14700650D02*
X8392563Y-14700650D01*
X8392563Y-14700650D02*
X8411610Y-14710174D01*
X8411610Y-14710174D02*
X8421134Y-14729222D01*
X8421134Y-14729222D02*
X8421134Y-14833984D01*
X8421134Y-14729222D02*
X8430658Y-14710174D01*
X8430658Y-14710174D02*
X8449705Y-14700650D01*
X8449705Y-14700650D02*
X8478277Y-14700650D01*
X8478277Y-14700650D02*
X8497325Y-14710174D01*
X8497325Y-14710174D02*
X8506848Y-14729222D01*
X8506848Y-14729222D02*
X8506848Y-14833984D01*
X8602086Y-14833984D02*
X8602086Y-14700650D01*
X8602086Y-14719698D02*
X8611610Y-14710174D01*
X8611610Y-14710174D02*
X8630658Y-14700650D01*
X8630658Y-14700650D02*
X8659229Y-14700650D01*
X8659229Y-14700650D02*
X8678277Y-14710174D01*
X8678277Y-14710174D02*
X8687801Y-14729222D01*
X8687801Y-14729222D02*
X8687801Y-14833984D01*
X8687801Y-14729222D02*
X8697325Y-14710174D01*
X8697325Y-14710174D02*
X8716372Y-14700650D01*
X8716372Y-14700650D02*
X8744944Y-14700650D01*
X8744944Y-14700650D02*
X8763991Y-14710174D01*
X8763991Y-14710174D02*
X8773515Y-14729222D01*
X8773515Y-14729222D02*
X8773515Y-14833984D01*
X9163991Y-14624460D02*
X8992563Y-14881603D01*
X9421134Y-14633984D02*
X9440182Y-14633984D01*
X9440182Y-14633984D02*
X9459229Y-14643508D01*
X9459229Y-14643508D02*
X9468753Y-14653031D01*
X9468753Y-14653031D02*
X9478277Y-14672079D01*
X9478277Y-14672079D02*
X9487801Y-14710174D01*
X9487801Y-14710174D02*
X9487801Y-14757793D01*
X9487801Y-14757793D02*
X9478277Y-14795888D01*
X9478277Y-14795888D02*
X9468753Y-14814936D01*
X9468753Y-14814936D02*
X9459229Y-14824460D01*
X9459229Y-14824460D02*
X9440182Y-14833984D01*
X9440182Y-14833984D02*
X9421134Y-14833984D01*
X9421134Y-14833984D02*
X9402087Y-14824460D01*
X9402087Y-14824460D02*
X9392563Y-14814936D01*
X9392563Y-14814936D02*
X9383039Y-14795888D01*
X9383039Y-14795888D02*
X9373515Y-14757793D01*
X9373515Y-14757793D02*
X9373515Y-14710174D01*
X9373515Y-14710174D02*
X9383039Y-14672079D01*
X9383039Y-14672079D02*
X9392563Y-14653031D01*
X9392563Y-14653031D02*
X9402087Y-14643508D01*
X9402087Y-14643508D02*
X9421134Y-14633984D01*
X9573515Y-14814936D02*
X9583039Y-14824460D01*
X9583039Y-14824460D02*
X9573515Y-14833984D01*
X9573515Y-14833984D02*
X9563991Y-14824460D01*
X9563991Y-14824460D02*
X9573515Y-14814936D01*
X9573515Y-14814936D02*
X9573515Y-14833984D01*
X9659229Y-14653031D02*
X9668753Y-14643508D01*
X9668753Y-14643508D02*
X9687801Y-14633984D01*
X9687801Y-14633984D02*
X9735420Y-14633984D01*
X9735420Y-14633984D02*
X9754468Y-14643508D01*
X9754468Y-14643508D02*
X9763991Y-14653031D01*
X9763991Y-14653031D02*
X9773515Y-14672079D01*
X9773515Y-14672079D02*
X9773515Y-14691127D01*
X9773515Y-14691127D02*
X9763991Y-14719698D01*
X9763991Y-14719698D02*
X9649706Y-14833984D01*
X9649706Y-14833984D02*
X9773515Y-14833984D01*
X9897325Y-14633984D02*
X9916372Y-14633984D01*
X9916372Y-14633984D02*
X9935420Y-14643508D01*
X9935420Y-14643508D02*
X9944944Y-14653031D01*
X9944944Y-14653031D02*
X9954468Y-14672079D01*
X9954468Y-14672079D02*
X9963991Y-14710174D01*
X9963991Y-14710174D02*
X9963991Y-14757793D01*
X9963991Y-14757793D02*
X9954468Y-14795888D01*
X9954468Y-14795888D02*
X9944944Y-14814936D01*
X9944944Y-14814936D02*
X9935420Y-14824460D01*
X9935420Y-14824460D02*
X9916372Y-14833984D01*
X9916372Y-14833984D02*
X9897325Y-14833984D01*
X9897325Y-14833984D02*
X9878277Y-14824460D01*
X9878277Y-14824460D02*
X9868753Y-14814936D01*
X9868753Y-14814936D02*
X9859229Y-14795888D01*
X9859229Y-14795888D02*
X9849706Y-14757793D01*
X9849706Y-14757793D02*
X9849706Y-14710174D01*
X9849706Y-14710174D02*
X9859229Y-14672079D01*
X9859229Y-14672079D02*
X9868753Y-14653031D01*
X9868753Y-14653031D02*
X9878277Y-14643508D01*
X9878277Y-14643508D02*
X9897325Y-14633984D01*
X10078277Y-14719698D02*
X10059229Y-14710174D01*
X10059229Y-14710174D02*
X10049706Y-14700650D01*
X10049706Y-14700650D02*
X10040182Y-14681603D01*
X10040182Y-14681603D02*
X10040182Y-14672079D01*
X10040182Y-14672079D02*
X10049706Y-14653031D01*
X10049706Y-14653031D02*
X10059229Y-14643508D01*
X10059229Y-14643508D02*
X10078277Y-14633984D01*
X10078277Y-14633984D02*
X10116372Y-14633984D01*
X10116372Y-14633984D02*
X10135420Y-14643508D01*
X10135420Y-14643508D02*
X10144944Y-14653031D01*
X10144944Y-14653031D02*
X10154468Y-14672079D01*
X10154468Y-14672079D02*
X10154468Y-14681603D01*
X10154468Y-14681603D02*
X10144944Y-14700650D01*
X10144944Y-14700650D02*
X10135420Y-14710174D01*
X10135420Y-14710174D02*
X10116372Y-14719698D01*
X10116372Y-14719698D02*
X10078277Y-14719698D01*
X10078277Y-14719698D02*
X10059229Y-14729222D01*
X10059229Y-14729222D02*
X10049706Y-14738746D01*
X10049706Y-14738746D02*
X10040182Y-14757793D01*
X10040182Y-14757793D02*
X10040182Y-14795888D01*
X10040182Y-14795888D02*
X10049706Y-14814936D01*
X10049706Y-14814936D02*
X10059229Y-14824460D01*
X10059229Y-14824460D02*
X10078277Y-14833984D01*
X10078277Y-14833984D02*
X10116372Y-14833984D01*
X10116372Y-14833984D02*
X10135420Y-14824460D01*
X10135420Y-14824460D02*
X10144944Y-14814936D01*
X10144944Y-14814936D02*
X10154468Y-14795888D01*
X10154468Y-14795888D02*
X10154468Y-14757793D01*
X10154468Y-14757793D02*
X10144944Y-14738746D01*
X10144944Y-14738746D02*
X10135420Y-14729222D01*
X10135420Y-14729222D02*
X10116372Y-14719698D01*
X10221134Y-14633984D02*
X10354468Y-14633984D01*
X10354468Y-14633984D02*
X10268753Y-14833984D01*
X10421134Y-14633984D02*
X10421134Y-14672079D01*
X10497325Y-14633984D02*
X10497325Y-14672079D01*
X10792563Y-14910174D02*
X10783039Y-14900650D01*
X10783039Y-14900650D02*
X10763991Y-14872079D01*
X10763991Y-14872079D02*
X10754468Y-14853031D01*
X10754468Y-14853031D02*
X10744944Y-14824460D01*
X10744944Y-14824460D02*
X10735420Y-14776841D01*
X10735420Y-14776841D02*
X10735420Y-14738746D01*
X10735420Y-14738746D02*
X10744944Y-14691127D01*
X10744944Y-14691127D02*
X10754468Y-14662555D01*
X10754468Y-14662555D02*
X10763991Y-14643508D01*
X10763991Y-14643508D02*
X10783039Y-14614936D01*
X10783039Y-14614936D02*
X10792563Y-14605412D01*
X10973515Y-14833984D02*
X10859230Y-14833984D01*
X10916372Y-14833984D02*
X10916372Y-14633984D01*
X10916372Y-14633984D02*
X10897325Y-14662555D01*
X10897325Y-14662555D02*
X10878277Y-14681603D01*
X10878277Y-14681603D02*
X10859230Y-14691127D01*
X11211610Y-14833984D02*
X11211610Y-14633984D01*
X11297325Y-14833984D02*
X11297325Y-14729222D01*
X11297325Y-14729222D02*
X11287801Y-14710174D01*
X11287801Y-14710174D02*
X11268753Y-14700650D01*
X11268753Y-14700650D02*
X11240182Y-14700650D01*
X11240182Y-14700650D02*
X11221134Y-14710174D01*
X11221134Y-14710174D02*
X11211610Y-14719698D01*
X11421134Y-14833984D02*
X11402087Y-14824460D01*
X11402087Y-14824460D02*
X11392563Y-14814936D01*
X11392563Y-14814936D02*
X11383039Y-14795888D01*
X11383039Y-14795888D02*
X11383039Y-14738746D01*
X11383039Y-14738746D02*
X11392563Y-14719698D01*
X11392563Y-14719698D02*
X11402087Y-14710174D01*
X11402087Y-14710174D02*
X11421134Y-14700650D01*
X11421134Y-14700650D02*
X11449706Y-14700650D01*
X11449706Y-14700650D02*
X11468753Y-14710174D01*
X11468753Y-14710174D02*
X11478277Y-14719698D01*
X11478277Y-14719698D02*
X11487801Y-14738746D01*
X11487801Y-14738746D02*
X11487801Y-14795888D01*
X11487801Y-14795888D02*
X11478277Y-14814936D01*
X11478277Y-14814936D02*
X11468753Y-14824460D01*
X11468753Y-14824460D02*
X11449706Y-14833984D01*
X11449706Y-14833984D02*
X11421134Y-14833984D01*
X11602087Y-14833984D02*
X11583039Y-14824460D01*
X11583039Y-14824460D02*
X11573515Y-14805412D01*
X11573515Y-14805412D02*
X11573515Y-14633984D01*
X11754468Y-14824460D02*
X11735420Y-14833984D01*
X11735420Y-14833984D02*
X11697325Y-14833984D01*
X11697325Y-14833984D02*
X11678277Y-14824460D01*
X11678277Y-14824460D02*
X11668753Y-14805412D01*
X11668753Y-14805412D02*
X11668753Y-14729222D01*
X11668753Y-14729222D02*
X11678277Y-14710174D01*
X11678277Y-14710174D02*
X11697325Y-14700650D01*
X11697325Y-14700650D02*
X11735420Y-14700650D01*
X11735420Y-14700650D02*
X11754468Y-14710174D01*
X11754468Y-14710174D02*
X11763991Y-14729222D01*
X11763991Y-14729222D02*
X11763991Y-14748269D01*
X11763991Y-14748269D02*
X11668753Y-14767317D01*
X11830658Y-14910174D02*
X11840182Y-14900650D01*
X11840182Y-14900650D02*
X11859230Y-14872079D01*
X11859230Y-14872079D02*
X11868753Y-14853031D01*
X11868753Y-14853031D02*
X11878277Y-14824460D01*
X11878277Y-14824460D02*
X11887801Y-14776841D01*
X11887801Y-14776841D02*
X11887801Y-14738746D01*
X11887801Y-14738746D02*
X11878277Y-14691127D01*
X11878277Y-14691127D02*
X11868753Y-14662555D01*
X11868753Y-14662555D02*
X11859230Y-14643508D01*
X11859230Y-14643508D02*
X11840182Y-14614936D01*
X11840182Y-14614936D02*
X11830658Y-14605412D01*
M02*
