G04 #@! TF.GenerationSoftware,KiCad,Pcbnew,9.0.3*
G04 #@! TF.CreationDate,2025-09-04T21:51:02+02:00*
G04 #@! TF.ProjectId,PCB_RULER_IPRL_2025,5043425f-5255-44c4-9552-5f4950524c5f,rev?*
G04 #@! TF.SameCoordinates,Original*
G04 #@! TF.FileFunction,Copper,L2,Bot*
G04 #@! TF.FilePolarity,Positive*
%FSLAX46Y46*%
G04 Gerber Fmt 4.6, Leading zero omitted, Abs format (unit mm)*
G04 Created by KiCad (PCBNEW 9.0.3) date 2025-09-04 21:51:02*
%MOMM*%
%LPD*%
G01*
G04 APERTURE LIST*
G04 #@! TA.AperFunction,ComponentPad*
%ADD10C,5.700000*%
G04 #@! TD*
G04 #@! TA.AperFunction,ConnectorPad*
%ADD11C,9.200000*%
G04 #@! TD*
G04 #@! TA.AperFunction,ComponentPad*
%ADD12C,4.700000*%
G04 #@! TD*
G04 #@! TA.AperFunction,ConnectorPad*
%ADD13C,7.500000*%
G04 #@! TD*
G04 #@! TA.AperFunction,ComponentPad*
%ADD14R,1.000000X1.000000*%
G04 #@! TD*
G04 #@! TA.AperFunction,ComponentPad*
%ADD15C,1.000000*%
G04 #@! TD*
G04 #@! TA.AperFunction,ComponentPad*
%ADD16C,2.600000*%
G04 #@! TD*
G04 #@! TA.AperFunction,ConnectorPad*
%ADD17C,3.800000*%
G04 #@! TD*
G04 #@! TA.AperFunction,ComponentPad*
%ADD18R,1.350000X1.350000*%
G04 #@! TD*
G04 #@! TA.AperFunction,ComponentPad*
%ADD19C,1.350000*%
G04 #@! TD*
G04 #@! TA.AperFunction,ComponentPad*
%ADD20C,3.100000*%
G04 #@! TD*
G04 #@! TA.AperFunction,ConnectorPad*
%ADD21C,4.700000*%
G04 #@! TD*
G04 #@! TA.AperFunction,ComponentPad*
%ADD22R,1.700000X1.700000*%
G04 #@! TD*
G04 #@! TA.AperFunction,ComponentPad*
%ADD23C,1.700000*%
G04 #@! TD*
G04 #@! TA.AperFunction,ComponentPad*
%ADD24R,0.850000X0.850000*%
G04 #@! TD*
G04 #@! TA.AperFunction,ComponentPad*
%ADD25C,0.850000*%
G04 #@! TD*
G04 #@! TA.AperFunction,ComponentPad*
%ADD26C,3.600000*%
G04 #@! TD*
G04 #@! TA.AperFunction,ConnectorPad*
%ADD27C,5.600000*%
G04 #@! TD*
G04 #@! TA.AperFunction,ViaPad*
%ADD28C,0.600000*%
G04 #@! TD*
G04 #@! TA.AperFunction,Conductor*
%ADD29C,0.200000*%
G04 #@! TD*
G04 APERTURE END LIST*
D10*
X194000000Y-94500000D03*
D11*
X194000000Y-94500000D03*
D12*
X194000000Y-105500000D03*
D13*
X194000000Y-105500000D03*
D14*
X201600000Y-109100000D03*
D15*
X201600000Y-107830000D03*
X201600000Y-106560000D03*
X201600000Y-105290000D03*
D16*
X185000000Y-107000000D03*
D17*
X185000000Y-107000000D03*
D18*
X205000000Y-99650000D03*
D19*
X205000000Y-97650000D03*
X205000000Y-95650000D03*
X205000000Y-93650000D03*
D20*
X185000000Y-100500000D03*
D21*
X185000000Y-100500000D03*
D22*
X201600000Y-99400000D03*
D23*
X201600000Y-96860000D03*
X201600000Y-94320000D03*
X201600000Y-91780000D03*
D24*
X205000000Y-108150000D03*
D25*
X205000000Y-107150000D03*
X205000000Y-106150000D03*
X205000000Y-105150000D03*
D26*
X185000000Y-93000000D03*
D27*
X185000000Y-93000000D03*
D28*
X212550000Y-96720000D03*
X213200000Y-91950000D03*
X212400000Y-97800000D03*
X212400000Y-97800000D03*
X215050000Y-98650000D03*
X217800000Y-107580000D03*
X101500000Y-100800000D03*
X108150000Y-96000000D03*
X131700000Y-97150000D03*
X127950000Y-96200000D03*
X112150000Y-96000000D03*
X146700000Y-94400000D03*
X219850000Y-89100000D03*
X217800000Y-106310000D03*
X97500000Y-100800000D03*
X208500000Y-103770000D03*
X125300000Y-96850000D03*
X139150000Y-98250000D03*
X208500000Y-101250000D03*
X208500000Y-105040000D03*
X119350000Y-92700000D03*
X208500000Y-107580000D03*
X116800000Y-100800000D03*
X208500000Y-106310000D03*
X117200000Y-95050000D03*
X104200000Y-100800000D03*
X217800000Y-108850000D03*
X128350000Y-97900000D03*
X208500000Y-102500000D03*
X142750000Y-102150000D03*
X208500000Y-99950000D03*
X85550000Y-106650000D03*
X83700000Y-108100000D03*
X214700000Y-102150000D03*
X212300000Y-98800000D03*
D29*
X213200000Y-91950000D02*
X213200000Y-96070000D01*
X213200000Y-96070000D02*
X212550000Y-96720000D01*
X215050000Y-98650000D02*
X213250000Y-98650000D01*
X213250000Y-98650000D02*
X212400000Y-97800000D01*
X218400000Y-108100000D02*
X218400000Y-110950000D01*
X215352000Y-113998000D02*
X106748000Y-113998000D01*
X217800000Y-107580000D02*
X217880000Y-107580000D01*
X218400000Y-110950000D02*
X215352000Y-113998000D01*
X217880000Y-107580000D02*
X218400000Y-108100000D01*
X101500000Y-108750000D02*
X101500000Y-100800000D01*
X106748000Y-113998000D02*
X101500000Y-108750000D01*
X219850000Y-89100000D02*
X219850000Y-88650000D01*
X216800000Y-85600000D02*
X204302000Y-85600000D01*
X204302000Y-85600000D02*
X204301000Y-85601000D01*
X146700000Y-94400000D02*
X155499000Y-85601000D01*
X130750000Y-96200000D02*
X127950000Y-96200000D01*
X155499000Y-85601000D02*
X204301000Y-85601000D01*
X108150000Y-96000000D02*
X112150000Y-96000000D01*
X131700000Y-97150000D02*
X130750000Y-96200000D01*
X219850000Y-88650000D02*
X216800000Y-85600000D01*
X219000000Y-111900000D02*
X216501000Y-114399000D01*
X217960000Y-106310000D02*
X219000000Y-107350000D01*
X103099000Y-114399000D02*
X97500000Y-108800000D01*
X97500000Y-108800000D02*
X97500000Y-100750000D01*
X217800000Y-106310000D02*
X217960000Y-106310000D01*
X216501000Y-114399000D02*
X103099000Y-114399000D01*
X219000000Y-107350000D02*
X219000000Y-111900000D01*
X207097000Y-105173000D02*
X207097000Y-111603000D01*
X206707000Y-111993000D02*
X140393000Y-111993000D01*
X140393000Y-111993000D02*
X125300000Y-96900000D01*
X207097000Y-111603000D02*
X206707000Y-111993000D01*
X208500000Y-103770000D02*
X207097000Y-105173000D01*
X125300000Y-96900000D02*
X125300000Y-96850000D01*
X206295000Y-110805000D02*
X205909000Y-111191000D01*
X206295000Y-103455000D02*
X206295000Y-110805000D01*
X205909000Y-111191000D02*
X150141000Y-111191000D01*
X208500000Y-101250000D02*
X206295000Y-103455000D01*
X150141000Y-111191000D02*
X139150000Y-100200000D01*
X139150000Y-100200000D02*
X139150000Y-98250000D01*
X207498000Y-106042000D02*
X208500000Y-105040000D01*
X119550000Y-92700000D02*
X139244000Y-112394000D01*
X119350000Y-92700000D02*
X119550000Y-92700000D01*
X207498000Y-111902000D02*
X207498000Y-106042000D01*
X139244000Y-112394000D02*
X207006000Y-112394000D01*
X207006000Y-112394000D02*
X207498000Y-111902000D01*
X207854000Y-113196000D02*
X129196000Y-113196000D01*
X129196000Y-113196000D02*
X116800000Y-100800000D01*
X208500000Y-112550000D02*
X207854000Y-113196000D01*
X208500000Y-107580000D02*
X208500000Y-112550000D01*
X136045000Y-112795000D02*
X207687900Y-112795000D01*
X208489000Y-106310000D02*
X207899000Y-106900000D01*
X117200000Y-95050000D02*
X118300000Y-95050000D01*
X118300000Y-95050000D02*
X136045000Y-112795000D01*
X208500000Y-106310000D02*
X208489000Y-106310000D01*
X207687900Y-112795000D02*
X207899000Y-112583900D01*
X207899000Y-112583900D02*
X207899000Y-106900000D01*
X217800000Y-110300000D02*
X214503000Y-113597000D01*
X214503000Y-113597000D02*
X108947000Y-113597000D01*
X104200000Y-108850000D02*
X104200000Y-100900000D01*
X108947000Y-113597000D02*
X104200000Y-108850000D01*
X217800000Y-108850000D02*
X217800000Y-110300000D01*
X206358000Y-111592000D02*
X206696000Y-111254000D01*
X206696000Y-111254000D02*
X206696000Y-104304000D01*
X142042000Y-111592000D02*
X206358000Y-111592000D01*
X128350000Y-97900000D02*
X142042000Y-111592000D01*
X206696000Y-104304000D02*
X208500000Y-102500000D01*
X205894000Y-110406000D02*
X205894000Y-102556000D01*
X142750000Y-102150000D02*
X151390000Y-110790000D01*
X158290000Y-110790000D02*
X205510000Y-110790000D01*
X205510000Y-110790000D02*
X205894000Y-110406000D01*
X151390000Y-110790000D02*
X158290000Y-110790000D01*
X205894000Y-102556000D02*
X208500000Y-99950000D01*
X83700000Y-108000000D02*
X83700000Y-108100000D01*
X85050000Y-106650000D02*
X83700000Y-108000000D01*
X85550000Y-106650000D02*
X85050000Y-106650000D01*
X212400000Y-98800000D02*
X214700000Y-101100000D01*
X212300000Y-98800000D02*
X212400000Y-98800000D01*
X214700000Y-101100000D02*
X214700000Y-102150000D01*
M02*
