G04 #@! TF.GenerationSoftware,KiCad,Pcbnew,9.0.3*
G04 #@! TF.CreationDate,2025-09-05T00:21:41+02:00*
G04 #@! TF.ProjectId,PCB_RULER_IPRL_2025,5043425f-5255-44c4-9552-5f4950524c5f,rev?*
G04 #@! TF.SameCoordinates,Original*
G04 #@! TF.FileFunction,Paste,Top*
G04 #@! TF.FilePolarity,Positive*
%FSLAX46Y46*%
G04 Gerber Fmt 4.6, Leading zero omitted, Abs format (unit mm)*
G04 Created by KiCad (PCBNEW 9.0.3) date 2025-09-05 00:21:41*
%MOMM*%
%LPD*%
G01*
G04 APERTURE LIST*
G04 Aperture macros list*
%AMRoundRect*
0 Rectangle with rounded corners*
0 $1 Rounding radius*
0 $2 $3 $4 $5 $6 $7 $8 $9 X,Y pos of 4 corners*
0 Add a 4 corners polygon primitive as box body*
4,1,4,$2,$3,$4,$5,$6,$7,$8,$9,$2,$3,0*
0 Add four circle primitives for the rounded corners*
1,1,$1+$1,$2,$3*
1,1,$1+$1,$4,$5*
1,1,$1+$1,$6,$7*
1,1,$1+$1,$8,$9*
0 Add four rect primitives between the rounded corners*
20,1,$1+$1,$2,$3,$4,$5,0*
20,1,$1+$1,$4,$5,$6,$7,0*
20,1,$1+$1,$6,$7,$8,$9,0*
20,1,$1+$1,$8,$9,$2,$3,0*%
G04 Aperture macros list end*
%ADD10RoundRect,0.147500X-0.147500X-0.172500X0.147500X-0.172500X0.147500X0.172500X-0.147500X0.172500X0*%
%ADD11RoundRect,0.135000X-0.185000X0.135000X-0.185000X-0.135000X0.185000X-0.135000X0.185000X0.135000X0*%
%ADD12RoundRect,0.175000X0.425000X-0.175000X0.425000X0.175000X-0.425000X0.175000X-0.425000X-0.175000X0*%
%ADD13RoundRect,0.190000X-0.410000X0.190000X-0.410000X-0.190000X0.410000X-0.190000X0.410000X0.190000X0*%
%ADD14RoundRect,0.200000X-0.400000X0.200000X-0.400000X-0.200000X0.400000X-0.200000X0.400000X0.200000X0*%
%ADD15RoundRect,0.175000X-0.425000X0.175000X-0.425000X-0.175000X0.425000X-0.175000X0.425000X0.175000X0*%
%ADD16RoundRect,0.190000X0.410000X-0.190000X0.410000X0.190000X-0.410000X0.190000X-0.410000X-0.190000X0*%
%ADD17RoundRect,0.200000X0.400000X-0.200000X0.400000X0.200000X-0.400000X0.200000X-0.400000X-0.200000X0*%
%ADD18RoundRect,0.250000X0.425000X-0.650000X0.425000X0.650000X-0.425000X0.650000X-0.425000X-0.650000X0*%
%ADD19RoundRect,0.250000X0.500000X-0.650000X0.500000X0.650000X-0.500000X0.650000X-0.500000X-0.650000X0*%
%ADD20RoundRect,0.150000X-0.850000X-0.150000X0.850000X-0.150000X0.850000X0.150000X-0.850000X0.150000X0*%
%ADD21RoundRect,0.147500X-0.172500X0.147500X-0.172500X-0.147500X0.172500X-0.147500X0.172500X0.147500X0*%
%ADD22RoundRect,0.135000X0.185000X-0.135000X0.185000X0.135000X-0.185000X0.135000X-0.185000X-0.135000X0*%
%ADD23RoundRect,0.150000X-0.825000X-0.150000X0.825000X-0.150000X0.825000X0.150000X-0.825000X0.150000X0*%
%ADD24RoundRect,0.135000X0.135000X0.185000X-0.135000X0.185000X-0.135000X-0.185000X0.135000X-0.185000X0*%
%ADD25RoundRect,0.147500X0.147500X0.172500X-0.147500X0.172500X-0.147500X-0.172500X0.147500X-0.172500X0*%
%ADD26RoundRect,0.140000X0.170000X-0.140000X0.170000X0.140000X-0.170000X0.140000X-0.170000X-0.140000X0*%
%ADD27R,0.450000X1.425000*%
%ADD28RoundRect,0.140000X-0.170000X0.140000X-0.170000X-0.140000X0.170000X-0.140000X0.170000X0.140000X0*%
G04 APERTURE END LIST*
D10*
X115515000Y-100200000D03*
X116485000Y-100200000D03*
D11*
X213900000Y-96690000D03*
X213900000Y-97710000D03*
D12*
X220967500Y-100500000D03*
D13*
X220967500Y-98480000D03*
D14*
X220967500Y-97250000D03*
D15*
X220967500Y-99500000D03*
D16*
X220967500Y-101520000D03*
D17*
X220967500Y-102750000D03*
D18*
X221022500Y-105125000D03*
D19*
X224602500Y-105125000D03*
D18*
X221022500Y-94875000D03*
D19*
X224602500Y-94875000D03*
D20*
X211050000Y-99960000D03*
X211050000Y-101230000D03*
X211050000Y-102500000D03*
X211050000Y-103770000D03*
X211050000Y-105040000D03*
X211050000Y-106310000D03*
X211050000Y-107580000D03*
X211050000Y-108850000D03*
X216050000Y-108850000D03*
X216050000Y-107580000D03*
X216050000Y-106310000D03*
X216050000Y-105040000D03*
X216050000Y-103770000D03*
X216050000Y-102500000D03*
X216050000Y-101230000D03*
X216050000Y-99960000D03*
D10*
X126515000Y-97950000D03*
X127485000Y-97950000D03*
D21*
X90467750Y-107865000D03*
X90467750Y-108835000D03*
D22*
X219850000Y-91160000D03*
X219850000Y-90140000D03*
D23*
X211350000Y-90700000D03*
X211350000Y-91970000D03*
X211350000Y-93240000D03*
X211350000Y-94510000D03*
X216300000Y-94510000D03*
X216300000Y-93240000D03*
X216300000Y-91970000D03*
X216300000Y-90700000D03*
D24*
X221810000Y-107650000D03*
X220790000Y-107650000D03*
D11*
X216450000Y-96640000D03*
X216450000Y-97660000D03*
D21*
X104400000Y-99030000D03*
X104400000Y-100000000D03*
D25*
X221785000Y-108800000D03*
X220815000Y-108800000D03*
D10*
X123515000Y-96900000D03*
X124485000Y-96900000D03*
D21*
X97550000Y-99115000D03*
X97550000Y-100085000D03*
D10*
X138165000Y-97550000D03*
X139135000Y-97550000D03*
D26*
X85550000Y-108380000D03*
X85550000Y-107420000D03*
D21*
X101500000Y-99115000D03*
X101500000Y-100085000D03*
D27*
X86992750Y-108362000D03*
X87642750Y-108362000D03*
X88292750Y-108362000D03*
X88942750Y-108362000D03*
X88942750Y-103938000D03*
X88292750Y-103938000D03*
X87642750Y-103938000D03*
X86992750Y-103938000D03*
D10*
X115515000Y-95050000D03*
X116485000Y-95050000D03*
D11*
X90467750Y-103440000D03*
X90467750Y-104460000D03*
D10*
X117515000Y-92700000D03*
X118485000Y-92700000D03*
D28*
X211350000Y-96720000D03*
X211350000Y-97680000D03*
D10*
X141815000Y-101400000D03*
X142785000Y-101400000D03*
D26*
X90467750Y-106560000D03*
X90467750Y-105600000D03*
M02*
