G04 #@! TF.GenerationSoftware,KiCad,Pcbnew,9.0.0*
G04 #@! TF.CreationDate,2025-04-21T22:07:49+01:00*
G04 #@! TF.ProjectId,LED_Hub,4c45445f-4875-4622-9e6b-696361645f70,rev?*
G04 #@! TF.SameCoordinates,Original*
G04 #@! TF.FileFunction,Soldermask,Bot*
G04 #@! TF.FilePolarity,Negative*
%FSLAX46Y46*%
G04 Gerber Fmt 4.6, Leading zero omitted, Abs format (unit mm)*
G04 Created by KiCad (PCBNEW 9.0.0) date 2025-04-21 22:07:49*
%MOMM*%
%LPD*%
G01*
G04 APERTURE LIST*
G04 Aperture macros list*
%AMRoundRect*
0 Rectangle with rounded corners*
0 $1 Rounding radius*
0 $2 $3 $4 $5 $6 $7 $8 $9 X,Y pos of 4 corners*
0 Add a 4 corners polygon primitive as box body*
4,1,4,$2,$3,$4,$5,$6,$7,$8,$9,$2,$3,0*
0 Add four circle primitives for the rounded corners*
1,1,$1+$1,$2,$3*
1,1,$1+$1,$4,$5*
1,1,$1+$1,$6,$7*
1,1,$1+$1,$8,$9*
0 Add four rect primitives between the rounded corners*
20,1,$1+$1,$2,$3,$4,$5,0*
20,1,$1+$1,$4,$5,$6,$7,0*
20,1,$1+$1,$6,$7,$8,$9,0*
20,1,$1+$1,$8,$9,$2,$3,0*%
G04 Aperture macros list end*
%ADD10C,3.200000*%
%ADD11RoundRect,0.250001X-1.149999X1.149999X-1.149999X-1.149999X1.149999X-1.149999X1.149999X1.149999X0*%
%ADD12C,2.800000*%
%ADD13C,1.200000*%
%ADD14RoundRect,0.250000X-0.600000X-0.750000X0.600000X-0.750000X0.600000X0.750000X-0.600000X0.750000X0*%
%ADD15O,1.700000X2.000000*%
%ADD16R,1.530000X1.530000*%
%ADD17C,1.530000*%
%ADD18RoundRect,0.250001X1.149999X-1.149999X1.149999X1.149999X-1.149999X1.149999X-1.149999X-1.149999X0*%
%ADD19C,2.500000*%
G04 APERTURE END LIST*
D10*
X137500000Y-140000000D03*
D11*
X117425000Y-60500000D03*
D12*
X117425000Y-65500000D03*
D11*
X191950000Y-96000000D03*
D12*
X191950000Y-101000000D03*
D13*
X156350000Y-136750000D03*
D14*
X157950000Y-134750000D03*
D15*
X160450000Y-134750000D03*
D11*
X117425000Y-48750000D03*
D12*
X117425000Y-53750000D03*
D16*
X144565000Y-52225000D03*
D17*
X144565000Y-54765000D03*
X144565000Y-57305000D03*
X144565000Y-59845000D03*
X144565000Y-62385000D03*
X144565000Y-64925000D03*
X144565000Y-67465000D03*
X144565000Y-70005000D03*
X144565000Y-72545000D03*
X144565000Y-75085000D03*
X144565000Y-77625000D03*
X144565000Y-80165000D03*
X144565000Y-82705000D03*
X144565000Y-85245000D03*
X144565000Y-87785000D03*
X144565000Y-90325000D03*
X144565000Y-92865000D03*
X144565000Y-95405000D03*
X144565000Y-97945000D03*
X144565000Y-100485000D03*
X144565000Y-103025000D03*
X144565000Y-105565000D03*
X169975000Y-52225000D03*
X169975000Y-54765000D03*
X169975000Y-57305000D03*
X169975000Y-59845000D03*
X169975000Y-62385000D03*
X169975000Y-64925000D03*
X169975000Y-67465000D03*
X169975000Y-70005000D03*
X169975000Y-72545000D03*
X169975000Y-75085000D03*
X169975000Y-77625000D03*
X169975000Y-80165000D03*
X169975000Y-82705000D03*
X169975000Y-85245000D03*
X169975000Y-87785000D03*
X169975000Y-90325000D03*
X169975000Y-92865000D03*
X169975000Y-95405000D03*
X169975000Y-97945000D03*
X169975000Y-100485000D03*
X169975000Y-103025000D03*
X169975000Y-105565000D03*
D11*
X191950000Y-84125000D03*
D12*
X191950000Y-89125000D03*
D18*
X126725000Y-65000000D03*
D12*
X126725000Y-60000000D03*
D18*
X201250000Y-124125000D03*
D12*
X201250000Y-119125000D03*
D18*
X201250000Y-112250000D03*
D12*
X201250000Y-107250000D03*
D18*
X201250000Y-65000000D03*
D12*
X201250000Y-60000000D03*
D18*
X201125000Y-135875000D03*
D12*
X201125000Y-130875000D03*
D18*
X126725000Y-88625000D03*
D12*
X126725000Y-83625000D03*
D11*
X117425000Y-131375000D03*
D12*
X117425000Y-136375000D03*
D18*
X201250000Y-76875000D03*
D12*
X201250000Y-71875000D03*
D18*
X126725000Y-53250000D03*
D12*
X126725000Y-48250000D03*
D18*
X126725000Y-76875000D03*
D12*
X126725000Y-71875000D03*
D11*
X191950000Y-131375000D03*
D12*
X191950000Y-136375000D03*
D11*
X117425000Y-107750000D03*
D12*
X117425000Y-112750000D03*
D11*
X191950000Y-107750000D03*
D12*
X191950000Y-112750000D03*
D10*
X137500000Y-45000000D03*
D18*
X126725000Y-100500000D03*
D12*
X126725000Y-95500000D03*
D10*
X182500000Y-45000000D03*
X182500000Y-140000000D03*
D18*
X126725000Y-112250000D03*
D12*
X126725000Y-107250000D03*
D18*
X201250000Y-53250000D03*
D12*
X201250000Y-48250000D03*
D11*
X191950000Y-48750000D03*
D12*
X191950000Y-53750000D03*
D11*
X191950000Y-60500000D03*
D12*
X191950000Y-65500000D03*
D19*
X157500000Y-119050000D03*
X157500000Y-128250000D03*
X142300000Y-119050000D03*
X142300000Y-128250000D03*
D18*
X126725000Y-124125000D03*
D12*
X126725000Y-119125000D03*
D18*
X201250000Y-100500000D03*
D12*
X201250000Y-95500000D03*
D11*
X117425000Y-119625000D03*
D12*
X117425000Y-124625000D03*
D13*
X147475000Y-136825000D03*
D14*
X149075000Y-134825000D03*
D15*
X151575000Y-134825000D03*
D18*
X201250000Y-88625000D03*
D12*
X201250000Y-83625000D03*
D11*
X117425000Y-84125000D03*
D12*
X117425000Y-89125000D03*
D11*
X191950000Y-119625000D03*
D12*
X191950000Y-124625000D03*
D18*
X126725000Y-135875000D03*
D12*
X126725000Y-130875000D03*
D11*
X117425000Y-96000000D03*
D12*
X117425000Y-101000000D03*
D11*
X191950000Y-72375000D03*
D12*
X191950000Y-77375000D03*
D11*
X117425000Y-72375000D03*
D12*
X117425000Y-77375000D03*
M02*
