G04 #@! TF.GenerationSoftware,KiCad,Pcbnew,9.0.0*
G04 #@! TF.CreationDate,2025-04-21T22:07:48+01:00*
G04 #@! TF.ProjectId,LED_Hub,4c45445f-4875-4622-9e6b-696361645f70,rev?*
G04 #@! TF.SameCoordinates,Original*
G04 #@! TF.FileFunction,Paste,Top*
G04 #@! TF.FilePolarity,Positive*
%FSLAX46Y46*%
G04 Gerber Fmt 4.6, Leading zero omitted, Abs format (unit mm)*
G04 Created by KiCad (PCBNEW 9.0.0) date 2025-04-21 22:07:48*
%MOMM*%
%LPD*%
G01*
G04 APERTURE LIST*
G04 Aperture macros list*
%AMRoundRect*
0 Rectangle with rounded corners*
0 $1 Rounding radius*
0 $2 $3 $4 $5 $6 $7 $8 $9 X,Y pos of 4 corners*
0 Add a 4 corners polygon primitive as box body*
4,1,4,$2,$3,$4,$5,$6,$7,$8,$9,$2,$3,0*
0 Add four circle primitives for the rounded corners*
1,1,$1+$1,$2,$3*
1,1,$1+$1,$4,$5*
1,1,$1+$1,$6,$7*
1,1,$1+$1,$8,$9*
0 Add four rect primitives between the rounded corners*
20,1,$1+$1,$2,$3,$4,$5,0*
20,1,$1+$1,$4,$5,$6,$7,0*
20,1,$1+$1,$6,$7,$8,$9,0*
20,1,$1+$1,$8,$9,$2,$3,0*%
G04 Aperture macros list end*
%ADD10RoundRect,0.250000X-0.650000X0.325000X-0.650000X-0.325000X0.650000X-0.325000X0.650000X0.325000X0*%
%ADD11RoundRect,0.250000X-0.625000X0.375000X-0.625000X-0.375000X0.625000X-0.375000X0.625000X0.375000X0*%
%ADD12R,0.800000X0.500000*%
%ADD13R,0.800000X0.400000*%
G04 APERTURE END LIST*
D10*
X140120000Y-52355000D03*
X140120000Y-55305000D03*
D11*
X136750000Y-52450000D03*
X136750000Y-55250000D03*
D12*
X140445000Y-64265000D03*
D13*
X140445000Y-63465000D03*
X140445000Y-62665000D03*
D12*
X140445000Y-61865000D03*
X138645000Y-61865000D03*
D13*
X138645000Y-62665000D03*
X138645000Y-63465000D03*
D12*
X138645000Y-64265000D03*
X176645000Y-71865000D03*
D13*
X176645000Y-72665000D03*
X176645000Y-73465000D03*
D12*
X176645000Y-74265000D03*
X178445000Y-74265000D03*
D13*
X178445000Y-73465000D03*
X178445000Y-72665000D03*
D12*
X178445000Y-71865000D03*
X176645000Y-61865000D03*
D13*
X176645000Y-62665000D03*
X176645000Y-63465000D03*
D12*
X176645000Y-64265000D03*
X178445000Y-64265000D03*
D13*
X178445000Y-63465000D03*
X178445000Y-62665000D03*
D12*
X178445000Y-61865000D03*
X140445000Y-94265000D03*
D13*
X140445000Y-93465000D03*
X140445000Y-92665000D03*
D12*
X140445000Y-91865000D03*
X138645000Y-91865000D03*
D13*
X138645000Y-92665000D03*
X138645000Y-93465000D03*
D12*
X138645000Y-94265000D03*
X140445000Y-84265000D03*
D13*
X140445000Y-83465000D03*
X140445000Y-82665000D03*
D12*
X140445000Y-81865000D03*
X138645000Y-81865000D03*
D13*
X138645000Y-82665000D03*
X138645000Y-83465000D03*
D12*
X138645000Y-84265000D03*
X140445000Y-74265000D03*
D13*
X140445000Y-73465000D03*
X140445000Y-72665000D03*
D12*
X140445000Y-71865000D03*
X138645000Y-71865000D03*
D13*
X138645000Y-72665000D03*
X138645000Y-73465000D03*
D12*
X138645000Y-74265000D03*
X176645000Y-81865000D03*
D13*
X176645000Y-82665000D03*
X176645000Y-83465000D03*
D12*
X176645000Y-84265000D03*
X178445000Y-84265000D03*
D13*
X178445000Y-83465000D03*
X178445000Y-82665000D03*
D12*
X178445000Y-81865000D03*
X176645000Y-91865000D03*
D13*
X176645000Y-92665000D03*
X176645000Y-93465000D03*
D12*
X176645000Y-94265000D03*
X178445000Y-94265000D03*
D13*
X178445000Y-93465000D03*
X178445000Y-92665000D03*
D12*
X178445000Y-91865000D03*
M02*
