G04 #@! TF.GenerationSoftware,KiCad,Pcbnew,9.0.0*
G04 #@! TF.CreationDate,2025-04-21T19:14:25+01:00*
G04 #@! TF.ProjectId,LED_Hub,4c45445f-4875-4622-9e6b-696361645f70,rev?*
G04 #@! TF.SameCoordinates,Original*
G04 #@! TF.FileFunction,Paste,Top*
G04 #@! TF.FilePolarity,Positive*
%FSLAX46Y46*%
G04 Gerber Fmt 4.6, Leading zero omitted, Abs format (unit mm)*
G04 Created by KiCad (PCBNEW 9.0.0) date 2025-04-21 19:14:25*
%MOMM*%
%LPD*%
G01*
G04 APERTURE LIST*
%ADD10R,0.800000X0.500000*%
%ADD11R,0.800000X0.400000*%
G04 APERTURE END LIST*
D10*
X138645000Y-94265000D03*
D11*
X138645000Y-93465000D03*
X138645000Y-92665000D03*
D10*
X138645000Y-91865000D03*
X140445000Y-91865000D03*
D11*
X140445000Y-92665000D03*
X140445000Y-93465000D03*
D10*
X140445000Y-94265000D03*
X140445000Y-64265000D03*
D11*
X140445000Y-63465000D03*
X140445000Y-62665000D03*
D10*
X140445000Y-61865000D03*
X138645000Y-61865000D03*
D11*
X138645000Y-62665000D03*
X138645000Y-63465000D03*
D10*
X138645000Y-64265000D03*
X176645000Y-71865000D03*
D11*
X176645000Y-72665000D03*
X176645000Y-73465000D03*
D10*
X176645000Y-74265000D03*
X178445000Y-74265000D03*
D11*
X178445000Y-73465000D03*
X178445000Y-72665000D03*
D10*
X178445000Y-71865000D03*
X176645000Y-61865000D03*
D11*
X176645000Y-62665000D03*
X176645000Y-63465000D03*
D10*
X176645000Y-64265000D03*
X178445000Y-64265000D03*
D11*
X178445000Y-63465000D03*
X178445000Y-62665000D03*
D10*
X178445000Y-61865000D03*
X140445000Y-84265000D03*
D11*
X140445000Y-83465000D03*
X140445000Y-82665000D03*
D10*
X140445000Y-81865000D03*
X138645000Y-81865000D03*
D11*
X138645000Y-82665000D03*
X138645000Y-83465000D03*
D10*
X138645000Y-84265000D03*
X140445000Y-74265000D03*
D11*
X140445000Y-73465000D03*
X140445000Y-72665000D03*
D10*
X140445000Y-71865000D03*
X138645000Y-71865000D03*
D11*
X138645000Y-72665000D03*
X138645000Y-73465000D03*
D10*
X138645000Y-74265000D03*
X176645000Y-81865000D03*
D11*
X176645000Y-82665000D03*
X176645000Y-83465000D03*
D10*
X176645000Y-84265000D03*
X178445000Y-84265000D03*
D11*
X178445000Y-83465000D03*
X178445000Y-82665000D03*
D10*
X178445000Y-81865000D03*
X176645000Y-91865000D03*
D11*
X176645000Y-92665000D03*
X176645000Y-93465000D03*
D10*
X176645000Y-94265000D03*
X178445000Y-94265000D03*
D11*
X178445000Y-93465000D03*
X178445000Y-92665000D03*
D10*
X178445000Y-91865000D03*
M02*
