G04 #@! TF.GenerationSoftware,KiCad,Pcbnew,9.0.0*
G04 #@! TF.CreationDate,2025-04-21T19:14:25+01:00*
G04 #@! TF.ProjectId,LED_Hub,4c45445f-4875-4622-9e6b-696361645f70,rev?*
G04 #@! TF.SameCoordinates,Original*
G04 #@! TF.FileFunction,Legend,Top*
G04 #@! TF.FilePolarity,Positive*
%FSLAX46Y46*%
G04 Gerber Fmt 4.6, Leading zero omitted, Abs format (unit mm)*
G04 Created by KiCad (PCBNEW 9.0.0) date 2025-04-21 19:14:25*
%MOMM*%
%LPD*%
G01*
G04 APERTURE LIST*
G04 Aperture macros list*
%AMRoundRect*
0 Rectangle with rounded corners*
0 $1 Rounding radius*
0 $2 $3 $4 $5 $6 $7 $8 $9 X,Y pos of 4 corners*
0 Add a 4 corners polygon primitive as box body*
4,1,4,$2,$3,$4,$5,$6,$7,$8,$9,$2,$3,0*
0 Add four circle primitives for the rounded corners*
1,1,$1+$1,$2,$3*
1,1,$1+$1,$4,$5*
1,1,$1+$1,$6,$7*
1,1,$1+$1,$8,$9*
0 Add four rect primitives between the rounded corners*
20,1,$1+$1,$2,$3,$4,$5,0*
20,1,$1+$1,$4,$5,$6,$7,0*
20,1,$1+$1,$6,$7,$8,$9,0*
20,1,$1+$1,$8,$9,$2,$3,0*%
G04 Aperture macros list end*
%ADD10C,0.100000*%
%ADD11C,0.150000*%
%ADD12C,0.000000*%
%ADD13C,0.120000*%
%ADD14C,0.127000*%
%ADD15C,0.200000*%
%ADD16C,3.200000*%
%ADD17C,2.800000*%
%ADD18RoundRect,0.250001X-1.149999X1.149999X-1.149999X-1.149999X1.149999X-1.149999X1.149999X1.149999X0*%
%ADD19RoundRect,0.250001X1.149999X-1.149999X1.149999X1.149999X-1.149999X1.149999X-1.149999X-1.149999X0*%
%ADD20R,0.800000X0.500000*%
%ADD21R,0.800000X0.400000*%
%ADD22C,1.200000*%
%ADD23RoundRect,0.250000X-0.600000X-0.750000X0.600000X-0.750000X0.600000X0.750000X-0.600000X0.750000X0*%
%ADD24O,1.700000X2.000000*%
%ADD25RoundRect,0.102000X-0.765000X-0.765000X0.765000X-0.765000X0.765000X0.765000X-0.765000X0.765000X0*%
%ADD26C,1.734000*%
%ADD27C,2.500000*%
G04 APERTURE END LIST*
D10*
X206153884Y-48141466D02*
X206915789Y-48141466D01*
X206534836Y-48522419D02*
X206534836Y-47760514D01*
X185603884Y-54091466D02*
X186365789Y-54091466D01*
X185984836Y-54472419D02*
X185984836Y-53710514D01*
X132478884Y-48216466D02*
X133240789Y-48216466D01*
X132859836Y-48597419D02*
X132859836Y-47835514D01*
X111103884Y-53816466D02*
X111865789Y-53816466D01*
X111484836Y-54197419D02*
X111484836Y-53435514D01*
D11*
X138854523Y-96319819D02*
X138521190Y-95843628D01*
X138283095Y-96319819D02*
X138283095Y-95319819D01*
X138283095Y-95319819D02*
X138664047Y-95319819D01*
X138664047Y-95319819D02*
X138759285Y-95367438D01*
X138759285Y-95367438D02*
X138806904Y-95415057D01*
X138806904Y-95415057D02*
X138854523Y-95510295D01*
X138854523Y-95510295D02*
X138854523Y-95653152D01*
X138854523Y-95653152D02*
X138806904Y-95748390D01*
X138806904Y-95748390D02*
X138759285Y-95796009D01*
X138759285Y-95796009D02*
X138664047Y-95843628D01*
X138664047Y-95843628D02*
X138283095Y-95843628D01*
X139283095Y-96319819D02*
X139283095Y-95319819D01*
X139283095Y-95319819D02*
X139854523Y-96319819D01*
X139854523Y-96319819D02*
X139854523Y-95319819D01*
X140235476Y-95319819D02*
X140854523Y-95319819D01*
X140854523Y-95319819D02*
X140521190Y-95700771D01*
X140521190Y-95700771D02*
X140664047Y-95700771D01*
X140664047Y-95700771D02*
X140759285Y-95748390D01*
X140759285Y-95748390D02*
X140806904Y-95796009D01*
X140806904Y-95796009D02*
X140854523Y-95891247D01*
X140854523Y-95891247D02*
X140854523Y-96129342D01*
X140854523Y-96129342D02*
X140806904Y-96224580D01*
X140806904Y-96224580D02*
X140759285Y-96272200D01*
X140759285Y-96272200D02*
X140664047Y-96319819D01*
X140664047Y-96319819D02*
X140378333Y-96319819D01*
X140378333Y-96319819D02*
X140283095Y-96272200D01*
X140283095Y-96272200D02*
X140235476Y-96224580D01*
X138854523Y-66319819D02*
X138521190Y-65843628D01*
X138283095Y-66319819D02*
X138283095Y-65319819D01*
X138283095Y-65319819D02*
X138664047Y-65319819D01*
X138664047Y-65319819D02*
X138759285Y-65367438D01*
X138759285Y-65367438D02*
X138806904Y-65415057D01*
X138806904Y-65415057D02*
X138854523Y-65510295D01*
X138854523Y-65510295D02*
X138854523Y-65653152D01*
X138854523Y-65653152D02*
X138806904Y-65748390D01*
X138806904Y-65748390D02*
X138759285Y-65796009D01*
X138759285Y-65796009D02*
X138664047Y-65843628D01*
X138664047Y-65843628D02*
X138283095Y-65843628D01*
X139283095Y-66319819D02*
X139283095Y-65319819D01*
X139283095Y-65319819D02*
X139854523Y-66319819D01*
X139854523Y-66319819D02*
X139854523Y-65319819D01*
X140283095Y-65415057D02*
X140330714Y-65367438D01*
X140330714Y-65367438D02*
X140425952Y-65319819D01*
X140425952Y-65319819D02*
X140664047Y-65319819D01*
X140664047Y-65319819D02*
X140759285Y-65367438D01*
X140759285Y-65367438D02*
X140806904Y-65415057D01*
X140806904Y-65415057D02*
X140854523Y-65510295D01*
X140854523Y-65510295D02*
X140854523Y-65605533D01*
X140854523Y-65605533D02*
X140806904Y-65748390D01*
X140806904Y-65748390D02*
X140235476Y-66319819D01*
X140235476Y-66319819D02*
X140854523Y-66319819D01*
X176854523Y-70719819D02*
X176521190Y-70243628D01*
X176283095Y-70719819D02*
X176283095Y-69719819D01*
X176283095Y-69719819D02*
X176664047Y-69719819D01*
X176664047Y-69719819D02*
X176759285Y-69767438D01*
X176759285Y-69767438D02*
X176806904Y-69815057D01*
X176806904Y-69815057D02*
X176854523Y-69910295D01*
X176854523Y-69910295D02*
X176854523Y-70053152D01*
X176854523Y-70053152D02*
X176806904Y-70148390D01*
X176806904Y-70148390D02*
X176759285Y-70196009D01*
X176759285Y-70196009D02*
X176664047Y-70243628D01*
X176664047Y-70243628D02*
X176283095Y-70243628D01*
X177283095Y-70719819D02*
X177283095Y-69719819D01*
X177283095Y-69719819D02*
X177854523Y-70719819D01*
X177854523Y-70719819D02*
X177854523Y-69719819D01*
X178473571Y-70148390D02*
X178378333Y-70100771D01*
X178378333Y-70100771D02*
X178330714Y-70053152D01*
X178330714Y-70053152D02*
X178283095Y-69957914D01*
X178283095Y-69957914D02*
X178283095Y-69910295D01*
X178283095Y-69910295D02*
X178330714Y-69815057D01*
X178330714Y-69815057D02*
X178378333Y-69767438D01*
X178378333Y-69767438D02*
X178473571Y-69719819D01*
X178473571Y-69719819D02*
X178664047Y-69719819D01*
X178664047Y-69719819D02*
X178759285Y-69767438D01*
X178759285Y-69767438D02*
X178806904Y-69815057D01*
X178806904Y-69815057D02*
X178854523Y-69910295D01*
X178854523Y-69910295D02*
X178854523Y-69957914D01*
X178854523Y-69957914D02*
X178806904Y-70053152D01*
X178806904Y-70053152D02*
X178759285Y-70100771D01*
X178759285Y-70100771D02*
X178664047Y-70148390D01*
X178664047Y-70148390D02*
X178473571Y-70148390D01*
X178473571Y-70148390D02*
X178378333Y-70196009D01*
X178378333Y-70196009D02*
X178330714Y-70243628D01*
X178330714Y-70243628D02*
X178283095Y-70338866D01*
X178283095Y-70338866D02*
X178283095Y-70529342D01*
X178283095Y-70529342D02*
X178330714Y-70624580D01*
X178330714Y-70624580D02*
X178378333Y-70672200D01*
X178378333Y-70672200D02*
X178473571Y-70719819D01*
X178473571Y-70719819D02*
X178664047Y-70719819D01*
X178664047Y-70719819D02*
X178759285Y-70672200D01*
X178759285Y-70672200D02*
X178806904Y-70624580D01*
X178806904Y-70624580D02*
X178854523Y-70529342D01*
X178854523Y-70529342D02*
X178854523Y-70338866D01*
X178854523Y-70338866D02*
X178806904Y-70243628D01*
X178806904Y-70243628D02*
X178759285Y-70196009D01*
X178759285Y-70196009D02*
X178664047Y-70148390D01*
X176854523Y-60719819D02*
X176521190Y-60243628D01*
X176283095Y-60719819D02*
X176283095Y-59719819D01*
X176283095Y-59719819D02*
X176664047Y-59719819D01*
X176664047Y-59719819D02*
X176759285Y-59767438D01*
X176759285Y-59767438D02*
X176806904Y-59815057D01*
X176806904Y-59815057D02*
X176854523Y-59910295D01*
X176854523Y-59910295D02*
X176854523Y-60053152D01*
X176854523Y-60053152D02*
X176806904Y-60148390D01*
X176806904Y-60148390D02*
X176759285Y-60196009D01*
X176759285Y-60196009D02*
X176664047Y-60243628D01*
X176664047Y-60243628D02*
X176283095Y-60243628D01*
X177283095Y-60719819D02*
X177283095Y-59719819D01*
X177283095Y-59719819D02*
X177854523Y-60719819D01*
X177854523Y-60719819D02*
X177854523Y-59719819D01*
X178854523Y-60719819D02*
X178283095Y-60719819D01*
X178568809Y-60719819D02*
X178568809Y-59719819D01*
X178568809Y-59719819D02*
X178473571Y-59862676D01*
X178473571Y-59862676D02*
X178378333Y-59957914D01*
X178378333Y-59957914D02*
X178283095Y-60005533D01*
X138854523Y-86319819D02*
X138521190Y-85843628D01*
X138283095Y-86319819D02*
X138283095Y-85319819D01*
X138283095Y-85319819D02*
X138664047Y-85319819D01*
X138664047Y-85319819D02*
X138759285Y-85367438D01*
X138759285Y-85367438D02*
X138806904Y-85415057D01*
X138806904Y-85415057D02*
X138854523Y-85510295D01*
X138854523Y-85510295D02*
X138854523Y-85653152D01*
X138854523Y-85653152D02*
X138806904Y-85748390D01*
X138806904Y-85748390D02*
X138759285Y-85796009D01*
X138759285Y-85796009D02*
X138664047Y-85843628D01*
X138664047Y-85843628D02*
X138283095Y-85843628D01*
X139283095Y-86319819D02*
X139283095Y-85319819D01*
X139283095Y-85319819D02*
X139854523Y-86319819D01*
X139854523Y-86319819D02*
X139854523Y-85319819D01*
X140759285Y-85653152D02*
X140759285Y-86319819D01*
X140521190Y-85272200D02*
X140283095Y-85986485D01*
X140283095Y-85986485D02*
X140902142Y-85986485D01*
X138854523Y-76319819D02*
X138521190Y-75843628D01*
X138283095Y-76319819D02*
X138283095Y-75319819D01*
X138283095Y-75319819D02*
X138664047Y-75319819D01*
X138664047Y-75319819D02*
X138759285Y-75367438D01*
X138759285Y-75367438D02*
X138806904Y-75415057D01*
X138806904Y-75415057D02*
X138854523Y-75510295D01*
X138854523Y-75510295D02*
X138854523Y-75653152D01*
X138854523Y-75653152D02*
X138806904Y-75748390D01*
X138806904Y-75748390D02*
X138759285Y-75796009D01*
X138759285Y-75796009D02*
X138664047Y-75843628D01*
X138664047Y-75843628D02*
X138283095Y-75843628D01*
X139283095Y-76319819D02*
X139283095Y-75319819D01*
X139283095Y-75319819D02*
X139854523Y-76319819D01*
X139854523Y-76319819D02*
X139854523Y-75319819D01*
X140806904Y-75319819D02*
X140330714Y-75319819D01*
X140330714Y-75319819D02*
X140283095Y-75796009D01*
X140283095Y-75796009D02*
X140330714Y-75748390D01*
X140330714Y-75748390D02*
X140425952Y-75700771D01*
X140425952Y-75700771D02*
X140664047Y-75700771D01*
X140664047Y-75700771D02*
X140759285Y-75748390D01*
X140759285Y-75748390D02*
X140806904Y-75796009D01*
X140806904Y-75796009D02*
X140854523Y-75891247D01*
X140854523Y-75891247D02*
X140854523Y-76129342D01*
X140854523Y-76129342D02*
X140806904Y-76224580D01*
X140806904Y-76224580D02*
X140759285Y-76272200D01*
X140759285Y-76272200D02*
X140664047Y-76319819D01*
X140664047Y-76319819D02*
X140425952Y-76319819D01*
X140425952Y-76319819D02*
X140330714Y-76272200D01*
X140330714Y-76272200D02*
X140283095Y-76224580D01*
X176854523Y-80719819D02*
X176521190Y-80243628D01*
X176283095Y-80719819D02*
X176283095Y-79719819D01*
X176283095Y-79719819D02*
X176664047Y-79719819D01*
X176664047Y-79719819D02*
X176759285Y-79767438D01*
X176759285Y-79767438D02*
X176806904Y-79815057D01*
X176806904Y-79815057D02*
X176854523Y-79910295D01*
X176854523Y-79910295D02*
X176854523Y-80053152D01*
X176854523Y-80053152D02*
X176806904Y-80148390D01*
X176806904Y-80148390D02*
X176759285Y-80196009D01*
X176759285Y-80196009D02*
X176664047Y-80243628D01*
X176664047Y-80243628D02*
X176283095Y-80243628D01*
X177283095Y-80719819D02*
X177283095Y-79719819D01*
X177283095Y-79719819D02*
X177854523Y-80719819D01*
X177854523Y-80719819D02*
X177854523Y-79719819D01*
X178759285Y-79719819D02*
X178568809Y-79719819D01*
X178568809Y-79719819D02*
X178473571Y-79767438D01*
X178473571Y-79767438D02*
X178425952Y-79815057D01*
X178425952Y-79815057D02*
X178330714Y-79957914D01*
X178330714Y-79957914D02*
X178283095Y-80148390D01*
X178283095Y-80148390D02*
X178283095Y-80529342D01*
X178283095Y-80529342D02*
X178330714Y-80624580D01*
X178330714Y-80624580D02*
X178378333Y-80672200D01*
X178378333Y-80672200D02*
X178473571Y-80719819D01*
X178473571Y-80719819D02*
X178664047Y-80719819D01*
X178664047Y-80719819D02*
X178759285Y-80672200D01*
X178759285Y-80672200D02*
X178806904Y-80624580D01*
X178806904Y-80624580D02*
X178854523Y-80529342D01*
X178854523Y-80529342D02*
X178854523Y-80291247D01*
X178854523Y-80291247D02*
X178806904Y-80196009D01*
X178806904Y-80196009D02*
X178759285Y-80148390D01*
X178759285Y-80148390D02*
X178664047Y-80100771D01*
X178664047Y-80100771D02*
X178473571Y-80100771D01*
X178473571Y-80100771D02*
X178378333Y-80148390D01*
X178378333Y-80148390D02*
X178330714Y-80196009D01*
X178330714Y-80196009D02*
X178283095Y-80291247D01*
X176854523Y-90719819D02*
X176521190Y-90243628D01*
X176283095Y-90719819D02*
X176283095Y-89719819D01*
X176283095Y-89719819D02*
X176664047Y-89719819D01*
X176664047Y-89719819D02*
X176759285Y-89767438D01*
X176759285Y-89767438D02*
X176806904Y-89815057D01*
X176806904Y-89815057D02*
X176854523Y-89910295D01*
X176854523Y-89910295D02*
X176854523Y-90053152D01*
X176854523Y-90053152D02*
X176806904Y-90148390D01*
X176806904Y-90148390D02*
X176759285Y-90196009D01*
X176759285Y-90196009D02*
X176664047Y-90243628D01*
X176664047Y-90243628D02*
X176283095Y-90243628D01*
X177283095Y-90719819D02*
X177283095Y-89719819D01*
X177283095Y-89719819D02*
X177854523Y-90719819D01*
X177854523Y-90719819D02*
X177854523Y-89719819D01*
X178235476Y-89719819D02*
X178902142Y-89719819D01*
X178902142Y-89719819D02*
X178473571Y-90719819D01*
D12*
G36*
X182590867Y-123568334D02*
G01*
X182648689Y-123570865D01*
X182691606Y-123576222D01*
X182726706Y-123585336D01*
X182761077Y-123599140D01*
X182765454Y-123601140D01*
X182839271Y-123641718D01*
X182891411Y-123687681D01*
X182929262Y-123745827D01*
X182934532Y-123756815D01*
X182958029Y-123837706D01*
X182958783Y-123922103D01*
X182938481Y-124002902D01*
X182898811Y-124073000D01*
X182847988Y-124121036D01*
X182795251Y-124156873D01*
X183038662Y-124156873D01*
X183282073Y-124156873D01*
X183282073Y-124265979D01*
X183282073Y-124375086D01*
X182685624Y-124375086D01*
X182511054Y-124375086D01*
X182089175Y-124375086D01*
X182089175Y-124274809D01*
X182090849Y-124216523D01*
X182098911Y-124181424D01*
X182117924Y-124163664D01*
X182152452Y-124157391D01*
X182181287Y-124156711D01*
X182227377Y-124156550D01*
X182179694Y-124118973D01*
X182123992Y-124060635D01*
X182089792Y-123988520D01*
X182086116Y-123965586D01*
X182209585Y-123965586D01*
X182214428Y-124000777D01*
X182229137Y-124035030D01*
X182258184Y-124081550D01*
X182295433Y-124114219D01*
X182345920Y-124135085D01*
X182414684Y-124146194D01*
X182506761Y-124149594D01*
X182511054Y-124149599D01*
X182605376Y-124146956D01*
X182675814Y-124138034D01*
X182727182Y-124121340D01*
X182764295Y-124095385D01*
X182789123Y-124063473D01*
X182809802Y-124010055D01*
X182815095Y-123950538D01*
X182804902Y-123896614D01*
X182790770Y-123871129D01*
X182741686Y-123830969D01*
X182671509Y-123801604D01*
X182586640Y-123784297D01*
X182493477Y-123780317D01*
X182398419Y-123790927D01*
X182391921Y-123792236D01*
X182314390Y-123815811D01*
X182260740Y-123850819D01*
X182227003Y-123900264D01*
X182218576Y-123923472D01*
X182209585Y-123965586D01*
X182086116Y-123965586D01*
X182075362Y-123898504D01*
X182074628Y-123868684D01*
X182076269Y-123811067D01*
X182083218Y-123771110D01*
X182098514Y-123737471D01*
X182117211Y-123709670D01*
X182173425Y-123653168D01*
X182244502Y-123609291D01*
X182282053Y-123591779D01*
X182314982Y-123580012D01*
X182350557Y-123572857D01*
X182396045Y-123569180D01*
X182458716Y-123567845D01*
X182511054Y-123567697D01*
X182590867Y-123568334D01*
G37*
G36*
X182118292Y-112203944D02*
G01*
X182160824Y-112218418D01*
X182222858Y-112240768D01*
X182300635Y-112269541D01*
X182390392Y-112303287D01*
X182488369Y-112340554D01*
X182590805Y-112379891D01*
X182693937Y-112419846D01*
X182794007Y-112458968D01*
X182887251Y-112495805D01*
X182969910Y-112528906D01*
X183038221Y-112556820D01*
X183088425Y-112578095D01*
X183116759Y-112591279D01*
X183118383Y-112592175D01*
X183168457Y-112626250D01*
X183214375Y-112666467D01*
X183233880Y-112688387D01*
X183254183Y-112718023D01*
X183266965Y-112747674D01*
X183274383Y-112785879D01*
X183278595Y-112841174D01*
X183279884Y-112870459D01*
X183284968Y-112998912D01*
X183210783Y-112998912D01*
X183136598Y-112998912D01*
X183136383Y-112937085D01*
X183129077Y-112872007D01*
X183104556Y-112822755D01*
X183058130Y-112781991D01*
X183024579Y-112762145D01*
X182949552Y-112721770D01*
X182544822Y-112884042D01*
X182441908Y-112925202D01*
X182346937Y-112962994D01*
X182263490Y-112996007D01*
X182195147Y-113022830D01*
X182145490Y-113042055D01*
X182118100Y-113052271D01*
X182114633Y-113053404D01*
X182101662Y-113053983D01*
X182094001Y-113043114D01*
X182090299Y-113015328D01*
X182089201Y-112965150D01*
X182089175Y-112950395D01*
X182089175Y-112840296D01*
X182401833Y-112737759D01*
X182493015Y-112708164D01*
X182575679Y-112681915D01*
X182645571Y-112660317D01*
X182698438Y-112644674D01*
X182730026Y-112636288D01*
X182736427Y-112635223D01*
X182755859Y-112627403D01*
X182758362Y-112620676D01*
X182746627Y-112607660D01*
X182737206Y-112606128D01*
X182716911Y-112602030D01*
X182673801Y-112590665D01*
X182612833Y-112573429D01*
X182538966Y-112551719D01*
X182471713Y-112531393D01*
X182386339Y-112505292D01*
X182305450Y-112480585D01*
X182235328Y-112459189D01*
X182182258Y-112443022D01*
X182158276Y-112435740D01*
X182089175Y-112414822D01*
X182089175Y-112306809D01*
X182090393Y-112254946D01*
X182093611Y-112216692D01*
X182098179Y-112199194D01*
X182099024Y-112198797D01*
X182118292Y-112203944D01*
G37*
G36*
X182554696Y-122905784D02*
G01*
X182554696Y-123182188D01*
X182605318Y-123182188D01*
X182665962Y-123174087D01*
X182725733Y-123152834D01*
X182773956Y-123122999D01*
X182793866Y-123101455D01*
X182812107Y-123052685D01*
X182816627Y-122991963D01*
X182807871Y-122932065D01*
X182786401Y-122885925D01*
X182760753Y-122859617D01*
X182739315Y-122847661D01*
X182738193Y-122847594D01*
X182728142Y-122838281D01*
X182724440Y-122807787D01*
X182726284Y-122756672D01*
X182731129Y-122707226D01*
X182737570Y-122669755D01*
X182743256Y-122654070D01*
X182761776Y-122653318D01*
X182792323Y-122670591D01*
X182829221Y-122700823D01*
X182866798Y-122738947D01*
X182899379Y-122779896D01*
X182917031Y-122809231D01*
X182939548Y-122873941D01*
X182953963Y-122954343D01*
X182959016Y-123037850D01*
X182953447Y-123111875D01*
X182949277Y-123131271D01*
X182912404Y-123224195D01*
X182855254Y-123297580D01*
X182776785Y-123352271D01*
X182675958Y-123389118D01*
X182618350Y-123400872D01*
X182497384Y-123409810D01*
X182386932Y-123397557D01*
X182385563Y-123397405D01*
X182286165Y-123365145D01*
X182202467Y-123314519D01*
X182137747Y-123247015D01*
X182095283Y-123164123D01*
X182094963Y-123163165D01*
X182078159Y-123084205D01*
X182075643Y-123017985D01*
X182206483Y-123017985D01*
X182214376Y-123074013D01*
X182229278Y-123107750D01*
X182267024Y-123142226D01*
X182320709Y-123168984D01*
X182377214Y-123181830D01*
X182386932Y-123182188D01*
X182423769Y-123182188D01*
X182423769Y-123007617D01*
X182423476Y-122933907D01*
X182422067Y-122884472D01*
X182418748Y-122854495D01*
X182412724Y-122839158D01*
X182403199Y-122833645D01*
X182394968Y-122833047D01*
X182348314Y-122841408D01*
X182296294Y-122862544D01*
X182251141Y-122890529D01*
X182228242Y-122913780D01*
X182211080Y-122960017D01*
X182206483Y-123017985D01*
X182075643Y-123017985D01*
X182074854Y-122997228D01*
X182084275Y-122912028D01*
X182105650Y-122838398D01*
X182123217Y-122804859D01*
X182184320Y-122737311D01*
X182266140Y-122683741D01*
X182362473Y-122647090D01*
X182467114Y-122630301D01*
X182492869Y-122629554D01*
X182554696Y-122629381D01*
X182554696Y-122905784D01*
G37*
G36*
X182885329Y-120537295D02*
G01*
X182919084Y-120542073D01*
X182936775Y-120554623D01*
X182946320Y-120583364D01*
X182950546Y-120606635D01*
X182954059Y-120686170D01*
X182936729Y-120752299D01*
X182899895Y-120800840D01*
X182884913Y-120811548D01*
X182846982Y-120830534D01*
X182815137Y-120839802D01*
X182811946Y-120839980D01*
X182803445Y-120845803D01*
X182814348Y-120864702D01*
X182846126Y-120898934D01*
X182857933Y-120910569D01*
X182919882Y-120988180D01*
X182954913Y-121072470D01*
X182962433Y-121160386D01*
X182941847Y-121248878D01*
X182929295Y-121276682D01*
X182885800Y-121339100D01*
X182828377Y-121378745D01*
X182753361Y-121397652D01*
X182707446Y-121399966D01*
X182688160Y-121398068D01*
X182625085Y-121391862D01*
X182559772Y-121366175D01*
X182509866Y-121320845D01*
X182473726Y-121253811D01*
X182449714Y-121163012D01*
X182437209Y-121060510D01*
X182432214Y-120994994D01*
X182428093Y-120939507D01*
X182425353Y-120900953D01*
X182424509Y-120887314D01*
X182411240Y-120874884D01*
X182378753Y-120869618D01*
X182336078Y-120871713D01*
X182292244Y-120881367D01*
X182284063Y-120884249D01*
X182238264Y-120911428D01*
X182213401Y-120953052D01*
X182206018Y-121010968D01*
X182215215Y-121067516D01*
X182240990Y-121108985D01*
X182279222Y-121129679D01*
X182292841Y-121130985D01*
X182307288Y-121133396D01*
X182315970Y-121144517D01*
X182320332Y-121170177D01*
X182321819Y-121216205D01*
X182321936Y-121248346D01*
X182321573Y-121306217D01*
X182319391Y-121340396D01*
X182313744Y-121356287D01*
X182302988Y-121359290D01*
X182289204Y-121355926D01*
X182207075Y-121318323D01*
X182144913Y-121260317D01*
X182102449Y-121181459D01*
X182079415Y-121081304D01*
X182074709Y-120998591D01*
X182083273Y-120892364D01*
X182090565Y-120869129D01*
X182535991Y-120869129D01*
X182544060Y-120986842D01*
X182553224Y-121065956D01*
X182570026Y-121120312D01*
X182597514Y-121153882D01*
X182638736Y-121170637D01*
X182688160Y-121174628D01*
X182752373Y-121166812D01*
X182793259Y-121142327D01*
X182812353Y-121099609D01*
X182812641Y-121048167D01*
X182793686Y-120981318D01*
X182764488Y-120940669D01*
X182705129Y-120898181D01*
X182629535Y-120873771D01*
X182578076Y-120869210D01*
X182535991Y-120869129D01*
X182090565Y-120869129D01*
X182109900Y-120807523D01*
X182155692Y-120741815D01*
X182221749Y-120692988D01*
X182224965Y-120691282D01*
X182250160Y-120679574D01*
X182277949Y-120670796D01*
X182313356Y-120664325D01*
X182361405Y-120659538D01*
X182427122Y-120655809D01*
X182515532Y-120652515D01*
X182544350Y-120651606D01*
X182642221Y-120648286D01*
X182714791Y-120644456D01*
X182765846Y-120638989D01*
X182799173Y-120630759D01*
X182818560Y-120618639D01*
X182827794Y-120601504D01*
X182830661Y-120578227D01*
X182830877Y-120566390D01*
X182834450Y-120544533D01*
X182850314Y-120536356D01*
X182885329Y-120537295D01*
G37*
G36*
X182917716Y-117134703D02*
G01*
X182940156Y-117145172D01*
X182941186Y-117146546D01*
X182946526Y-117168744D01*
X182950472Y-117210430D01*
X182952031Y-117255465D01*
X182950731Y-117310432D01*
X182943866Y-117346303D01*
X182928900Y-117372921D01*
X182918770Y-117384584D01*
X182879524Y-117413396D01*
X182836047Y-117430033D01*
X182799343Y-117439718D01*
X182790697Y-117451831D01*
X182809743Y-117469578D01*
X182830137Y-117481908D01*
X182886836Y-117529854D01*
X182928545Y-117596539D01*
X182953411Y-117674744D01*
X182959576Y-117757244D01*
X182945187Y-117836819D01*
X182930357Y-117872004D01*
X182883331Y-117934223D01*
X182821186Y-117976218D01*
X182749753Y-117997953D01*
X182686191Y-117999177D01*
X182674863Y-117999395D01*
X182602345Y-117980511D01*
X182538029Y-117941265D01*
X182487746Y-117881625D01*
X182483748Y-117874600D01*
X182463041Y-117819313D01*
X182446188Y-117737163D01*
X182433495Y-117630165D01*
X182427404Y-117534106D01*
X182540309Y-117534106D01*
X182544485Y-117625199D01*
X182557812Y-117691230D01*
X182582218Y-117735323D01*
X182619629Y-117760602D01*
X182671974Y-117770190D01*
X182686191Y-117770504D01*
X182750837Y-117760038D01*
X182794804Y-117730949D01*
X182816352Y-117686702D01*
X182813739Y-117630762D01*
X182787102Y-117569629D01*
X182746519Y-117525963D01*
X182688075Y-117490497D01*
X182622905Y-117469047D01*
X182587428Y-117465325D01*
X182558931Y-117466576D01*
X182545086Y-117475950D01*
X182540639Y-117501116D01*
X182540309Y-117534106D01*
X182427404Y-117534106D01*
X182425262Y-117500334D01*
X182424509Y-117481164D01*
X182417490Y-117469678D01*
X182393705Y-117466182D01*
X182347394Y-117469812D01*
X182277804Y-117487990D01*
X182231196Y-117523406D01*
X182208118Y-117575539D01*
X182205555Y-117604975D01*
X182213103Y-117663861D01*
X182237876Y-117702535D01*
X182277986Y-117724574D01*
X182300283Y-117733461D01*
X182313378Y-117745449D01*
X182319721Y-117767513D01*
X182321759Y-117806626D01*
X182321936Y-117849759D01*
X182320749Y-117910351D01*
X182314573Y-117945064D01*
X182299482Y-117957095D01*
X182271553Y-117949639D01*
X182227807Y-117926429D01*
X182159446Y-117872832D01*
X182111702Y-117800647D01*
X182084159Y-117708883D01*
X182076400Y-117596546D01*
X182077387Y-117567362D01*
X182088934Y-117471321D01*
X182114002Y-117397325D01*
X182154750Y-117340632D01*
X182195828Y-117307321D01*
X182217749Y-117293560D01*
X182239115Y-117283341D01*
X182264771Y-117275964D01*
X182299564Y-117270727D01*
X182348338Y-117266929D01*
X182415939Y-117263870D01*
X182507211Y-117260848D01*
X182519695Y-117260463D01*
X182622701Y-117256828D01*
X182700204Y-117252427D01*
X182755795Y-117246244D01*
X182793065Y-117237263D01*
X182815607Y-117224465D01*
X182827010Y-117206833D01*
X182830866Y-117183352D01*
X182831100Y-117172274D01*
X182834207Y-117143951D01*
X182849419Y-117132464D01*
X182881157Y-117130412D01*
X182917716Y-117134703D01*
G37*
G36*
X182554696Y-115550591D02*
G01*
X182554696Y-115837000D01*
X182609250Y-115827842D01*
X182694054Y-115808966D01*
X182753580Y-115783243D01*
X182791433Y-115747348D01*
X182811214Y-115697960D01*
X182816552Y-115636667D01*
X182813583Y-115584144D01*
X182802502Y-115549396D01*
X182782994Y-115524397D01*
X182755639Y-115499315D01*
X182736041Y-115485203D01*
X182735696Y-115485053D01*
X182727906Y-115468372D01*
X182725107Y-115433419D01*
X182726579Y-115389523D01*
X182731601Y-115346018D01*
X182739451Y-115312232D01*
X182749408Y-115297499D01*
X182750198Y-115297422D01*
X182783102Y-115308614D01*
X182824324Y-115337785D01*
X182866623Y-115378327D01*
X182902758Y-115423633D01*
X182919011Y-115451464D01*
X182938308Y-115507784D01*
X182951942Y-115579495D01*
X182958908Y-115655795D01*
X182958204Y-115725886D01*
X182949289Y-115777585D01*
X182906573Y-115870958D01*
X182844750Y-115944275D01*
X182760468Y-116001246D01*
X182736541Y-116012891D01*
X182696932Y-116028790D01*
X182656605Y-116038811D01*
X182607092Y-116044212D01*
X182539927Y-116046251D01*
X182511054Y-116046403D01*
X182439206Y-116045754D01*
X182387797Y-116042581D01*
X182379404Y-116041061D01*
X182348189Y-116035407D01*
X182311745Y-116022757D01*
X182276109Y-116006256D01*
X182191847Y-115950990D01*
X182130638Y-115878872D01*
X182092012Y-115789063D01*
X182075499Y-115680730D01*
X182075023Y-115659605D01*
X182205061Y-115659605D01*
X182214402Y-115718011D01*
X182228260Y-115745242D01*
X182272440Y-115786565D01*
X182331561Y-115813854D01*
X182379404Y-115821134D01*
X182423769Y-115821134D01*
X182423769Y-115645408D01*
X182423769Y-115469681D01*
X182376489Y-115479197D01*
X182324098Y-115490927D01*
X182290518Y-115503245D01*
X182265802Y-115521159D01*
X182242563Y-115546624D01*
X182214728Y-115598586D01*
X182205061Y-115659605D01*
X182075023Y-115659605D01*
X182074770Y-115648371D01*
X182086159Y-115542575D01*
X182120203Y-115454378D01*
X182177225Y-115383474D01*
X182257548Y-115329558D01*
X182361495Y-115292324D01*
X182471048Y-115273299D01*
X182554696Y-115264183D01*
X182554696Y-115550591D01*
G37*
G36*
X182220103Y-114774611D02*
G01*
X182220103Y-114862796D01*
X182487745Y-114858259D01*
X182593863Y-114855899D01*
X182674392Y-114852066D01*
X182732837Y-114845524D01*
X182772702Y-114835038D01*
X182797491Y-114819372D01*
X182810711Y-114797292D01*
X182815866Y-114767562D01*
X182816552Y-114742361D01*
X182818099Y-114706374D01*
X182828378Y-114690519D01*
X182855851Y-114686541D01*
X182873884Y-114686426D01*
X182912616Y-114689802D01*
X182937437Y-114698188D01*
X182940192Y-114700951D01*
X182949554Y-114731902D01*
X182955053Y-114781543D01*
X182956594Y-114839711D01*
X182954081Y-114896246D01*
X182947418Y-114940985D01*
X182942595Y-114955555D01*
X182927219Y-114987048D01*
X182911405Y-115011286D01*
X182891307Y-115029282D01*
X182863077Y-115042047D01*
X182822869Y-115050595D01*
X182766837Y-115055936D01*
X182691132Y-115059082D01*
X182591908Y-115061046D01*
X182538655Y-115061812D01*
X182220103Y-115066237D01*
X182220103Y-115123639D01*
X182220103Y-115181042D01*
X182154639Y-115181042D01*
X182089175Y-115181042D01*
X182089175Y-115118442D01*
X182089175Y-115055841D01*
X181987342Y-115023044D01*
X181885510Y-114990246D01*
X181885510Y-114925621D01*
X181885510Y-114860996D01*
X181987342Y-114860996D01*
X182089175Y-114860996D01*
X182089175Y-114773711D01*
X182089175Y-114686426D01*
X182154639Y-114686426D01*
X182220103Y-114686426D01*
X182220103Y-114774611D01*
G37*
G36*
X182914763Y-113731227D02*
G01*
X182935663Y-113749106D01*
X182947498Y-113784520D01*
X182952406Y-113842064D01*
X182952926Y-113877344D01*
X182950200Y-113924447D01*
X182938075Y-113956161D01*
X182911000Y-113985937D01*
X182906405Y-113990087D01*
X182868677Y-114016467D01*
X182832112Y-114030878D01*
X182823596Y-114031787D01*
X182794708Y-114035692D01*
X182791499Y-114048269D01*
X182814301Y-114070810D01*
X182837916Y-114087834D01*
X182892643Y-114141454D01*
X182932789Y-114213889D01*
X182955820Y-114297467D01*
X182959200Y-114384518D01*
X182951584Y-114431844D01*
X182928893Y-114480215D01*
X182888762Y-114528993D01*
X182840612Y-114567412D01*
X182826085Y-114575272D01*
X182760212Y-114594172D01*
X182688892Y-114597485D01*
X182683912Y-114597716D01*
X182611606Y-114585683D01*
X182592516Y-114578863D01*
X182539869Y-114543621D01*
X182493221Y-114488409D01*
X182459926Y-114422320D01*
X182455934Y-114410023D01*
X182448555Y-114373057D01*
X182441375Y-114316526D01*
X182435499Y-114249945D01*
X182433399Y-114215929D01*
X182429561Y-114154437D01*
X182425258Y-114104645D01*
X182421129Y-114073167D01*
X182418914Y-114065726D01*
X182396672Y-114060750D01*
X182357882Y-114065488D01*
X182312361Y-114077346D01*
X182269925Y-114093732D01*
X182240392Y-114112051D01*
X182239203Y-114113197D01*
X182211840Y-114157700D01*
X182204366Y-114209819D01*
X182214993Y-114261182D01*
X182241931Y-114303415D01*
X182283393Y-114328145D01*
X182285228Y-114328626D01*
X182303961Y-114335030D01*
X182314920Y-114346991D01*
X182320182Y-114371189D01*
X182321824Y-114414301D01*
X182321936Y-114446669D01*
X182320047Y-114503726D01*
X182314833Y-114541646D01*
X182306975Y-114555498D01*
X182306921Y-114555498D01*
X182269639Y-114546300D01*
X182222978Y-114522877D01*
X182178225Y-114491482D01*
X182158841Y-114473435D01*
X182112704Y-114404528D01*
X182084874Y-114315005D01*
X182074975Y-114203612D01*
X182074947Y-114193618D01*
X182082866Y-114093782D01*
X182093913Y-114057578D01*
X182540149Y-114057578D01*
X182540230Y-114142878D01*
X182544425Y-114228796D01*
X182557869Y-114290770D01*
X182582130Y-114332921D01*
X182618780Y-114359368D01*
X182623517Y-114361446D01*
X182688892Y-114376819D01*
X182744408Y-114368089D01*
X182786404Y-114339583D01*
X182811220Y-114295625D01*
X182815195Y-114240540D01*
X182794668Y-114178655D01*
X182788046Y-114167058D01*
X182746144Y-114118858D01*
X182686716Y-114086510D01*
X182609058Y-114067912D01*
X182540149Y-114057578D01*
X182093913Y-114057578D01*
X182107231Y-114013929D01*
X182149918Y-113948856D01*
X182170989Y-113927243D01*
X182200848Y-113902247D01*
X182232405Y-113883919D01*
X182270697Y-113871253D01*
X182320762Y-113863244D01*
X182387638Y-113858887D01*
X182476360Y-113857175D01*
X182522911Y-113857002D01*
X182624201Y-113856085D01*
X182700127Y-113852876D01*
X182754392Y-113846357D01*
X182790701Y-113835514D01*
X182812756Y-113819331D01*
X182824261Y-113796792D01*
X182828384Y-113773236D01*
X182834529Y-113741328D01*
X182850915Y-113728518D01*
X182882661Y-113726288D01*
X182914763Y-113731227D01*
G37*
G36*
X182636907Y-109591635D02*
G01*
X182676508Y-109600900D01*
X182760852Y-109638574D01*
X182836938Y-109697074D01*
X182897972Y-109769805D01*
X182937164Y-109850171D01*
X182938836Y-109855647D01*
X182955277Y-109940922D01*
X182959884Y-110035191D01*
X182952158Y-110122947D01*
X182948072Y-110142765D01*
X182913032Y-110230659D01*
X182854790Y-110309693D01*
X182779079Y-110374034D01*
X182691634Y-110417846D01*
X182671579Y-110424098D01*
X182597844Y-110436309D01*
X182518328Y-110438487D01*
X182509546Y-110438727D01*
X182419314Y-110431901D01*
X182339779Y-110416383D01*
X182315679Y-110408581D01*
X182233649Y-110363240D01*
X182163427Y-110295787D01*
X182111005Y-110212616D01*
X182095341Y-110173352D01*
X182083537Y-110118147D01*
X182077642Y-110048016D01*
X182077507Y-109996270D01*
X182216474Y-109996270D01*
X182224032Y-110072135D01*
X182254569Y-110131314D01*
X182309685Y-110176857D01*
X182311879Y-110178128D01*
X182344225Y-110194622D01*
X182376727Y-110204954D01*
X182417458Y-110210474D01*
X182474491Y-110212531D01*
X182518328Y-110212670D01*
X182606494Y-110209728D01*
X182672176Y-110200068D01*
X182721612Y-110181629D01*
X182761038Y-110152348D01*
X182786172Y-110124102D01*
X182809617Y-110073752D01*
X182816540Y-110010862D01*
X182806783Y-109946950D01*
X182789120Y-109906396D01*
X182752444Y-109862418D01*
X182702183Y-109832163D01*
X182634042Y-109814085D01*
X182543724Y-109806637D01*
X182510830Y-109806245D01*
X182439161Y-109807565D01*
X182388832Y-109812203D01*
X182352167Y-109821340D01*
X182323233Y-109835126D01*
X182261022Y-109884643D01*
X182225640Y-109944927D01*
X182216474Y-109996270D01*
X182077507Y-109996270D01*
X182077444Y-109972239D01*
X182082728Y-109900098D01*
X182093280Y-109840872D01*
X182103663Y-109812113D01*
X182148253Y-109744103D01*
X182205512Y-109681765D01*
X182266302Y-109634538D01*
X182286159Y-109623596D01*
X182359902Y-109598809D01*
X182450130Y-109584801D01*
X182546059Y-109582201D01*
X182636907Y-109591635D01*
G37*
G36*
X182595271Y-108579088D02*
G01*
X182684110Y-108589431D01*
X182759401Y-108611481D01*
X182828248Y-108646740D01*
X182838913Y-108653558D01*
X182888988Y-108702122D01*
X182927262Y-108770105D01*
X182951258Y-108849360D01*
X182958499Y-108931746D01*
X182946811Y-109008122D01*
X182928067Y-109043137D01*
X182894610Y-109084834D01*
X182866253Y-109112750D01*
X182799821Y-109171226D01*
X182870013Y-109175705D01*
X182940206Y-109180183D01*
X182944480Y-109285653D01*
X182948755Y-109391122D01*
X182518328Y-109391122D01*
X182351668Y-109391122D01*
X181754582Y-109391122D01*
X181754582Y-109282016D01*
X181754582Y-109172909D01*
X181996664Y-109172909D01*
X182238747Y-109172909D01*
X182172250Y-109114376D01*
X182119801Y-109058649D01*
X182088913Y-108999213D01*
X182085828Y-108981271D01*
X182220427Y-108981271D01*
X182229704Y-109047106D01*
X182258048Y-109097257D01*
X182307280Y-109132850D01*
X182379223Y-109155015D01*
X182475698Y-109164878D01*
X182518328Y-109165636D01*
X182618246Y-109161341D01*
X182693758Y-109147669D01*
X182748372Y-109123444D01*
X182785597Y-109087484D01*
X182794686Y-109072801D01*
X182812969Y-109016141D01*
X182814274Y-108953545D01*
X182799105Y-108897362D01*
X182786658Y-108876973D01*
X182744526Y-108843316D01*
X182680146Y-108817109D01*
X182599833Y-108800264D01*
X182514855Y-108794673D01*
X182407947Y-108801425D01*
X182325985Y-108822073D01*
X182268043Y-108857204D01*
X182233193Y-108907405D01*
X182220509Y-108973264D01*
X182220427Y-108981271D01*
X182085828Y-108981271D01*
X182076698Y-108928179D01*
X182078410Y-108857957D01*
X182095798Y-108771460D01*
X182133455Y-108701993D01*
X182192560Y-108648748D01*
X182274294Y-108610918D01*
X182379837Y-108587692D01*
X182485776Y-108578950D01*
X182595271Y-108579088D01*
G37*
G36*
X182654547Y-107573171D02*
G01*
X182677377Y-107579045D01*
X182761016Y-107616718D01*
X182836891Y-107675657D01*
X182898034Y-107749041D01*
X182937474Y-107830052D01*
X182939004Y-107835025D01*
X182956935Y-107929897D01*
X182959207Y-108031895D01*
X182945894Y-108127571D01*
X182937262Y-108157991D01*
X182893037Y-108246994D01*
X182827042Y-108319635D01*
X182742616Y-108374254D01*
X182643098Y-108409191D01*
X182531824Y-108422786D01*
X182481959Y-108419216D01*
X182420846Y-108414841D01*
X182336312Y-108395873D01*
X182269026Y-108366542D01*
X182207555Y-108321357D01*
X182187277Y-108302684D01*
X182134507Y-108233462D01*
X182097202Y-108145077D01*
X182076623Y-108043762D01*
X182075138Y-107981850D01*
X182220103Y-107981850D01*
X182228541Y-108056440D01*
X182255270Y-108113228D01*
X182302409Y-108153940D01*
X182372081Y-108180303D01*
X182466407Y-108194045D01*
X182481959Y-108195075D01*
X182587332Y-108194300D01*
X182671454Y-108177650D01*
X182738086Y-108144120D01*
X182768394Y-108118364D01*
X182797943Y-108084748D01*
X182812194Y-108052761D01*
X182816436Y-108008812D01*
X182816552Y-107994622D01*
X182809349Y-107926601D01*
X182787273Y-107877920D01*
X182739692Y-107834850D01*
X182669118Y-107804229D01*
X182579439Y-107787372D01*
X182511054Y-107784430D01*
X182405452Y-107792264D01*
X182324545Y-107814449D01*
X182267355Y-107851650D01*
X182232904Y-107904532D01*
X182220213Y-107973757D01*
X182220103Y-107981850D01*
X182075138Y-107981850D01*
X182074033Y-107935748D01*
X182090692Y-107827265D01*
X182090872Y-107826551D01*
X182120456Y-107758214D01*
X182170969Y-107691232D01*
X182235085Y-107633917D01*
X182288907Y-107601704D01*
X182368131Y-107575700D01*
X182462920Y-107561842D01*
X182562113Y-107560782D01*
X182654547Y-107573171D01*
G37*
G36*
X182912708Y-106965182D02*
G01*
X182937707Y-106973869D01*
X182940506Y-106976717D01*
X182949832Y-107007675D01*
X182955335Y-107057734D01*
X182956972Y-107117147D01*
X182954700Y-107176166D01*
X182948474Y-107225044D01*
X182941717Y-107248056D01*
X182925570Y-107278161D01*
X182905464Y-107301560D01*
X182877699Y-107319168D01*
X182838575Y-107331901D01*
X182784394Y-107340675D01*
X182711456Y-107346406D01*
X182616061Y-107350009D01*
X182521964Y-107351960D01*
X182220103Y-107357010D01*
X182220103Y-107406655D01*
X182218595Y-107437299D01*
X182208759Y-107451714D01*
X182182628Y-107456022D01*
X182155476Y-107456300D01*
X182090848Y-107456300D01*
X182086375Y-107395630D01*
X182081901Y-107334960D01*
X181987342Y-107303544D01*
X181892783Y-107272129D01*
X181888349Y-107204192D01*
X181883916Y-107136254D01*
X181986545Y-107136254D01*
X182089175Y-107136254D01*
X182089175Y-107056243D01*
X182089175Y-106976231D01*
X182154639Y-106976231D01*
X182220103Y-106976231D01*
X182220103Y-107057124D01*
X182220103Y-107138018D01*
X182497706Y-107133499D01*
X182601740Y-107131495D01*
X182680266Y-107128452D01*
X182736869Y-107123061D01*
X182775136Y-107114013D01*
X182798652Y-107099998D01*
X182811003Y-107079708D01*
X182815774Y-107051833D01*
X182816552Y-107017093D01*
X182818123Y-106981444D01*
X182828477Y-106965737D01*
X182856073Y-106961797D01*
X182873884Y-106961684D01*
X182912708Y-106965182D01*
G37*
G36*
X182736541Y-105631249D02*
G01*
X182810242Y-105671205D01*
X182871802Y-105733352D01*
X182918928Y-105812507D01*
X182949330Y-105903485D01*
X182960717Y-106001101D01*
X182950798Y-106100172D01*
X182948377Y-106110653D01*
X182911395Y-106209496D01*
X182853922Y-106287738D01*
X182776126Y-106345261D01*
X182678178Y-106381950D01*
X182560248Y-106397686D01*
X182530196Y-106398330D01*
X182407845Y-106390516D01*
X182306940Y-106365467D01*
X182224559Y-106321844D01*
X182157780Y-106258309D01*
X182125868Y-106213144D01*
X182105658Y-106178501D01*
X182092814Y-106148177D01*
X182085679Y-106113965D01*
X182082594Y-106067655D01*
X182081903Y-106001038D01*
X182081901Y-105995413D01*
X182082584Y-105926312D01*
X182085673Y-105878033D01*
X182092727Y-105842317D01*
X182105308Y-105810904D01*
X182122711Y-105779371D01*
X182173513Y-105713835D01*
X182237593Y-105662037D01*
X182305893Y-105631196D01*
X182309782Y-105630204D01*
X182348544Y-105620780D01*
X182353424Y-105725655D01*
X182355358Y-105780173D01*
X182353586Y-105812751D01*
X182346225Y-105830484D01*
X182331392Y-105840472D01*
X182321936Y-105844270D01*
X182265019Y-105875667D01*
X182232250Y-105920155D01*
X182220304Y-105982624D01*
X182220103Y-105994087D01*
X182222916Y-106043469D01*
X182234276Y-106076370D01*
X182258561Y-106105107D01*
X182260109Y-106106576D01*
X182314265Y-106142853D01*
X182386987Y-106165457D01*
X182481783Y-106175330D01*
X182518328Y-106175954D01*
X182627714Y-106168591D01*
X182712108Y-106146455D01*
X182771620Y-106109481D01*
X182806365Y-106057599D01*
X182816552Y-105997353D01*
X182804454Y-105928158D01*
X182768508Y-105875524D01*
X182709236Y-105840203D01*
X182707005Y-105839383D01*
X182679070Y-105826135D01*
X182662862Y-105807204D01*
X182657016Y-105776656D01*
X182660171Y-105728555D01*
X182668518Y-105671842D01*
X182678350Y-105611267D01*
X182736541Y-105631249D01*
G37*
G36*
X182752374Y-104716466D02*
G01*
X182821436Y-104748372D01*
X182879337Y-104806713D01*
X182910552Y-104858529D01*
X182932528Y-104906754D01*
X182946050Y-104950634D01*
X182953420Y-105000937D01*
X182956939Y-105068434D01*
X182957173Y-105076742D01*
X182957208Y-105143691D01*
X182954211Y-105206613D01*
X182948785Y-105254770D01*
X182946563Y-105265597D01*
X182928856Y-105317489D01*
X182904866Y-105366988D01*
X182902846Y-105370333D01*
X182872654Y-105407576D01*
X182833540Y-105441103D01*
X182793656Y-105465317D01*
X182761155Y-105474621D01*
X182752898Y-105473269D01*
X182740221Y-105455529D01*
X182729170Y-105418080D01*
X182724685Y-105390382D01*
X182720760Y-105344592D01*
X182725393Y-105315336D01*
X182742544Y-105290420D01*
X182764073Y-105269072D01*
X182805086Y-105210877D01*
X182826088Y-105135812D01*
X182825728Y-105049332D01*
X182822981Y-105031186D01*
X182805748Y-104967425D01*
X182779378Y-104928753D01*
X182741112Y-104911871D01*
X182721993Y-104910481D01*
X182689410Y-104914734D01*
X182663402Y-104930107D01*
X182641591Y-104960525D01*
X182621598Y-105009910D01*
X182601044Y-105082187D01*
X182589680Y-105128700D01*
X182560751Y-105237364D01*
X182530267Y-105319850D01*
X182495675Y-105379060D01*
X182454422Y-105417892D01*
X182403956Y-105439249D01*
X182341725Y-105446030D01*
X182311129Y-105445210D01*
X182257279Y-105440290D01*
X182220914Y-105430047D01*
X182190438Y-105410033D01*
X182169616Y-105390966D01*
X182123722Y-105333947D01*
X182093856Y-105265077D01*
X182078672Y-105179577D01*
X182076822Y-105072671D01*
X182077201Y-105063240D01*
X182081205Y-104995422D01*
X182087600Y-104947592D01*
X182098572Y-104910644D01*
X182116307Y-104875471D01*
X182126150Y-104859272D01*
X182155673Y-104820785D01*
X182192605Y-104784311D01*
X182230520Y-104754801D01*
X182262989Y-104737206D01*
X182283586Y-104736478D01*
X182284506Y-104737274D01*
X182290321Y-104755127D01*
X182296964Y-104792989D01*
X182301826Y-104832154D01*
X182306048Y-104880722D01*
X182304368Y-104908637D01*
X182294595Y-104924103D01*
X182274535Y-104935327D01*
X182274214Y-104935474D01*
X182239903Y-104966148D01*
X182216974Y-105018264D01*
X182207471Y-105085707D01*
X182209020Y-105130537D01*
X182224103Y-105195363D01*
X182251610Y-105238632D01*
X182286642Y-105259546D01*
X182324304Y-105257302D01*
X182359698Y-105231101D01*
X182387927Y-105180143D01*
X182394032Y-105160776D01*
X182404683Y-105120906D01*
X182419687Y-105063789D01*
X182436174Y-105000362D01*
X182439753Y-104986499D01*
X182472959Y-104883020D01*
X182513311Y-104805895D01*
X182562732Y-104752857D01*
X182623148Y-104721639D01*
X182673052Y-104711550D01*
X182752374Y-104716466D01*
G37*
G36*
X182917521Y-102237377D02*
G01*
X182934517Y-102252402D01*
X182939929Y-102270103D01*
X182949253Y-102314966D01*
X182955168Y-102343386D01*
X182956370Y-102381546D01*
X182949561Y-102428849D01*
X182947178Y-102438521D01*
X182931404Y-102477394D01*
X182904438Y-102505780D01*
X182859793Y-102528815D01*
X182812531Y-102545135D01*
X182801075Y-102552694D01*
X182806110Y-102566801D01*
X182830249Y-102592152D01*
X182847537Y-102608024D01*
X182911887Y-102683905D01*
X182950212Y-102770252D01*
X182961461Y-102863428D01*
X182946979Y-102952102D01*
X182913303Y-103016457D01*
X182857887Y-103065676D01*
X182785453Y-103096712D01*
X182707446Y-103106586D01*
X182697196Y-103105177D01*
X182619259Y-103094462D01*
X182547484Y-103058803D01*
X182493010Y-103000683D01*
X182456723Y-102921174D01*
X182439511Y-102821350D01*
X182438156Y-102781075D01*
X182436528Y-102722144D01*
X182432516Y-102665875D01*
X182428979Y-102637428D01*
X182422308Y-102604939D01*
X182410698Y-102588872D01*
X182385611Y-102583445D01*
X182348466Y-102582875D01*
X182540149Y-102582875D01*
X182540970Y-102666523D01*
X182548317Y-102755991D01*
X182569219Y-102820918D01*
X182604980Y-102863155D01*
X182656902Y-102884551D01*
X182697196Y-102888159D01*
X182750891Y-102876204D01*
X182789828Y-102843728D01*
X182811451Y-102796622D01*
X182813203Y-102740777D01*
X182792529Y-102682085D01*
X182789120Y-102676270D01*
X182744277Y-102628715D01*
X182680839Y-102596247D01*
X182607161Y-102582986D01*
X182599777Y-102582875D01*
X182540149Y-102582875D01*
X182348466Y-102582875D01*
X182297376Y-102586686D01*
X182262312Y-102600870D01*
X182241263Y-102618583D01*
X182212836Y-102663872D01*
X182204406Y-102716353D01*
X182214325Y-102767868D01*
X182240944Y-102810260D01*
X182282614Y-102835375D01*
X182285228Y-102836072D01*
X182303961Y-102842475D01*
X182314920Y-102854437D01*
X182320182Y-102878634D01*
X182321824Y-102921747D01*
X182321936Y-102954114D01*
X182320309Y-103015029D01*
X182313256Y-103050342D01*
X182297516Y-103063466D01*
X182269828Y-103057813D01*
X182237565Y-103042421D01*
X182166934Y-102990249D01*
X182116432Y-102917825D01*
X182085849Y-102824708D01*
X182074974Y-102710457D01*
X182074947Y-102701063D01*
X182082939Y-102600872D01*
X182107417Y-102520994D01*
X182150104Y-102456671D01*
X182170989Y-102435742D01*
X182202884Y-102410466D01*
X182238215Y-102391823D01*
X182281868Y-102378870D01*
X182338732Y-102370664D01*
X182413694Y-102366259D01*
X182511643Y-102364713D01*
X182539083Y-102364662D01*
X182639116Y-102363760D01*
X182713694Y-102360331D01*
X182766423Y-102353286D01*
X182800908Y-102341538D01*
X182820753Y-102323998D01*
X182829564Y-102299579D01*
X182831100Y-102276552D01*
X182834048Y-102247716D01*
X182848774Y-102235931D01*
X182881739Y-102233734D01*
X182917521Y-102237377D01*
G37*
G36*
X182607201Y-101317554D02*
G01*
X182693989Y-101330652D01*
X182718291Y-101336931D01*
X182807424Y-101376095D01*
X182878276Y-101433101D01*
X182928743Y-101503812D01*
X182956720Y-101584090D01*
X182960103Y-101669798D01*
X182936786Y-101756797D01*
X182934492Y-101761968D01*
X182905761Y-101808563D01*
X182865993Y-101854357D01*
X182851485Y-101867438D01*
X182795375Y-101913688D01*
X182871428Y-101913688D01*
X182947480Y-101913688D01*
X182947480Y-102024613D01*
X182947480Y-102135538D01*
X182902019Y-102126446D01*
X182877471Y-102124392D01*
X182827350Y-102122500D01*
X182755179Y-102120824D01*
X182664480Y-102119418D01*
X182558774Y-102118336D01*
X182553333Y-102118303D01*
X182441585Y-102117630D01*
X182316434Y-102117356D01*
X182305570Y-102117354D01*
X181754582Y-102117354D01*
X181754582Y-102015521D01*
X181754582Y-101913688D01*
X181998253Y-101913200D01*
X182241924Y-101912713D01*
X182186653Y-101867571D01*
X182122848Y-101798909D01*
X182088235Y-101724139D01*
X182220103Y-101724139D01*
X182233580Y-101788047D01*
X182272758Y-101840578D01*
X182335761Y-101879626D01*
X182369311Y-101891628D01*
X182460716Y-101909614D01*
X182553333Y-101911695D01*
X182640465Y-101898959D01*
X182715415Y-101872494D01*
X182771485Y-101833387D01*
X182779091Y-101825048D01*
X182810763Y-101767691D01*
X182818357Y-101705053D01*
X182802019Y-101645270D01*
X182775208Y-101608251D01*
X182725020Y-101571747D01*
X182658848Y-101548571D01*
X182572888Y-101537835D01*
X182474685Y-101538109D01*
X182378887Y-101547307D01*
X182308308Y-101566591D01*
X182260218Y-101597953D01*
X182231888Y-101643390D01*
X182220588Y-101704894D01*
X182220103Y-101724139D01*
X182088235Y-101724139D01*
X182085733Y-101718735D01*
X182074947Y-101634228D01*
X182088333Y-101539520D01*
X182126513Y-101458889D01*
X182187777Y-101394405D01*
X182270419Y-101348137D01*
X182325209Y-101331002D01*
X182410695Y-101317546D01*
X182508731Y-101313124D01*
X182607201Y-101317554D01*
G37*
G36*
X182947480Y-126193528D02*
G01*
X182947480Y-126309908D01*
X182387400Y-126309908D01*
X181827320Y-126309908D01*
X181827320Y-126193528D01*
X181827320Y-126077148D01*
X182387400Y-126077148D01*
X182947480Y-126077148D01*
X182947480Y-126193528D01*
G37*
G36*
X182947480Y-124707689D02*
G01*
X182947480Y-124809405D01*
X182645619Y-124814095D01*
X182540921Y-124816039D01*
X182461087Y-124818437D01*
X182401883Y-124821661D01*
X182359078Y-124826084D01*
X182328439Y-124832081D01*
X182305734Y-124840024D01*
X182295853Y-124844941D01*
X182250070Y-124883490D01*
X182228536Y-124931919D01*
X182231029Y-124984373D01*
X182257325Y-125034997D01*
X182304677Y-125076390D01*
X182324513Y-125087757D01*
X182345389Y-125096310D01*
X182371769Y-125102536D01*
X182408117Y-125106924D01*
X182458898Y-125109961D01*
X182528577Y-125112136D01*
X182621619Y-125113935D01*
X182652892Y-125114446D01*
X182947480Y-125119155D01*
X182947480Y-125218266D01*
X182947480Y-125317378D01*
X182645619Y-125323369D01*
X182538900Y-125325880D01*
X182457234Y-125328862D01*
X182396577Y-125332668D01*
X182352885Y-125337649D01*
X182322116Y-125344158D01*
X182300227Y-125352548D01*
X182298055Y-125353671D01*
X182254256Y-125390955D01*
X182232760Y-125439662D01*
X182233228Y-125492940D01*
X182255319Y-125543939D01*
X182298695Y-125585809D01*
X182309879Y-125592476D01*
X182330508Y-125601746D01*
X182356767Y-125608806D01*
X182392970Y-125614048D01*
X182443433Y-125617862D01*
X182512473Y-125620642D01*
X182604406Y-125622778D01*
X182652892Y-125623609D01*
X182947480Y-125628318D01*
X182947480Y-125736353D01*
X182947480Y-125844387D01*
X182518328Y-125844387D01*
X182089175Y-125844387D01*
X182089175Y-125742554D01*
X182089175Y-125640721D01*
X182176460Y-125640721D01*
X182222954Y-125638513D01*
X182254474Y-125632744D01*
X182263746Y-125626174D01*
X182252398Y-125612420D01*
X182246934Y-125611626D01*
X182220100Y-125601437D01*
X182183208Y-125575461D01*
X182144433Y-125540587D01*
X182111946Y-125503704D01*
X182102539Y-125489924D01*
X182080108Y-125427813D01*
X182074682Y-125362833D01*
X182085559Y-125280766D01*
X182119281Y-125216060D01*
X182177304Y-125166350D01*
X182204847Y-125151465D01*
X182269343Y-125120457D01*
X182209579Y-125089968D01*
X182145905Y-125046823D01*
X182104515Y-124991378D01*
X182082353Y-124918552D01*
X182077294Y-124870028D01*
X182076024Y-124813523D01*
X182081230Y-124774679D01*
X182095127Y-124742373D01*
X182106151Y-124725013D01*
X182129114Y-124693108D01*
X182152134Y-124668036D01*
X182178960Y-124648919D01*
X182213338Y-124634879D01*
X182259016Y-124625038D01*
X182319742Y-124618518D01*
X182399263Y-124614441D01*
X182501328Y-124611929D01*
X182594702Y-124610547D01*
X182947480Y-124605973D01*
X182947480Y-124707689D01*
G37*
G36*
X182249198Y-122024542D02*
G01*
X182260689Y-122100362D01*
X182294512Y-122158372D01*
X182349692Y-122197185D01*
X182377424Y-122206996D01*
X182409476Y-122211897D01*
X182464628Y-122216128D01*
X182536889Y-122219404D01*
X182620267Y-122221434D01*
X182689261Y-122221969D01*
X182947480Y-122222050D01*
X182947480Y-122331157D01*
X182947480Y-122440263D01*
X182518328Y-122440263D01*
X182089175Y-122440263D01*
X182089175Y-122338431D01*
X182089175Y-122236598D01*
X182176460Y-122236598D01*
X182222487Y-122234946D01*
X182254094Y-122230652D01*
X182263691Y-122225687D01*
X182251419Y-122214323D01*
X182220225Y-122197565D01*
X182198112Y-122187830D01*
X182133346Y-122152332D01*
X182093875Y-122107298D01*
X182076300Y-122048012D01*
X182074628Y-122016423D01*
X182074628Y-121945647D01*
X182161913Y-121945647D01*
X182249198Y-121945647D01*
X182249198Y-122024542D01*
G37*
G36*
X182947480Y-121691065D02*
G01*
X182947480Y-121800172D01*
X182518328Y-121800172D01*
X182089175Y-121800172D01*
X182089175Y-121691065D01*
X182089175Y-121581959D01*
X182518328Y-121581959D01*
X182947480Y-121581959D01*
X182947480Y-121691065D01*
G37*
G36*
X182947480Y-120309049D02*
G01*
X182947480Y-120418156D01*
X182351031Y-120418156D01*
X181754582Y-120418156D01*
X181754582Y-120309049D01*
X181754582Y-120199943D01*
X182351031Y-120199943D01*
X182947480Y-120199943D01*
X182947480Y-120309049D01*
G37*
G36*
X182283648Y-118598346D02*
G01*
X182373474Y-118636731D01*
X182447469Y-118698585D01*
X182503215Y-118782173D01*
X182523294Y-118831008D01*
X182529861Y-118865006D01*
X182535182Y-118921090D01*
X182538772Y-118992257D01*
X182540147Y-119071509D01*
X182540149Y-119074679D01*
X182540149Y-119268900D01*
X182743814Y-119268900D01*
X182947480Y-119268900D01*
X182947480Y-119385280D01*
X182947480Y-119501661D01*
X182386432Y-119501661D01*
X182183734Y-119501661D01*
X181825385Y-119501661D01*
X181828553Y-119268900D01*
X181987342Y-119268900D01*
X182183734Y-119268900D01*
X182380126Y-119268900D01*
X182379305Y-119119788D01*
X182377256Y-119050855D01*
X182372420Y-118987555D01*
X182365629Y-118938977D01*
X182361120Y-118921122D01*
X182326636Y-118863690D01*
X182270844Y-118825422D01*
X182195729Y-118807325D01*
X182143759Y-118806447D01*
X182103711Y-118818024D01*
X182074628Y-118835271D01*
X182040480Y-118866238D01*
X182016068Y-118908680D01*
X182000109Y-118967047D01*
X181991321Y-119045791D01*
X181988513Y-119134335D01*
X181987342Y-119268900D01*
X181828553Y-119268900D01*
X181829989Y-119163431D01*
X181831636Y-119054542D01*
X181833487Y-118970616D01*
X181835915Y-118907523D01*
X181839297Y-118861130D01*
X181844008Y-118827307D01*
X181850423Y-118801923D01*
X181858916Y-118780846D01*
X181865993Y-118767010D01*
X181923459Y-118685104D01*
X181994793Y-118628179D01*
X182081759Y-118595216D01*
X182180411Y-118585166D01*
X182283648Y-118598346D01*
G37*
G36*
X182947480Y-118286941D02*
G01*
X182947480Y-118396048D01*
X182351031Y-118396048D01*
X181754582Y-118396048D01*
X181754582Y-118286941D01*
X181754582Y-118177835D01*
X182351031Y-118177835D01*
X182947480Y-118177835D01*
X182947480Y-118286941D01*
G37*
G36*
X182947480Y-116336015D02*
G01*
X182947480Y-116446678D01*
X182674714Y-116446759D01*
X182584736Y-116447547D01*
X182501433Y-116449686D01*
X182430517Y-116452921D01*
X182377703Y-116456996D01*
X182349951Y-116461284D01*
X182287616Y-116491002D01*
X182246559Y-116537862D01*
X182229690Y-116598429D01*
X182229481Y-116603446D01*
X182240683Y-116670945D01*
X182278236Y-116726264D01*
X182336117Y-116766537D01*
X182358950Y-116776881D01*
X182384125Y-116784481D01*
X182416371Y-116789750D01*
X182460416Y-116793102D01*
X182520986Y-116794952D01*
X182602812Y-116795712D01*
X182670497Y-116795819D01*
X182947480Y-116795819D01*
X182947480Y-116904925D01*
X182947480Y-117014032D01*
X182518328Y-117014032D01*
X182089175Y-117014032D01*
X182089175Y-116912893D01*
X182089175Y-116811755D01*
X182176648Y-116807424D01*
X182264121Y-116803093D01*
X182196128Y-116752176D01*
X182132431Y-116694171D01*
X182093886Y-116631262D01*
X182076673Y-116555891D01*
X182074867Y-116512369D01*
X182084865Y-116423740D01*
X182115628Y-116353899D01*
X182169117Y-116299429D01*
X182212434Y-116272962D01*
X182236752Y-116260965D01*
X182259885Y-116251790D01*
X182286157Y-116244982D01*
X182319893Y-116240087D01*
X182365417Y-116236651D01*
X182427055Y-116234218D01*
X182509131Y-116232336D01*
X182615969Y-116230548D01*
X182616129Y-116230546D01*
X182947480Y-116225353D01*
X182947480Y-116336015D01*
G37*
G36*
X182249198Y-113200615D02*
G01*
X182255949Y-113262226D01*
X182278221Y-113308199D01*
X182280736Y-113311485D01*
X182304265Y-113337711D01*
X182330970Y-113357596D01*
X182365058Y-113371992D01*
X182410742Y-113381748D01*
X182472230Y-113387715D01*
X182553733Y-113390743D01*
X182659462Y-113391682D01*
X182677883Y-113391695D01*
X182947480Y-113391695D01*
X182947480Y-113500802D01*
X182947480Y-113609908D01*
X182541339Y-113609908D01*
X182434547Y-113610224D01*
X182336565Y-113611115D01*
X182251370Y-113612498D01*
X182182941Y-113614288D01*
X182135256Y-113616401D01*
X182112292Y-113618754D01*
X182111512Y-113618997D01*
X182099459Y-113620383D01*
X182092860Y-113609379D01*
X182090664Y-113580659D01*
X182091821Y-113528896D01*
X182092138Y-113520801D01*
X182096449Y-113413516D01*
X182190203Y-113406243D01*
X182283957Y-113398969D01*
X182206962Y-113363083D01*
X182140338Y-113325604D01*
X182098808Y-113284819D01*
X182078426Y-113235667D01*
X182074628Y-113193342D01*
X182074628Y-113129839D01*
X182161913Y-113129839D01*
X182249198Y-113129839D01*
X182249198Y-113200615D01*
G37*
G36*
X182938070Y-110586847D02*
G01*
X182946132Y-110599850D01*
X182948312Y-110625333D01*
X182947780Y-110662872D01*
X182947480Y-110690605D01*
X182947480Y-110812762D01*
X182732904Y-110944034D01*
X182518328Y-111075306D01*
X182514182Y-111222447D01*
X182510036Y-111369587D01*
X182728758Y-111369587D01*
X182947480Y-111369587D01*
X182947480Y-111478694D01*
X182947480Y-111587801D01*
X182386492Y-111587801D01*
X182160048Y-111587801D01*
X181825504Y-111587801D01*
X181828204Y-111369587D01*
X181983613Y-111369587D01*
X182160048Y-111369587D01*
X182336483Y-111369587D01*
X182336483Y-111164530D01*
X182335816Y-111077510D01*
X182333473Y-111014400D01*
X182328948Y-110970036D01*
X182321732Y-110939256D01*
X182312258Y-110918461D01*
X182273020Y-110874575D01*
X182217332Y-110851159D01*
X182160272Y-110845876D01*
X182107403Y-110850027D01*
X182066855Y-110864650D01*
X182036917Y-110892997D01*
X182015881Y-110938323D01*
X182002038Y-111003881D01*
X181993677Y-111092925D01*
X181990217Y-111169559D01*
X181983613Y-111369587D01*
X181828204Y-111369587D01*
X181830049Y-111220475D01*
X181831587Y-111106801D01*
X181833269Y-111018297D01*
X181835428Y-110951041D01*
X181838401Y-110901108D01*
X181842520Y-110864574D01*
X181848123Y-110837516D01*
X181855542Y-110816010D01*
X181865113Y-110796132D01*
X181866468Y-110793582D01*
X181921946Y-110716440D01*
X181991112Y-110660967D01*
X182069335Y-110627093D01*
X182151984Y-110614748D01*
X182234426Y-110623862D01*
X182312029Y-110654366D01*
X182380163Y-110706188D01*
X182434196Y-110779260D01*
X182445631Y-110802326D01*
X182465943Y-110837918D01*
X182484602Y-110854695D01*
X182490221Y-110854784D01*
X182508075Y-110844797D01*
X182545601Y-110821747D01*
X182598157Y-110788554D01*
X182661100Y-110748134D01*
X182698486Y-110723866D01*
X182783547Y-110668112D01*
X182846864Y-110626957D01*
X182891608Y-110599977D01*
X182920953Y-110586748D01*
X182938070Y-110586847D01*
G37*
G36*
X182947480Y-106707102D02*
G01*
X182947480Y-106816208D01*
X182518328Y-106816208D01*
X182089175Y-106816208D01*
X182089175Y-106707102D01*
X182089175Y-106597995D01*
X182518328Y-106597995D01*
X182947480Y-106597995D01*
X182947480Y-106707102D01*
G37*
G36*
X182947480Y-103637571D02*
G01*
X182947480Y-104052176D01*
X182387400Y-104052176D01*
X181827320Y-104052176D01*
X181827320Y-103943070D01*
X181827320Y-103833963D01*
X182300114Y-103833963D01*
X182772909Y-103833963D01*
X182772909Y-103528465D01*
X182772909Y-103222967D01*
X182860195Y-103222967D01*
X182947480Y-103222967D01*
X182947480Y-103637571D01*
G37*
G36*
X181914605Y-121691065D02*
G01*
X181914605Y-121800172D01*
X181834593Y-121800172D01*
X181754582Y-121800172D01*
X181754582Y-121691065D01*
X181754582Y-121581959D01*
X181834593Y-121581959D01*
X181914605Y-121581959D01*
X181914605Y-121691065D01*
G37*
G36*
X181914605Y-106707102D02*
G01*
X181914605Y-106816208D01*
X181834593Y-106816208D01*
X181754582Y-106816208D01*
X181754582Y-106707102D01*
X181754582Y-106597995D01*
X181834593Y-106597995D01*
X181914605Y-106597995D01*
X181914605Y-106707102D01*
G37*
G36*
X179999105Y-104908610D02*
G01*
X180042668Y-104919150D01*
X180107109Y-104935344D01*
X180188808Y-104956268D01*
X180284149Y-104981001D01*
X180389514Y-105008621D01*
X180435879Y-105020858D01*
X180573234Y-105057809D01*
X180686576Y-105089635D01*
X180774967Y-105116047D01*
X180837469Y-105136757D01*
X180873141Y-105151477D01*
X180881459Y-105157622D01*
X180892290Y-105191044D01*
X180903705Y-105248581D01*
X180915249Y-105325274D01*
X180926462Y-105416160D01*
X180936889Y-105516281D01*
X180946073Y-105620674D01*
X180953557Y-105724380D01*
X180958883Y-105822437D01*
X180961595Y-105909886D01*
X180961236Y-105981764D01*
X180959871Y-106008820D01*
X180943052Y-106176588D01*
X180917470Y-106342958D01*
X180884472Y-106501951D01*
X180845401Y-106647590D01*
X180801605Y-106773894D01*
X180772958Y-106839275D01*
X180737096Y-106908863D01*
X180697367Y-106976461D01*
X180651425Y-107044966D01*
X180596924Y-107117274D01*
X180531518Y-107196279D01*
X180452864Y-107284877D01*
X180358614Y-107385964D01*
X180246425Y-107502434D01*
X180184774Y-107565406D01*
X180051555Y-107702076D01*
X179937575Y-107821800D01*
X179840631Y-107927299D01*
X179758519Y-108021291D01*
X179689038Y-108106498D01*
X179629982Y-108185639D01*
X179579149Y-108261434D01*
X179534336Y-108336603D01*
X179493338Y-108413866D01*
X179486748Y-108427084D01*
X179429274Y-108556091D01*
X179383107Y-108689704D01*
X179346980Y-108833346D01*
X179319624Y-108992437D01*
X179299772Y-109172401D01*
X179293481Y-109253874D01*
X179288342Y-109337313D01*
X179284934Y-109411760D01*
X179283407Y-109471884D01*
X179283913Y-109512354D01*
X179285731Y-109526640D01*
X179289527Y-109531974D01*
X179298001Y-109536478D01*
X179313430Y-109540221D01*
X179338090Y-109543273D01*
X179374259Y-109545703D01*
X179424212Y-109547581D01*
X179490227Y-109548976D01*
X179574580Y-109549958D01*
X179679547Y-109550596D01*
X179807404Y-109550960D01*
X179960430Y-109551119D01*
X180088432Y-109551145D01*
X180881730Y-109551145D01*
X180881730Y-110343986D01*
X180881730Y-111136827D01*
X178805069Y-111136916D01*
X177658068Y-111136965D01*
X176728408Y-111137005D01*
X176386541Y-111180469D01*
X176289899Y-111192704D01*
X176202929Y-111203613D01*
X176129769Y-111212687D01*
X176074559Y-111219414D01*
X176041440Y-111223283D01*
X176033763Y-111224023D01*
X176032008Y-111209824D01*
X176030413Y-111168531D01*
X176028975Y-111102143D01*
X176027693Y-111012662D01*
X176026564Y-110902087D01*
X176025585Y-110772420D01*
X176024755Y-110625659D01*
X176024072Y-110463805D01*
X176023532Y-110288859D01*
X176023135Y-110102821D01*
X176022877Y-109907691D01*
X176022756Y-109705469D01*
X176022767Y-109551145D01*
X177156579Y-109551145D01*
X177658068Y-109551145D01*
X178159557Y-109551145D01*
X178168146Y-109489318D01*
X178171348Y-109455153D01*
X178175146Y-109396753D01*
X178179338Y-109318968D01*
X178183723Y-109226647D01*
X178188101Y-109124640D01*
X178192271Y-109017796D01*
X178196031Y-108910964D01*
X178199182Y-108808994D01*
X178201523Y-108716736D01*
X178202630Y-108656472D01*
X178202559Y-108596354D01*
X178201137Y-108514352D01*
X178198562Y-108417635D01*
X178195026Y-108313371D01*
X178190725Y-108208730D01*
X178190117Y-108195416D01*
X178181998Y-108044273D01*
X178172580Y-107918857D01*
X178161364Y-107815813D01*
X178147855Y-107731783D01*
X178131555Y-107663412D01*
X178111968Y-107607342D01*
X178098903Y-107579129D01*
X178054499Y-107507394D01*
X178000024Y-107452032D01*
X177927543Y-107405718D01*
X177892211Y-107388307D01*
X177851233Y-107370639D01*
X177813222Y-107358580D01*
X177770469Y-107350801D01*
X177715266Y-107345972D01*
X177639902Y-107342763D01*
X177625545Y-107342314D01*
X177507553Y-107342966D01*
X177413412Y-107354058D01*
X177339209Y-107377339D01*
X177281029Y-107414552D01*
X177234958Y-107467444D01*
X177199502Y-107532339D01*
X177164834Y-107609049D01*
X177160707Y-108580097D01*
X177156579Y-109551145D01*
X176022767Y-109551145D01*
X176022771Y-109498156D01*
X176022919Y-109287752D01*
X176023197Y-109076257D01*
X176023605Y-108865672D01*
X176024138Y-108657996D01*
X176024795Y-108455230D01*
X176025575Y-108259375D01*
X176026474Y-108072430D01*
X176027490Y-107896397D01*
X176028621Y-107733274D01*
X176029866Y-107585063D01*
X176031221Y-107453763D01*
X176032685Y-107341375D01*
X176034255Y-107249900D01*
X176035929Y-107181337D01*
X176037705Y-107137687D01*
X176038322Y-107128980D01*
X176068955Y-106893811D01*
X176118113Y-106681023D01*
X176185922Y-106490457D01*
X176272510Y-106321956D01*
X176378004Y-106175361D01*
X176502531Y-106050513D01*
X176646216Y-105947254D01*
X176809188Y-105865426D01*
X176991572Y-105804871D01*
X177121191Y-105776736D01*
X177282841Y-105754936D01*
X177454862Y-105743830D01*
X177629871Y-105743198D01*
X177800484Y-105752822D01*
X177959317Y-105772479D01*
X178098985Y-105801951D01*
X178114840Y-105806346D01*
X178311968Y-105875775D01*
X178488509Y-105965656D01*
X178644884Y-106076383D01*
X178781517Y-106208354D01*
X178898827Y-106361963D01*
X178997239Y-106537608D01*
X179063347Y-106696191D01*
X179081774Y-106742241D01*
X179098197Y-106774948D01*
X179108879Y-106787113D01*
X179121238Y-106776112D01*
X179121478Y-106773467D01*
X179129257Y-106757654D01*
X179150910Y-106721782D01*
X179183912Y-106669825D01*
X179225737Y-106605755D01*
X179273858Y-106533546D01*
X179276383Y-106529795D01*
X179411158Y-106325736D01*
X179527612Y-106140388D01*
X179626997Y-105970937D01*
X179710564Y-105814565D01*
X179779565Y-105668458D01*
X179835251Y-105529799D01*
X179878875Y-105395773D01*
X179911687Y-105263564D01*
X179934939Y-105130355D01*
X179947644Y-105019587D01*
X179954393Y-104959068D01*
X179962054Y-104923007D01*
X179971933Y-104906771D01*
X179980035Y-104904645D01*
X179999105Y-104908610D01*
G37*
G36*
X180881730Y-119996277D02*
G01*
X180881730Y-120781844D01*
X178459565Y-120781844D01*
X176037400Y-120781844D01*
X176037400Y-119996277D01*
X176037400Y-119210710D01*
X178459565Y-119210710D01*
X180881730Y-119210710D01*
X180881730Y-119996277D01*
G37*
G36*
X177898076Y-112390369D02*
G01*
X178032543Y-112392915D01*
X178161392Y-112396833D01*
X178279795Y-112402037D01*
X178382930Y-112408438D01*
X178465971Y-112415948D01*
X178517755Y-112423250D01*
X178622845Y-112446441D01*
X178733308Y-112477353D01*
X178841196Y-112513275D01*
X178938562Y-112551496D01*
X179017458Y-112589302D01*
X179036514Y-112600264D01*
X179170619Y-112698214D01*
X179290421Y-112819018D01*
X179392966Y-112958740D01*
X179475297Y-113113442D01*
X179527247Y-113254006D01*
X179545041Y-113315483D01*
X179559930Y-113372660D01*
X179572211Y-113428941D01*
X179582183Y-113487729D01*
X179590145Y-113552427D01*
X179596393Y-113626439D01*
X179601227Y-113713169D01*
X179604945Y-113816019D01*
X179607845Y-113938394D01*
X179610225Y-114083697D01*
X179611982Y-114220905D01*
X179613822Y-114563909D01*
X179610775Y-114892531D01*
X179602568Y-115217272D01*
X179588930Y-115548629D01*
X179569589Y-115897101D01*
X179567751Y-115926606D01*
X179550630Y-116199375D01*
X180216180Y-116199372D01*
X180881730Y-116199370D01*
X180881730Y-116999484D01*
X180881730Y-117799599D01*
X178754152Y-117799659D01*
X177833530Y-117799685D01*
X176626575Y-117799720D01*
X176342898Y-117835968D01*
X176254499Y-117847152D01*
X176175465Y-117856942D01*
X176110530Y-117864768D01*
X176064431Y-117870060D01*
X176041904Y-117872249D01*
X176041037Y-117872276D01*
X176038367Y-117867032D01*
X176035956Y-117850463D01*
X176033793Y-117821341D01*
X176031866Y-117778440D01*
X176030165Y-117720530D01*
X176028678Y-117646386D01*
X176027393Y-117554779D01*
X176026300Y-117444482D01*
X176025388Y-117314267D01*
X176024645Y-117162907D01*
X176024060Y-116989175D01*
X176023622Y-116791842D01*
X176023319Y-116569682D01*
X176023141Y-116321466D01*
X176023113Y-116199370D01*
X177156579Y-116199370D01*
X177833530Y-116199370D01*
X178510481Y-116199370D01*
X178510193Y-115315607D01*
X178509889Y-115139074D01*
X178509121Y-114973503D01*
X178507924Y-114821305D01*
X178506336Y-114684889D01*
X178504393Y-114566665D01*
X178502131Y-114469045D01*
X178499587Y-114394439D01*
X178496798Y-114345257D01*
X178495255Y-114330471D01*
X178471408Y-114225509D01*
X178432380Y-114143133D01*
X178376039Y-114079924D01*
X178313618Y-114039061D01*
X178228988Y-113995418D01*
X177860154Y-113990870D01*
X177740199Y-113989701D01*
X177645312Y-113989606D01*
X177571478Y-113990751D01*
X177514683Y-113993302D01*
X177470914Y-113997425D01*
X177436155Y-114003287D01*
X177411790Y-114009442D01*
X177321904Y-114049594D01*
X177248293Y-114111343D01*
X177195630Y-114190754D01*
X177195139Y-114191810D01*
X177189149Y-114205436D01*
X177183992Y-114219995D01*
X177179595Y-114237684D01*
X177175886Y-114260702D01*
X177172791Y-114291246D01*
X177170238Y-114331515D01*
X177168153Y-114383706D01*
X177166463Y-114450018D01*
X177165096Y-114532649D01*
X177163979Y-114633797D01*
X177163037Y-114755660D01*
X177162199Y-114900436D01*
X177161391Y-115070324D01*
X177160707Y-115228322D01*
X177156579Y-116199370D01*
X176023113Y-116199370D01*
X176023077Y-116045968D01*
X176023082Y-115904782D01*
X176023222Y-115636116D01*
X176023570Y-115379250D01*
X176024115Y-115135666D01*
X176024849Y-114906846D01*
X176025761Y-114694271D01*
X176026841Y-114499422D01*
X176028079Y-114323782D01*
X176029464Y-114168831D01*
X176030988Y-114036052D01*
X176032639Y-113926925D01*
X176034408Y-113842933D01*
X176036285Y-113785556D01*
X176037604Y-113762657D01*
X176064698Y-113530952D01*
X176106165Y-113323904D01*
X176162283Y-113140719D01*
X176233331Y-112980599D01*
X176319588Y-112842749D01*
X176388767Y-112759505D01*
X176477719Y-112673052D01*
X176571143Y-112601125D01*
X176672826Y-112542251D01*
X176786557Y-112494959D01*
X176916124Y-112457775D01*
X177065317Y-112429227D01*
X177237922Y-112407843D01*
X177310309Y-112401300D01*
X177400504Y-112395666D01*
X177509202Y-112391844D01*
X177631580Y-112389746D01*
X177762813Y-112389283D01*
X177898076Y-112390369D01*
G37*
G36*
X180804222Y-99074107D02*
G01*
X180821368Y-99109460D01*
X180838667Y-99172177D01*
X180854414Y-99251489D01*
X180856829Y-99275006D01*
X180859091Y-99317814D01*
X180861208Y-99380647D01*
X180863186Y-99464238D01*
X180865032Y-99569319D01*
X180866752Y-99696623D01*
X180868353Y-99846883D01*
X180869842Y-100020831D01*
X180871226Y-100219202D01*
X180872511Y-100442727D01*
X180873704Y-100692139D01*
X180874812Y-100968171D01*
X180875841Y-101271556D01*
X180876798Y-101603027D01*
X180877141Y-101735481D01*
X180877911Y-102044361D01*
X180878582Y-102325453D01*
X180879144Y-102580065D01*
X180879585Y-102809502D01*
X180879895Y-103015072D01*
X180880062Y-103198083D01*
X180880076Y-103359840D01*
X180879926Y-103501651D01*
X180879600Y-103624824D01*
X180879087Y-103730664D01*
X180878377Y-103820480D01*
X180877458Y-103895577D01*
X180876320Y-103957264D01*
X180874951Y-104006846D01*
X180873341Y-104045632D01*
X180871478Y-104074927D01*
X180869351Y-104096039D01*
X180866949Y-104110276D01*
X180864262Y-104118943D01*
X180861278Y-104123349D01*
X180857986Y-104124799D01*
X180856990Y-104124853D01*
X180834912Y-104123048D01*
X180788891Y-104118056D01*
X180723833Y-104110452D01*
X180644646Y-104100810D01*
X180556237Y-104089706D01*
X180547136Y-104088545D01*
X180263459Y-104052297D01*
X178150429Y-104052237D01*
X176037400Y-104052176D01*
X176037400Y-103266609D01*
X176037400Y-102481042D01*
X177899484Y-102481042D01*
X179761569Y-102481042D01*
X179761569Y-101014502D01*
X179761569Y-99547962D01*
X180264580Y-99308803D01*
X180377540Y-99255216D01*
X180482646Y-99205586D01*
X180576912Y-99161306D01*
X180657350Y-99123768D01*
X180720975Y-99094365D01*
X180764801Y-99074491D01*
X180785840Y-99065537D01*
X180786899Y-99065209D01*
X180804222Y-99074107D01*
G37*
G36*
X170808251Y-116993613D02*
G01*
X170839759Y-117017150D01*
X170883895Y-117051812D01*
X170928815Y-117088140D01*
X171210092Y-117329996D01*
X171462853Y-117571905D01*
X171687668Y-117814730D01*
X171885104Y-118059336D01*
X172055731Y-118306587D01*
X172200117Y-118557346D01*
X172318829Y-118812478D01*
X172412438Y-119072846D01*
X172481510Y-119339315D01*
X172509515Y-119490456D01*
X172526158Y-119622386D01*
X172538230Y-119778307D01*
X172545682Y-119953469D01*
X172548466Y-120143121D01*
X172546535Y-120342514D01*
X172539838Y-120546896D01*
X172528329Y-120751517D01*
X172523107Y-120822916D01*
X172512560Y-120958546D01*
X172562007Y-120950147D01*
X172590768Y-120947061D01*
X172643631Y-120943116D01*
X172715630Y-120938614D01*
X172801794Y-120933858D01*
X172897154Y-120929149D01*
X172938774Y-120927257D01*
X173267639Y-120920072D01*
X173574264Y-120928936D01*
X173860924Y-120954227D01*
X174129893Y-120996321D01*
X174383444Y-121055597D01*
X174623851Y-121132430D01*
X174853388Y-121227198D01*
X174909966Y-121254040D01*
X175139124Y-121377868D01*
X175354519Y-121520192D01*
X175561105Y-121684597D01*
X175754178Y-121864964D01*
X175943450Y-122071689D01*
X176105051Y-122285569D01*
X176239887Y-122508290D01*
X176348863Y-122741541D01*
X176432886Y-122987010D01*
X176491474Y-123238769D01*
X176502155Y-123301838D01*
X176510196Y-123362866D01*
X176515961Y-123427652D01*
X176519812Y-123501998D01*
X176522111Y-123591707D01*
X176523222Y-123702580D01*
X176523403Y-123749542D01*
X176522248Y-123897759D01*
X176517510Y-124036009D01*
X176508532Y-124169586D01*
X176494658Y-124303782D01*
X176475231Y-124443890D01*
X176449594Y-124595202D01*
X176417090Y-124763012D01*
X176377063Y-124952613D01*
X176370244Y-124983834D01*
X176352198Y-125067853D01*
X176337057Y-125141665D01*
X176325690Y-125200757D01*
X176318962Y-125240612D01*
X176317743Y-125256716D01*
X176317793Y-125256777D01*
X176333288Y-125256331D01*
X176373250Y-125251683D01*
X176433446Y-125243425D01*
X176509645Y-125232148D01*
X176597616Y-125218445D01*
X176635237Y-125212402D01*
X176813990Y-125184212D01*
X176969209Y-125161561D01*
X177105825Y-125143954D01*
X177228767Y-125130896D01*
X177342965Y-125121891D01*
X177453348Y-125116443D01*
X177564845Y-125114058D01*
X177615808Y-125113851D01*
X177899445Y-125126244D01*
X178174688Y-125163442D01*
X178442706Y-125225972D01*
X178704667Y-125314362D01*
X178961742Y-125429140D01*
X179215098Y-125570834D01*
X179465907Y-125739972D01*
X179715338Y-125937082D01*
X179964559Y-126162692D01*
X179987056Y-126184450D01*
X180161627Y-126354165D01*
X179994330Y-126221908D01*
X179763056Y-126049480D01*
X179532542Y-125899255D01*
X179294419Y-125765812D01*
X179276153Y-125756397D01*
X179078864Y-125661491D01*
X178885238Y-125581649D01*
X178692724Y-125516751D01*
X178498772Y-125466679D01*
X178300832Y-125431311D01*
X178096353Y-125410529D01*
X177882785Y-125404213D01*
X177657578Y-125412243D01*
X177418182Y-125434501D01*
X177162047Y-125470865D01*
X176886622Y-125521218D01*
X176589357Y-125585439D01*
X176430622Y-125622983D01*
X176205575Y-125677574D01*
X176157355Y-125873724D01*
X176096895Y-126133102D01*
X176044480Y-126385762D01*
X176000893Y-126627209D01*
X175966915Y-126852947D01*
X175943330Y-127058483D01*
X175936334Y-127142935D01*
X175930028Y-127430951D01*
X175952460Y-127716920D01*
X176003675Y-128000965D01*
X176083716Y-128283210D01*
X176192629Y-128563777D01*
X176330459Y-128842791D01*
X176497249Y-129120375D01*
X176693046Y-129396652D01*
X176804647Y-129537776D01*
X176826196Y-129565318D01*
X176828883Y-129572317D01*
X176812491Y-129558585D01*
X176776803Y-129523934D01*
X176721604Y-129468175D01*
X176705960Y-129452176D01*
X176476599Y-129201506D01*
X176275850Y-128948615D01*
X176103272Y-128692765D01*
X175958419Y-128433217D01*
X175840847Y-128169234D01*
X175750114Y-127900076D01*
X175731321Y-127830924D01*
X175693736Y-127669878D01*
X175667257Y-127516530D01*
X175650667Y-127360783D01*
X175642744Y-127192536D01*
X175641640Y-127088201D01*
X175643043Y-126968993D01*
X175647572Y-126852771D01*
X175655737Y-126734435D01*
X175668049Y-126608886D01*
X175685019Y-126471024D01*
X175707158Y-126315750D01*
X175734978Y-126137963D01*
X175739887Y-126107723D01*
X175754464Y-126016201D01*
X175766793Y-125934712D01*
X175776286Y-125867494D01*
X175782355Y-125818790D01*
X175784412Y-125792841D01*
X175783980Y-125789783D01*
X175768196Y-125790436D01*
X175729232Y-125796702D01*
X175672251Y-125807623D01*
X175602415Y-125822245D01*
X175569136Y-125829562D01*
X175374341Y-125871989D01*
X175202613Y-125906943D01*
X175049073Y-125935057D01*
X174908843Y-125956960D01*
X174838350Y-125965690D01*
X174777045Y-125973282D01*
X174648801Y-125984654D01*
X174519233Y-125991706D01*
X174383463Y-125995069D01*
X174284421Y-125995568D01*
X174164417Y-125994992D01*
X174067831Y-125993426D01*
X173988991Y-125990521D01*
X173922228Y-125985932D01*
X173861870Y-125979309D01*
X173802249Y-125970308D01*
X173765399Y-125963791D01*
X173637120Y-125936098D01*
X173499751Y-125899406D01*
X173363872Y-125856924D01*
X173240064Y-125811864D01*
X173176133Y-125784996D01*
X172974349Y-125680540D01*
X172774433Y-125550298D01*
X172579612Y-125397550D01*
X172393108Y-125225573D01*
X172218147Y-125037648D01*
X172057953Y-124837051D01*
X171915751Y-124627061D01*
X171794766Y-124410958D01*
X171765680Y-124350973D01*
X171670285Y-124123318D01*
X171592472Y-123884184D01*
X171531895Y-123631406D01*
X171488210Y-123362820D01*
X171461069Y-123076260D01*
X171450126Y-122769561D01*
X171451360Y-122686852D01*
X172389966Y-122686852D01*
X172390440Y-122805202D01*
X172391876Y-122911786D01*
X172394320Y-123001496D01*
X172397819Y-123069225D01*
X172399413Y-123087922D01*
X172441576Y-123386391D01*
X172506720Y-123667340D01*
X172595208Y-123931550D01*
X172707400Y-124179799D01*
X172843656Y-124412866D01*
X173004339Y-124631532D01*
X173189809Y-124836575D01*
X173226442Y-124872665D01*
X173380056Y-125006998D01*
X173544537Y-125122337D01*
X173721289Y-125218987D01*
X173911719Y-125297250D01*
X174117234Y-125357428D01*
X174339240Y-125399824D01*
X174579143Y-125424740D01*
X174838350Y-125432478D01*
X175118267Y-125423342D01*
X175420300Y-125397634D01*
X175579152Y-125378775D01*
X175675501Y-125366228D01*
X175746909Y-125356343D01*
X175797304Y-125348177D01*
X175830615Y-125340783D01*
X175850772Y-125333215D01*
X175861702Y-125324527D01*
X175867336Y-125313774D01*
X175868883Y-125309021D01*
X175873222Y-125286707D01*
X175880346Y-125240995D01*
X175889462Y-125177360D01*
X175899775Y-125101277D01*
X175906634Y-125048611D01*
X175934923Y-124801127D01*
X175953148Y-124576795D01*
X175961480Y-124371527D01*
X175960090Y-124181241D01*
X175949986Y-124011397D01*
X175918623Y-123759234D01*
X175869262Y-123528355D01*
X175800796Y-123316354D01*
X175712120Y-123120828D01*
X175602125Y-122939369D01*
X175469707Y-122769572D01*
X175313757Y-122609032D01*
X175298200Y-122594654D01*
X175084861Y-122417184D01*
X174859190Y-122264793D01*
X174620085Y-122137008D01*
X174366442Y-122033354D01*
X174097158Y-121953358D01*
X173811128Y-121896545D01*
X173615528Y-121871807D01*
X173557364Y-121867901D01*
X173475302Y-121865066D01*
X173374451Y-121863258D01*
X173259916Y-121862428D01*
X173136806Y-121862532D01*
X173010227Y-121863521D01*
X172885286Y-121865351D01*
X172767090Y-121867974D01*
X172660746Y-121871345D01*
X172571361Y-121875416D01*
X172504042Y-121880142D01*
X172485521Y-121882074D01*
X172417777Y-121890171D01*
X172409680Y-121957915D01*
X172404721Y-122015637D01*
X172400399Y-122097342D01*
X172396760Y-122197922D01*
X172393851Y-122312269D01*
X172391718Y-122435278D01*
X172390408Y-122561842D01*
X172389966Y-122686852D01*
X171451360Y-122686852D01*
X171455035Y-122440558D01*
X171456060Y-122414258D01*
X171460295Y-122317599D01*
X171464826Y-122227501D01*
X171469342Y-122149190D01*
X171473537Y-122087894D01*
X171477100Y-122048841D01*
X171478021Y-122042112D01*
X171487163Y-121985829D01*
X171380122Y-121994592D01*
X171297802Y-122000008D01*
X171195735Y-122004637D01*
X171078867Y-122008436D01*
X170952142Y-122011363D01*
X170820505Y-122013377D01*
X170688899Y-122014435D01*
X170562270Y-122014495D01*
X170445561Y-122013516D01*
X170343717Y-122011455D01*
X170261683Y-122008270D01*
X170210137Y-122004538D01*
X169920160Y-121961950D01*
X169639105Y-121894022D01*
X169366116Y-121800281D01*
X169100337Y-121680255D01*
X168840914Y-121533472D01*
X168586991Y-121359461D01*
X168337714Y-121157748D01*
X168092226Y-120927862D01*
X167906890Y-120733164D01*
X167837073Y-120655479D01*
X167769001Y-120578137D01*
X167704659Y-120503575D01*
X167646034Y-120434228D01*
X167595114Y-120372531D01*
X167553884Y-120320920D01*
X167524332Y-120281830D01*
X167508443Y-120257697D01*
X167508205Y-120250958D01*
X167520953Y-120260009D01*
X167543593Y-120277015D01*
X167584775Y-120305973D01*
X167638714Y-120342878D01*
X167699622Y-120383723D01*
X167701661Y-120385077D01*
X167971377Y-120551096D01*
X168246440Y-120694030D01*
X168530124Y-120815034D01*
X168825702Y-120915263D01*
X169136449Y-120995870D01*
X169465639Y-121058010D01*
X169701947Y-121090336D01*
X169779368Y-121097076D01*
X169881219Y-121102331D01*
X170002875Y-121106125D01*
X170139711Y-121108479D01*
X170287100Y-121109417D01*
X170440419Y-121108963D01*
X170595041Y-121107139D01*
X170746341Y-121103967D01*
X170889694Y-121099472D01*
X171020473Y-121093676D01*
X171134054Y-121086602D01*
X171178522Y-121082990D01*
X171294589Y-121072677D01*
X171384983Y-121064354D01*
X171452998Y-121057295D01*
X171501930Y-121050774D01*
X171535074Y-121044068D01*
X171555725Y-121036449D01*
X171567177Y-121027195D01*
X171572726Y-121015578D01*
X171575666Y-121000874D01*
X171576597Y-120995382D01*
X171589664Y-120904196D01*
X171601522Y-120787749D01*
X171611974Y-120649860D01*
X171620822Y-120494344D01*
X171627868Y-120325020D01*
X171632914Y-120145704D01*
X171635761Y-119960213D01*
X171636336Y-119843528D01*
X171636101Y-119680983D01*
X171634891Y-119542676D01*
X171632390Y-119423758D01*
X171628281Y-119319381D01*
X171622248Y-119224694D01*
X171613973Y-119134850D01*
X171603139Y-119044997D01*
X171589431Y-118950288D01*
X171572530Y-118845873D01*
X171570275Y-118832474D01*
X171498797Y-118493641D01*
X171400376Y-118161547D01*
X171276146Y-117838996D01*
X171127237Y-117528794D01*
X170954783Y-117233746D01*
X170878706Y-117119502D01*
X170842531Y-117066130D01*
X170814483Y-117022774D01*
X170797530Y-116994165D01*
X170794246Y-116984937D01*
X170808251Y-116993613D01*
G37*
G36*
X177001838Y-129739196D02*
G01*
X177004811Y-129743127D01*
X177004146Y-129756554D01*
X176999254Y-129757674D01*
X176978689Y-129747058D01*
X176975716Y-129743127D01*
X176976381Y-129729700D01*
X176981273Y-129728579D01*
X177001838Y-129739196D01*
G37*
G36*
X168822169Y-116236776D02*
G01*
X168831515Y-116263536D01*
X168843057Y-116317458D01*
X168856611Y-116394781D01*
X168888628Y-116542426D01*
X168936211Y-116701187D01*
X168995953Y-116862382D01*
X169064445Y-117017329D01*
X169138278Y-117157345D01*
X169186108Y-117234138D01*
X169280810Y-117362787D01*
X169392276Y-117493720D01*
X169514150Y-117620520D01*
X169640083Y-117736766D01*
X169763719Y-117836039D01*
X169822480Y-117877166D01*
X169963603Y-117961027D01*
X170122495Y-118039280D01*
X170291006Y-118108780D01*
X170460985Y-118166384D01*
X170624283Y-118208946D01*
X170733107Y-118228507D01*
X170797101Y-118238887D01*
X170832120Y-118248265D01*
X170838262Y-118256751D01*
X170815627Y-118264457D01*
X170770529Y-118270839D01*
X170700406Y-118281737D01*
X170611585Y-118300433D01*
X170512687Y-118324712D01*
X170412330Y-118352358D01*
X170319134Y-118381155D01*
X170257935Y-118402621D01*
X170050704Y-118495370D01*
X169849563Y-118614127D01*
X169658200Y-118755905D01*
X169480300Y-118917716D01*
X169319551Y-119096572D01*
X169197913Y-119261626D01*
X169083078Y-119452887D01*
X168990320Y-119650935D01*
X168917177Y-119861857D01*
X168861185Y-120091738D01*
X168860463Y-120095362D01*
X168846419Y-120163930D01*
X168833816Y-120221536D01*
X168823957Y-120262489D01*
X168818144Y-120281101D01*
X168817848Y-120281503D01*
X168812972Y-120271935D01*
X168806802Y-120240124D01*
X168800627Y-120192808D01*
X168800292Y-120189691D01*
X168777111Y-120048288D01*
X168737553Y-119893475D01*
X168684513Y-119733639D01*
X168620886Y-119577168D01*
X168549566Y-119432448D01*
X168522356Y-119384487D01*
X168384239Y-119176775D01*
X168225581Y-118984838D01*
X168049280Y-118811323D01*
X167858232Y-118658876D01*
X167655336Y-118530142D01*
X167502591Y-118453195D01*
X167413988Y-118416842D01*
X167312044Y-118380827D01*
X167203106Y-118346861D01*
X167093522Y-118316657D01*
X166989640Y-118291926D01*
X166897807Y-118274380D01*
X166824373Y-118265731D01*
X166805082Y-118265120D01*
X166775983Y-118261776D01*
X166771709Y-118254131D01*
X166789074Y-118245765D01*
X166824895Y-118240259D01*
X166827320Y-118240112D01*
X166926045Y-118228105D01*
X167043442Y-118203215D01*
X167173147Y-118167384D01*
X167308798Y-118122554D01*
X167444030Y-118070668D01*
X167572482Y-118013667D01*
X167578007Y-118011010D01*
X167781353Y-117897214D01*
X167973732Y-117758603D01*
X168152390Y-117598273D01*
X168314572Y-117419320D01*
X168457522Y-117224841D01*
X168578486Y-117017932D01*
X168674710Y-116801691D01*
X168689171Y-116762069D01*
X168741066Y-116600500D01*
X168778535Y-116451886D01*
X168800315Y-116321300D01*
X168801471Y-116310528D01*
X168807732Y-116261164D01*
X168814436Y-116236282D01*
X168822169Y-116236776D01*
G37*
D13*
X188030000Y-131375000D02*
X187420000Y-131815000D01*
X187420000Y-130935000D01*
X188030000Y-131375000D01*
G36*
X188030000Y-131375000D02*
G01*
X187420000Y-131815000D01*
X187420000Y-130935000D01*
X188030000Y-131375000D01*
G37*
X193910000Y-136375000D02*
G75*
G02*
X189990000Y-136375000I-1960000J0D01*
G01*
X189990000Y-136375000D02*
G75*
G02*
X193910000Y-136375000I1960000J0D01*
G01*
X192504000Y-133255000D02*
G75*
G02*
X191395528Y-133254861I-554000J1880000D01*
G01*
X190070000Y-131929000D02*
G75*
G02*
X190070139Y-130820528I1879990J554000D01*
G01*
X193830000Y-130821000D02*
G75*
G02*
X193829861Y-131929472I-1880000J-554000D01*
G01*
X191396000Y-129495000D02*
G75*
G02*
X192504472Y-129495139I554000J-1879990D01*
G01*
X196070000Y-138995000D02*
X188030000Y-138995000D01*
X191450000Y-138187000D02*
X191450000Y-138995000D01*
X192450000Y-138187000D02*
X192450000Y-138995000D01*
X193197000Y-137862000D02*
X193154000Y-137819000D01*
X193436000Y-137622000D02*
X193393000Y-137579000D01*
X190150000Y-136918000D02*
X190150000Y-138995000D01*
X190507000Y-135170000D02*
X190464000Y-135127000D01*
X190746000Y-134931000D02*
X190703000Y-134888000D01*
X190150000Y-133255000D02*
X190150000Y-135832000D01*
X191450000Y-133255000D02*
X191450000Y-134563000D01*
X192450000Y-133255000D02*
X192450000Y-134563000D01*
X188030000Y-131675000D02*
X188030000Y-138995000D01*
X188030000Y-128255000D02*
X188030000Y-131075000D01*
X190150000Y-128255000D02*
X190150000Y-129495000D01*
X191450000Y-128255000D02*
X191450000Y-129495000D01*
X192450000Y-128255000D02*
X192450000Y-129495000D01*
X196070000Y-128255000D02*
X196070000Y-138995000D01*
X196070000Y-128255000D02*
X188030000Y-128255000D01*
X196070000Y-127245000D02*
X188030000Y-127245000D01*
X191450000Y-126437000D02*
X191450000Y-127245000D01*
X192450000Y-126437000D02*
X192450000Y-127245000D01*
X193197000Y-126112000D02*
X193154000Y-126069000D01*
X193436000Y-125872000D02*
X193393000Y-125829000D01*
X190150000Y-125168000D02*
X190150000Y-127245000D01*
X190507000Y-123420000D02*
X190464000Y-123377000D01*
X190746000Y-123181000D02*
X190703000Y-123138000D01*
X190150000Y-121505000D02*
X190150000Y-124082000D01*
X191450000Y-121505000D02*
X191450000Y-122813000D01*
X192450000Y-121505000D02*
X192450000Y-122813000D01*
X188030000Y-119925000D02*
X188030000Y-127245000D01*
X188030000Y-116505000D02*
X188030000Y-119325000D01*
X190150000Y-116505000D02*
X190150000Y-117745000D01*
X191450000Y-116505000D02*
X191450000Y-117745000D01*
X192450000Y-116505000D02*
X192450000Y-117745000D01*
X196070000Y-116505000D02*
X196070000Y-127245000D01*
X196070000Y-116505000D02*
X188030000Y-116505000D01*
X192504000Y-121505000D02*
G75*
G02*
X191395528Y-121504861I-554000J1880000D01*
G01*
X190070000Y-120179000D02*
G75*
G02*
X190070139Y-119070528I1879990J554000D01*
G01*
X193830000Y-119071000D02*
G75*
G02*
X193829861Y-120179472I-1880000J-554000D01*
G01*
X191396000Y-117745000D02*
G75*
G02*
X192504472Y-117745139I554000J-1879990D01*
G01*
X193910000Y-124625000D02*
G75*
G02*
X189990000Y-124625000I-1960000J0D01*
G01*
X189990000Y-124625000D02*
G75*
G02*
X193910000Y-124625000I1960000J0D01*
G01*
X188030000Y-119625000D02*
X187420000Y-120065000D01*
X187420000Y-119185000D01*
X188030000Y-119625000D01*
G36*
X188030000Y-119625000D02*
G01*
X187420000Y-120065000D01*
X187420000Y-119185000D01*
X188030000Y-119625000D01*
G37*
X131255000Y-100940000D02*
X130645000Y-100500000D01*
X131255000Y-100060000D01*
X131255000Y-100940000D01*
G36*
X131255000Y-100940000D02*
G01*
X130645000Y-100500000D01*
X131255000Y-100060000D01*
X131255000Y-100940000D01*
G37*
X128685000Y-95500000D02*
G75*
G02*
X124765000Y-95500000I-1960000J0D01*
G01*
X124765000Y-95500000D02*
G75*
G02*
X128685000Y-95500000I1960000J0D01*
G01*
X126171000Y-98620000D02*
G75*
G02*
X127279472Y-98620139I554000J-1880000D01*
G01*
X128605000Y-99946000D02*
G75*
G02*
X128604861Y-101054472I-1879990J-554000D01*
G01*
X124845000Y-101054000D02*
G75*
G02*
X124845139Y-99945528I1880000J554000D01*
G01*
X127279000Y-102380000D02*
G75*
G02*
X126170528Y-102379861I-554000J1879990D01*
G01*
X122605000Y-92880000D02*
X130645000Y-92880000D01*
X127225000Y-93688000D02*
X127225000Y-92880000D01*
X126225000Y-93688000D02*
X126225000Y-92880000D01*
X125478000Y-94013000D02*
X125521000Y-94056000D01*
X125239000Y-94253000D02*
X125282000Y-94296000D01*
X128525000Y-94957000D02*
X128525000Y-92880000D01*
X128168000Y-96705000D02*
X128211000Y-96748000D01*
X127929000Y-96944000D02*
X127972000Y-96987000D01*
X128525000Y-98620000D02*
X128525000Y-96043000D01*
X127225000Y-98620000D02*
X127225000Y-97312000D01*
X126225000Y-98620000D02*
X126225000Y-97312000D01*
X130645000Y-100200000D02*
X130645000Y-92880000D01*
X130645000Y-103620000D02*
X130645000Y-100800000D01*
X128525000Y-103620000D02*
X128525000Y-102380000D01*
X127225000Y-103620000D02*
X127225000Y-102380000D01*
X126225000Y-103620000D02*
X126225000Y-102380000D01*
X122605000Y-103620000D02*
X122605000Y-92880000D01*
X122605000Y-103620000D02*
X130645000Y-103620000D01*
X131255000Y-112690000D02*
X130645000Y-112250000D01*
X131255000Y-111810000D01*
X131255000Y-112690000D01*
G36*
X131255000Y-112690000D02*
G01*
X130645000Y-112250000D01*
X131255000Y-111810000D01*
X131255000Y-112690000D01*
G37*
X128685000Y-107250000D02*
G75*
G02*
X124765000Y-107250000I-1960000J0D01*
G01*
X124765000Y-107250000D02*
G75*
G02*
X128685000Y-107250000I1960000J0D01*
G01*
X126171000Y-110370000D02*
G75*
G02*
X127279472Y-110370139I554000J-1880000D01*
G01*
X128605000Y-111696000D02*
G75*
G02*
X128604861Y-112804472I-1879990J-554000D01*
G01*
X124845000Y-112804000D02*
G75*
G02*
X124845139Y-111695528I1880000J554000D01*
G01*
X127279000Y-114130000D02*
G75*
G02*
X126170528Y-114129861I-554000J1879990D01*
G01*
X122605000Y-104630000D02*
X130645000Y-104630000D01*
X127225000Y-105438000D02*
X127225000Y-104630000D01*
X126225000Y-105438000D02*
X126225000Y-104630000D01*
X125478000Y-105763000D02*
X125521000Y-105806000D01*
X125239000Y-106003000D02*
X125282000Y-106046000D01*
X128525000Y-106707000D02*
X128525000Y-104630000D01*
X128168000Y-108455000D02*
X128211000Y-108498000D01*
X127929000Y-108694000D02*
X127972000Y-108737000D01*
X128525000Y-110370000D02*
X128525000Y-107793000D01*
X127225000Y-110370000D02*
X127225000Y-109062000D01*
X126225000Y-110370000D02*
X126225000Y-109062000D01*
X130645000Y-111950000D02*
X130645000Y-104630000D01*
X130645000Y-115370000D02*
X130645000Y-112550000D01*
X128525000Y-115370000D02*
X128525000Y-114130000D01*
X127225000Y-115370000D02*
X127225000Y-114130000D01*
X126225000Y-115370000D02*
X126225000Y-114130000D01*
X122605000Y-115370000D02*
X122605000Y-104630000D01*
X122605000Y-115370000D02*
X130645000Y-115370000D01*
X139045000Y-94745000D02*
X140045000Y-94745000D01*
X139045000Y-91385000D02*
X140045000Y-91385000D01*
X113505000Y-131375000D02*
X112895000Y-131815000D01*
X112895000Y-130935000D01*
X113505000Y-131375000D01*
G36*
X113505000Y-131375000D02*
G01*
X112895000Y-131815000D01*
X112895000Y-130935000D01*
X113505000Y-131375000D01*
G37*
X119385000Y-136375000D02*
G75*
G02*
X115465000Y-136375000I-1960000J0D01*
G01*
X115465000Y-136375000D02*
G75*
G02*
X119385000Y-136375000I1960000J0D01*
G01*
X117979000Y-133255000D02*
G75*
G02*
X116870528Y-133254861I-554000J1880000D01*
G01*
X115545000Y-131929000D02*
G75*
G02*
X115545139Y-130820528I1879990J554000D01*
G01*
X119305000Y-130821000D02*
G75*
G02*
X119304861Y-131929472I-1880000J-554000D01*
G01*
X116871000Y-129495000D02*
G75*
G02*
X117979472Y-129495139I554000J-1879990D01*
G01*
X121545000Y-138995000D02*
X113505000Y-138995000D01*
X116925000Y-138187000D02*
X116925000Y-138995000D01*
X117925000Y-138187000D02*
X117925000Y-138995000D01*
X118672000Y-137862000D02*
X118629000Y-137819000D01*
X118911000Y-137622000D02*
X118868000Y-137579000D01*
X115625000Y-136918000D02*
X115625000Y-138995000D01*
X115982000Y-135170000D02*
X115939000Y-135127000D01*
X116221000Y-134931000D02*
X116178000Y-134888000D01*
X115625000Y-133255000D02*
X115625000Y-135832000D01*
X116925000Y-133255000D02*
X116925000Y-134563000D01*
X117925000Y-133255000D02*
X117925000Y-134563000D01*
X113505000Y-131675000D02*
X113505000Y-138995000D01*
X113505000Y-128255000D02*
X113505000Y-131075000D01*
X115625000Y-128255000D02*
X115625000Y-129495000D01*
X116925000Y-128255000D02*
X116925000Y-129495000D01*
X117925000Y-128255000D02*
X117925000Y-129495000D01*
X121545000Y-128255000D02*
X121545000Y-138995000D01*
X121545000Y-128255000D02*
X113505000Y-128255000D01*
X205780000Y-100940000D02*
X205170000Y-100500000D01*
X205780000Y-100060000D01*
X205780000Y-100940000D01*
G36*
X205780000Y-100940000D02*
G01*
X205170000Y-100500000D01*
X205780000Y-100060000D01*
X205780000Y-100940000D01*
G37*
X203210000Y-95500000D02*
G75*
G02*
X199290000Y-95500000I-1960000J0D01*
G01*
X199290000Y-95500000D02*
G75*
G02*
X203210000Y-95500000I1960000J0D01*
G01*
X203130000Y-99946000D02*
G75*
G02*
X203129861Y-101054472I-1879990J-554000D01*
G01*
X201804000Y-102380000D02*
G75*
G02*
X200695528Y-102379861I-554000J1879990D01*
G01*
X200696000Y-98620000D02*
G75*
G02*
X201804472Y-98620139I554000J-1880000D01*
G01*
X199370000Y-101054000D02*
G75*
G02*
X199370139Y-99945528I1880000J554000D01*
G01*
X205170000Y-103620000D02*
X205170000Y-100800000D01*
X205170000Y-100200000D02*
X205170000Y-92880000D01*
X203050000Y-103620000D02*
X203050000Y-102380000D01*
X203050000Y-98620000D02*
X203050000Y-96043000D01*
X203050000Y-94957000D02*
X203050000Y-92880000D01*
X202693000Y-96705000D02*
X202736000Y-96748000D01*
X202454000Y-96944000D02*
X202497000Y-96987000D01*
X201750000Y-103620000D02*
X201750000Y-102380000D01*
X201750000Y-98620000D02*
X201750000Y-97312000D01*
X201750000Y-93688000D02*
X201750000Y-92880000D01*
X200750000Y-103620000D02*
X200750000Y-102380000D01*
X200750000Y-98620000D02*
X200750000Y-97312000D01*
X200750000Y-93688000D02*
X200750000Y-92880000D01*
X200003000Y-94013000D02*
X200046000Y-94056000D01*
X199764000Y-94253000D02*
X199807000Y-94296000D01*
X197130000Y-103620000D02*
X205170000Y-103620000D01*
X197130000Y-103620000D02*
X197130000Y-92880000D01*
X197130000Y-92880000D02*
X205170000Y-92880000D01*
X205780000Y-89065000D02*
X205170000Y-88625000D01*
X205780000Y-88185000D01*
X205780000Y-89065000D01*
G36*
X205780000Y-89065000D02*
G01*
X205170000Y-88625000D01*
X205780000Y-88185000D01*
X205780000Y-89065000D01*
G37*
X203210000Y-83625000D02*
G75*
G02*
X199290000Y-83625000I-1960000J0D01*
G01*
X199290000Y-83625000D02*
G75*
G02*
X203210000Y-83625000I1960000J0D01*
G01*
X203130000Y-88071000D02*
G75*
G02*
X203129861Y-89179472I-1879990J-554000D01*
G01*
X201804000Y-90505000D02*
G75*
G02*
X200695528Y-90504861I-554000J1879990D01*
G01*
X200696000Y-86745000D02*
G75*
G02*
X201804472Y-86745139I554000J-1880000D01*
G01*
X199370000Y-89179000D02*
G75*
G02*
X199370139Y-88070528I1880000J554000D01*
G01*
X205170000Y-91745000D02*
X205170000Y-88925000D01*
X205170000Y-88325000D02*
X205170000Y-81005000D01*
X203050000Y-91745000D02*
X203050000Y-90505000D01*
X203050000Y-86745000D02*
X203050000Y-84168000D01*
X203050000Y-83082000D02*
X203050000Y-81005000D01*
X202693000Y-84830000D02*
X202736000Y-84873000D01*
X202454000Y-85069000D02*
X202497000Y-85112000D01*
X201750000Y-91745000D02*
X201750000Y-90505000D01*
X201750000Y-86745000D02*
X201750000Y-85437000D01*
X201750000Y-81813000D02*
X201750000Y-81005000D01*
X200750000Y-91745000D02*
X200750000Y-90505000D01*
X200750000Y-86745000D02*
X200750000Y-85437000D01*
X200750000Y-81813000D02*
X200750000Y-81005000D01*
X200003000Y-82138000D02*
X200046000Y-82181000D01*
X199764000Y-82378000D02*
X199807000Y-82421000D01*
X197130000Y-91745000D02*
X205170000Y-91745000D01*
X197130000Y-91745000D02*
X197130000Y-81005000D01*
X197130000Y-81005000D02*
X205170000Y-81005000D01*
X188030000Y-72375000D02*
X187420000Y-72815000D01*
X187420000Y-71935000D01*
X188030000Y-72375000D01*
G36*
X188030000Y-72375000D02*
G01*
X187420000Y-72815000D01*
X187420000Y-71935000D01*
X188030000Y-72375000D01*
G37*
X193910000Y-77375000D02*
G75*
G02*
X189990000Y-77375000I-1960000J0D01*
G01*
X189990000Y-77375000D02*
G75*
G02*
X193910000Y-77375000I1960000J0D01*
G01*
X190070000Y-72929000D02*
G75*
G02*
X190070139Y-71820528I1879990J554000D01*
G01*
X191396000Y-70495000D02*
G75*
G02*
X192504472Y-70495139I554000J-1879990D01*
G01*
X192504000Y-74255000D02*
G75*
G02*
X191395528Y-74254861I-554000J1880000D01*
G01*
X193830000Y-71821000D02*
G75*
G02*
X193829861Y-72929472I-1880000J-554000D01*
G01*
X188030000Y-69255000D02*
X188030000Y-72075000D01*
X188030000Y-72675000D02*
X188030000Y-79995000D01*
X190150000Y-69255000D02*
X190150000Y-70495000D01*
X190150000Y-74255000D02*
X190150000Y-76832000D01*
X190150000Y-77918000D02*
X190150000Y-79995000D01*
X190507000Y-76170000D02*
X190464000Y-76127000D01*
X190746000Y-75931000D02*
X190703000Y-75888000D01*
X191450000Y-69255000D02*
X191450000Y-70495000D01*
X191450000Y-74255000D02*
X191450000Y-75563000D01*
X191450000Y-79187000D02*
X191450000Y-79995000D01*
X192450000Y-69255000D02*
X192450000Y-70495000D01*
X192450000Y-74255000D02*
X192450000Y-75563000D01*
X192450000Y-79187000D02*
X192450000Y-79995000D01*
X193197000Y-78862000D02*
X193154000Y-78819000D01*
X193436000Y-78622000D02*
X193393000Y-78579000D01*
X196070000Y-69255000D02*
X188030000Y-69255000D01*
X196070000Y-69255000D02*
X196070000Y-79995000D01*
X196070000Y-79995000D02*
X188030000Y-79995000D01*
X188030000Y-84125000D02*
X187420000Y-84565000D01*
X187420000Y-83685000D01*
X188030000Y-84125000D01*
G36*
X188030000Y-84125000D02*
G01*
X187420000Y-84565000D01*
X187420000Y-83685000D01*
X188030000Y-84125000D01*
G37*
X193910000Y-89125000D02*
G75*
G02*
X189990000Y-89125000I-1960000J0D01*
G01*
X189990000Y-89125000D02*
G75*
G02*
X193910000Y-89125000I1960000J0D01*
G01*
X193830000Y-83571000D02*
G75*
G02*
X193829861Y-84679472I-1880000J-554000D01*
G01*
X192504000Y-86005000D02*
G75*
G02*
X191395528Y-86004861I-554000J1880000D01*
G01*
X191396000Y-82245000D02*
G75*
G02*
X192504472Y-82245139I554000J-1879990D01*
G01*
X190070000Y-84679000D02*
G75*
G02*
X190070139Y-83570528I1879990J554000D01*
G01*
X196070000Y-91745000D02*
X188030000Y-91745000D01*
X196070000Y-81005000D02*
X196070000Y-91745000D01*
X196070000Y-81005000D02*
X188030000Y-81005000D01*
X193436000Y-90372000D02*
X193393000Y-90329000D01*
X193197000Y-90612000D02*
X193154000Y-90569000D01*
X192450000Y-90937000D02*
X192450000Y-91745000D01*
X192450000Y-86005000D02*
X192450000Y-87313000D01*
X192450000Y-81005000D02*
X192450000Y-82245000D01*
X191450000Y-90937000D02*
X191450000Y-91745000D01*
X191450000Y-86005000D02*
X191450000Y-87313000D01*
X191450000Y-81005000D02*
X191450000Y-82245000D01*
X190746000Y-87681000D02*
X190703000Y-87638000D01*
X190507000Y-87920000D02*
X190464000Y-87877000D01*
X190150000Y-89668000D02*
X190150000Y-91745000D01*
X190150000Y-86005000D02*
X190150000Y-88582000D01*
X190150000Y-81005000D02*
X190150000Y-82245000D01*
X188030000Y-84425000D02*
X188030000Y-91745000D01*
X188030000Y-81005000D02*
X188030000Y-83825000D01*
X205655000Y-136315000D02*
X205045000Y-135875000D01*
X205655000Y-135435000D01*
X205655000Y-136315000D01*
G36*
X205655000Y-136315000D02*
G01*
X205045000Y-135875000D01*
X205655000Y-135435000D01*
X205655000Y-136315000D01*
G37*
X203085000Y-130875000D02*
G75*
G02*
X199165000Y-130875000I-1960000J0D01*
G01*
X199165000Y-130875000D02*
G75*
G02*
X203085000Y-130875000I1960000J0D01*
G01*
X200571000Y-133995000D02*
G75*
G02*
X201679472Y-133995139I554000J-1880000D01*
G01*
X203005000Y-135321000D02*
G75*
G02*
X203004861Y-136429472I-1879990J-554000D01*
G01*
X199245000Y-136429000D02*
G75*
G02*
X199245139Y-135320528I1880000J554000D01*
G01*
X201679000Y-137755000D02*
G75*
G02*
X200570528Y-137754861I-554000J1879990D01*
G01*
X197005000Y-128255000D02*
X205045000Y-128255000D01*
X201625000Y-129063000D02*
X201625000Y-128255000D01*
X200625000Y-129063000D02*
X200625000Y-128255000D01*
X199878000Y-129388000D02*
X199921000Y-129431000D01*
X199639000Y-129628000D02*
X199682000Y-129671000D01*
X202925000Y-130332000D02*
X202925000Y-128255000D01*
X202568000Y-132080000D02*
X202611000Y-132123000D01*
X202329000Y-132319000D02*
X202372000Y-132362000D01*
X202925000Y-133995000D02*
X202925000Y-131418000D01*
X201625000Y-133995000D02*
X201625000Y-132687000D01*
X200625000Y-133995000D02*
X200625000Y-132687000D01*
X205045000Y-135575000D02*
X205045000Y-128255000D01*
X205045000Y-138995000D02*
X205045000Y-136175000D01*
X202925000Y-138995000D02*
X202925000Y-137755000D01*
X201625000Y-138995000D02*
X201625000Y-137755000D01*
X200625000Y-138995000D02*
X200625000Y-137755000D01*
X197005000Y-138995000D02*
X197005000Y-128255000D01*
X197005000Y-138995000D02*
X205045000Y-138995000D01*
X139045000Y-61385000D02*
X140045000Y-61385000D01*
X139045000Y-64745000D02*
X140045000Y-64745000D01*
X121545000Y-57380000D02*
X113505000Y-57380000D01*
X121545000Y-57380000D02*
X121545000Y-68120000D01*
X117925000Y-57380000D02*
X117925000Y-58620000D01*
X116925000Y-57380000D02*
X116925000Y-58620000D01*
X115625000Y-57380000D02*
X115625000Y-58620000D01*
X113505000Y-57380000D02*
X113505000Y-60200000D01*
X113505000Y-60800000D02*
X113505000Y-68120000D01*
X117925000Y-62380000D02*
X117925000Y-63688000D01*
X116925000Y-62380000D02*
X116925000Y-63688000D01*
X115625000Y-62380000D02*
X115625000Y-64957000D01*
X116221000Y-64056000D02*
X116178000Y-64013000D01*
X115982000Y-64295000D02*
X115939000Y-64252000D01*
X115625000Y-66043000D02*
X115625000Y-68120000D01*
X118911000Y-66747000D02*
X118868000Y-66704000D01*
X118672000Y-66987000D02*
X118629000Y-66944000D01*
X117925000Y-67312000D02*
X117925000Y-68120000D01*
X116925000Y-67312000D02*
X116925000Y-68120000D01*
X121545000Y-68120000D02*
X113505000Y-68120000D01*
X116871000Y-58620000D02*
G75*
G02*
X117979472Y-58620139I554000J-1879990D01*
G01*
X119305000Y-59946000D02*
G75*
G02*
X119304861Y-61054472I-1880000J-554000D01*
G01*
X115545000Y-61054000D02*
G75*
G02*
X115545139Y-59945528I1879990J554000D01*
G01*
X117979000Y-62380000D02*
G75*
G02*
X116870528Y-62379861I-554000J1880000D01*
G01*
X119385000Y-65500000D02*
G75*
G02*
X115465000Y-65500000I-1960000J0D01*
G01*
X115465000Y-65500000D02*
G75*
G02*
X119385000Y-65500000I1960000J0D01*
G01*
X113505000Y-60500000D02*
X112895000Y-60940000D01*
X112895000Y-60060000D01*
X113505000Y-60500000D01*
G36*
X113505000Y-60500000D02*
G01*
X112895000Y-60940000D01*
X112895000Y-60060000D01*
X113505000Y-60500000D01*
G37*
X188030000Y-92880000D02*
X188030000Y-95700000D01*
X188030000Y-96300000D02*
X188030000Y-103620000D01*
X190150000Y-92880000D02*
X190150000Y-94120000D01*
X190150000Y-97880000D02*
X190150000Y-100457000D01*
X190150000Y-101543000D02*
X190150000Y-103620000D01*
X190507000Y-99795000D02*
X190464000Y-99752000D01*
X190746000Y-99556000D02*
X190703000Y-99513000D01*
X191450000Y-92880000D02*
X191450000Y-94120000D01*
X191450000Y-97880000D02*
X191450000Y-99188000D01*
X191450000Y-102812000D02*
X191450000Y-103620000D01*
X192450000Y-92880000D02*
X192450000Y-94120000D01*
X192450000Y-97880000D02*
X192450000Y-99188000D01*
X192450000Y-102812000D02*
X192450000Y-103620000D01*
X193197000Y-102487000D02*
X193154000Y-102444000D01*
X193436000Y-102247000D02*
X193393000Y-102204000D01*
X196070000Y-92880000D02*
X188030000Y-92880000D01*
X196070000Y-92880000D02*
X196070000Y-103620000D01*
X196070000Y-103620000D02*
X188030000Y-103620000D01*
X190070000Y-96554000D02*
G75*
G02*
X190070139Y-95445528I1879990J554000D01*
G01*
X191396000Y-94120000D02*
G75*
G02*
X192504472Y-94120139I554000J-1879990D01*
G01*
X192504000Y-97880000D02*
G75*
G02*
X191395528Y-97879861I-554000J1880000D01*
G01*
X193830000Y-95446000D02*
G75*
G02*
X193829861Y-96554472I-1880000J-554000D01*
G01*
X193910000Y-101000000D02*
G75*
G02*
X189990000Y-101000000I-1960000J0D01*
G01*
X189990000Y-101000000D02*
G75*
G02*
X193910000Y-101000000I1960000J0D01*
G01*
X188030000Y-96000000D02*
X187420000Y-96440000D01*
X187420000Y-95560000D01*
X188030000Y-96000000D01*
G36*
X188030000Y-96000000D02*
G01*
X187420000Y-96440000D01*
X187420000Y-95560000D01*
X188030000Y-96000000D01*
G37*
X155100000Y-132000000D02*
X155100000Y-133250000D01*
X155390000Y-132290000D02*
X155390000Y-138260000D01*
X155390000Y-138260000D02*
X163010000Y-138260000D01*
X155400000Y-132300000D02*
X155400000Y-133050000D01*
X155400000Y-133050000D02*
X157200000Y-133050000D01*
X155400000Y-134550000D02*
X156150000Y-134550000D01*
X156150000Y-134550000D02*
X156150000Y-135890000D01*
X156350000Y-132000000D02*
X155100000Y-132000000D01*
X157200000Y-132300000D02*
X155400000Y-132300000D01*
X157200000Y-133050000D02*
X157200000Y-132300000D01*
X158700000Y-132300000D02*
X158700000Y-133050000D01*
X158700000Y-133050000D02*
X159700000Y-133050000D01*
X159200000Y-137500000D02*
X157210000Y-137500000D01*
X159700000Y-132300000D02*
X158700000Y-132300000D01*
X159700000Y-133050000D02*
X159700000Y-132300000D01*
X161200000Y-132300000D02*
X161200000Y-133050000D01*
X161200000Y-133050000D02*
X163000000Y-133050000D01*
X162250000Y-134550000D02*
X162250000Y-137500000D01*
X162250000Y-137500000D02*
X159200000Y-137500000D01*
X163000000Y-132300000D02*
X161200000Y-132300000D01*
X163000000Y-133050000D02*
X163000000Y-132300000D01*
X163000000Y-134550000D02*
X162250000Y-134550000D01*
X163010000Y-132290000D02*
X155390000Y-132290000D01*
X163010000Y-138260000D02*
X163010000Y-132290000D01*
X121545000Y-45630000D02*
X113505000Y-45630000D01*
X121545000Y-45630000D02*
X121545000Y-56370000D01*
X117925000Y-45630000D02*
X117925000Y-46870000D01*
X116925000Y-45630000D02*
X116925000Y-46870000D01*
X115625000Y-45630000D02*
X115625000Y-46870000D01*
X113505000Y-45630000D02*
X113505000Y-48450000D01*
X113505000Y-49050000D02*
X113505000Y-56370000D01*
X117925000Y-50630000D02*
X117925000Y-51938000D01*
X116925000Y-50630000D02*
X116925000Y-51938000D01*
X115625000Y-50630000D02*
X115625000Y-53207000D01*
X116221000Y-52306000D02*
X116178000Y-52263000D01*
X115982000Y-52545000D02*
X115939000Y-52502000D01*
X115625000Y-54293000D02*
X115625000Y-56370000D01*
X118911000Y-54997000D02*
X118868000Y-54954000D01*
X118672000Y-55237000D02*
X118629000Y-55194000D01*
X117925000Y-55562000D02*
X117925000Y-56370000D01*
X116925000Y-55562000D02*
X116925000Y-56370000D01*
X121545000Y-56370000D02*
X113505000Y-56370000D01*
X116871000Y-46870000D02*
G75*
G02*
X117979472Y-46870139I554000J-1879990D01*
G01*
X119305000Y-48196000D02*
G75*
G02*
X119304861Y-49304472I-1880000J-554000D01*
G01*
X115545000Y-49304000D02*
G75*
G02*
X115545139Y-48195528I1879990J554000D01*
G01*
X117979000Y-50630000D02*
G75*
G02*
X116870528Y-50629861I-554000J1880000D01*
G01*
X119385000Y-53750000D02*
G75*
G02*
X115465000Y-53750000I-1960000J0D01*
G01*
X115465000Y-53750000D02*
G75*
G02*
X119385000Y-53750000I1960000J0D01*
G01*
X113505000Y-48750000D02*
X112895000Y-49190000D01*
X112895000Y-48310000D01*
X113505000Y-48750000D01*
G36*
X113505000Y-48750000D02*
G01*
X112895000Y-49190000D01*
X112895000Y-48310000D01*
X113505000Y-48750000D01*
G37*
D14*
X143295000Y-113565000D02*
X143295000Y-50825000D01*
X145845000Y-50825000D02*
X171245000Y-50825000D01*
X171245000Y-50825000D02*
X171245000Y-113565000D01*
X171245000Y-113565000D02*
X145845000Y-113565000D01*
D15*
X144929000Y-52223000D02*
G75*
G02*
X144729000Y-52223000I-100000J0D01*
G01*
X144729000Y-52223000D02*
G75*
G02*
X144929000Y-52223000I100000J0D01*
G01*
D13*
X122605000Y-68120000D02*
X130645000Y-68120000D01*
X122605000Y-68120000D02*
X122605000Y-57380000D01*
X126225000Y-68120000D02*
X126225000Y-66880000D01*
X127225000Y-68120000D02*
X127225000Y-66880000D01*
X128525000Y-68120000D02*
X128525000Y-66880000D01*
X130645000Y-68120000D02*
X130645000Y-65300000D01*
X130645000Y-64700000D02*
X130645000Y-57380000D01*
X126225000Y-63120000D02*
X126225000Y-61812000D01*
X127225000Y-63120000D02*
X127225000Y-61812000D01*
X128525000Y-63120000D02*
X128525000Y-60543000D01*
X127929000Y-61444000D02*
X127972000Y-61487000D01*
X128168000Y-61205000D02*
X128211000Y-61248000D01*
X128525000Y-59457000D02*
X128525000Y-57380000D01*
X125239000Y-58753000D02*
X125282000Y-58796000D01*
X125478000Y-58513000D02*
X125521000Y-58556000D01*
X126225000Y-58188000D02*
X126225000Y-57380000D01*
X127225000Y-58188000D02*
X127225000Y-57380000D01*
X122605000Y-57380000D02*
X130645000Y-57380000D01*
X127279000Y-66880000D02*
G75*
G02*
X126170528Y-66879861I-554000J1879990D01*
G01*
X124845000Y-65554000D02*
G75*
G02*
X124845139Y-64445528I1880000J554000D01*
G01*
X128605000Y-64446000D02*
G75*
G02*
X128604861Y-65554472I-1879990J-554000D01*
G01*
X126171000Y-63120000D02*
G75*
G02*
X127279472Y-63120139I554000J-1880000D01*
G01*
X128685000Y-60000000D02*
G75*
G02*
X124765000Y-60000000I-1960000J0D01*
G01*
X124765000Y-60000000D02*
G75*
G02*
X128685000Y-60000000I1960000J0D01*
G01*
X131255000Y-65440000D02*
X130645000Y-65000000D01*
X131255000Y-64560000D01*
X131255000Y-65440000D01*
G36*
X131255000Y-65440000D02*
G01*
X130645000Y-65000000D01*
X131255000Y-64560000D01*
X131255000Y-65440000D01*
G37*
X178045000Y-71385000D02*
X177045000Y-71385000D01*
X178045000Y-74745000D02*
X177045000Y-74745000D01*
X197130000Y-68120000D02*
X205170000Y-68120000D01*
X197130000Y-68120000D02*
X197130000Y-57380000D01*
X200750000Y-68120000D02*
X200750000Y-66880000D01*
X201750000Y-68120000D02*
X201750000Y-66880000D01*
X203050000Y-68120000D02*
X203050000Y-66880000D01*
X205170000Y-68120000D02*
X205170000Y-65300000D01*
X205170000Y-64700000D02*
X205170000Y-57380000D01*
X200750000Y-63120000D02*
X200750000Y-61812000D01*
X201750000Y-63120000D02*
X201750000Y-61812000D01*
X203050000Y-63120000D02*
X203050000Y-60543000D01*
X202454000Y-61444000D02*
X202497000Y-61487000D01*
X202693000Y-61205000D02*
X202736000Y-61248000D01*
X203050000Y-59457000D02*
X203050000Y-57380000D01*
X199764000Y-58753000D02*
X199807000Y-58796000D01*
X200003000Y-58513000D02*
X200046000Y-58556000D01*
X200750000Y-58188000D02*
X200750000Y-57380000D01*
X201750000Y-58188000D02*
X201750000Y-57380000D01*
X197130000Y-57380000D02*
X205170000Y-57380000D01*
X201804000Y-66880000D02*
G75*
G02*
X200695528Y-66879861I-554000J1879990D01*
G01*
X199370000Y-65554000D02*
G75*
G02*
X199370139Y-64445528I1880000J554000D01*
G01*
X203130000Y-64446000D02*
G75*
G02*
X203129861Y-65554472I-1879990J-554000D01*
G01*
X200696000Y-63120000D02*
G75*
G02*
X201804472Y-63120139I554000J-1880000D01*
G01*
X203210000Y-60000000D02*
G75*
G02*
X199290000Y-60000000I-1960000J0D01*
G01*
X199290000Y-60000000D02*
G75*
G02*
X203210000Y-60000000I1960000J0D01*
G01*
X205780000Y-65440000D02*
X205170000Y-65000000D01*
X205780000Y-64560000D01*
X205780000Y-65440000D01*
G36*
X205780000Y-65440000D02*
G01*
X205170000Y-65000000D01*
X205780000Y-64560000D01*
X205780000Y-65440000D01*
G37*
X122605000Y-91745000D02*
X130645000Y-91745000D01*
X122605000Y-91745000D02*
X122605000Y-81005000D01*
X126225000Y-91745000D02*
X126225000Y-90505000D01*
X127225000Y-91745000D02*
X127225000Y-90505000D01*
X128525000Y-91745000D02*
X128525000Y-90505000D01*
X130645000Y-91745000D02*
X130645000Y-88925000D01*
X130645000Y-88325000D02*
X130645000Y-81005000D01*
X126225000Y-86745000D02*
X126225000Y-85437000D01*
X127225000Y-86745000D02*
X127225000Y-85437000D01*
X128525000Y-86745000D02*
X128525000Y-84168000D01*
X127929000Y-85069000D02*
X127972000Y-85112000D01*
X128168000Y-84830000D02*
X128211000Y-84873000D01*
X128525000Y-83082000D02*
X128525000Y-81005000D01*
X125239000Y-82378000D02*
X125282000Y-82421000D01*
X125478000Y-82138000D02*
X125521000Y-82181000D01*
X126225000Y-81813000D02*
X126225000Y-81005000D01*
X127225000Y-81813000D02*
X127225000Y-81005000D01*
X122605000Y-81005000D02*
X130645000Y-81005000D01*
X127279000Y-90505000D02*
G75*
G02*
X126170528Y-90504861I-554000J1879990D01*
G01*
X124845000Y-89179000D02*
G75*
G02*
X124845139Y-88070528I1880000J554000D01*
G01*
X128605000Y-88071000D02*
G75*
G02*
X128604861Y-89179472I-1879990J-554000D01*
G01*
X126171000Y-86745000D02*
G75*
G02*
X127279472Y-86745139I554000J-1880000D01*
G01*
X128685000Y-83625000D02*
G75*
G02*
X124765000Y-83625000I-1960000J0D01*
G01*
X124765000Y-83625000D02*
G75*
G02*
X128685000Y-83625000I1960000J0D01*
G01*
X131255000Y-89065000D02*
X130645000Y-88625000D01*
X131255000Y-88185000D01*
X131255000Y-89065000D01*
G36*
X131255000Y-89065000D02*
G01*
X130645000Y-88625000D01*
X131255000Y-88185000D01*
X131255000Y-89065000D01*
G37*
X197130000Y-69255000D02*
X205170000Y-69255000D01*
X197130000Y-79995000D02*
X197130000Y-69255000D01*
X197130000Y-79995000D02*
X205170000Y-79995000D01*
X199764000Y-70628000D02*
X199807000Y-70671000D01*
X200003000Y-70388000D02*
X200046000Y-70431000D01*
X200750000Y-70063000D02*
X200750000Y-69255000D01*
X200750000Y-74995000D02*
X200750000Y-73687000D01*
X200750000Y-79995000D02*
X200750000Y-78755000D01*
X201750000Y-70063000D02*
X201750000Y-69255000D01*
X201750000Y-74995000D02*
X201750000Y-73687000D01*
X201750000Y-79995000D02*
X201750000Y-78755000D01*
X202454000Y-73319000D02*
X202497000Y-73362000D01*
X202693000Y-73080000D02*
X202736000Y-73123000D01*
X203050000Y-71332000D02*
X203050000Y-69255000D01*
X203050000Y-74995000D02*
X203050000Y-72418000D01*
X203050000Y-79995000D02*
X203050000Y-78755000D01*
X205170000Y-76575000D02*
X205170000Y-69255000D01*
X205170000Y-79995000D02*
X205170000Y-77175000D01*
X199370000Y-77429000D02*
G75*
G02*
X199370139Y-76320528I1880000J554000D01*
G01*
X200696000Y-74995000D02*
G75*
G02*
X201804472Y-74995139I554000J-1880000D01*
G01*
X201804000Y-78755000D02*
G75*
G02*
X200695528Y-78754861I-554000J1879990D01*
G01*
X203130000Y-76321000D02*
G75*
G02*
X203129861Y-77429472I-1879990J-554000D01*
G01*
X203210000Y-71875000D02*
G75*
G02*
X199290000Y-71875000I-1960000J0D01*
G01*
X199290000Y-71875000D02*
G75*
G02*
X203210000Y-71875000I1960000J0D01*
G01*
X205780000Y-77315000D02*
X205170000Y-76875000D01*
X205780000Y-76435000D01*
X205780000Y-77315000D01*
G36*
X205780000Y-77315000D02*
G01*
X205170000Y-76875000D01*
X205780000Y-76435000D01*
X205780000Y-77315000D01*
G37*
X178045000Y-61385000D02*
X177045000Y-61385000D01*
X178045000Y-64745000D02*
X177045000Y-64745000D01*
X122605000Y-56370000D02*
X130645000Y-56370000D01*
X122605000Y-56370000D02*
X122605000Y-45630000D01*
X126225000Y-56370000D02*
X126225000Y-55130000D01*
X127225000Y-56370000D02*
X127225000Y-55130000D01*
X128525000Y-56370000D02*
X128525000Y-55130000D01*
X130645000Y-56370000D02*
X130645000Y-53550000D01*
X130645000Y-52950000D02*
X130645000Y-45630000D01*
X126225000Y-51370000D02*
X126225000Y-50062000D01*
X127225000Y-51370000D02*
X127225000Y-50062000D01*
X128525000Y-51370000D02*
X128525000Y-48793000D01*
X127929000Y-49694000D02*
X127972000Y-49737000D01*
X128168000Y-49455000D02*
X128211000Y-49498000D01*
X128525000Y-47707000D02*
X128525000Y-45630000D01*
X125239000Y-47003000D02*
X125282000Y-47046000D01*
X125478000Y-46763000D02*
X125521000Y-46806000D01*
X126225000Y-46438000D02*
X126225000Y-45630000D01*
X127225000Y-46438000D02*
X127225000Y-45630000D01*
X122605000Y-45630000D02*
X130645000Y-45630000D01*
X127279000Y-55130000D02*
G75*
G02*
X126170528Y-55129861I-554000J1879990D01*
G01*
X124845000Y-53804000D02*
G75*
G02*
X124845139Y-52695528I1880000J554000D01*
G01*
X128605000Y-52696000D02*
G75*
G02*
X128604861Y-53804472I-1879990J-554000D01*
G01*
X126171000Y-51370000D02*
G75*
G02*
X127279472Y-51370139I554000J-1880000D01*
G01*
X128685000Y-48250000D02*
G75*
G02*
X124765000Y-48250000I-1960000J0D01*
G01*
X124765000Y-48250000D02*
G75*
G02*
X128685000Y-48250000I1960000J0D01*
G01*
X131255000Y-53690000D02*
X130645000Y-53250000D01*
X131255000Y-52810000D01*
X131255000Y-53690000D01*
G36*
X131255000Y-53690000D02*
G01*
X130645000Y-53250000D01*
X131255000Y-52810000D01*
X131255000Y-53690000D01*
G37*
X139045000Y-81385000D02*
X140045000Y-81385000D01*
X139045000Y-84745000D02*
X140045000Y-84745000D01*
X122605000Y-79995000D02*
X130645000Y-79995000D01*
X122605000Y-79995000D02*
X122605000Y-69255000D01*
X126225000Y-79995000D02*
X126225000Y-78755000D01*
X127225000Y-79995000D02*
X127225000Y-78755000D01*
X128525000Y-79995000D02*
X128525000Y-78755000D01*
X130645000Y-79995000D02*
X130645000Y-77175000D01*
X130645000Y-76575000D02*
X130645000Y-69255000D01*
X126225000Y-74995000D02*
X126225000Y-73687000D01*
X127225000Y-74995000D02*
X127225000Y-73687000D01*
X128525000Y-74995000D02*
X128525000Y-72418000D01*
X127929000Y-73319000D02*
X127972000Y-73362000D01*
X128168000Y-73080000D02*
X128211000Y-73123000D01*
X128525000Y-71332000D02*
X128525000Y-69255000D01*
X125239000Y-70628000D02*
X125282000Y-70671000D01*
X125478000Y-70388000D02*
X125521000Y-70431000D01*
X126225000Y-70063000D02*
X126225000Y-69255000D01*
X127225000Y-70063000D02*
X127225000Y-69255000D01*
X122605000Y-69255000D02*
X130645000Y-69255000D01*
X127279000Y-78755000D02*
G75*
G02*
X126170528Y-78754861I-554000J1879990D01*
G01*
X124845000Y-77429000D02*
G75*
G02*
X124845139Y-76320528I1880000J554000D01*
G01*
X128605000Y-76321000D02*
G75*
G02*
X128604861Y-77429472I-1879990J-554000D01*
G01*
X126171000Y-74995000D02*
G75*
G02*
X127279472Y-74995139I554000J-1880000D01*
G01*
X128685000Y-71875000D02*
G75*
G02*
X124765000Y-71875000I-1960000J0D01*
G01*
X124765000Y-71875000D02*
G75*
G02*
X128685000Y-71875000I1960000J0D01*
G01*
X131255000Y-77315000D02*
X130645000Y-76875000D01*
X131255000Y-76435000D01*
X131255000Y-77315000D01*
G36*
X131255000Y-77315000D02*
G01*
X130645000Y-76875000D01*
X131255000Y-76435000D01*
X131255000Y-77315000D01*
G37*
X121545000Y-104630000D02*
X113505000Y-104630000D01*
X121545000Y-104630000D02*
X121545000Y-115370000D01*
X117925000Y-104630000D02*
X117925000Y-105870000D01*
X116925000Y-104630000D02*
X116925000Y-105870000D01*
X115625000Y-104630000D02*
X115625000Y-105870000D01*
X113505000Y-104630000D02*
X113505000Y-107450000D01*
X113505000Y-108050000D02*
X113505000Y-115370000D01*
X117925000Y-109630000D02*
X117925000Y-110938000D01*
X116925000Y-109630000D02*
X116925000Y-110938000D01*
X115625000Y-109630000D02*
X115625000Y-112207000D01*
X116221000Y-111306000D02*
X116178000Y-111263000D01*
X115982000Y-111545000D02*
X115939000Y-111502000D01*
X115625000Y-113293000D02*
X115625000Y-115370000D01*
X118911000Y-113997000D02*
X118868000Y-113954000D01*
X118672000Y-114237000D02*
X118629000Y-114194000D01*
X117925000Y-114562000D02*
X117925000Y-115370000D01*
X116925000Y-114562000D02*
X116925000Y-115370000D01*
X121545000Y-115370000D02*
X113505000Y-115370000D01*
X116871000Y-105870000D02*
G75*
G02*
X117979472Y-105870139I554000J-1879990D01*
G01*
X119305000Y-107196000D02*
G75*
G02*
X119304861Y-108304472I-1880000J-554000D01*
G01*
X115545000Y-108304000D02*
G75*
G02*
X115545139Y-107195528I1879990J554000D01*
G01*
X117979000Y-109630000D02*
G75*
G02*
X116870528Y-109629861I-554000J1880000D01*
G01*
X119385000Y-112750000D02*
G75*
G02*
X115465000Y-112750000I-1960000J0D01*
G01*
X115465000Y-112750000D02*
G75*
G02*
X119385000Y-112750000I1960000J0D01*
G01*
X113505000Y-107750000D02*
X112895000Y-108190000D01*
X112895000Y-107310000D01*
X113505000Y-107750000D01*
G36*
X113505000Y-107750000D02*
G01*
X112895000Y-108190000D01*
X112895000Y-107310000D01*
X113505000Y-107750000D01*
G37*
X188030000Y-104630000D02*
X188030000Y-107450000D01*
X188030000Y-108050000D02*
X188030000Y-115370000D01*
X190150000Y-104630000D02*
X190150000Y-105870000D01*
X190150000Y-109630000D02*
X190150000Y-112207000D01*
X190150000Y-113293000D02*
X190150000Y-115370000D01*
X190507000Y-111545000D02*
X190464000Y-111502000D01*
X190746000Y-111306000D02*
X190703000Y-111263000D01*
X191450000Y-104630000D02*
X191450000Y-105870000D01*
X191450000Y-109630000D02*
X191450000Y-110938000D01*
X191450000Y-114562000D02*
X191450000Y-115370000D01*
X192450000Y-104630000D02*
X192450000Y-105870000D01*
X192450000Y-109630000D02*
X192450000Y-110938000D01*
X192450000Y-114562000D02*
X192450000Y-115370000D01*
X193197000Y-114237000D02*
X193154000Y-114194000D01*
X193436000Y-113997000D02*
X193393000Y-113954000D01*
X196070000Y-104630000D02*
X188030000Y-104630000D01*
X196070000Y-104630000D02*
X196070000Y-115370000D01*
X196070000Y-115370000D02*
X188030000Y-115370000D01*
X190070000Y-108304000D02*
G75*
G02*
X190070139Y-107195528I1879990J554000D01*
G01*
X191396000Y-105870000D02*
G75*
G02*
X192504472Y-105870139I554000J-1879990D01*
G01*
X192504000Y-109630000D02*
G75*
G02*
X191395528Y-109629861I-554000J1880000D01*
G01*
X193830000Y-107196000D02*
G75*
G02*
X193829861Y-108304472I-1880000J-554000D01*
G01*
X193910000Y-112750000D02*
G75*
G02*
X189990000Y-112750000I-1960000J0D01*
G01*
X189990000Y-112750000D02*
G75*
G02*
X193910000Y-112750000I1960000J0D01*
G01*
X188030000Y-107750000D02*
X187420000Y-108190000D01*
X187420000Y-107310000D01*
X188030000Y-107750000D01*
G36*
X188030000Y-107750000D02*
G01*
X187420000Y-108190000D01*
X187420000Y-107310000D01*
X188030000Y-107750000D01*
G37*
X139045000Y-71385000D02*
X140045000Y-71385000D01*
X139045000Y-74745000D02*
X140045000Y-74745000D01*
X197130000Y-56370000D02*
X205170000Y-56370000D01*
X197130000Y-56370000D02*
X197130000Y-45630000D01*
X200750000Y-56370000D02*
X200750000Y-55130000D01*
X201750000Y-56370000D02*
X201750000Y-55130000D01*
X203050000Y-56370000D02*
X203050000Y-55130000D01*
X205170000Y-56370000D02*
X205170000Y-53550000D01*
X205170000Y-52950000D02*
X205170000Y-45630000D01*
X200750000Y-51370000D02*
X200750000Y-50062000D01*
X201750000Y-51370000D02*
X201750000Y-50062000D01*
X203050000Y-51370000D02*
X203050000Y-48793000D01*
X202454000Y-49694000D02*
X202497000Y-49737000D01*
X202693000Y-49455000D02*
X202736000Y-49498000D01*
X203050000Y-47707000D02*
X203050000Y-45630000D01*
X199764000Y-47003000D02*
X199807000Y-47046000D01*
X200003000Y-46763000D02*
X200046000Y-46806000D01*
X200750000Y-46438000D02*
X200750000Y-45630000D01*
X201750000Y-46438000D02*
X201750000Y-45630000D01*
X197130000Y-45630000D02*
X205170000Y-45630000D01*
X201804000Y-55130000D02*
G75*
G02*
X200695528Y-55129861I-554000J1879990D01*
G01*
X199370000Y-53804000D02*
G75*
G02*
X199370139Y-52695528I1880000J554000D01*
G01*
X203130000Y-52696000D02*
G75*
G02*
X203129861Y-53804472I-1879990J-554000D01*
G01*
X200696000Y-51370000D02*
G75*
G02*
X201804472Y-51370139I554000J-1880000D01*
G01*
X203210000Y-48250000D02*
G75*
G02*
X199290000Y-48250000I-1960000J0D01*
G01*
X199290000Y-48250000D02*
G75*
G02*
X203210000Y-48250000I1960000J0D01*
G01*
X205780000Y-53690000D02*
X205170000Y-53250000D01*
X205780000Y-52810000D01*
X205780000Y-53690000D01*
G36*
X205780000Y-53690000D02*
G01*
X205170000Y-53250000D01*
X205780000Y-52810000D01*
X205780000Y-53690000D01*
G37*
X196070000Y-45630000D02*
X188030000Y-45630000D01*
X196070000Y-45630000D02*
X196070000Y-56370000D01*
X192450000Y-45630000D02*
X192450000Y-46870000D01*
X191450000Y-45630000D02*
X191450000Y-46870000D01*
X190150000Y-45630000D02*
X190150000Y-46870000D01*
X188030000Y-45630000D02*
X188030000Y-48450000D01*
X188030000Y-49050000D02*
X188030000Y-56370000D01*
X192450000Y-50630000D02*
X192450000Y-51938000D01*
X191450000Y-50630000D02*
X191450000Y-51938000D01*
X190150000Y-50630000D02*
X190150000Y-53207000D01*
X190746000Y-52306000D02*
X190703000Y-52263000D01*
X190507000Y-52545000D02*
X190464000Y-52502000D01*
X190150000Y-54293000D02*
X190150000Y-56370000D01*
X193436000Y-54997000D02*
X193393000Y-54954000D01*
X193197000Y-55237000D02*
X193154000Y-55194000D01*
X192450000Y-55562000D02*
X192450000Y-56370000D01*
X191450000Y-55562000D02*
X191450000Y-56370000D01*
X196070000Y-56370000D02*
X188030000Y-56370000D01*
X191396000Y-46870000D02*
G75*
G02*
X192504472Y-46870139I554000J-1879990D01*
G01*
X193830000Y-48196000D02*
G75*
G02*
X193829861Y-49304472I-1880000J-554000D01*
G01*
X190070000Y-49304000D02*
G75*
G02*
X190070139Y-48195528I1879990J554000D01*
G01*
X192504000Y-50630000D02*
G75*
G02*
X191395528Y-50629861I-554000J1880000D01*
G01*
X193910000Y-53750000D02*
G75*
G02*
X189990000Y-53750000I-1960000J0D01*
G01*
X189990000Y-53750000D02*
G75*
G02*
X193910000Y-53750000I1960000J0D01*
G01*
X188030000Y-48750000D02*
X187420000Y-49190000D01*
X187420000Y-48310000D01*
X188030000Y-48750000D01*
G36*
X188030000Y-48750000D02*
G01*
X187420000Y-49190000D01*
X187420000Y-48310000D01*
X188030000Y-48750000D01*
G37*
X178045000Y-81385000D02*
X177045000Y-81385000D01*
X178045000Y-84745000D02*
X177045000Y-84745000D01*
X196070000Y-57380000D02*
X188030000Y-57380000D01*
X196070000Y-57380000D02*
X196070000Y-68120000D01*
X192450000Y-57380000D02*
X192450000Y-58620000D01*
X191450000Y-57380000D02*
X191450000Y-58620000D01*
X190150000Y-57380000D02*
X190150000Y-58620000D01*
X188030000Y-57380000D02*
X188030000Y-60200000D01*
X188030000Y-60800000D02*
X188030000Y-68120000D01*
X192450000Y-62380000D02*
X192450000Y-63688000D01*
X191450000Y-62380000D02*
X191450000Y-63688000D01*
X190150000Y-62380000D02*
X190150000Y-64957000D01*
X190746000Y-64056000D02*
X190703000Y-64013000D01*
X190507000Y-64295000D02*
X190464000Y-64252000D01*
X190150000Y-66043000D02*
X190150000Y-68120000D01*
X193436000Y-66747000D02*
X193393000Y-66704000D01*
X193197000Y-66987000D02*
X193154000Y-66944000D01*
X192450000Y-67312000D02*
X192450000Y-68120000D01*
X191450000Y-67312000D02*
X191450000Y-68120000D01*
X196070000Y-68120000D02*
X188030000Y-68120000D01*
X191396000Y-58620000D02*
G75*
G02*
X192504472Y-58620139I554000J-1879990D01*
G01*
X193830000Y-59946000D02*
G75*
G02*
X193829861Y-61054472I-1880000J-554000D01*
G01*
X190070000Y-61054000D02*
G75*
G02*
X190070139Y-59945528I1879990J554000D01*
G01*
X192504000Y-62380000D02*
G75*
G02*
X191395528Y-62379861I-554000J1880000D01*
G01*
X193910000Y-65500000D02*
G75*
G02*
X189990000Y-65500000I-1960000J0D01*
G01*
X189990000Y-65500000D02*
G75*
G02*
X193910000Y-65500000I1960000J0D01*
G01*
X188030000Y-60500000D02*
X187420000Y-60940000D01*
X187420000Y-60060000D01*
X188030000Y-60500000D01*
G36*
X188030000Y-60500000D02*
G01*
X187420000Y-60940000D01*
X187420000Y-60060000D01*
X188030000Y-60500000D01*
G37*
D10*
X141000000Y-129650000D02*
X159000000Y-129650000D01*
X159000000Y-117650000D01*
X141000000Y-117650000D01*
X141000000Y-129650000D01*
D13*
X121545000Y-116505000D02*
X113505000Y-116505000D01*
X121545000Y-116505000D02*
X121545000Y-127245000D01*
X117925000Y-116505000D02*
X117925000Y-117745000D01*
X116925000Y-116505000D02*
X116925000Y-117745000D01*
X115625000Y-116505000D02*
X115625000Y-117745000D01*
X113505000Y-116505000D02*
X113505000Y-119325000D01*
X113505000Y-119925000D02*
X113505000Y-127245000D01*
X117925000Y-121505000D02*
X117925000Y-122813000D01*
X116925000Y-121505000D02*
X116925000Y-122813000D01*
X115625000Y-121505000D02*
X115625000Y-124082000D01*
X116221000Y-123181000D02*
X116178000Y-123138000D01*
X115982000Y-123420000D02*
X115939000Y-123377000D01*
X115625000Y-125168000D02*
X115625000Y-127245000D01*
X118911000Y-125872000D02*
X118868000Y-125829000D01*
X118672000Y-126112000D02*
X118629000Y-126069000D01*
X117925000Y-126437000D02*
X117925000Y-127245000D01*
X116925000Y-126437000D02*
X116925000Y-127245000D01*
X121545000Y-127245000D02*
X113505000Y-127245000D01*
X116871000Y-117745000D02*
G75*
G02*
X117979472Y-117745139I554000J-1879990D01*
G01*
X119305000Y-119071000D02*
G75*
G02*
X119304861Y-120179472I-1880000J-554000D01*
G01*
X115545000Y-120179000D02*
G75*
G02*
X115545139Y-119070528I1879990J554000D01*
G01*
X117979000Y-121505000D02*
G75*
G02*
X116870528Y-121504861I-554000J1880000D01*
G01*
X119385000Y-124625000D02*
G75*
G02*
X115465000Y-124625000I-1960000J0D01*
G01*
X115465000Y-124625000D02*
G75*
G02*
X119385000Y-124625000I1960000J0D01*
G01*
X113505000Y-119625000D02*
X112895000Y-120065000D01*
X112895000Y-119185000D01*
X113505000Y-119625000D01*
G36*
X113505000Y-119625000D02*
G01*
X112895000Y-120065000D01*
X112895000Y-119185000D01*
X113505000Y-119625000D01*
G37*
X146225000Y-132075000D02*
X146225000Y-133325000D01*
X146515000Y-132365000D02*
X146515000Y-138335000D01*
X146515000Y-138335000D02*
X154135000Y-138335000D01*
X146525000Y-132375000D02*
X146525000Y-133125000D01*
X146525000Y-133125000D02*
X148325000Y-133125000D01*
X146525000Y-134625000D02*
X147275000Y-134625000D01*
X147275000Y-134625000D02*
X147275000Y-135965000D01*
X147475000Y-132075000D02*
X146225000Y-132075000D01*
X148325000Y-132375000D02*
X146525000Y-132375000D01*
X148325000Y-133125000D02*
X148325000Y-132375000D01*
X149825000Y-132375000D02*
X149825000Y-133125000D01*
X149825000Y-133125000D02*
X150825000Y-133125000D01*
X150325000Y-137575000D02*
X148335000Y-137575000D01*
X150825000Y-132375000D02*
X149825000Y-132375000D01*
X150825000Y-133125000D02*
X150825000Y-132375000D01*
X152325000Y-132375000D02*
X152325000Y-133125000D01*
X152325000Y-133125000D02*
X154125000Y-133125000D01*
X153375000Y-134625000D02*
X153375000Y-137575000D01*
X153375000Y-137575000D02*
X150325000Y-137575000D01*
X154125000Y-132375000D02*
X152325000Y-132375000D01*
X154125000Y-133125000D02*
X154125000Y-132375000D01*
X154125000Y-134625000D02*
X153375000Y-134625000D01*
X154135000Y-132365000D02*
X146515000Y-132365000D01*
X154135000Y-138335000D02*
X154135000Y-132365000D01*
X178045000Y-91385000D02*
X177045000Y-91385000D01*
X178045000Y-94745000D02*
X177045000Y-94745000D01*
X121545000Y-81005000D02*
X113505000Y-81005000D01*
X121545000Y-81005000D02*
X121545000Y-91745000D01*
X117925000Y-81005000D02*
X117925000Y-82245000D01*
X116925000Y-81005000D02*
X116925000Y-82245000D01*
X115625000Y-81005000D02*
X115625000Y-82245000D01*
X113505000Y-81005000D02*
X113505000Y-83825000D01*
X113505000Y-84425000D02*
X113505000Y-91745000D01*
X117925000Y-86005000D02*
X117925000Y-87313000D01*
X116925000Y-86005000D02*
X116925000Y-87313000D01*
X115625000Y-86005000D02*
X115625000Y-88582000D01*
X116221000Y-87681000D02*
X116178000Y-87638000D01*
X115982000Y-87920000D02*
X115939000Y-87877000D01*
X115625000Y-89668000D02*
X115625000Y-91745000D01*
X118911000Y-90372000D02*
X118868000Y-90329000D01*
X118672000Y-90612000D02*
X118629000Y-90569000D01*
X117925000Y-90937000D02*
X117925000Y-91745000D01*
X116925000Y-90937000D02*
X116925000Y-91745000D01*
X121545000Y-91745000D02*
X113505000Y-91745000D01*
X116871000Y-82245000D02*
G75*
G02*
X117979472Y-82245139I554000J-1879990D01*
G01*
X119305000Y-83571000D02*
G75*
G02*
X119304861Y-84679472I-1880000J-554000D01*
G01*
X115545000Y-84679000D02*
G75*
G02*
X115545139Y-83570528I1879990J554000D01*
G01*
X117979000Y-86005000D02*
G75*
G02*
X116870528Y-86004861I-554000J1880000D01*
G01*
X119385000Y-89125000D02*
G75*
G02*
X115465000Y-89125000I-1960000J0D01*
G01*
X115465000Y-89125000D02*
G75*
G02*
X119385000Y-89125000I1960000J0D01*
G01*
X113505000Y-84125000D02*
X112895000Y-84565000D01*
X112895000Y-83685000D01*
X113505000Y-84125000D01*
G36*
X113505000Y-84125000D02*
G01*
X112895000Y-84565000D01*
X112895000Y-83685000D01*
X113505000Y-84125000D01*
G37*
X121545000Y-92880000D02*
X113505000Y-92880000D01*
X121545000Y-92880000D02*
X121545000Y-103620000D01*
X117925000Y-92880000D02*
X117925000Y-94120000D01*
X116925000Y-92880000D02*
X116925000Y-94120000D01*
X115625000Y-92880000D02*
X115625000Y-94120000D01*
X113505000Y-92880000D02*
X113505000Y-95700000D01*
X113505000Y-96300000D02*
X113505000Y-103620000D01*
X117925000Y-97880000D02*
X117925000Y-99188000D01*
X116925000Y-97880000D02*
X116925000Y-99188000D01*
X115625000Y-97880000D02*
X115625000Y-100457000D01*
X116221000Y-99556000D02*
X116178000Y-99513000D01*
X115982000Y-99795000D02*
X115939000Y-99752000D01*
X115625000Y-101543000D02*
X115625000Y-103620000D01*
X118911000Y-102247000D02*
X118868000Y-102204000D01*
X118672000Y-102487000D02*
X118629000Y-102444000D01*
X117925000Y-102812000D02*
X117925000Y-103620000D01*
X116925000Y-102812000D02*
X116925000Y-103620000D01*
X121545000Y-103620000D02*
X113505000Y-103620000D01*
X116871000Y-94120000D02*
G75*
G02*
X117979472Y-94120139I554000J-1879990D01*
G01*
X119305000Y-95446000D02*
G75*
G02*
X119304861Y-96554472I-1880000J-554000D01*
G01*
X115545000Y-96554000D02*
G75*
G02*
X115545139Y-95445528I1879990J554000D01*
G01*
X117979000Y-97880000D02*
G75*
G02*
X116870528Y-97879861I-554000J1880000D01*
G01*
X119385000Y-101000000D02*
G75*
G02*
X115465000Y-101000000I-1960000J0D01*
G01*
X115465000Y-101000000D02*
G75*
G02*
X119385000Y-101000000I1960000J0D01*
G01*
X113505000Y-96000000D02*
X112895000Y-96440000D01*
X112895000Y-95560000D01*
X113505000Y-96000000D01*
G36*
X113505000Y-96000000D02*
G01*
X112895000Y-96440000D01*
X112895000Y-95560000D01*
X113505000Y-96000000D01*
G37*
X121545000Y-69255000D02*
X113505000Y-69255000D01*
X121545000Y-69255000D02*
X121545000Y-79995000D01*
X117925000Y-69255000D02*
X117925000Y-70495000D01*
X116925000Y-69255000D02*
X116925000Y-70495000D01*
X115625000Y-69255000D02*
X115625000Y-70495000D01*
X113505000Y-69255000D02*
X113505000Y-72075000D01*
X113505000Y-72675000D02*
X113505000Y-79995000D01*
X117925000Y-74255000D02*
X117925000Y-75563000D01*
X116925000Y-74255000D02*
X116925000Y-75563000D01*
X115625000Y-74255000D02*
X115625000Y-76832000D01*
X116221000Y-75931000D02*
X116178000Y-75888000D01*
X115982000Y-76170000D02*
X115939000Y-76127000D01*
X115625000Y-77918000D02*
X115625000Y-79995000D01*
X118911000Y-78622000D02*
X118868000Y-78579000D01*
X118672000Y-78862000D02*
X118629000Y-78819000D01*
X117925000Y-79187000D02*
X117925000Y-79995000D01*
X116925000Y-79187000D02*
X116925000Y-79995000D01*
X121545000Y-79995000D02*
X113505000Y-79995000D01*
X116871000Y-70495000D02*
G75*
G02*
X117979472Y-70495139I554000J-1879990D01*
G01*
X119305000Y-71821000D02*
G75*
G02*
X119304861Y-72929472I-1880000J-554000D01*
G01*
X115545000Y-72929000D02*
G75*
G02*
X115545139Y-71820528I1879990J554000D01*
G01*
X117979000Y-74255000D02*
G75*
G02*
X116870528Y-74254861I-554000J1880000D01*
G01*
X119385000Y-77375000D02*
G75*
G02*
X115465000Y-77375000I-1960000J0D01*
G01*
X115465000Y-77375000D02*
G75*
G02*
X119385000Y-77375000I1960000J0D01*
G01*
X113505000Y-72375000D02*
X112895000Y-72815000D01*
X112895000Y-71935000D01*
X113505000Y-72375000D01*
G36*
X113505000Y-72375000D02*
G01*
X112895000Y-72815000D01*
X112895000Y-71935000D01*
X113505000Y-72375000D01*
G37*
X205780000Y-124565000D02*
X205170000Y-124125000D01*
X205780000Y-123685000D01*
X205780000Y-124565000D01*
G36*
X205780000Y-124565000D02*
G01*
X205170000Y-124125000D01*
X205780000Y-123685000D01*
X205780000Y-124565000D01*
G37*
X203210000Y-119125000D02*
G75*
G02*
X199290000Y-119125000I-1960000J0D01*
G01*
X199290000Y-119125000D02*
G75*
G02*
X203210000Y-119125000I1960000J0D01*
G01*
X201804000Y-126005000D02*
G75*
G02*
X200695528Y-126004861I-554000J1879990D01*
G01*
X199370000Y-124679000D02*
G75*
G02*
X199370139Y-123570528I1880000J554000D01*
G01*
X203130000Y-123571000D02*
G75*
G02*
X203129861Y-124679472I-1879990J-554000D01*
G01*
X200696000Y-122245000D02*
G75*
G02*
X201804472Y-122245139I554000J-1880000D01*
G01*
X197130000Y-127245000D02*
X205170000Y-127245000D01*
X197130000Y-127245000D02*
X197130000Y-116505000D01*
X200750000Y-127245000D02*
X200750000Y-126005000D01*
X201750000Y-127245000D02*
X201750000Y-126005000D01*
X203050000Y-127245000D02*
X203050000Y-126005000D01*
X205170000Y-127245000D02*
X205170000Y-124425000D01*
X205170000Y-123825000D02*
X205170000Y-116505000D01*
X200750000Y-122245000D02*
X200750000Y-120937000D01*
X201750000Y-122245000D02*
X201750000Y-120937000D01*
X203050000Y-122245000D02*
X203050000Y-119668000D01*
X202454000Y-120569000D02*
X202497000Y-120612000D01*
X202693000Y-120330000D02*
X202736000Y-120373000D01*
X203050000Y-118582000D02*
X203050000Y-116505000D01*
X199764000Y-117878000D02*
X199807000Y-117921000D01*
X200003000Y-117638000D02*
X200046000Y-117681000D01*
X200750000Y-117313000D02*
X200750000Y-116505000D01*
X201750000Y-117313000D02*
X201750000Y-116505000D01*
X197130000Y-116505000D02*
X205170000Y-116505000D01*
X197130000Y-104630000D02*
X205170000Y-104630000D01*
X197130000Y-115370000D02*
X197130000Y-104630000D01*
X197130000Y-115370000D02*
X205170000Y-115370000D01*
X199764000Y-106003000D02*
X199807000Y-106046000D01*
X200003000Y-105763000D02*
X200046000Y-105806000D01*
X200750000Y-105438000D02*
X200750000Y-104630000D01*
X200750000Y-110370000D02*
X200750000Y-109062000D01*
X200750000Y-115370000D02*
X200750000Y-114130000D01*
X201750000Y-105438000D02*
X201750000Y-104630000D01*
X201750000Y-110370000D02*
X201750000Y-109062000D01*
X201750000Y-115370000D02*
X201750000Y-114130000D01*
X202454000Y-108694000D02*
X202497000Y-108737000D01*
X202693000Y-108455000D02*
X202736000Y-108498000D01*
X203050000Y-106707000D02*
X203050000Y-104630000D01*
X203050000Y-110370000D02*
X203050000Y-107793000D01*
X203050000Y-115370000D02*
X203050000Y-114130000D01*
X205170000Y-111950000D02*
X205170000Y-104630000D01*
X205170000Y-115370000D02*
X205170000Y-112550000D01*
X199370000Y-112804000D02*
G75*
G02*
X199370139Y-111695528I1880000J554000D01*
G01*
X200696000Y-110370000D02*
G75*
G02*
X201804472Y-110370139I554000J-1880000D01*
G01*
X201804000Y-114130000D02*
G75*
G02*
X200695528Y-114129861I-554000J1879990D01*
G01*
X203130000Y-111696000D02*
G75*
G02*
X203129861Y-112804472I-1879990J-554000D01*
G01*
X203210000Y-107250000D02*
G75*
G02*
X199290000Y-107250000I-1960000J0D01*
G01*
X199290000Y-107250000D02*
G75*
G02*
X203210000Y-107250000I1960000J0D01*
G01*
X205780000Y-112690000D02*
X205170000Y-112250000D01*
X205780000Y-111810000D01*
X205780000Y-112690000D01*
G36*
X205780000Y-112690000D02*
G01*
X205170000Y-112250000D01*
X205780000Y-111810000D01*
X205780000Y-112690000D01*
G37*
X131255000Y-124565000D02*
X130645000Y-124125000D01*
X131255000Y-123685000D01*
X131255000Y-124565000D01*
G36*
X131255000Y-124565000D02*
G01*
X130645000Y-124125000D01*
X131255000Y-123685000D01*
X131255000Y-124565000D01*
G37*
X128685000Y-119125000D02*
G75*
G02*
X124765000Y-119125000I-1960000J0D01*
G01*
X124765000Y-119125000D02*
G75*
G02*
X128685000Y-119125000I1960000J0D01*
G01*
X126171000Y-122245000D02*
G75*
G02*
X127279472Y-122245139I554000J-1880000D01*
G01*
X128605000Y-123571000D02*
G75*
G02*
X128604861Y-124679472I-1879990J-554000D01*
G01*
X124845000Y-124679000D02*
G75*
G02*
X124845139Y-123570528I1880000J554000D01*
G01*
X127279000Y-126005000D02*
G75*
G02*
X126170528Y-126004861I-554000J1879990D01*
G01*
X122605000Y-116505000D02*
X130645000Y-116505000D01*
X127225000Y-117313000D02*
X127225000Y-116505000D01*
X126225000Y-117313000D02*
X126225000Y-116505000D01*
X125478000Y-117638000D02*
X125521000Y-117681000D01*
X125239000Y-117878000D02*
X125282000Y-117921000D01*
X128525000Y-118582000D02*
X128525000Y-116505000D01*
X128168000Y-120330000D02*
X128211000Y-120373000D01*
X127929000Y-120569000D02*
X127972000Y-120612000D01*
X128525000Y-122245000D02*
X128525000Y-119668000D01*
X127225000Y-122245000D02*
X127225000Y-120937000D01*
X126225000Y-122245000D02*
X126225000Y-120937000D01*
X130645000Y-123825000D02*
X130645000Y-116505000D01*
X130645000Y-127245000D02*
X130645000Y-124425000D01*
X128525000Y-127245000D02*
X128525000Y-126005000D01*
X127225000Y-127245000D02*
X127225000Y-126005000D01*
X126225000Y-127245000D02*
X126225000Y-126005000D01*
X122605000Y-127245000D02*
X122605000Y-116505000D01*
X122605000Y-127245000D02*
X130645000Y-127245000D01*
X122605000Y-138995000D02*
X130645000Y-138995000D01*
X122605000Y-138995000D02*
X122605000Y-128255000D01*
X126225000Y-138995000D02*
X126225000Y-137755000D01*
X127225000Y-138995000D02*
X127225000Y-137755000D01*
X128525000Y-138995000D02*
X128525000Y-137755000D01*
X130645000Y-138995000D02*
X130645000Y-136175000D01*
X130645000Y-135575000D02*
X130645000Y-128255000D01*
X126225000Y-133995000D02*
X126225000Y-132687000D01*
X127225000Y-133995000D02*
X127225000Y-132687000D01*
X128525000Y-133995000D02*
X128525000Y-131418000D01*
X127929000Y-132319000D02*
X127972000Y-132362000D01*
X128168000Y-132080000D02*
X128211000Y-132123000D01*
X128525000Y-130332000D02*
X128525000Y-128255000D01*
X125239000Y-129628000D02*
X125282000Y-129671000D01*
X125478000Y-129388000D02*
X125521000Y-129431000D01*
X126225000Y-129063000D02*
X126225000Y-128255000D01*
X127225000Y-129063000D02*
X127225000Y-128255000D01*
X122605000Y-128255000D02*
X130645000Y-128255000D01*
X127279000Y-137755000D02*
G75*
G02*
X126170528Y-137754861I-554000J1879990D01*
G01*
X124845000Y-136429000D02*
G75*
G02*
X124845139Y-135320528I1880000J554000D01*
G01*
X128605000Y-135321000D02*
G75*
G02*
X128604861Y-136429472I-1879990J-554000D01*
G01*
X126171000Y-133995000D02*
G75*
G02*
X127279472Y-133995139I554000J-1880000D01*
G01*
X128685000Y-130875000D02*
G75*
G02*
X124765000Y-130875000I-1960000J0D01*
G01*
X124765000Y-130875000D02*
G75*
G02*
X128685000Y-130875000I1960000J0D01*
G01*
X131255000Y-136315000D02*
X130645000Y-135875000D01*
X131255000Y-135435000D01*
X131255000Y-136315000D01*
G36*
X131255000Y-136315000D02*
G01*
X130645000Y-135875000D01*
X131255000Y-135435000D01*
X131255000Y-136315000D01*
G37*
%LPC*%
D16*
X182500000Y-140000000D03*
X137500000Y-140000000D03*
X137500000Y-45000000D03*
X182500000Y-45000000D03*
D17*
X191950000Y-136375000D03*
D18*
X191950000Y-131375000D03*
X191950000Y-119625000D03*
D17*
X191950000Y-124625000D03*
X126725000Y-95500000D03*
D19*
X126725000Y-100500000D03*
D17*
X126725000Y-107250000D03*
D19*
X126725000Y-112250000D03*
D20*
X138645000Y-94265000D03*
D21*
X138645000Y-93465000D03*
X138645000Y-92665000D03*
D20*
X138645000Y-91865000D03*
X140445000Y-91865000D03*
D21*
X140445000Y-92665000D03*
X140445000Y-93465000D03*
D20*
X140445000Y-94265000D03*
D17*
X117425000Y-136375000D03*
D18*
X117425000Y-131375000D03*
D17*
X201250000Y-95500000D03*
D19*
X201250000Y-100500000D03*
D17*
X201250000Y-83625000D03*
D19*
X201250000Y-88625000D03*
D17*
X191950000Y-77375000D03*
D18*
X191950000Y-72375000D03*
D17*
X191950000Y-89125000D03*
D18*
X191950000Y-84125000D03*
D17*
X201125000Y-130875000D03*
D19*
X201125000Y-135875000D03*
D20*
X140445000Y-64265000D03*
D21*
X140445000Y-63465000D03*
X140445000Y-62665000D03*
D20*
X140445000Y-61865000D03*
X138645000Y-61865000D03*
D21*
X138645000Y-62665000D03*
X138645000Y-63465000D03*
D20*
X138645000Y-64265000D03*
D18*
X117425000Y-60500000D03*
D17*
X117425000Y-65500000D03*
D18*
X191950000Y-96000000D03*
D17*
X191950000Y-101000000D03*
D22*
X156350000Y-136750000D03*
D23*
X157950000Y-134750000D03*
D24*
X160450000Y-134750000D03*
D18*
X117425000Y-48750000D03*
D17*
X117425000Y-53750000D03*
D25*
X144565000Y-52225000D03*
D26*
X144565000Y-54765000D03*
X144565000Y-57305000D03*
X144565000Y-59845000D03*
X144565000Y-62385000D03*
X144565000Y-64925000D03*
X144565000Y-67465000D03*
X144565000Y-70005000D03*
X144565000Y-72545000D03*
X144565000Y-75085000D03*
X144565000Y-77625000D03*
X144565000Y-80165000D03*
X144565000Y-82705000D03*
X144565000Y-85245000D03*
X144565000Y-87785000D03*
X144565000Y-90325000D03*
X144565000Y-92865000D03*
X144565000Y-95405000D03*
X144565000Y-97945000D03*
X144565000Y-100485000D03*
X144565000Y-103025000D03*
X144565000Y-105565000D03*
X169975000Y-52225000D03*
X169975000Y-54765000D03*
X169975000Y-57305000D03*
X169975000Y-59845000D03*
X169975000Y-62385000D03*
X169975000Y-64925000D03*
X169975000Y-67465000D03*
X169975000Y-70005000D03*
X169975000Y-72545000D03*
X169975000Y-75085000D03*
X169975000Y-77625000D03*
X169975000Y-80165000D03*
X169975000Y-82705000D03*
X169975000Y-85245000D03*
X169975000Y-87785000D03*
X169975000Y-90325000D03*
X169975000Y-92865000D03*
X169975000Y-95405000D03*
X169975000Y-97945000D03*
X169975000Y-100485000D03*
X169975000Y-103025000D03*
X169975000Y-105565000D03*
D19*
X126725000Y-65000000D03*
D17*
X126725000Y-60000000D03*
D20*
X176645000Y-71865000D03*
D21*
X176645000Y-72665000D03*
X176645000Y-73465000D03*
D20*
X176645000Y-74265000D03*
X178445000Y-74265000D03*
D21*
X178445000Y-73465000D03*
X178445000Y-72665000D03*
D20*
X178445000Y-71865000D03*
D19*
X201250000Y-65000000D03*
D17*
X201250000Y-60000000D03*
D19*
X126725000Y-88625000D03*
D17*
X126725000Y-83625000D03*
D19*
X201250000Y-76875000D03*
D17*
X201250000Y-71875000D03*
D20*
X176645000Y-61865000D03*
D21*
X176645000Y-62665000D03*
X176645000Y-63465000D03*
D20*
X176645000Y-64265000D03*
X178445000Y-64265000D03*
D21*
X178445000Y-63465000D03*
X178445000Y-62665000D03*
D20*
X178445000Y-61865000D03*
D19*
X126725000Y-53250000D03*
D17*
X126725000Y-48250000D03*
D20*
X140445000Y-84265000D03*
D21*
X140445000Y-83465000D03*
X140445000Y-82665000D03*
D20*
X140445000Y-81865000D03*
X138645000Y-81865000D03*
D21*
X138645000Y-82665000D03*
X138645000Y-83465000D03*
D20*
X138645000Y-84265000D03*
D19*
X126725000Y-76875000D03*
D17*
X126725000Y-71875000D03*
D18*
X117425000Y-107750000D03*
D17*
X117425000Y-112750000D03*
D18*
X191950000Y-107750000D03*
D17*
X191950000Y-112750000D03*
D20*
X140445000Y-74265000D03*
D21*
X140445000Y-73465000D03*
X140445000Y-72665000D03*
D20*
X140445000Y-71865000D03*
X138645000Y-71865000D03*
D21*
X138645000Y-72665000D03*
X138645000Y-73465000D03*
D20*
X138645000Y-74265000D03*
D19*
X201250000Y-53250000D03*
D17*
X201250000Y-48250000D03*
D18*
X191950000Y-48750000D03*
D17*
X191950000Y-53750000D03*
D20*
X176645000Y-81865000D03*
D21*
X176645000Y-82665000D03*
X176645000Y-83465000D03*
D20*
X176645000Y-84265000D03*
X178445000Y-84265000D03*
D21*
X178445000Y-83465000D03*
X178445000Y-82665000D03*
D20*
X178445000Y-81865000D03*
D18*
X191950000Y-60500000D03*
D17*
X191950000Y-65500000D03*
D27*
X157500000Y-119050000D03*
X157500000Y-128250000D03*
X142300000Y-119050000D03*
X142300000Y-128250000D03*
D18*
X117425000Y-119625000D03*
D17*
X117425000Y-124625000D03*
D22*
X147475000Y-136825000D03*
D23*
X149075000Y-134825000D03*
D24*
X151575000Y-134825000D03*
D20*
X176645000Y-91865000D03*
D21*
X176645000Y-92665000D03*
X176645000Y-93465000D03*
D20*
X176645000Y-94265000D03*
X178445000Y-94265000D03*
D21*
X178445000Y-93465000D03*
X178445000Y-92665000D03*
D20*
X178445000Y-91865000D03*
D18*
X117425000Y-84125000D03*
D17*
X117425000Y-89125000D03*
D18*
X117425000Y-96000000D03*
D17*
X117425000Y-101000000D03*
D18*
X117425000Y-72375000D03*
D17*
X117425000Y-77375000D03*
X201250000Y-119125000D03*
D19*
X201250000Y-124125000D03*
X201250000Y-112250000D03*
D17*
X201250000Y-107250000D03*
X126725000Y-119125000D03*
D19*
X126725000Y-124125000D03*
X126725000Y-135875000D03*
D17*
X126725000Y-130875000D03*
%LPD*%
M02*
