M48
; DRILL file {KiCad 9.0.0} date 2025-04-21T19:14:22+0100
; FORMAT={-:-/ absolute / metric / decimal}
; #@! TF.CreationDate,2025-04-21T19:14:22+01:00
; #@! TF.GenerationSoftware,Kicad,Pcbnew,9.0.0
; #@! TF.FileFunction,Plated,1,2,PTH
FMAT,2
METRIC
; #@! TA.AperFunction,Plated,PTH,ComponentDrill
T1C1.000
; #@! TA.AperFunction,Plated,PTH,ComponentDrill
T2C1.020
; #@! TA.AperFunction,Plated,PTH,ComponentDrill
T3C1.300
; #@! TA.AperFunction,Plated,PTH,ComponentDrill
T4C1.500
%
G90
G05
T1
X149.075Y-134.825
X151.575Y-134.825
X157.95Y-134.75
X160.45Y-134.75
T2
X144.565Y-52.225
X144.565Y-54.765
X144.565Y-57.305
X144.565Y-59.845
X144.565Y-62.385
X144.565Y-64.925
X144.565Y-67.465
X144.565Y-70.005
X144.565Y-72.545
X144.565Y-75.085
X144.565Y-77.625
X144.565Y-80.165
X144.565Y-82.705
X144.565Y-85.245
X144.565Y-87.785
X144.565Y-90.325
X144.565Y-92.865
X144.565Y-95.405
X144.565Y-97.945
X144.565Y-100.485
X144.565Y-103.025
X144.565Y-105.565
X169.975Y-52.225
X169.975Y-54.765
X169.975Y-57.305
X169.975Y-59.845
X169.975Y-62.385
X169.975Y-64.925
X169.975Y-67.465
X169.975Y-70.005
X169.975Y-72.545
X169.975Y-75.085
X169.975Y-77.625
X169.975Y-80.165
X169.975Y-82.705
X169.975Y-85.245
X169.975Y-87.785
X169.975Y-90.325
X169.975Y-92.865
X169.975Y-95.405
X169.975Y-97.945
X169.975Y-100.485
X169.975Y-103.025
X169.975Y-105.565
T3
X117.425Y-48.75
X117.425Y-53.75
X117.425Y-60.5
X117.425Y-65.5
X117.425Y-72.375
X117.425Y-77.375
X117.425Y-84.125
X117.425Y-89.125
X117.425Y-96.0
X117.425Y-101.0
X117.425Y-107.75
X117.425Y-112.75
X117.425Y-119.625
X117.425Y-124.625
X117.425Y-131.375
X117.425Y-136.375
X126.725Y-48.25
X126.725Y-53.25
X126.725Y-60.0
X126.725Y-65.0
X126.725Y-71.875
X126.725Y-76.875
X126.725Y-83.625
X126.725Y-88.625
X126.725Y-95.5
X126.725Y-100.5
X126.725Y-107.25
X126.725Y-112.25
X126.725Y-119.125
X126.725Y-124.125
X126.725Y-130.875
X126.725Y-135.875
X191.95Y-48.75
X191.95Y-53.75
X191.95Y-60.5
X191.95Y-65.5
X191.95Y-72.375
X191.95Y-77.375
X191.95Y-84.125
X191.95Y-89.125
X191.95Y-96.0
X191.95Y-101.0
X191.95Y-107.75
X191.95Y-112.75
X191.95Y-119.625
X191.95Y-124.625
X191.95Y-131.375
X191.95Y-136.375
X201.125Y-130.875
X201.125Y-135.875
X201.25Y-48.25
X201.25Y-53.25
X201.25Y-60.0
X201.25Y-65.0
X201.25Y-71.875
X201.25Y-76.875
X201.25Y-83.625
X201.25Y-88.625
X201.25Y-95.5
X201.25Y-100.5
X201.25Y-107.25
X201.25Y-112.25
X201.25Y-119.125
X201.25Y-124.125
T4
X142.3Y-119.05
X142.3Y-128.25
X157.5Y-119.05
X157.5Y-128.25
M30
