%TF.GenerationSoftware,KiCad,Pcbnew,9.0.0*%
%TF.CreationDate,2025-04-21T22:07:44+01:00*%
%TF.ProjectId,LED_Hub,4c45445f-4875-4622-9e6b-696361645f70,rev?*%
%TF.SameCoordinates,Original*%
%TF.FileFunction,Drillmap*%
%TF.FilePolarity,Positive*%
%FSLAX45Y45*%
G04 Gerber Fmt 4.5, Leading zero omitted, Abs format (unit mm)*
G04 Created by KiCad (PCBNEW 9.0.0) date 2025-04-21 22:07:44*
%MOMM*%
%LPD*%
G01*
G04 APERTURE LIST*
%ADD10C,0.100000*%
%ADD11C,0.200000*%
%ADD12C,0.120000*%
%ADD13C,0.320000*%
G04 APERTURE END LIST*
D10*
X20300000Y-4000000D02*
X11580000Y-4000000D01*
X11580000Y-14400000D02*
X11080000Y-13900000D01*
X20300000Y-14400000D02*
X11580000Y-14400000D01*
X20300000Y-4000000D02*
X20800000Y-4500000D01*
X20800000Y-13900000D02*
X20800000Y-4500000D01*
X11080000Y-13900000D02*
X11080000Y-4500000D01*
X11580000Y-4000000D02*
X11080000Y-4500000D01*
X20300000Y-14400000D02*
X20800000Y-13900000D01*
D11*
D12*
X14687500Y-13622500D02*
X14807500Y-13742500D01*
X14807500Y-13622500D02*
X14687500Y-13742500D01*
X15575000Y-13615000D02*
X15695000Y-13735000D01*
X15695000Y-13615000D02*
X15575000Y-13735000D01*
D13*
X13910000Y-4500000D02*
G75*
G02*
X13590000Y-4500000I-160000J0D01*
G01*
X13590000Y-4500000D02*
G75*
G02*
X13910000Y-4500000I160000J0D01*
G01*
X13910000Y-14000000D02*
G75*
G02*
X13590000Y-14000000I-160000J0D01*
G01*
X13590000Y-14000000D02*
G75*
G02*
X13910000Y-14000000I160000J0D01*
G01*
X18410000Y-4500000D02*
G75*
G02*
X18090000Y-4500000I-160000J0D01*
G01*
X18090000Y-4500000D02*
G75*
G02*
X18410000Y-4500000I160000J0D01*
G01*
X18410000Y-14000000D02*
G75*
G02*
X18090000Y-14000000I-160000J0D01*
G01*
X18090000Y-14000000D02*
G75*
G02*
X18410000Y-14000000I160000J0D01*
G01*
D11*
X11335777Y-14716484D02*
X11335777Y-14516484D01*
X11335777Y-14516484D02*
X11383396Y-14516484D01*
X11383396Y-14516484D02*
X11411967Y-14526008D01*
X11411967Y-14526008D02*
X11431015Y-14545055D01*
X11431015Y-14545055D02*
X11440539Y-14564103D01*
X11440539Y-14564103D02*
X11450062Y-14602198D01*
X11450062Y-14602198D02*
X11450062Y-14630769D01*
X11450062Y-14630769D02*
X11440539Y-14668865D01*
X11440539Y-14668865D02*
X11431015Y-14687912D01*
X11431015Y-14687912D02*
X11411967Y-14706960D01*
X11411967Y-14706960D02*
X11383396Y-14716484D01*
X11383396Y-14716484D02*
X11335777Y-14716484D01*
X11535777Y-14716484D02*
X11535777Y-14583150D01*
X11535777Y-14621246D02*
X11545301Y-14602198D01*
X11545301Y-14602198D02*
X11554824Y-14592674D01*
X11554824Y-14592674D02*
X11573872Y-14583150D01*
X11573872Y-14583150D02*
X11592920Y-14583150D01*
X11659586Y-14716484D02*
X11659586Y-14583150D01*
X11659586Y-14516484D02*
X11650062Y-14526008D01*
X11650062Y-14526008D02*
X11659586Y-14535531D01*
X11659586Y-14535531D02*
X11669110Y-14526008D01*
X11669110Y-14526008D02*
X11659586Y-14516484D01*
X11659586Y-14516484D02*
X11659586Y-14535531D01*
X11783396Y-14716484D02*
X11764348Y-14706960D01*
X11764348Y-14706960D02*
X11754824Y-14687912D01*
X11754824Y-14687912D02*
X11754824Y-14516484D01*
X11888158Y-14716484D02*
X11869110Y-14706960D01*
X11869110Y-14706960D02*
X11859586Y-14687912D01*
X11859586Y-14687912D02*
X11859586Y-14516484D01*
X12116729Y-14716484D02*
X12116729Y-14516484D01*
X12116729Y-14516484D02*
X12183396Y-14659341D01*
X12183396Y-14659341D02*
X12250062Y-14516484D01*
X12250062Y-14516484D02*
X12250062Y-14716484D01*
X12431015Y-14716484D02*
X12431015Y-14611722D01*
X12431015Y-14611722D02*
X12421491Y-14592674D01*
X12421491Y-14592674D02*
X12402443Y-14583150D01*
X12402443Y-14583150D02*
X12364348Y-14583150D01*
X12364348Y-14583150D02*
X12345301Y-14592674D01*
X12431015Y-14706960D02*
X12411967Y-14716484D01*
X12411967Y-14716484D02*
X12364348Y-14716484D01*
X12364348Y-14716484D02*
X12345301Y-14706960D01*
X12345301Y-14706960D02*
X12335777Y-14687912D01*
X12335777Y-14687912D02*
X12335777Y-14668865D01*
X12335777Y-14668865D02*
X12345301Y-14649817D01*
X12345301Y-14649817D02*
X12364348Y-14640293D01*
X12364348Y-14640293D02*
X12411967Y-14640293D01*
X12411967Y-14640293D02*
X12431015Y-14630769D01*
X12526253Y-14583150D02*
X12526253Y-14783150D01*
X12526253Y-14592674D02*
X12545301Y-14583150D01*
X12545301Y-14583150D02*
X12583396Y-14583150D01*
X12583396Y-14583150D02*
X12602443Y-14592674D01*
X12602443Y-14592674D02*
X12611967Y-14602198D01*
X12611967Y-14602198D02*
X12621491Y-14621246D01*
X12621491Y-14621246D02*
X12621491Y-14678388D01*
X12621491Y-14678388D02*
X12611967Y-14697436D01*
X12611967Y-14697436D02*
X12602443Y-14706960D01*
X12602443Y-14706960D02*
X12583396Y-14716484D01*
X12583396Y-14716484D02*
X12545301Y-14716484D01*
X12545301Y-14716484D02*
X12526253Y-14706960D01*
X12707205Y-14697436D02*
X12716729Y-14706960D01*
X12716729Y-14706960D02*
X12707205Y-14716484D01*
X12707205Y-14716484D02*
X12697682Y-14706960D01*
X12697682Y-14706960D02*
X12707205Y-14697436D01*
X12707205Y-14697436D02*
X12707205Y-14716484D01*
X12707205Y-14592674D02*
X12716729Y-14602198D01*
X12716729Y-14602198D02*
X12707205Y-14611722D01*
X12707205Y-14611722D02*
X12697682Y-14602198D01*
X12697682Y-14602198D02*
X12707205Y-14592674D01*
X12707205Y-14592674D02*
X12707205Y-14611722D01*
D12*
X10955000Y-14985000D02*
X11075000Y-15105000D01*
X11075000Y-14985000D02*
X10955000Y-15105000D01*
D11*
X11440539Y-15136484D02*
X11326253Y-15136484D01*
X11383396Y-15136484D02*
X11383396Y-14936484D01*
X11383396Y-14936484D02*
X11364348Y-14965055D01*
X11364348Y-14965055D02*
X11345301Y-14984103D01*
X11345301Y-14984103D02*
X11326253Y-14993627D01*
X11526253Y-15117436D02*
X11535777Y-15126960D01*
X11535777Y-15126960D02*
X11526253Y-15136484D01*
X11526253Y-15136484D02*
X11516729Y-15126960D01*
X11516729Y-15126960D02*
X11526253Y-15117436D01*
X11526253Y-15117436D02*
X11526253Y-15136484D01*
X11611967Y-14955531D02*
X11621491Y-14946008D01*
X11621491Y-14946008D02*
X11640539Y-14936484D01*
X11640539Y-14936484D02*
X11688158Y-14936484D01*
X11688158Y-14936484D02*
X11707205Y-14946008D01*
X11707205Y-14946008D02*
X11716729Y-14955531D01*
X11716729Y-14955531D02*
X11726253Y-14974579D01*
X11726253Y-14974579D02*
X11726253Y-14993627D01*
X11726253Y-14993627D02*
X11716729Y-15022198D01*
X11716729Y-15022198D02*
X11602443Y-15136484D01*
X11602443Y-15136484D02*
X11726253Y-15136484D01*
X11850062Y-14936484D02*
X11869110Y-14936484D01*
X11869110Y-14936484D02*
X11888158Y-14946008D01*
X11888158Y-14946008D02*
X11897682Y-14955531D01*
X11897682Y-14955531D02*
X11907205Y-14974579D01*
X11907205Y-14974579D02*
X11916729Y-15012674D01*
X11916729Y-15012674D02*
X11916729Y-15060293D01*
X11916729Y-15060293D02*
X11907205Y-15098388D01*
X11907205Y-15098388D02*
X11897682Y-15117436D01*
X11897682Y-15117436D02*
X11888158Y-15126960D01*
X11888158Y-15126960D02*
X11869110Y-15136484D01*
X11869110Y-15136484D02*
X11850062Y-15136484D01*
X11850062Y-15136484D02*
X11831015Y-15126960D01*
X11831015Y-15126960D02*
X11821491Y-15117436D01*
X11821491Y-15117436D02*
X11811967Y-15098388D01*
X11811967Y-15098388D02*
X11802443Y-15060293D01*
X11802443Y-15060293D02*
X11802443Y-15012674D01*
X11802443Y-15012674D02*
X11811967Y-14974579D01*
X11811967Y-14974579D02*
X11821491Y-14955531D01*
X11821491Y-14955531D02*
X11831015Y-14946008D01*
X11831015Y-14946008D02*
X11850062Y-14936484D01*
X12040539Y-14936484D02*
X12059586Y-14936484D01*
X12059586Y-14936484D02*
X12078634Y-14946008D01*
X12078634Y-14946008D02*
X12088158Y-14955531D01*
X12088158Y-14955531D02*
X12097682Y-14974579D01*
X12097682Y-14974579D02*
X12107205Y-15012674D01*
X12107205Y-15012674D02*
X12107205Y-15060293D01*
X12107205Y-15060293D02*
X12097682Y-15098388D01*
X12097682Y-15098388D02*
X12088158Y-15117436D01*
X12088158Y-15117436D02*
X12078634Y-15126960D01*
X12078634Y-15126960D02*
X12059586Y-15136484D01*
X12059586Y-15136484D02*
X12040539Y-15136484D01*
X12040539Y-15136484D02*
X12021491Y-15126960D01*
X12021491Y-15126960D02*
X12011967Y-15117436D01*
X12011967Y-15117436D02*
X12002443Y-15098388D01*
X12002443Y-15098388D02*
X11992920Y-15060293D01*
X11992920Y-15060293D02*
X11992920Y-15012674D01*
X11992920Y-15012674D02*
X12002443Y-14974579D01*
X12002443Y-14974579D02*
X12011967Y-14955531D01*
X12011967Y-14955531D02*
X12021491Y-14946008D01*
X12021491Y-14946008D02*
X12040539Y-14936484D01*
X12192920Y-15136484D02*
X12192920Y-15003150D01*
X12192920Y-15022198D02*
X12202443Y-15012674D01*
X12202443Y-15012674D02*
X12221491Y-15003150D01*
X12221491Y-15003150D02*
X12250063Y-15003150D01*
X12250063Y-15003150D02*
X12269110Y-15012674D01*
X12269110Y-15012674D02*
X12278634Y-15031722D01*
X12278634Y-15031722D02*
X12278634Y-15136484D01*
X12278634Y-15031722D02*
X12288158Y-15012674D01*
X12288158Y-15012674D02*
X12307205Y-15003150D01*
X12307205Y-15003150D02*
X12335777Y-15003150D01*
X12335777Y-15003150D02*
X12354824Y-15012674D01*
X12354824Y-15012674D02*
X12364348Y-15031722D01*
X12364348Y-15031722D02*
X12364348Y-15136484D01*
X12459586Y-15136484D02*
X12459586Y-15003150D01*
X12459586Y-15022198D02*
X12469110Y-15012674D01*
X12469110Y-15012674D02*
X12488158Y-15003150D01*
X12488158Y-15003150D02*
X12516729Y-15003150D01*
X12516729Y-15003150D02*
X12535777Y-15012674D01*
X12535777Y-15012674D02*
X12545301Y-15031722D01*
X12545301Y-15031722D02*
X12545301Y-15136484D01*
X12545301Y-15031722D02*
X12554824Y-15012674D01*
X12554824Y-15012674D02*
X12573872Y-15003150D01*
X12573872Y-15003150D02*
X12602443Y-15003150D01*
X12602443Y-15003150D02*
X12621491Y-15012674D01*
X12621491Y-15012674D02*
X12631015Y-15031722D01*
X12631015Y-15031722D02*
X12631015Y-15136484D01*
X13021491Y-14926960D02*
X12850063Y-15184103D01*
X13278634Y-14936484D02*
X13297682Y-14936484D01*
X13297682Y-14936484D02*
X13316729Y-14946008D01*
X13316729Y-14946008D02*
X13326253Y-14955531D01*
X13326253Y-14955531D02*
X13335777Y-14974579D01*
X13335777Y-14974579D02*
X13345301Y-15012674D01*
X13345301Y-15012674D02*
X13345301Y-15060293D01*
X13345301Y-15060293D02*
X13335777Y-15098388D01*
X13335777Y-15098388D02*
X13326253Y-15117436D01*
X13326253Y-15117436D02*
X13316729Y-15126960D01*
X13316729Y-15126960D02*
X13297682Y-15136484D01*
X13297682Y-15136484D02*
X13278634Y-15136484D01*
X13278634Y-15136484D02*
X13259586Y-15126960D01*
X13259586Y-15126960D02*
X13250063Y-15117436D01*
X13250063Y-15117436D02*
X13240539Y-15098388D01*
X13240539Y-15098388D02*
X13231015Y-15060293D01*
X13231015Y-15060293D02*
X13231015Y-15012674D01*
X13231015Y-15012674D02*
X13240539Y-14974579D01*
X13240539Y-14974579D02*
X13250063Y-14955531D01*
X13250063Y-14955531D02*
X13259586Y-14946008D01*
X13259586Y-14946008D02*
X13278634Y-14936484D01*
X13431015Y-15117436D02*
X13440539Y-15126960D01*
X13440539Y-15126960D02*
X13431015Y-15136484D01*
X13431015Y-15136484D02*
X13421491Y-15126960D01*
X13421491Y-15126960D02*
X13431015Y-15117436D01*
X13431015Y-15117436D02*
X13431015Y-15136484D01*
X13564348Y-14936484D02*
X13583396Y-14936484D01*
X13583396Y-14936484D02*
X13602444Y-14946008D01*
X13602444Y-14946008D02*
X13611967Y-14955531D01*
X13611967Y-14955531D02*
X13621491Y-14974579D01*
X13621491Y-14974579D02*
X13631015Y-15012674D01*
X13631015Y-15012674D02*
X13631015Y-15060293D01*
X13631015Y-15060293D02*
X13621491Y-15098388D01*
X13621491Y-15098388D02*
X13611967Y-15117436D01*
X13611967Y-15117436D02*
X13602444Y-15126960D01*
X13602444Y-15126960D02*
X13583396Y-15136484D01*
X13583396Y-15136484D02*
X13564348Y-15136484D01*
X13564348Y-15136484D02*
X13545301Y-15126960D01*
X13545301Y-15126960D02*
X13535777Y-15117436D01*
X13535777Y-15117436D02*
X13526253Y-15098388D01*
X13526253Y-15098388D02*
X13516729Y-15060293D01*
X13516729Y-15060293D02*
X13516729Y-15012674D01*
X13516729Y-15012674D02*
X13526253Y-14974579D01*
X13526253Y-14974579D02*
X13535777Y-14955531D01*
X13535777Y-14955531D02*
X13545301Y-14946008D01*
X13545301Y-14946008D02*
X13564348Y-14936484D01*
X13802444Y-15003150D02*
X13802444Y-15136484D01*
X13754825Y-14926960D02*
X13707206Y-15069817D01*
X13707206Y-15069817D02*
X13831015Y-15069817D01*
X13888158Y-14936484D02*
X14021491Y-14936484D01*
X14021491Y-14936484D02*
X13935777Y-15136484D01*
X14088158Y-14955531D02*
X14097682Y-14946008D01*
X14097682Y-14946008D02*
X14116729Y-14936484D01*
X14116729Y-14936484D02*
X14164348Y-14936484D01*
X14164348Y-14936484D02*
X14183396Y-14946008D01*
X14183396Y-14946008D02*
X14192920Y-14955531D01*
X14192920Y-14955531D02*
X14202444Y-14974579D01*
X14202444Y-14974579D02*
X14202444Y-14993627D01*
X14202444Y-14993627D02*
X14192920Y-15022198D01*
X14192920Y-15022198D02*
X14078634Y-15136484D01*
X14078634Y-15136484D02*
X14202444Y-15136484D01*
X14278634Y-14936484D02*
X14278634Y-14974579D01*
X14354825Y-14936484D02*
X14354825Y-14974579D01*
X14650063Y-15212674D02*
X14640539Y-15203150D01*
X14640539Y-15203150D02*
X14621491Y-15174579D01*
X14621491Y-15174579D02*
X14611968Y-15155531D01*
X14611968Y-15155531D02*
X14602444Y-15126960D01*
X14602444Y-15126960D02*
X14592920Y-15079341D01*
X14592920Y-15079341D02*
X14592920Y-15041246D01*
X14592920Y-15041246D02*
X14602444Y-14993627D01*
X14602444Y-14993627D02*
X14611968Y-14965055D01*
X14611968Y-14965055D02*
X14621491Y-14946008D01*
X14621491Y-14946008D02*
X14640539Y-14917436D01*
X14640539Y-14917436D02*
X14650063Y-14907912D01*
X14716729Y-14955531D02*
X14726253Y-14946008D01*
X14726253Y-14946008D02*
X14745301Y-14936484D01*
X14745301Y-14936484D02*
X14792920Y-14936484D01*
X14792920Y-14936484D02*
X14811968Y-14946008D01*
X14811968Y-14946008D02*
X14821491Y-14955531D01*
X14821491Y-14955531D02*
X14831015Y-14974579D01*
X14831015Y-14974579D02*
X14831015Y-14993627D01*
X14831015Y-14993627D02*
X14821491Y-15022198D01*
X14821491Y-15022198D02*
X14707206Y-15136484D01*
X14707206Y-15136484D02*
X14831015Y-15136484D01*
X15069110Y-15136484D02*
X15069110Y-14936484D01*
X15154825Y-15136484D02*
X15154825Y-15031722D01*
X15154825Y-15031722D02*
X15145301Y-15012674D01*
X15145301Y-15012674D02*
X15126253Y-15003150D01*
X15126253Y-15003150D02*
X15097682Y-15003150D01*
X15097682Y-15003150D02*
X15078634Y-15012674D01*
X15078634Y-15012674D02*
X15069110Y-15022198D01*
X15278634Y-15136484D02*
X15259587Y-15126960D01*
X15259587Y-15126960D02*
X15250063Y-15117436D01*
X15250063Y-15117436D02*
X15240539Y-15098388D01*
X15240539Y-15098388D02*
X15240539Y-15041246D01*
X15240539Y-15041246D02*
X15250063Y-15022198D01*
X15250063Y-15022198D02*
X15259587Y-15012674D01*
X15259587Y-15012674D02*
X15278634Y-15003150D01*
X15278634Y-15003150D02*
X15307206Y-15003150D01*
X15307206Y-15003150D02*
X15326253Y-15012674D01*
X15326253Y-15012674D02*
X15335777Y-15022198D01*
X15335777Y-15022198D02*
X15345301Y-15041246D01*
X15345301Y-15041246D02*
X15345301Y-15098388D01*
X15345301Y-15098388D02*
X15335777Y-15117436D01*
X15335777Y-15117436D02*
X15326253Y-15126960D01*
X15326253Y-15126960D02*
X15307206Y-15136484D01*
X15307206Y-15136484D02*
X15278634Y-15136484D01*
X15459587Y-15136484D02*
X15440539Y-15126960D01*
X15440539Y-15126960D02*
X15431015Y-15107912D01*
X15431015Y-15107912D02*
X15431015Y-14936484D01*
X15611968Y-15126960D02*
X15592920Y-15136484D01*
X15592920Y-15136484D02*
X15554825Y-15136484D01*
X15554825Y-15136484D02*
X15535777Y-15126960D01*
X15535777Y-15126960D02*
X15526253Y-15107912D01*
X15526253Y-15107912D02*
X15526253Y-15031722D01*
X15526253Y-15031722D02*
X15535777Y-15012674D01*
X15535777Y-15012674D02*
X15554825Y-15003150D01*
X15554825Y-15003150D02*
X15592920Y-15003150D01*
X15592920Y-15003150D02*
X15611968Y-15012674D01*
X15611968Y-15012674D02*
X15621491Y-15031722D01*
X15621491Y-15031722D02*
X15621491Y-15050769D01*
X15621491Y-15050769D02*
X15526253Y-15069817D01*
X15697682Y-15126960D02*
X15716730Y-15136484D01*
X15716730Y-15136484D02*
X15754825Y-15136484D01*
X15754825Y-15136484D02*
X15773872Y-15126960D01*
X15773872Y-15126960D02*
X15783396Y-15107912D01*
X15783396Y-15107912D02*
X15783396Y-15098388D01*
X15783396Y-15098388D02*
X15773872Y-15079341D01*
X15773872Y-15079341D02*
X15754825Y-15069817D01*
X15754825Y-15069817D02*
X15726253Y-15069817D01*
X15726253Y-15069817D02*
X15707206Y-15060293D01*
X15707206Y-15060293D02*
X15697682Y-15041246D01*
X15697682Y-15041246D02*
X15697682Y-15031722D01*
X15697682Y-15031722D02*
X15707206Y-15012674D01*
X15707206Y-15012674D02*
X15726253Y-15003150D01*
X15726253Y-15003150D02*
X15754825Y-15003150D01*
X15754825Y-15003150D02*
X15773872Y-15012674D01*
X15850063Y-15212674D02*
X15859587Y-15203150D01*
X15859587Y-15203150D02*
X15878634Y-15174579D01*
X15878634Y-15174579D02*
X15888158Y-15155531D01*
X15888158Y-15155531D02*
X15897682Y-15126960D01*
X15897682Y-15126960D02*
X15907206Y-15079341D01*
X15907206Y-15079341D02*
X15907206Y-15041246D01*
X15907206Y-15041246D02*
X15897682Y-14993627D01*
X15897682Y-14993627D02*
X15888158Y-14965055D01*
X15888158Y-14965055D02*
X15878634Y-14946008D01*
X15878634Y-14946008D02*
X15859587Y-14917436D01*
X15859587Y-14917436D02*
X15850063Y-14907912D01*
X16211968Y-15212674D02*
X16202444Y-15203150D01*
X16202444Y-15203150D02*
X16183396Y-15174579D01*
X16183396Y-15174579D02*
X16173872Y-15155531D01*
X16173872Y-15155531D02*
X16164349Y-15126960D01*
X16164349Y-15126960D02*
X16154825Y-15079341D01*
X16154825Y-15079341D02*
X16154825Y-15041246D01*
X16154825Y-15041246D02*
X16164349Y-14993627D01*
X16164349Y-14993627D02*
X16173872Y-14965055D01*
X16173872Y-14965055D02*
X16183396Y-14946008D01*
X16183396Y-14946008D02*
X16202444Y-14917436D01*
X16202444Y-14917436D02*
X16211968Y-14907912D01*
X16288158Y-15003150D02*
X16288158Y-15136484D01*
X16288158Y-15022198D02*
X16297682Y-15012674D01*
X16297682Y-15012674D02*
X16316730Y-15003150D01*
X16316730Y-15003150D02*
X16345301Y-15003150D01*
X16345301Y-15003150D02*
X16364349Y-15012674D01*
X16364349Y-15012674D02*
X16373872Y-15031722D01*
X16373872Y-15031722D02*
X16373872Y-15136484D01*
X16497682Y-15136484D02*
X16478634Y-15126960D01*
X16478634Y-15126960D02*
X16469111Y-15117436D01*
X16469111Y-15117436D02*
X16459587Y-15098388D01*
X16459587Y-15098388D02*
X16459587Y-15041246D01*
X16459587Y-15041246D02*
X16469111Y-15022198D01*
X16469111Y-15022198D02*
X16478634Y-15012674D01*
X16478634Y-15012674D02*
X16497682Y-15003150D01*
X16497682Y-15003150D02*
X16526253Y-15003150D01*
X16526253Y-15003150D02*
X16545301Y-15012674D01*
X16545301Y-15012674D02*
X16554825Y-15022198D01*
X16554825Y-15022198D02*
X16564349Y-15041246D01*
X16564349Y-15041246D02*
X16564349Y-15098388D01*
X16564349Y-15098388D02*
X16554825Y-15117436D01*
X16554825Y-15117436D02*
X16545301Y-15126960D01*
X16545301Y-15126960D02*
X16526253Y-15136484D01*
X16526253Y-15136484D02*
X16497682Y-15136484D01*
X16621492Y-15003150D02*
X16697682Y-15003150D01*
X16650063Y-14936484D02*
X16650063Y-15107912D01*
X16650063Y-15107912D02*
X16659587Y-15126960D01*
X16659587Y-15126960D02*
X16678634Y-15136484D01*
X16678634Y-15136484D02*
X16697682Y-15136484D01*
X16916730Y-15003150D02*
X16916730Y-15203150D01*
X16916730Y-15012674D02*
X16935777Y-15003150D01*
X16935777Y-15003150D02*
X16973873Y-15003150D01*
X16973873Y-15003150D02*
X16992920Y-15012674D01*
X16992920Y-15012674D02*
X17002444Y-15022198D01*
X17002444Y-15022198D02*
X17011968Y-15041246D01*
X17011968Y-15041246D02*
X17011968Y-15098388D01*
X17011968Y-15098388D02*
X17002444Y-15117436D01*
X17002444Y-15117436D02*
X16992920Y-15126960D01*
X16992920Y-15126960D02*
X16973873Y-15136484D01*
X16973873Y-15136484D02*
X16935777Y-15136484D01*
X16935777Y-15136484D02*
X16916730Y-15126960D01*
X17126254Y-15136484D02*
X17107206Y-15126960D01*
X17107206Y-15126960D02*
X17097682Y-15107912D01*
X17097682Y-15107912D02*
X17097682Y-14936484D01*
X17288158Y-15136484D02*
X17288158Y-15031722D01*
X17288158Y-15031722D02*
X17278635Y-15012674D01*
X17278635Y-15012674D02*
X17259587Y-15003150D01*
X17259587Y-15003150D02*
X17221492Y-15003150D01*
X17221492Y-15003150D02*
X17202444Y-15012674D01*
X17288158Y-15126960D02*
X17269111Y-15136484D01*
X17269111Y-15136484D02*
X17221492Y-15136484D01*
X17221492Y-15136484D02*
X17202444Y-15126960D01*
X17202444Y-15126960D02*
X17192920Y-15107912D01*
X17192920Y-15107912D02*
X17192920Y-15088865D01*
X17192920Y-15088865D02*
X17202444Y-15069817D01*
X17202444Y-15069817D02*
X17221492Y-15060293D01*
X17221492Y-15060293D02*
X17269111Y-15060293D01*
X17269111Y-15060293D02*
X17288158Y-15050769D01*
X17354825Y-15003150D02*
X17431015Y-15003150D01*
X17383396Y-14936484D02*
X17383396Y-15107912D01*
X17383396Y-15107912D02*
X17392920Y-15126960D01*
X17392920Y-15126960D02*
X17411968Y-15136484D01*
X17411968Y-15136484D02*
X17431015Y-15136484D01*
X17573873Y-15126960D02*
X17554825Y-15136484D01*
X17554825Y-15136484D02*
X17516730Y-15136484D01*
X17516730Y-15136484D02*
X17497682Y-15126960D01*
X17497682Y-15126960D02*
X17488158Y-15107912D01*
X17488158Y-15107912D02*
X17488158Y-15031722D01*
X17488158Y-15031722D02*
X17497682Y-15012674D01*
X17497682Y-15012674D02*
X17516730Y-15003150D01*
X17516730Y-15003150D02*
X17554825Y-15003150D01*
X17554825Y-15003150D02*
X17573873Y-15012674D01*
X17573873Y-15012674D02*
X17583396Y-15031722D01*
X17583396Y-15031722D02*
X17583396Y-15050769D01*
X17583396Y-15050769D02*
X17488158Y-15069817D01*
X17754825Y-15136484D02*
X17754825Y-14936484D01*
X17754825Y-15126960D02*
X17735777Y-15136484D01*
X17735777Y-15136484D02*
X17697682Y-15136484D01*
X17697682Y-15136484D02*
X17678635Y-15126960D01*
X17678635Y-15126960D02*
X17669111Y-15117436D01*
X17669111Y-15117436D02*
X17659587Y-15098388D01*
X17659587Y-15098388D02*
X17659587Y-15041246D01*
X17659587Y-15041246D02*
X17669111Y-15022198D01*
X17669111Y-15022198D02*
X17678635Y-15012674D01*
X17678635Y-15012674D02*
X17697682Y-15003150D01*
X17697682Y-15003150D02*
X17735777Y-15003150D01*
X17735777Y-15003150D02*
X17754825Y-15012674D01*
X17831016Y-15212674D02*
X17840539Y-15203150D01*
X17840539Y-15203150D02*
X17859587Y-15174579D01*
X17859587Y-15174579D02*
X17869111Y-15155531D01*
X17869111Y-15155531D02*
X17878635Y-15126960D01*
X17878635Y-15126960D02*
X17888158Y-15079341D01*
X17888158Y-15079341D02*
X17888158Y-15041246D01*
X17888158Y-15041246D02*
X17878635Y-14993627D01*
X17878635Y-14993627D02*
X17869111Y-14965055D01*
X17869111Y-14965055D02*
X17859587Y-14946008D01*
X17859587Y-14946008D02*
X17840539Y-14917436D01*
X17840539Y-14917436D02*
X17831016Y-14907912D01*
X11075000Y-15309000D02*
G75*
G02*
X10875000Y-15309000I-100000J0D01*
G01*
X10875000Y-15309000D02*
G75*
G02*
X11075000Y-15309000I100000J0D01*
G01*
X11316729Y-15200484D02*
X11440539Y-15200484D01*
X11440539Y-15200484D02*
X11373872Y-15276674D01*
X11373872Y-15276674D02*
X11402443Y-15276674D01*
X11402443Y-15276674D02*
X11421491Y-15286198D01*
X11421491Y-15286198D02*
X11431015Y-15295722D01*
X11431015Y-15295722D02*
X11440539Y-15314769D01*
X11440539Y-15314769D02*
X11440539Y-15362388D01*
X11440539Y-15362388D02*
X11431015Y-15381436D01*
X11431015Y-15381436D02*
X11421491Y-15390960D01*
X11421491Y-15390960D02*
X11402443Y-15400484D01*
X11402443Y-15400484D02*
X11345301Y-15400484D01*
X11345301Y-15400484D02*
X11326253Y-15390960D01*
X11326253Y-15390960D02*
X11316729Y-15381436D01*
X11526253Y-15381436D02*
X11535777Y-15390960D01*
X11535777Y-15390960D02*
X11526253Y-15400484D01*
X11526253Y-15400484D02*
X11516729Y-15390960D01*
X11516729Y-15390960D02*
X11526253Y-15381436D01*
X11526253Y-15381436D02*
X11526253Y-15400484D01*
X11611967Y-15219531D02*
X11621491Y-15210008D01*
X11621491Y-15210008D02*
X11640539Y-15200484D01*
X11640539Y-15200484D02*
X11688158Y-15200484D01*
X11688158Y-15200484D02*
X11707205Y-15210008D01*
X11707205Y-15210008D02*
X11716729Y-15219531D01*
X11716729Y-15219531D02*
X11726253Y-15238579D01*
X11726253Y-15238579D02*
X11726253Y-15257627D01*
X11726253Y-15257627D02*
X11716729Y-15286198D01*
X11716729Y-15286198D02*
X11602443Y-15400484D01*
X11602443Y-15400484D02*
X11726253Y-15400484D01*
X11850062Y-15200484D02*
X11869110Y-15200484D01*
X11869110Y-15200484D02*
X11888158Y-15210008D01*
X11888158Y-15210008D02*
X11897682Y-15219531D01*
X11897682Y-15219531D02*
X11907205Y-15238579D01*
X11907205Y-15238579D02*
X11916729Y-15276674D01*
X11916729Y-15276674D02*
X11916729Y-15324293D01*
X11916729Y-15324293D02*
X11907205Y-15362388D01*
X11907205Y-15362388D02*
X11897682Y-15381436D01*
X11897682Y-15381436D02*
X11888158Y-15390960D01*
X11888158Y-15390960D02*
X11869110Y-15400484D01*
X11869110Y-15400484D02*
X11850062Y-15400484D01*
X11850062Y-15400484D02*
X11831015Y-15390960D01*
X11831015Y-15390960D02*
X11821491Y-15381436D01*
X11821491Y-15381436D02*
X11811967Y-15362388D01*
X11811967Y-15362388D02*
X11802443Y-15324293D01*
X11802443Y-15324293D02*
X11802443Y-15276674D01*
X11802443Y-15276674D02*
X11811967Y-15238579D01*
X11811967Y-15238579D02*
X11821491Y-15219531D01*
X11821491Y-15219531D02*
X11831015Y-15210008D01*
X11831015Y-15210008D02*
X11850062Y-15200484D01*
X12040539Y-15200484D02*
X12059586Y-15200484D01*
X12059586Y-15200484D02*
X12078634Y-15210008D01*
X12078634Y-15210008D02*
X12088158Y-15219531D01*
X12088158Y-15219531D02*
X12097682Y-15238579D01*
X12097682Y-15238579D02*
X12107205Y-15276674D01*
X12107205Y-15276674D02*
X12107205Y-15324293D01*
X12107205Y-15324293D02*
X12097682Y-15362388D01*
X12097682Y-15362388D02*
X12088158Y-15381436D01*
X12088158Y-15381436D02*
X12078634Y-15390960D01*
X12078634Y-15390960D02*
X12059586Y-15400484D01*
X12059586Y-15400484D02*
X12040539Y-15400484D01*
X12040539Y-15400484D02*
X12021491Y-15390960D01*
X12021491Y-15390960D02*
X12011967Y-15381436D01*
X12011967Y-15381436D02*
X12002443Y-15362388D01*
X12002443Y-15362388D02*
X11992920Y-15324293D01*
X11992920Y-15324293D02*
X11992920Y-15276674D01*
X11992920Y-15276674D02*
X12002443Y-15238579D01*
X12002443Y-15238579D02*
X12011967Y-15219531D01*
X12011967Y-15219531D02*
X12021491Y-15210008D01*
X12021491Y-15210008D02*
X12040539Y-15200484D01*
X12192920Y-15400484D02*
X12192920Y-15267150D01*
X12192920Y-15286198D02*
X12202443Y-15276674D01*
X12202443Y-15276674D02*
X12221491Y-15267150D01*
X12221491Y-15267150D02*
X12250063Y-15267150D01*
X12250063Y-15267150D02*
X12269110Y-15276674D01*
X12269110Y-15276674D02*
X12278634Y-15295722D01*
X12278634Y-15295722D02*
X12278634Y-15400484D01*
X12278634Y-15295722D02*
X12288158Y-15276674D01*
X12288158Y-15276674D02*
X12307205Y-15267150D01*
X12307205Y-15267150D02*
X12335777Y-15267150D01*
X12335777Y-15267150D02*
X12354824Y-15276674D01*
X12354824Y-15276674D02*
X12364348Y-15295722D01*
X12364348Y-15295722D02*
X12364348Y-15400484D01*
X12459586Y-15400484D02*
X12459586Y-15267150D01*
X12459586Y-15286198D02*
X12469110Y-15276674D01*
X12469110Y-15276674D02*
X12488158Y-15267150D01*
X12488158Y-15267150D02*
X12516729Y-15267150D01*
X12516729Y-15267150D02*
X12535777Y-15276674D01*
X12535777Y-15276674D02*
X12545301Y-15295722D01*
X12545301Y-15295722D02*
X12545301Y-15400484D01*
X12545301Y-15295722D02*
X12554824Y-15276674D01*
X12554824Y-15276674D02*
X12573872Y-15267150D01*
X12573872Y-15267150D02*
X12602443Y-15267150D01*
X12602443Y-15267150D02*
X12621491Y-15276674D01*
X12621491Y-15276674D02*
X12631015Y-15295722D01*
X12631015Y-15295722D02*
X12631015Y-15400484D01*
X13021491Y-15190960D02*
X12850063Y-15448103D01*
X13278634Y-15200484D02*
X13297682Y-15200484D01*
X13297682Y-15200484D02*
X13316729Y-15210008D01*
X13316729Y-15210008D02*
X13326253Y-15219531D01*
X13326253Y-15219531D02*
X13335777Y-15238579D01*
X13335777Y-15238579D02*
X13345301Y-15276674D01*
X13345301Y-15276674D02*
X13345301Y-15324293D01*
X13345301Y-15324293D02*
X13335777Y-15362388D01*
X13335777Y-15362388D02*
X13326253Y-15381436D01*
X13326253Y-15381436D02*
X13316729Y-15390960D01*
X13316729Y-15390960D02*
X13297682Y-15400484D01*
X13297682Y-15400484D02*
X13278634Y-15400484D01*
X13278634Y-15400484D02*
X13259586Y-15390960D01*
X13259586Y-15390960D02*
X13250063Y-15381436D01*
X13250063Y-15381436D02*
X13240539Y-15362388D01*
X13240539Y-15362388D02*
X13231015Y-15324293D01*
X13231015Y-15324293D02*
X13231015Y-15276674D01*
X13231015Y-15276674D02*
X13240539Y-15238579D01*
X13240539Y-15238579D02*
X13250063Y-15219531D01*
X13250063Y-15219531D02*
X13259586Y-15210008D01*
X13259586Y-15210008D02*
X13278634Y-15200484D01*
X13431015Y-15381436D02*
X13440539Y-15390960D01*
X13440539Y-15390960D02*
X13431015Y-15400484D01*
X13431015Y-15400484D02*
X13421491Y-15390960D01*
X13421491Y-15390960D02*
X13431015Y-15381436D01*
X13431015Y-15381436D02*
X13431015Y-15400484D01*
X13631015Y-15400484D02*
X13516729Y-15400484D01*
X13573872Y-15400484D02*
X13573872Y-15200484D01*
X13573872Y-15200484D02*
X13554825Y-15229055D01*
X13554825Y-15229055D02*
X13535777Y-15248103D01*
X13535777Y-15248103D02*
X13516729Y-15257627D01*
X13707206Y-15219531D02*
X13716729Y-15210008D01*
X13716729Y-15210008D02*
X13735777Y-15200484D01*
X13735777Y-15200484D02*
X13783396Y-15200484D01*
X13783396Y-15200484D02*
X13802444Y-15210008D01*
X13802444Y-15210008D02*
X13811967Y-15219531D01*
X13811967Y-15219531D02*
X13821491Y-15238579D01*
X13821491Y-15238579D02*
X13821491Y-15257627D01*
X13821491Y-15257627D02*
X13811967Y-15286198D01*
X13811967Y-15286198D02*
X13697682Y-15400484D01*
X13697682Y-15400484D02*
X13821491Y-15400484D01*
X13992920Y-15200484D02*
X13954825Y-15200484D01*
X13954825Y-15200484D02*
X13935777Y-15210008D01*
X13935777Y-15210008D02*
X13926253Y-15219531D01*
X13926253Y-15219531D02*
X13907206Y-15248103D01*
X13907206Y-15248103D02*
X13897682Y-15286198D01*
X13897682Y-15286198D02*
X13897682Y-15362388D01*
X13897682Y-15362388D02*
X13907206Y-15381436D01*
X13907206Y-15381436D02*
X13916729Y-15390960D01*
X13916729Y-15390960D02*
X13935777Y-15400484D01*
X13935777Y-15400484D02*
X13973872Y-15400484D01*
X13973872Y-15400484D02*
X13992920Y-15390960D01*
X13992920Y-15390960D02*
X14002444Y-15381436D01*
X14002444Y-15381436D02*
X14011967Y-15362388D01*
X14011967Y-15362388D02*
X14011967Y-15314769D01*
X14011967Y-15314769D02*
X14002444Y-15295722D01*
X14002444Y-15295722D02*
X13992920Y-15286198D01*
X13992920Y-15286198D02*
X13973872Y-15276674D01*
X13973872Y-15276674D02*
X13935777Y-15276674D01*
X13935777Y-15276674D02*
X13916729Y-15286198D01*
X13916729Y-15286198D02*
X13907206Y-15295722D01*
X13907206Y-15295722D02*
X13897682Y-15314769D01*
X14135777Y-15200484D02*
X14154825Y-15200484D01*
X14154825Y-15200484D02*
X14173872Y-15210008D01*
X14173872Y-15210008D02*
X14183396Y-15219531D01*
X14183396Y-15219531D02*
X14192920Y-15238579D01*
X14192920Y-15238579D02*
X14202444Y-15276674D01*
X14202444Y-15276674D02*
X14202444Y-15324293D01*
X14202444Y-15324293D02*
X14192920Y-15362388D01*
X14192920Y-15362388D02*
X14183396Y-15381436D01*
X14183396Y-15381436D02*
X14173872Y-15390960D01*
X14173872Y-15390960D02*
X14154825Y-15400484D01*
X14154825Y-15400484D02*
X14135777Y-15400484D01*
X14135777Y-15400484D02*
X14116729Y-15390960D01*
X14116729Y-15390960D02*
X14107206Y-15381436D01*
X14107206Y-15381436D02*
X14097682Y-15362388D01*
X14097682Y-15362388D02*
X14088158Y-15324293D01*
X14088158Y-15324293D02*
X14088158Y-15276674D01*
X14088158Y-15276674D02*
X14097682Y-15238579D01*
X14097682Y-15238579D02*
X14107206Y-15219531D01*
X14107206Y-15219531D02*
X14116729Y-15210008D01*
X14116729Y-15210008D02*
X14135777Y-15200484D01*
X14278634Y-15200484D02*
X14278634Y-15238579D01*
X14354825Y-15200484D02*
X14354825Y-15238579D01*
X14650063Y-15476674D02*
X14640539Y-15467150D01*
X14640539Y-15467150D02*
X14621491Y-15438579D01*
X14621491Y-15438579D02*
X14611968Y-15419531D01*
X14611968Y-15419531D02*
X14602444Y-15390960D01*
X14602444Y-15390960D02*
X14592920Y-15343341D01*
X14592920Y-15343341D02*
X14592920Y-15305246D01*
X14592920Y-15305246D02*
X14602444Y-15257627D01*
X14602444Y-15257627D02*
X14611968Y-15229055D01*
X14611968Y-15229055D02*
X14621491Y-15210008D01*
X14621491Y-15210008D02*
X14640539Y-15181436D01*
X14640539Y-15181436D02*
X14650063Y-15171912D01*
X14811968Y-15267150D02*
X14811968Y-15400484D01*
X14764348Y-15190960D02*
X14716729Y-15333817D01*
X14716729Y-15333817D02*
X14840539Y-15333817D01*
X15069110Y-15400484D02*
X15069110Y-15200484D01*
X15154825Y-15400484D02*
X15154825Y-15295722D01*
X15154825Y-15295722D02*
X15145301Y-15276674D01*
X15145301Y-15276674D02*
X15126253Y-15267150D01*
X15126253Y-15267150D02*
X15097682Y-15267150D01*
X15097682Y-15267150D02*
X15078634Y-15276674D01*
X15078634Y-15276674D02*
X15069110Y-15286198D01*
X15278634Y-15400484D02*
X15259587Y-15390960D01*
X15259587Y-15390960D02*
X15250063Y-15381436D01*
X15250063Y-15381436D02*
X15240539Y-15362388D01*
X15240539Y-15362388D02*
X15240539Y-15305246D01*
X15240539Y-15305246D02*
X15250063Y-15286198D01*
X15250063Y-15286198D02*
X15259587Y-15276674D01*
X15259587Y-15276674D02*
X15278634Y-15267150D01*
X15278634Y-15267150D02*
X15307206Y-15267150D01*
X15307206Y-15267150D02*
X15326253Y-15276674D01*
X15326253Y-15276674D02*
X15335777Y-15286198D01*
X15335777Y-15286198D02*
X15345301Y-15305246D01*
X15345301Y-15305246D02*
X15345301Y-15362388D01*
X15345301Y-15362388D02*
X15335777Y-15381436D01*
X15335777Y-15381436D02*
X15326253Y-15390960D01*
X15326253Y-15390960D02*
X15307206Y-15400484D01*
X15307206Y-15400484D02*
X15278634Y-15400484D01*
X15459587Y-15400484D02*
X15440539Y-15390960D01*
X15440539Y-15390960D02*
X15431015Y-15371912D01*
X15431015Y-15371912D02*
X15431015Y-15200484D01*
X15611968Y-15390960D02*
X15592920Y-15400484D01*
X15592920Y-15400484D02*
X15554825Y-15400484D01*
X15554825Y-15400484D02*
X15535777Y-15390960D01*
X15535777Y-15390960D02*
X15526253Y-15371912D01*
X15526253Y-15371912D02*
X15526253Y-15295722D01*
X15526253Y-15295722D02*
X15535777Y-15276674D01*
X15535777Y-15276674D02*
X15554825Y-15267150D01*
X15554825Y-15267150D02*
X15592920Y-15267150D01*
X15592920Y-15267150D02*
X15611968Y-15276674D01*
X15611968Y-15276674D02*
X15621491Y-15295722D01*
X15621491Y-15295722D02*
X15621491Y-15314769D01*
X15621491Y-15314769D02*
X15526253Y-15333817D01*
X15697682Y-15390960D02*
X15716730Y-15400484D01*
X15716730Y-15400484D02*
X15754825Y-15400484D01*
X15754825Y-15400484D02*
X15773872Y-15390960D01*
X15773872Y-15390960D02*
X15783396Y-15371912D01*
X15783396Y-15371912D02*
X15783396Y-15362388D01*
X15783396Y-15362388D02*
X15773872Y-15343341D01*
X15773872Y-15343341D02*
X15754825Y-15333817D01*
X15754825Y-15333817D02*
X15726253Y-15333817D01*
X15726253Y-15333817D02*
X15707206Y-15324293D01*
X15707206Y-15324293D02*
X15697682Y-15305246D01*
X15697682Y-15305246D02*
X15697682Y-15295722D01*
X15697682Y-15295722D02*
X15707206Y-15276674D01*
X15707206Y-15276674D02*
X15726253Y-15267150D01*
X15726253Y-15267150D02*
X15754825Y-15267150D01*
X15754825Y-15267150D02*
X15773872Y-15276674D01*
X15850063Y-15476674D02*
X15859587Y-15467150D01*
X15859587Y-15467150D02*
X15878634Y-15438579D01*
X15878634Y-15438579D02*
X15888158Y-15419531D01*
X15888158Y-15419531D02*
X15897682Y-15390960D01*
X15897682Y-15390960D02*
X15907206Y-15343341D01*
X15907206Y-15343341D02*
X15907206Y-15305246D01*
X15907206Y-15305246D02*
X15897682Y-15257627D01*
X15897682Y-15257627D02*
X15888158Y-15229055D01*
X15888158Y-15229055D02*
X15878634Y-15210008D01*
X15878634Y-15210008D02*
X15859587Y-15181436D01*
X15859587Y-15181436D02*
X15850063Y-15171912D01*
X16211968Y-15476674D02*
X16202444Y-15467150D01*
X16202444Y-15467150D02*
X16183396Y-15438579D01*
X16183396Y-15438579D02*
X16173872Y-15419531D01*
X16173872Y-15419531D02*
X16164349Y-15390960D01*
X16164349Y-15390960D02*
X16154825Y-15343341D01*
X16154825Y-15343341D02*
X16154825Y-15305246D01*
X16154825Y-15305246D02*
X16164349Y-15257627D01*
X16164349Y-15257627D02*
X16173872Y-15229055D01*
X16173872Y-15229055D02*
X16183396Y-15210008D01*
X16183396Y-15210008D02*
X16202444Y-15181436D01*
X16202444Y-15181436D02*
X16211968Y-15171912D01*
X16288158Y-15267150D02*
X16288158Y-15400484D01*
X16288158Y-15286198D02*
X16297682Y-15276674D01*
X16297682Y-15276674D02*
X16316730Y-15267150D01*
X16316730Y-15267150D02*
X16345301Y-15267150D01*
X16345301Y-15267150D02*
X16364349Y-15276674D01*
X16364349Y-15276674D02*
X16373872Y-15295722D01*
X16373872Y-15295722D02*
X16373872Y-15400484D01*
X16497682Y-15400484D02*
X16478634Y-15390960D01*
X16478634Y-15390960D02*
X16469111Y-15381436D01*
X16469111Y-15381436D02*
X16459587Y-15362388D01*
X16459587Y-15362388D02*
X16459587Y-15305246D01*
X16459587Y-15305246D02*
X16469111Y-15286198D01*
X16469111Y-15286198D02*
X16478634Y-15276674D01*
X16478634Y-15276674D02*
X16497682Y-15267150D01*
X16497682Y-15267150D02*
X16526253Y-15267150D01*
X16526253Y-15267150D02*
X16545301Y-15276674D01*
X16545301Y-15276674D02*
X16554825Y-15286198D01*
X16554825Y-15286198D02*
X16564349Y-15305246D01*
X16564349Y-15305246D02*
X16564349Y-15362388D01*
X16564349Y-15362388D02*
X16554825Y-15381436D01*
X16554825Y-15381436D02*
X16545301Y-15390960D01*
X16545301Y-15390960D02*
X16526253Y-15400484D01*
X16526253Y-15400484D02*
X16497682Y-15400484D01*
X16621492Y-15267150D02*
X16697682Y-15267150D01*
X16650063Y-15200484D02*
X16650063Y-15371912D01*
X16650063Y-15371912D02*
X16659587Y-15390960D01*
X16659587Y-15390960D02*
X16678634Y-15400484D01*
X16678634Y-15400484D02*
X16697682Y-15400484D01*
X16916730Y-15267150D02*
X16916730Y-15467150D01*
X16916730Y-15276674D02*
X16935777Y-15267150D01*
X16935777Y-15267150D02*
X16973873Y-15267150D01*
X16973873Y-15267150D02*
X16992920Y-15276674D01*
X16992920Y-15276674D02*
X17002444Y-15286198D01*
X17002444Y-15286198D02*
X17011968Y-15305246D01*
X17011968Y-15305246D02*
X17011968Y-15362388D01*
X17011968Y-15362388D02*
X17002444Y-15381436D01*
X17002444Y-15381436D02*
X16992920Y-15390960D01*
X16992920Y-15390960D02*
X16973873Y-15400484D01*
X16973873Y-15400484D02*
X16935777Y-15400484D01*
X16935777Y-15400484D02*
X16916730Y-15390960D01*
X17126254Y-15400484D02*
X17107206Y-15390960D01*
X17107206Y-15390960D02*
X17097682Y-15371912D01*
X17097682Y-15371912D02*
X17097682Y-15200484D01*
X17288158Y-15400484D02*
X17288158Y-15295722D01*
X17288158Y-15295722D02*
X17278635Y-15276674D01*
X17278635Y-15276674D02*
X17259587Y-15267150D01*
X17259587Y-15267150D02*
X17221492Y-15267150D01*
X17221492Y-15267150D02*
X17202444Y-15276674D01*
X17288158Y-15390960D02*
X17269111Y-15400484D01*
X17269111Y-15400484D02*
X17221492Y-15400484D01*
X17221492Y-15400484D02*
X17202444Y-15390960D01*
X17202444Y-15390960D02*
X17192920Y-15371912D01*
X17192920Y-15371912D02*
X17192920Y-15352865D01*
X17192920Y-15352865D02*
X17202444Y-15333817D01*
X17202444Y-15333817D02*
X17221492Y-15324293D01*
X17221492Y-15324293D02*
X17269111Y-15324293D01*
X17269111Y-15324293D02*
X17288158Y-15314769D01*
X17354825Y-15267150D02*
X17431015Y-15267150D01*
X17383396Y-15200484D02*
X17383396Y-15371912D01*
X17383396Y-15371912D02*
X17392920Y-15390960D01*
X17392920Y-15390960D02*
X17411968Y-15400484D01*
X17411968Y-15400484D02*
X17431015Y-15400484D01*
X17573873Y-15390960D02*
X17554825Y-15400484D01*
X17554825Y-15400484D02*
X17516730Y-15400484D01*
X17516730Y-15400484D02*
X17497682Y-15390960D01*
X17497682Y-15390960D02*
X17488158Y-15371912D01*
X17488158Y-15371912D02*
X17488158Y-15295722D01*
X17488158Y-15295722D02*
X17497682Y-15276674D01*
X17497682Y-15276674D02*
X17516730Y-15267150D01*
X17516730Y-15267150D02*
X17554825Y-15267150D01*
X17554825Y-15267150D02*
X17573873Y-15276674D01*
X17573873Y-15276674D02*
X17583396Y-15295722D01*
X17583396Y-15295722D02*
X17583396Y-15314769D01*
X17583396Y-15314769D02*
X17488158Y-15333817D01*
X17754825Y-15400484D02*
X17754825Y-15200484D01*
X17754825Y-15390960D02*
X17735777Y-15400484D01*
X17735777Y-15400484D02*
X17697682Y-15400484D01*
X17697682Y-15400484D02*
X17678635Y-15390960D01*
X17678635Y-15390960D02*
X17669111Y-15381436D01*
X17669111Y-15381436D02*
X17659587Y-15362388D01*
X17659587Y-15362388D02*
X17659587Y-15305246D01*
X17659587Y-15305246D02*
X17669111Y-15286198D01*
X17669111Y-15286198D02*
X17678635Y-15276674D01*
X17678635Y-15276674D02*
X17697682Y-15267150D01*
X17697682Y-15267150D02*
X17735777Y-15267150D01*
X17735777Y-15267150D02*
X17754825Y-15276674D01*
X17831016Y-15476674D02*
X17840539Y-15467150D01*
X17840539Y-15467150D02*
X17859587Y-15438579D01*
X17859587Y-15438579D02*
X17869111Y-15419531D01*
X17869111Y-15419531D02*
X17878635Y-15390960D01*
X17878635Y-15390960D02*
X17888158Y-15343341D01*
X17888158Y-15343341D02*
X17888158Y-15305246D01*
X17888158Y-15305246D02*
X17878635Y-15257627D01*
X17878635Y-15257627D02*
X17869111Y-15229055D01*
X17869111Y-15229055D02*
X17859587Y-15210008D01*
X17859587Y-15210008D02*
X17840539Y-15181436D01*
X17840539Y-15181436D02*
X17831016Y-15171912D01*
M02*
