G04 #@! TF.GenerationSoftware,KiCad,Pcbnew,9.0.0*
G04 #@! TF.CreationDate,2025-04-21T19:14:25+01:00*
G04 #@! TF.ProjectId,LED_Hub,4c45445f-4875-4622-9e6b-696361645f70,rev?*
G04 #@! TF.SameCoordinates,Original*
G04 #@! TF.FileFunction,Copper,L1,Top*
G04 #@! TF.FilePolarity,Positive*
%FSLAX46Y46*%
G04 Gerber Fmt 4.6, Leading zero omitted, Abs format (unit mm)*
G04 Created by KiCad (PCBNEW 9.0.0) date 2025-04-21 19:14:25*
%MOMM*%
%LPD*%
G01*
G04 APERTURE LIST*
G04 Aperture macros list*
%AMRoundRect*
0 Rectangle with rounded corners*
0 $1 Rounding radius*
0 $2 $3 $4 $5 $6 $7 $8 $9 X,Y pos of 4 corners*
0 Add a 4 corners polygon primitive as box body*
4,1,4,$2,$3,$4,$5,$6,$7,$8,$9,$2,$3,0*
0 Add four circle primitives for the rounded corners*
1,1,$1+$1,$2,$3*
1,1,$1+$1,$4,$5*
1,1,$1+$1,$6,$7*
1,1,$1+$1,$8,$9*
0 Add four rect primitives between the rounded corners*
20,1,$1+$1,$2,$3,$4,$5,0*
20,1,$1+$1,$4,$5,$6,$7,0*
20,1,$1+$1,$6,$7,$8,$9,0*
20,1,$1+$1,$8,$9,$2,$3,0*%
G04 Aperture macros list end*
G04 #@! TA.AperFunction,ComponentPad*
%ADD10C,2.800000*%
G04 #@! TD*
G04 #@! TA.AperFunction,ComponentPad*
%ADD11RoundRect,0.250001X-1.149999X1.149999X-1.149999X-1.149999X1.149999X-1.149999X1.149999X1.149999X0*%
G04 #@! TD*
G04 #@! TA.AperFunction,ComponentPad*
%ADD12RoundRect,0.250001X1.149999X-1.149999X1.149999X1.149999X-1.149999X1.149999X-1.149999X-1.149999X0*%
G04 #@! TD*
G04 #@! TA.AperFunction,SMDPad,CuDef*
%ADD13R,0.800000X0.500000*%
G04 #@! TD*
G04 #@! TA.AperFunction,SMDPad,CuDef*
%ADD14R,0.800000X0.400000*%
G04 #@! TD*
G04 #@! TA.AperFunction,ComponentPad*
%ADD15RoundRect,0.250000X-0.600000X-0.750000X0.600000X-0.750000X0.600000X0.750000X-0.600000X0.750000X0*%
G04 #@! TD*
G04 #@! TA.AperFunction,ComponentPad*
%ADD16O,1.700000X2.000000*%
G04 #@! TD*
G04 #@! TA.AperFunction,ComponentPad*
%ADD17R,1.530000X1.530000*%
G04 #@! TD*
G04 #@! TA.AperFunction,ComponentPad*
%ADD18C,1.530000*%
G04 #@! TD*
G04 #@! TA.AperFunction,ComponentPad*
%ADD19C,2.500000*%
G04 #@! TD*
G04 #@! TA.AperFunction,Conductor*
%ADD20C,0.200000*%
G04 #@! TD*
G04 #@! TA.AperFunction,Conductor*
%ADD21C,0.254000*%
G04 #@! TD*
G04 #@! TA.AperFunction,Conductor*
%ADD22C,0.508000*%
G04 #@! TD*
G04 APERTURE END LIST*
D10*
X191950000Y-136375000D03*
D11*
X191950000Y-131375000D03*
X191950000Y-119625000D03*
D10*
X191950000Y-124625000D03*
X126725000Y-95500000D03*
D12*
X126725000Y-100500000D03*
D10*
X126725000Y-107250000D03*
D12*
X126725000Y-112250000D03*
D13*
X138645000Y-94265000D03*
D14*
X138645000Y-93465000D03*
X138645000Y-92665000D03*
D13*
X138645000Y-91865000D03*
X140445000Y-91865000D03*
D14*
X140445000Y-92665000D03*
X140445000Y-93465000D03*
D13*
X140445000Y-94265000D03*
D10*
X117425000Y-136375000D03*
D11*
X117425000Y-131375000D03*
D10*
X201250000Y-95500000D03*
D12*
X201250000Y-100500000D03*
D10*
X201250000Y-83625000D03*
D12*
X201250000Y-88625000D03*
D10*
X191950000Y-77375000D03*
D11*
X191950000Y-72375000D03*
D10*
X191950000Y-89125000D03*
D11*
X191950000Y-84125000D03*
D10*
X201125000Y-130875000D03*
D12*
X201125000Y-135875000D03*
D13*
X140445000Y-64265000D03*
D14*
X140445000Y-63465000D03*
X140445000Y-62665000D03*
D13*
X140445000Y-61865000D03*
X138645000Y-61865000D03*
D14*
X138645000Y-62665000D03*
X138645000Y-63465000D03*
D13*
X138645000Y-64265000D03*
D11*
X117425000Y-60500000D03*
D10*
X117425000Y-65500000D03*
D11*
X191950000Y-96000000D03*
D10*
X191950000Y-101000000D03*
D15*
X157950000Y-134750000D03*
D16*
X160450000Y-134750000D03*
D11*
X117425000Y-48750000D03*
D10*
X117425000Y-53750000D03*
D17*
X144565000Y-52225000D03*
D18*
X144565000Y-54765000D03*
X144565000Y-57305000D03*
X144565000Y-59845000D03*
X144565000Y-62385000D03*
X144565000Y-64925000D03*
X144565000Y-67465000D03*
X144565000Y-70005000D03*
X144565000Y-72545000D03*
X144565000Y-75085000D03*
X144565000Y-77625000D03*
X144565000Y-80165000D03*
X144565000Y-82705000D03*
X144565000Y-85245000D03*
X144565000Y-87785000D03*
X144565000Y-90325000D03*
X144565000Y-92865000D03*
X144565000Y-95405000D03*
X144565000Y-97945000D03*
X144565000Y-100485000D03*
X144565000Y-103025000D03*
X144565000Y-105565000D03*
X169975000Y-52225000D03*
X169975000Y-54765000D03*
X169975000Y-57305000D03*
X169975000Y-59845000D03*
X169975000Y-62385000D03*
X169975000Y-64925000D03*
X169975000Y-67465000D03*
X169975000Y-70005000D03*
X169975000Y-72545000D03*
X169975000Y-75085000D03*
X169975000Y-77625000D03*
X169975000Y-80165000D03*
X169975000Y-82705000D03*
X169975000Y-85245000D03*
X169975000Y-87785000D03*
X169975000Y-90325000D03*
X169975000Y-92865000D03*
X169975000Y-95405000D03*
X169975000Y-97945000D03*
X169975000Y-100485000D03*
X169975000Y-103025000D03*
X169975000Y-105565000D03*
D12*
X126725000Y-65000000D03*
D10*
X126725000Y-60000000D03*
D13*
X176645000Y-71865000D03*
D14*
X176645000Y-72665000D03*
X176645000Y-73465000D03*
D13*
X176645000Y-74265000D03*
X178445000Y-74265000D03*
D14*
X178445000Y-73465000D03*
X178445000Y-72665000D03*
D13*
X178445000Y-71865000D03*
D12*
X201250000Y-65000000D03*
D10*
X201250000Y-60000000D03*
D12*
X126725000Y-88625000D03*
D10*
X126725000Y-83625000D03*
D12*
X201250000Y-76875000D03*
D10*
X201250000Y-71875000D03*
D13*
X176645000Y-61865000D03*
D14*
X176645000Y-62665000D03*
X176645000Y-63465000D03*
D13*
X176645000Y-64265000D03*
X178445000Y-64265000D03*
D14*
X178445000Y-63465000D03*
X178445000Y-62665000D03*
D13*
X178445000Y-61865000D03*
D12*
X126725000Y-53250000D03*
D10*
X126725000Y-48250000D03*
D13*
X140445000Y-84265000D03*
D14*
X140445000Y-83465000D03*
X140445000Y-82665000D03*
D13*
X140445000Y-81865000D03*
X138645000Y-81865000D03*
D14*
X138645000Y-82665000D03*
X138645000Y-83465000D03*
D13*
X138645000Y-84265000D03*
D12*
X126725000Y-76875000D03*
D10*
X126725000Y-71875000D03*
D11*
X117425000Y-107750000D03*
D10*
X117425000Y-112750000D03*
D11*
X191950000Y-107750000D03*
D10*
X191950000Y-112750000D03*
D13*
X140445000Y-74265000D03*
D14*
X140445000Y-73465000D03*
X140445000Y-72665000D03*
D13*
X140445000Y-71865000D03*
X138645000Y-71865000D03*
D14*
X138645000Y-72665000D03*
X138645000Y-73465000D03*
D13*
X138645000Y-74265000D03*
D12*
X201250000Y-53250000D03*
D10*
X201250000Y-48250000D03*
D11*
X191950000Y-48750000D03*
D10*
X191950000Y-53750000D03*
D13*
X176645000Y-81865000D03*
D14*
X176645000Y-82665000D03*
X176645000Y-83465000D03*
D13*
X176645000Y-84265000D03*
X178445000Y-84265000D03*
D14*
X178445000Y-83465000D03*
X178445000Y-82665000D03*
D13*
X178445000Y-81865000D03*
D11*
X191950000Y-60500000D03*
D10*
X191950000Y-65500000D03*
D19*
X157500000Y-119050000D03*
X157500000Y-128250000D03*
X142300000Y-119050000D03*
X142300000Y-128250000D03*
D11*
X117425000Y-119625000D03*
D10*
X117425000Y-124625000D03*
D15*
X149075000Y-134825000D03*
D16*
X151575000Y-134825000D03*
D13*
X176645000Y-91865000D03*
D14*
X176645000Y-92665000D03*
X176645000Y-93465000D03*
D13*
X176645000Y-94265000D03*
X178445000Y-94265000D03*
D14*
X178445000Y-93465000D03*
X178445000Y-92665000D03*
D13*
X178445000Y-91865000D03*
D11*
X117425000Y-84125000D03*
D10*
X117425000Y-89125000D03*
D11*
X117425000Y-96000000D03*
D10*
X117425000Y-101000000D03*
D11*
X117425000Y-72375000D03*
D10*
X117425000Y-77375000D03*
X201250000Y-119125000D03*
D12*
X201250000Y-124125000D03*
X201250000Y-112250000D03*
D10*
X201250000Y-107250000D03*
X126725000Y-119125000D03*
D12*
X126725000Y-124125000D03*
X126725000Y-135875000D03*
D10*
X126725000Y-130875000D03*
D20*
X141035000Y-64265000D02*
X140445000Y-64265000D01*
D21*
X121875000Y-92075000D02*
X120925000Y-93025000D01*
X122550000Y-117150000D02*
X123325000Y-116375000D01*
X134825000Y-112311936D02*
X134825000Y-112311933D01*
X134725000Y-126750000D02*
X134725000Y-112411934D01*
X128000000Y-133475000D02*
X134725000Y-126750000D01*
X134725000Y-112411934D02*
X134825000Y-112311936D01*
X120325000Y-133475000D02*
X128000000Y-133475000D01*
X117425000Y-136375000D02*
X120325000Y-133475000D01*
D22*
X156175000Y-132975000D02*
X157950000Y-134750000D01*
X150925000Y-132975000D02*
X156175000Y-132975000D01*
X149075000Y-134825000D02*
X150925000Y-132975000D01*
D21*
X134825000Y-111558064D02*
X134825000Y-111181130D01*
X134825000Y-98085000D02*
X138645000Y-94265000D01*
X134825000Y-111558065D02*
X134825000Y-111558064D01*
X134825000Y-111934999D02*
X134825000Y-111558065D01*
X134825001Y-111935001D02*
X134825000Y-111934999D01*
X134825000Y-112311932D02*
X134825001Y-111935001D01*
X134825000Y-112311933D02*
X134825000Y-112311932D01*
X134825000Y-112311933D02*
X134825000Y-112311934D01*
X134825000Y-111181130D02*
X134825000Y-98085000D01*
X134075000Y-123525000D02*
X126725000Y-130875000D01*
X134075000Y-112418467D02*
X134075000Y-123525000D01*
X134103467Y-112389999D02*
X134075000Y-112418467D01*
X134180000Y-112313467D02*
X134141733Y-112351734D01*
X134180000Y-112313468D02*
X134180000Y-112313467D01*
X134217823Y-112275643D02*
X134180000Y-112313466D01*
X134370000Y-112123467D02*
X134217823Y-112275643D01*
X134180000Y-112313466D02*
X134180000Y-112313468D01*
X134141733Y-112351734D02*
X134103467Y-112389999D01*
X134370000Y-111746532D02*
X134370000Y-111746531D01*
X134370000Y-112123466D02*
X134370000Y-112123467D01*
X134370000Y-112123465D02*
X134370000Y-112123466D01*
X134370000Y-111369597D02*
X134370000Y-111746532D01*
X134370000Y-97234000D02*
X134370000Y-111369597D01*
X138139000Y-93465000D02*
X134370000Y-97234000D01*
X134370000Y-111746532D02*
X134370000Y-112123465D01*
X138645000Y-93465000D02*
X138139000Y-93465000D01*
X133915000Y-96939000D02*
X138189000Y-92665000D01*
X133915000Y-111934999D02*
X133915000Y-111558064D01*
X133915000Y-111934999D02*
X133915000Y-111935000D01*
X133725000Y-112125000D02*
X133915000Y-111934999D01*
X129020000Y-116830000D02*
X133725000Y-112125000D01*
X138189000Y-92665000D02*
X138645000Y-92665000D01*
X126725000Y-119125000D02*
X129020000Y-116830000D01*
X133915000Y-111558064D02*
X133915000Y-96939000D01*
X122550000Y-117150000D02*
X122550000Y-119500000D01*
X128831532Y-116375000D02*
X123325000Y-116375000D01*
X133460000Y-96594000D02*
X133460000Y-111746532D01*
X133460000Y-111746532D02*
X128831532Y-116375000D01*
X138189000Y-91865000D02*
X133460000Y-96594000D01*
X122550000Y-119500000D02*
X117425000Y-124625000D01*
X138645000Y-91865000D02*
X138189000Y-91865000D01*
X120275000Y-109900000D02*
X117425000Y-112750000D01*
X133000000Y-106750000D02*
X129850000Y-109900000D01*
X133000000Y-101618467D02*
X133000000Y-106750000D01*
X129850000Y-109900000D02*
X120275000Y-109900000D01*
X133005000Y-101613468D02*
X133000000Y-101618467D01*
X138645000Y-84265000D02*
X137952500Y-84265000D01*
X137952500Y-84265000D02*
X133005000Y-89212500D01*
X133005000Y-89212500D02*
X133005000Y-101613468D01*
X137991000Y-82665000D02*
X138645000Y-82665000D01*
X126725000Y-93931000D02*
X137991000Y-82665000D01*
X126725000Y-95500000D02*
X126725000Y-93931000D01*
X120925000Y-93025000D02*
X120925000Y-97500000D01*
X120925000Y-97500000D02*
X117425000Y-101000000D01*
X137991000Y-81865000D02*
X127781000Y-92075000D01*
X127781000Y-92075000D02*
X121875000Y-92075000D01*
X138645000Y-81865000D02*
X137991000Y-81865000D01*
X138235000Y-73465000D02*
X138645000Y-73465000D01*
X137425000Y-76150000D02*
X137425000Y-74275000D01*
X137425000Y-74275000D02*
X138235000Y-73465000D01*
X126725000Y-83625000D02*
X129950000Y-83625000D01*
X129950000Y-83625000D02*
X137425000Y-76150000D01*
X120350000Y-86200000D02*
X117425000Y-89125000D01*
X128175000Y-86200000D02*
X120350000Y-86200000D01*
X138645000Y-75730000D02*
X128175000Y-86200000D01*
X138645000Y-74265000D02*
X138645000Y-75730000D01*
X132550000Y-71550000D02*
X129575000Y-74525000D01*
X120275000Y-74525000D02*
X117425000Y-77375000D01*
X138330000Y-71550000D02*
X132550000Y-71550000D01*
X129575000Y-74525000D02*
X120275000Y-74525000D01*
X138645000Y-71865000D02*
X138330000Y-71550000D01*
X127500000Y-71100000D02*
X126725000Y-71875000D01*
X129300294Y-71100000D02*
X127500000Y-71100000D01*
X129305294Y-71095000D02*
X129300294Y-71100000D01*
X129305295Y-71095000D02*
X129305294Y-71095000D01*
X129682230Y-71095000D02*
X129305295Y-71095000D01*
X138518467Y-71095000D02*
X138141532Y-71095000D01*
X138518467Y-71095000D02*
X138518468Y-71095000D01*
X139186000Y-71100000D02*
X138523468Y-71100000D01*
X139373000Y-71287000D02*
X139186000Y-71100000D01*
X138523468Y-71100000D02*
X138518467Y-71095000D01*
X138141532Y-71095000D02*
X129682230Y-71095000D01*
X139151000Y-72665000D02*
X139373000Y-72443000D01*
X138645000Y-72665000D02*
X139151000Y-72665000D01*
X139373000Y-72443000D02*
X139373000Y-71287000D01*
X137540000Y-64265000D02*
X136075000Y-62800000D01*
X138645000Y-64265000D02*
X137540000Y-64265000D01*
X136075000Y-62800000D02*
X120125000Y-62800000D01*
X120125000Y-62800000D02*
X117425000Y-65500000D01*
X129037500Y-62312500D02*
X136472500Y-62312500D01*
X136472500Y-62312500D02*
X137625000Y-63465000D01*
X129037500Y-62312500D02*
X126725000Y-60000000D01*
X138645000Y-63465000D02*
X137625000Y-63465000D01*
X138645000Y-60813468D02*
X138645000Y-61865000D01*
X120025000Y-56350000D02*
X134181532Y-56350000D01*
X117425000Y-53750000D02*
X120025000Y-56350000D01*
X134181532Y-56350000D02*
X138645000Y-60813468D01*
X139373000Y-60898000D02*
X126725000Y-48250000D01*
X139373000Y-62443000D02*
X139373000Y-60898000D01*
X139151000Y-62665000D02*
X139373000Y-62443000D01*
X138645000Y-62665000D02*
X139151000Y-62665000D01*
D20*
X186333900Y-127951000D02*
X186333900Y-130758900D01*
X186333900Y-130758900D02*
X191950000Y-136375000D01*
X177744000Y-93714000D02*
X177744000Y-119361100D01*
X177993000Y-93465000D02*
X177744000Y-93714000D01*
X178445000Y-93465000D02*
X177993000Y-93465000D01*
X177744000Y-119361100D02*
X186333900Y-127951000D01*
X198550000Y-127550000D02*
X201125000Y-130125000D01*
X201125000Y-130125000D02*
X201125000Y-130875000D01*
X186500000Y-127550000D02*
X198550000Y-127550000D01*
X178445000Y-94265000D02*
X178445000Y-119495000D01*
X178445000Y-119495000D02*
X186500000Y-127550000D01*
X190025000Y-124600000D02*
X191925000Y-124600000D01*
X191925000Y-124600000D02*
X191950000Y-124625000D01*
X181474000Y-116049000D02*
X190025000Y-124600000D01*
X181474000Y-94861100D02*
X181474000Y-116049000D01*
X178445000Y-92665000D02*
X179277900Y-92665000D01*
X179277900Y-92665000D02*
X181474000Y-94861100D01*
X179045000Y-91865000D02*
X178445000Y-91865000D01*
X181875000Y-94695000D02*
X179045000Y-91865000D01*
X188200000Y-117325000D02*
X181875000Y-111000000D01*
X196525000Y-119125000D02*
X194725000Y-117325000D01*
X194725000Y-117325000D02*
X188200000Y-117325000D01*
X181875000Y-111000000D02*
X181875000Y-94695000D01*
X201250000Y-119125000D02*
X196525000Y-119125000D01*
X187360000Y-53750000D02*
X191950000Y-53750000D01*
X179146000Y-61964000D02*
X187360000Y-53750000D01*
X179146000Y-62416000D02*
X179146000Y-61964000D01*
X178694000Y-62416000D02*
X179146000Y-62416000D01*
X178445000Y-62665000D02*
X178694000Y-62416000D01*
X188525000Y-63150000D02*
X198100000Y-63150000D01*
X186951000Y-64724000D02*
X188525000Y-63150000D01*
X178904000Y-64724000D02*
X186951000Y-64724000D01*
X198100000Y-63150000D02*
X201250000Y-60000000D01*
X178445000Y-64265000D02*
X178904000Y-64724000D01*
X177993000Y-63465000D02*
X178445000Y-63465000D01*
X177744000Y-63714000D02*
X177993000Y-63465000D01*
X177744000Y-64850000D02*
X177744000Y-63714000D01*
X178019000Y-65125000D02*
X177744000Y-64850000D01*
X191950000Y-65500000D02*
X191575000Y-65125000D01*
X191575000Y-65125000D02*
X178019000Y-65125000D01*
X189047100Y-92100000D02*
X197850000Y-92100000D01*
X178822100Y-81875000D02*
X189047100Y-92100000D01*
X197850000Y-92100000D02*
X201250000Y-95500000D01*
X178455000Y-81875000D02*
X178822100Y-81875000D01*
X178445000Y-81865000D02*
X178455000Y-81875000D01*
X178445000Y-77032798D02*
X187762202Y-86350000D01*
X187762202Y-86350000D02*
X198525000Y-86350000D01*
X198525000Y-86350000D02*
X201250000Y-83625000D01*
X178445000Y-74265000D02*
X178445000Y-77032798D01*
X178979900Y-72665000D02*
X178445000Y-72665000D01*
X179312100Y-72665000D02*
X178979900Y-72665000D01*
X181432800Y-72665000D02*
X179312100Y-72665000D01*
X181999900Y-72899900D02*
X181765000Y-72665000D01*
X181765000Y-72665000D02*
X181432800Y-72665000D01*
X183666100Y-74566100D02*
X181999900Y-72899900D01*
X183901000Y-74801000D02*
X183666100Y-74566100D01*
X184233200Y-74801000D02*
X183901000Y-74801000D01*
X189376000Y-74801000D02*
X184233200Y-74801000D01*
X191950000Y-77375000D02*
X189376000Y-74801000D01*
X198725000Y-74400000D02*
X201250000Y-71875000D01*
X181598900Y-72264000D02*
X181931100Y-72264000D01*
X181931100Y-72264000D02*
X182166000Y-72498900D01*
X179146000Y-72264000D02*
X181598900Y-72264000D01*
X182166000Y-72498900D02*
X184067100Y-74400000D01*
X184067100Y-74400000D02*
X198725000Y-74400000D01*
X178744000Y-72164000D02*
X179146000Y-72164000D01*
X179146000Y-72164000D02*
X179146000Y-72264000D01*
X178445000Y-71865000D02*
X178744000Y-72164000D01*
X196600000Y-102600000D02*
X201250000Y-107250000D01*
X196600000Y-95325000D02*
X196600000Y-102600000D01*
X193776000Y-92501000D02*
X196600000Y-95325000D01*
X188646100Y-92266100D02*
X188655000Y-92275000D01*
X179279900Y-82899900D02*
X188646100Y-92266100D01*
X179045000Y-82665000D02*
X179279900Y-82899900D01*
X188881000Y-92501000D02*
X189213200Y-92501000D01*
X178979900Y-82665000D02*
X179045000Y-82665000D01*
X189213200Y-92501000D02*
X193776000Y-92501000D01*
X178445000Y-82665000D02*
X178979900Y-82665000D01*
X188655000Y-92275000D02*
X188881000Y-92501000D01*
X177993000Y-83465000D02*
X177744000Y-83714000D01*
X178445000Y-83465000D02*
X177993000Y-83465000D01*
X188600000Y-109400000D02*
X191950000Y-112750000D01*
X188600000Y-98217100D02*
X188600000Y-109400000D01*
X177744000Y-83714000D02*
X177744000Y-87361100D01*
X177744000Y-87361100D02*
X188600000Y-98217100D01*
X178445000Y-87495000D02*
X191950000Y-101000000D01*
X178445000Y-84265000D02*
X178445000Y-87495000D01*
X177993000Y-73465000D02*
X178445000Y-73465000D01*
X177575000Y-76729898D02*
X177575000Y-73883000D01*
X189970102Y-89125000D02*
X177575000Y-76729898D01*
X191950000Y-89125000D02*
X189970102Y-89125000D01*
X177575000Y-73883000D02*
X177993000Y-73465000D01*
X198225000Y-51275000D02*
X201250000Y-48250000D01*
X178445000Y-61865000D02*
X189035000Y-51275000D01*
X201238840Y-83625000D02*
X201250000Y-83625000D01*
X140445000Y-62665000D02*
X143955000Y-62665000D01*
X143955000Y-62665000D02*
X144235000Y-62385000D01*
X142775000Y-63465000D02*
X144235000Y-64925000D01*
X140445000Y-63465000D02*
X142775000Y-63465000D01*
X144235000Y-59845000D02*
X142465000Y-59845000D01*
X142465000Y-59845000D02*
X140445000Y-61865000D01*
X141035000Y-64265000D02*
X144235000Y-67465000D01*
X140555000Y-94265000D02*
X144235000Y-97945000D01*
X140445000Y-93465000D02*
X142295000Y-93465000D01*
X142295000Y-93465000D02*
X144235000Y-95405000D01*
X144035000Y-92665000D02*
X144235000Y-92865000D01*
X140445000Y-92665000D02*
X144035000Y-92665000D01*
X144115000Y-72665000D02*
X144235000Y-72545000D01*
X140445000Y-72665000D02*
X144115000Y-72665000D01*
X144235000Y-70005000D02*
X142305000Y-70005000D01*
X142305000Y-70005000D02*
X140445000Y-71865000D01*
X140445000Y-73465000D02*
X142615000Y-73465000D01*
X142615000Y-73465000D02*
X144235000Y-75085000D01*
X170255000Y-62665000D02*
X176645000Y-62665000D01*
X169975000Y-62385000D02*
X170255000Y-62665000D01*
X170795000Y-74265000D02*
X176645000Y-74265000D01*
X169975000Y-75085000D02*
X170795000Y-74265000D01*
X175595000Y-82665000D02*
X173095000Y-80165000D01*
X176645000Y-82665000D02*
X175595000Y-82665000D01*
X173095000Y-80165000D02*
X169975000Y-80165000D01*
X170735000Y-83465000D02*
X176645000Y-83465000D01*
X169975000Y-82705000D02*
X170735000Y-83465000D01*
X169975000Y-77625000D02*
X172405000Y-77625000D01*
X172405000Y-77625000D02*
X176645000Y-81865000D01*
X144235000Y-80165000D02*
X142145000Y-80165000D01*
X142145000Y-80165000D02*
X140445000Y-81865000D01*
X174625000Y-59845000D02*
X176645000Y-61865000D01*
X169975000Y-59845000D02*
X174625000Y-59845000D01*
X140875000Y-74265000D02*
X144235000Y-77625000D01*
X157570000Y-76740000D02*
X168045000Y-66265000D01*
X168045000Y-66265000D02*
X172245000Y-66265000D01*
X174245000Y-64265000D02*
X176645000Y-64265000D01*
X144565000Y-100485000D02*
X157570000Y-87480000D01*
X172245000Y-66265000D02*
X174245000Y-64265000D01*
X157570000Y-87480000D02*
X157570000Y-76740000D01*
X171435000Y-63465000D02*
X176645000Y-63465000D01*
X169975000Y-64925000D02*
X171435000Y-63465000D01*
X144235000Y-90325000D02*
X141985000Y-90325000D01*
X141985000Y-90325000D02*
X140445000Y-91865000D01*
X142455000Y-83465000D02*
X144235000Y-85245000D01*
X140445000Y-83465000D02*
X142455000Y-83465000D01*
X144195000Y-82665000D02*
X144235000Y-82705000D01*
X140445000Y-82665000D02*
X144195000Y-82665000D01*
X140715000Y-84265000D02*
X144235000Y-87785000D01*
X176645000Y-94265000D02*
X171115000Y-94265000D01*
X171115000Y-94265000D02*
X169975000Y-95405000D01*
X169975000Y-67465000D02*
X172245000Y-67465000D01*
X172245000Y-67465000D02*
X176645000Y-71865000D01*
X169975000Y-72545000D02*
X170895000Y-73465000D01*
X170895000Y-73465000D02*
X176645000Y-73465000D01*
X169975000Y-87785000D02*
X172565000Y-87785000D01*
X172565000Y-87785000D02*
X176645000Y-91865000D01*
X175595000Y-92665000D02*
X173255000Y-90325000D01*
X173255000Y-90325000D02*
X169975000Y-90325000D01*
X176645000Y-92665000D02*
X175595000Y-92665000D01*
X169975000Y-92865000D02*
X170575000Y-93465000D01*
X170575000Y-93465000D02*
X176645000Y-93465000D01*
X170955000Y-84265000D02*
X169975000Y-85245000D01*
X176645000Y-84265000D02*
X170955000Y-84265000D01*
X172385000Y-70005000D02*
X169975000Y-70005000D01*
X175045000Y-72665000D02*
X172385000Y-70005000D01*
X176645000Y-72665000D02*
X175045000Y-72665000D01*
D21*
X138645000Y-83465000D02*
X137991000Y-83465000D01*
X137991000Y-83465000D02*
X132550000Y-88906000D01*
X132550000Y-88906000D02*
X132550000Y-101425000D01*
X132550000Y-101425000D02*
X126725000Y-107250000D01*
D20*
X189035000Y-51275000D02*
X198225000Y-51275000D01*
M02*
